<?xml version="1.0" encoding="UTF-8"?>
<svg version="1.1" xmlns="http://www.w3.org/2000/svg" width="410" height="401">
<path d="M0 0 C135.3 0 270.6 0 410 0 C410 132.33 410 264.66 410 401 C274.7 401 139.4 401 0 401 C0 268.67 0 136.34 0 0 Z " fill="#5F39A2" transform="translate(0,0)"/>
<path d="M0 0 C135.3 0 270.6 0 410 0 C410 41.38888889 410 41.38888889 409.5 59.25 C409.335 65.4375 409.17 71.625 409 78 C396.46 78 383.92 78 371 78 C371 64.14 371 50.28 371 36 C357.8 36 344.6 36 331 36 C331 49.86 331 63.72 331 78 C317.8 78 304.6 78 291 78 C291 91.86 291 105.72 291 120 C277.47 120 263.94 120 250 120 C250 133.86 250 147.72 250 162 C237.13 162 224.26 162 211 162 C211 148.14 211 134.28 211 120 C197.8 120 184.6 120 171 120 C171 106.47 171 92.94 171 79 C183.87 79 196.74 79 210 79 C210 64.81 210 50.62 210 36 C196.8 36 183.6 36 170 36 C170 49.86 170 63.72 170 78 C154.16 78 138.32 78 122 78 C122 91.86 122 105.72 122 120 C108.14 120 94.28 120 80 120 C80 133.86 80 147.72 80 162 C66.47 162 52.94 162 39 162 C39 148.14 39 134.28 39 120 C26.13 120 13.26 120 0 120 C0 80.4 0 40.8 0 0 Z " fill="#7D028C" transform="translate(0,0)"/>
<path d="M0 0 C13.53 0 27.06 0 41 0 C41 14.19 41 28.38 41 43 C54.86 43 68.72 43 83 43 C83 28.81 83 14.62 83 0 C98.84 0 114.68 0 131 0 C131.33 14.19 131.66 28.38 132 43 C145.2 43 158.4 43 172 43 C172 28.81 172 14.62 172 0 C184.87 0 197.74 0 211 0 C211 14.19 211 28.38 211 43 C224.53 43 238.06 43 252 43 C252 28.81 252 14.62 252 0 C265.2 0 278.4 0 292 0 C292 14.19 292 28.38 292 43 C304.87 43 317.74 43 331 43 C331 29.14 331 15.28 331 1 C344.2 1 357.4 1 371 1 C371 36.97 371 72.94 371 110 C235.7 110 100.4 110 -39 110 C-39 87.89 -39 65.78 -39 43 C-26.13 43 -13.26 43 0 43 C0 28.81 0 14.62 0 0 Z " fill="#14368C" transform="translate(39,291)"/>
<path d="M0 0 C13.2 0 26.4 0 40 0 C40 14.19 40 28.38 40 43 C27.13 43 14.26 43 1 43 C1 56.53 1 70.06 1 84 C14.2 84 27.4 84 41 84 C41 97.86 41 111.72 41 126 C53.87 126 66.74 126 80 126 C80 112.14 80 98.28 80 84 C93.53 84 107.06 84 121 84 C121 97.86 121 111.72 121 126 C134.2 126 147.4 126 161 126 C161 112.14 161 98.28 161 84 C173.87 84 186.74 84 200 84 C200 98.19 200 112.38 200 127 C187.13 127 174.26 127 161 127 C161 140.86 161 154.72 161 169 C147.8 169 134.6 169 121 169 C121 155.14 121 141.28 121 127 C107.47 127 93.94 127 80 127 C80 140.86 80 154.72 80 169 C67.13 169 54.26 169 41 169 C41 155.14 41 141.28 41 127 C27.47 127 13.94 127 0 127 C0 140.86 0 154.72 0 169 C-15.84 169 -31.68 169 -48 169 C-48 155.14 -48 141.28 -48 127 C-61.86 127 -75.72 127 -90 127 C-90 140.86 -90 154.72 -90 169 C-103.53 169 -117.06 169 -131 169 C-131 155.14 -131 141.28 -131 127 C-143.87 127 -156.74 127 -170 127 C-170 112.81 -170 98.62 -170 84 C-157.13 84 -144.26 84 -131 84 C-131 97.86 -131 111.72 -131 126 C-117.47 126 -103.94 126 -90 126 C-90 112.14 -90 98.28 -90 84 C-76.14 84 -62.28 84 -48 84 C-48 70.14 -48 56.28 -48 42 C-32.16 42 -16.32 42 0 42 C0 28.14 0 14.28 0 0 Z " fill="#B98FCF" transform="translate(170,36)"/>
<path d="M0 0 C56.1 0 112.2 0 170 0 C170 25.74 170 51.48 170 78 C154.16 78 138.32 78 122 78 C122 91.86 122 105.72 122 120 C108.14 120 94.28 120 80 120 C80 133.86 80 147.72 80 162 C66.47 162 52.94 162 39 162 C39 148.14 39 134.28 39 120 C26.13 120 13.26 120 0 120 C0 80.4 0 40.8 0 0 Z " fill="#80028C" transform="translate(0,0)"/>
<path d="M0 0 C13.2 0 26.4 0 40 0 C40 35.97 40 71.94 40 109 C0.73 109 -38.54 109 -79 109 C-79 99.1 -79 89.2 -79 79 C-65.8 79 -52.6 79 -39 79 C-39 66.79 -39 54.58 -39 42 C-26.13 42 -13.26 42 0 42 C0 28.14 0 14.28 0 0 Z " fill="#040F5F" transform="translate(370,292)"/>
<path d="M0 0 C39.27 0 78.54 0 119 0 C119 41.38888889 119 41.38888889 118.5 59.25 C118.335 65.4375 118.17 71.625 118 78 C105.46 78 92.92 78 80 78 C80 64.14 80 50.28 80 36 C66.8 36 53.6 36 40 36 C40 49.86 40 63.72 40 78 C26.8 78 13.6 78 0 78 C0 52.26 0 26.52 0 0 Z " fill="#FC01BA" transform="translate(291,0)"/>
<path d="M0 0 C3.3 0 6.6 0 10 0 C10 14.19 10 28.38 10 43 C-3.2 43 -16.4 43 -30 43 C-30 56.86 -30 70.72 -30 85 C-42.87 85 -55.74 85 -69 85 C-69 70.81 -69 56.62 -69 42 C-82.2 42 -95.4 42 -109 42 C-109 56.19 -109 70.38 -109 85 C-122.53 85 -136.06 85 -150 85 C-150 70.48 -150 55.96 -150 41 C-136.47 41 -122.94 41 -109 41 C-109 37.04 -109 33.08 -109 29 C-108.67 29 -108.34 29 -108 29 C-108 32.96 -108 36.92 -108 41 C-81.93 41 -55.86 41 -29 41 C-29 37.37 -29 33.74 -29 30 C-19.43 30 -9.86 30 0 30 C0 20.1 0 10.2 0 0 Z " fill="#6655BC" transform="translate(400,249)"/>
<path d="M0 0 C13.2 0 26.4 0 40 0 C40 21.45 40 42.9 40 65 C14.26 65 -11.48 65 -38 65 C-38 54.77 -38 44.54 -38 34 C-25.46 34 -12.92 34 0 34 C0 22.78 0 11.56 0 0 Z " fill="#C6C6F8" transform="translate(370,336)"/>
<path d="M0 0 C15.84 0 31.68 0 48 0 C48.33 14.19 48.66 28.38 49 43 C62.2 43 75.4 43 89 43 C89 54.88 89 66.76 89 79 C75.47 79 61.94 79 48 79 C48 67.12 48 55.24 48 43 C32.16 43 16.32 43 0 43 C0 28.81 0 14.62 0 0 Z " fill="#0E0B68" transform="translate(122,291)"/>
<path d="M0 0 C12.87 0 25.74 0 39 0 C39 27.72 39 55.44 39 84 C26.13 84 13.26 84 0 84 C0 56.28 0 28.56 0 0 Z " fill="#F3DDFA" transform="translate(0,163)"/>
<path d="M0 0 C15.84 0 31.68 0 48 0 C48 13.86 48 27.72 48 42 C32.16 42 16.32 42 0 42 C0 28.14 0 14.28 0 0 Z " fill="#2B0068" transform="translate(122,205)"/>
<path d="M0 0 C15.84 0 31.68 0 48 0 C48 13.86 48 27.72 48 42 C32.16 42 16.32 42 0 42 C0 28.14 0 14.28 0 0 Z " fill="#FBE3FB" transform="translate(122,163)"/>
<path d="M0 0 C15.84 0 31.68 0 48 0 C48 13.86 48 27.72 48 42 C32.16 42 16.32 42 0 42 C0 28.14 0 14.28 0 0 Z " fill="#3E0072" transform="translate(122,120)"/>
<path d="M0 0 C15.84 0 31.68 0 48 0 C48 13.86 48 27.72 48 42 C32.16 42 16.32 42 0 42 C0 28.14 0 14.28 0 0 Z " fill="#630084" transform="translate(122,36)"/>
<path d="M0 0 C13.53 0 27.06 0 41 0 C41 14.52 41 29.04 41 44 C27.47 44 13.94 44 0 44 C0 29.48 0 14.96 0 0 Z " fill="#6454EB" transform="translate(80,290)"/>
<path d="M0 0 C13.86 0 27.72 0 42 0 C42 13.86 42 27.72 42 42 C28.14 42 14.28 42 0 42 C0 28.14 0 14.28 0 0 Z " fill="#210165" transform="translate(80,248)"/>
<path d="M0 0 C13.86 0 27.72 0 42 0 C42 13.86 42 27.72 42 42 C28.14 42 14.28 42 0 42 C0 28.14 0 14.28 0 0 Z " fill="#35006C" transform="translate(80,163)"/>
<path d="M0 0 C13.86 0 27.72 0 42 0 C42 13.86 42 27.72 42 42 C28.14 42 14.28 42 0 42 C0 28.14 0 14.28 0 0 Z " fill="#4E017B" transform="translate(80,78)"/>
<path d="M0 0 C13.86 0 27.72 0 42 0 C42 13.86 42 27.72 42 42 C28.14 42 14.28 42 0 42 C0 28.14 0 14.28 0 0 Z " fill="#FDF7FC" transform="translate(80,36)"/>
<path d="M0 0 C13.53 0 27.06 0 41 0 C41 14.19 41 28.38 41 43 C27.47 43 13.94 43 0 43 C0 28.81 0 14.62 0 0 Z " fill="#0E0965" transform="translate(39,291)"/>
<path d="M0 0 C15.84 0 31.68 0 48 0 C48 11.88 48 23.76 48 36 C32.16 36 16.32 36 0 36 C0 24.12 0 12.24 0 0 Z " fill="#FB05C0" transform="translate(122,0)"/>
<path d="M0 0 C13.53 0 27.06 0 41 0 C41 13.86 41 27.72 41 42 C27.47 42 13.94 42 0 42 C0 28.14 0 14.28 0 0 Z " fill="#1E0263" transform="translate(250,248)"/>
<path d="M0 0 C13.53 0 27.06 0 41 0 C41 13.86 41 27.72 41 42 C27.47 42 13.94 42 0 42 C0 28.14 0 14.28 0 0 Z " fill="#300069" transform="translate(250,163)"/>
<path d="M0 0 C13.53 0 27.06 0 41 0 C41 13.86 41 27.72 41 42 C27.47 42 13.94 42 0 42 C0 28.14 0 14.28 0 0 Z " fill="#3C0171" transform="translate(39,120)"/>
<path d="M0 0 C13.53 0 27.06 0 41 0 C41 13.86 41 27.72 41 42 C27.47 42 13.94 42 0 42 C0 28.14 0 14.28 0 0 Z " fill="#450176" transform="translate(250,78)"/>
<path d="M0 0 C13.53 0 27.06 0 41 0 C41 13.86 41 27.72 41 42 C27.47 42 13.94 42 0 42 C0 28.14 0 14.28 0 0 Z " fill="#E781F5" transform="translate(250,36)"/>
<path d="M0 0 C13.2 0 26.4 0 40 0 C40 14.19 40 28.38 40 43 C26.8 43 13.6 43 0 43 C0 28.81 0 14.62 0 0 Z " fill="#090A61" transform="translate(291,291)"/>
<path d="M0 0 C13.2 0 26.4 0 40 0 C40 13.86 40 27.72 40 42 C26.8 42 13.6 42 0 42 C0 28.14 0 14.28 0 0 Z " fill="#260064" transform="translate(291,205)"/>
<path d="M0 0 C13.2 0 26.4 0 40 0 C40 13.86 40 27.72 40 42 C26.8 42 13.6 42 0 42 C0 28.14 0 14.28 0 0 Z " fill="#2A0067" transform="translate(40,205)"/>
<path d="M0 0 C13.2 0 26.4 0 40 0 C40 13.86 40 27.72 40 42 C26.8 42 13.6 42 0 42 C0 28.14 0 14.28 0 0 Z " fill="#34006B" transform="translate(171,163)"/>
<path d="M0 0 C13.2 0 26.4 0 40 0 C40 13.86 40 27.72 40 42 C26.8 42 13.6 42 0 42 C0 28.14 0 14.28 0 0 Z " fill="#34006B" transform="translate(291,120)"/>
<path d="M0 0 C13.2 0 26.4 0 40 0 C40 13.86 40 27.72 40 42 C26.8 42 13.6 42 0 42 C0 28.14 0 14.28 0 0 Z " fill="#CA74E6" transform="translate(291,78)"/>
<path d="M0 0 C13.2 0 26.4 0 40 0 C40 13.86 40 27.72 40 42 C26.8 42 13.6 42 0 42 C0 28.14 0 14.28 0 0 Z " fill="#4F0079" transform="translate(291,36)"/>
<path d="M0 0 C13.2 0 26.4 0 40 0 C40 13.86 40 27.72 40 42 C26.8 42 13.6 42 0 42 C0 28.14 0 14.28 0 0 Z " fill="#620083" transform="translate(40,36)"/>
<path d="M0 0 C12.87 0 25.74 0 39 0 C39 14.19 39 28.38 39 43 C26.13 43 13.26 43 0 43 C0 28.81 0 14.62 0 0 Z " fill="#0D0963" transform="translate(211,291)"/>
<path d="M0 0 C0 13.86 0 27.72 0 42 C-13.2 42 -26.4 42 -40 42 C-40 28.47 -40 14.94 -40 1 C-33.585625 0.835 -27.17125 0.67 -20.5625 0.5 C-18.53552979 0.44779297 -16.50855957 0.39558594 -14.42016602 0.34179688 C-12.82307969 0.30077109 -11.22599312 0.25975481 -9.62890625 0.21875 C-8.79194214 0.1971582 -7.95497803 0.17556641 -7.09265137 0.15332031 C-1.1140718 0 -1.1140718 0 0 0 Z " fill="#4B0179" transform="translate(211,78)"/>
<path d="M0 0 C13.2 0 26.4 0 40 0 C40 13.53 40 27.06 40 41 C26.8 41 13.6 41 0 41 C0 27.47 0 13.94 0 0 Z " fill="#FEF1FC" transform="translate(40,79)"/>
<path d="M0 0 C12.87 0 25.74 0 39 0 C39 13.86 39 27.72 39 42 C26.13 42 13.26 42 0 42 C0 28.14 0 14.28 0 0 Z " fill="#170362" transform="translate(331,248)"/>
<path d="M0 0 C12.87 0 25.74 0 39 0 C39 13.86 39 27.72 39 42 C26.13 42 13.26 42 0 42 C0 28.14 0 14.28 0 0 Z " fill="#1F0164" transform="translate(171,248)"/>
<path d="M0 0 C12.87 0 25.74 0 39 0 C39 13.86 39 27.72 39 42 C26.13 42 13.26 42 0 42 C0 28.14 0 14.28 0 0 Z " fill="#1D0164" transform="translate(0,248)"/>
<path d="M0 0 C12.87 0 25.74 0 39 0 C39 13.86 39 27.72 39 42 C26.13 42 13.26 42 0 42 C0 28.14 0 14.28 0 0 Z " fill="#290066" transform="translate(211,205)"/>
<path d="M0 0 C12.87 0 25.74 0 39 0 C39 13.86 39 27.72 39 42 C26.13 42 13.26 42 0 42 C0 28.14 0 14.28 0 0 Z " fill="#F3DEFA" transform="translate(171,205)"/>
<path d="M0 0 C12.87 0 25.74 0 39 0 C39 13.86 39 27.72 39 42 C26.13 42 13.26 42 0 42 C0 28.14 0 14.28 0 0 Z " fill="#2A0067" transform="translate(331,163)"/>
<path d="M0 0 C12.87 0 25.74 0 39 0 C39 13.86 39 27.72 39 42 C26.13 42 13.26 42 0 42 C0 28.14 0 14.28 0 0 Z " fill="#34006B" transform="translate(0,163)"/>
<path d="M0 0 C12.87 0 25.74 0 39 0 C39 13.86 39 27.72 39 42 C26.13 42 13.26 42 0 42 C0 28.14 0 14.28 0 0 Z " fill="#3A006A" transform="translate(371,121)"/>
<path d="M0 0 C12.87 0 25.74 0 39 0 C39 13.86 39 27.72 39 42 C26.13 42 13.26 42 0 42 C0 28.14 0 14.28 0 0 Z " fill="#3A006E" transform="translate(211,120)"/>
<path d="M0 0 C12.87 0 25.74 0 39 0 C39 13.86 39 27.72 39 42 C26.13 42 13.26 42 0 42 C0 28.14 0 14.28 0 0 Z " fill="#E181F5" transform="translate(211,78)"/>
<path d="M0 0 C12.87 0 25.74 0 39 0 C39 13.86 39 27.72 39 42 C26.13 42 13.26 42 0 42 C0 28.14 0 14.28 0 0 Z " fill="#EB86F4" transform="translate(171,36)"/>
<path d="M0 0 C12.87 0 25.74 0 39 0 C39 13.86 39 27.72 39 42 C26.13 42 13.26 42 0 42 C0 28.14 0 14.28 0 0 Z " fill="#EC84F4" transform="translate(0,36)"/>
<path d="M0 0 C12.87 0 25.74 0 39 0 C39 13.86 39 27.72 39 42 C26.13 42 13.26 42 0 42 C0 28.14 0 14.28 0 0 Z " fill="#FDEAFA" transform="translate(331,36)"/>
<path d="M0 0 C12.87 0 25.74 0 39 0 C39 13.86 39 27.72 39 42 C26.46 42 13.92 42 1 42 C-0.125 28.5 -0.125 28.5 -0.09765625 22.265625 C-0.09515869 21.07743164 -0.09266113 19.88923828 -0.09008789 18.66503906 C-0.08098389 17.20807617 -0.07187988 15.75111328 -0.0625 14.25 C-0.0315625 7.19625 -0.0315625 7.19625 0 0 Z " fill="#A35DF4" transform="translate(331,205)"/>
<path d="M0 0 C0 13.86 0 27.72 0 42 C-12.87 42 -25.74 42 -39 42 C-39 28.47 -39 14.94 -39 1 C-32.750625 0.835 -26.50125 0.67 -20.0625 0.5 C-17.10035522 0.42168945 -17.10035522 0.42168945 -14.07836914 0.34179688 C-12.52229845 0.30077083 -10.96622751 0.25975452 -9.41015625 0.21875 C-8.18709778 0.1863623 -8.18709778 0.1863623 -6.93933105 0.15332031 C-1.1140718 0 -1.1140718 0 0 0 Z " fill="#2A0063" transform="translate(410,206)"/>
<path d="M0 0 C12.87 0 25.74 0 39 0 C39 13.53 39 27.06 39 41 C26.13 41 13.26 41 0 41 C0 27.47 0 13.94 0 0 Z " fill="#FDE9F9" transform="translate(371,79)"/>
<path d="M0 0 C12.87 0 25.74 0 39 0 C39 13.53 39 27.06 39 41 C26.13 41 13.26 41 0 41 C0 27.47 0 13.94 0 0 Z " fill="#3A006E" transform="translate(331,79)"/>
<path d="M0 0 C12.87 0 25.74 0 39 0 C39 13.53 39 27.06 39 41 C26.13 41 13.26 41 0 41 C0 27.47 0 13.94 0 0 Z " fill="#4C007A" transform="translate(0,79)"/>
<path d="M0 0 C12.54 0 25.08 0 38 0 C38 13.86 38 27.72 38 42 C25.46 42 12.92 42 0 42 C0 28.14 0 14.28 0 0 Z " fill="#570077" transform="translate(371,36)"/>
<path d="M0 0 C0 13.86 0 27.72 0 42 C-12.87 42 -25.74 42 -39 42 C-39 28.8 -39 15.6 -39 2 C-35.37 2 -31.74 2 -28 2 C-25.14367156 1.71639292 -22.33635813 1.4044133 -19.5 1 C-12.88999035 0.05753234 -6.79404589 0 0 0 Z " fill="#58007E" transform="translate(250,36)"/>
<path d="M0 0 C13.86 0 27.72 0 42 0 C42 11.88 42 23.76 42 36 C28.14 36 14.28 36 0 36 C0 24.12 0 12.24 0 0 Z " fill="#01135D" transform="translate(80,334)"/>
<path d="M0 0 C13.86 0 27.72 0 42 0 C42 11.88 42 23.76 42 36 C28.14 36 14.28 36 0 36 C0 24.12 0 12.24 0 0 Z " fill="#82018E" transform="translate(80,0)"/>
<path d="M0 0 C13.2 0 26.4 0 40 0 C40 12.21 40 24.42 40 37 C26.8 37 13.6 37 0 37 C0 24.79 0 12.58 0 0 Z " fill="#00AFFC" transform="translate(291,334)"/>
<path d="M0 0 C13.53 0 27.06 0 41 0 C41 11.88 41 23.76 41 36 C27.47 36 13.94 36 0 36 C0 24.12 0 12.24 0 0 Z " fill="#730188" transform="translate(250,0)"/>
<path d="M0 0 C13.53 0 27.06 0 41 0 C41 11.88 41 23.76 41 36 C35.32164603 36.02290685 29.64345119 36.04283457 23.96508789 36.05493164 C22.03181415 36.05997256 20.09854424 36.06680519 18.1652832 36.07543945 C15.39273128 36.08751565 12.62022959 36.09323057 9.84765625 36.09765625 C8.54297142 36.10539818 8.54297142 36.10539818 7.21192932 36.11329651 C5.14094186 36.11349185 3.07005676 36.06208168 1 36 C0 35 0 35 -0.11352539 31.67358398 C-0.11327435 30.19774445 -0.10771514 28.72189903 -0.09765625 27.24609375 C-0.09664917 26.55906372 -0.09564209 25.87203369 -0.09460449 25.16418457 C-0.08935776 22.58860616 -0.07539659 20.01305147 -0.0625 17.4375 C-0.041875 11.683125 -0.02125 5.92875 0 0 Z " fill="#FA0EBF" transform="translate(39,0)"/>
<path d="M0 0 C12.87 0 25.74 0 39 0 C39 12.21 39 24.42 39 37 C26.13 37 13.26 37 0 37 C0 24.79 0 12.58 0 0 Z " fill="#00B2FC" transform="translate(211,334)"/>
<path d="M0 0 C15.84 0 31.68 0 48 0 C48 9.9 48 19.8 48 30 C32.16 30 16.32 30 0 30 C0 20.1 0 10.2 0 0 Z " fill="#0F0764" transform="translate(122,371)"/>
<path d="M0 0 C13.2 0 26.4 0 40 0 C40 11.88 40 23.76 40 36 C26.8 36 13.6 36 0 36 C0 24.12 0 12.24 0 0 Z " fill="#F500C0" transform="translate(291,0)"/>
<path d="M0 0 C15.84 0 31.68 0 48 0 C48 9.57 48 19.14 48 29 C31.91019222 30.14927198 31.91019222 30.14927198 25.1953125 30.09765625 C24.46045624 30.0962413 23.72559998 30.09482635 22.96847534 30.09336853 C20.68727014 30.08789944 18.40617404 30.07537564 16.125 30.0625 C14.5507827 30.05746796 12.97656381 30.05290811 11.40234375 30.04882812 C7.60148964 30.03883639 3.80086265 30.01923946 0 30 C0 20.1 0 10.2 0 0 Z " fill="#E7D8F9" transform="translate(122,248)"/>
<path d="M0 0 C12.87 0 25.74 0 39 0 C39 11.88 39 23.76 39 36 C26.13 36 13.26 36 0 36 C0 24.12 0 12.24 0 0 Z " fill="#00125C" transform="translate(0,334)"/>
<path d="M0 0 C12.87 0 25.74 0 39 0 C39 11.88 39 23.76 39 36 C26.13 36 13.26 36 0 36 C0 24.12 0 12.24 0 0 Z " fill="#FA02C1" transform="translate(211,0)"/>
<path d="M0 0 C12.87 0 25.74 0 39 0 C39 11.88 39 23.76 39 36 C26.13 36 13.26 36 0 36 C0 24.12 0 12.24 0 0 Z " fill="#5B017D" transform="translate(331,0)"/>
<path d="M0 0 C13.2 0 26.4 0 40 0 C40 11.55 40 23.1 40 35 C26.8 35 13.6 35 0 35 C0 23.45 0 11.9 0 0 Z " fill="#02B0FA" transform="translate(370,336)"/>
<path d="M0 0 C13.2 0 26.4 0 40 0 C40 11.55 40 23.1 40 35 C26.8 35 13.6 35 0 35 C0 23.45 0 11.9 0 0 Z " fill="#00B4FC" transform="translate(40,335)"/>
<path d="M0 0 C12.87 0 25.74 0 39 0 C39 11.55 39 23.1 39 35 C26.13 35 13.26 35 0 35 C0 23.45 0 11.9 0 0 Z " fill="#001159" transform="translate(251,335)"/>
<path d="M0 0 C12.87 0 25.74 0 39 0 C39 11.55 39 23.1 39 35 C26.13 35 13.26 35 0 35 C0 23.45 0 11.9 0 0 Z " fill="#00115B" transform="translate(171,335)"/>
<path d="M0 0 C1.47583954 0.00025104 2.95168496 0.00581025 4.42749023 0.01586914 C5.11452026 0.01687622 5.80155029 0.0178833 6.50939941 0.0189209 C9.08497783 0.02416763 11.66053252 0.0381288 14.23608398 0.05102539 C19.99045898 0.07165039 25.74483398 0.09227539 31.67358398 0.11352539 C31.67358398 11.66352539 31.67358398 23.21352539 31.67358398 35.11352539 C19.46358398 35.11352539 7.25358398 35.11352539 -5.32641602 35.11352539 C-5.34704102 31.17415039 -5.36766602 27.23477539 -5.38891602 23.17602539 C-5.39802002 21.95278564 -5.40712402 20.7295459 -5.41650391 19.46923828 C-5.43211216 13.26571149 -5.24207465 7.25420115 -4.32641602 1.11352539 C-3.32641602 0.11352539 -3.32641602 0.11352539 0 0 Z " fill="#00B1FC" transform="translate(138.326416015625,334.886474609375)"/>
<path d="M0 0 C0 10.23 0 20.46 0 31 C-13.53 31 -27.06 31 -41 31 C-41 21.1 -41 11.2 -41 1 C-35.3216988 0.8574698 -29.64339585 0.71501403 -23.96508789 0.57275391 C-22.03181854 0.52429615 -20.0985503 0.47579363 -18.1652832 0.42724609 C-15.3927438 0.35763071 -12.62020045 0.28817425 -9.84765625 0.21875 C-8.97786636 0.19687622 -8.10807648 0.17500244 -7.21192932 0.15246582 C-1.11387171 0 -1.11387171 0 0 0 Z " fill="#0B0A61" transform="translate(332,370)"/>
<path d="M0 0 C13.53 0 27.06 0 41 0 C41 9.9 41 19.8 41 30 C27.47 30 13.94 30 0 30 C0 20.1 0 10.2 0 0 Z " fill="#D8D2F9" transform="translate(80,371)"/>
<path d="M0 0 C13.53 0 27.06 0 41 0 C41 9.9 41 19.8 41 30 C27.47 30 13.94 30 0 30 C0 20.1 0 10.2 0 0 Z " fill="#0F0762" transform="translate(39,371)"/>
<path d="M0 0 C13.2 0 26.4 0 40 0 C40 9.9 40 19.8 40 30 C26.8 30 13.6 30 0 30 C0 20.1 0 10.2 0 0 Z " fill="#D3CEF8" transform="translate(251,371)"/>
<path d="M0 0 C12.54 0 25.08 0 38 0 C38 9.9 38 19.8 38 30 C25.46 30 12.92 30 0 30 C0 20.1 0 10.2 0 0 Z " fill="#D4CFF9" transform="translate(0,371)"/>
<path d="M0 0 C12.87 0 25.74 0 39 0 C39 9.24 39 18.48 39 28 C26.13 28 13.26 28 0 28 C0 18.76 0 9.52 0 0 Z " fill="#07085F" transform="translate(371,373)"/>
<path d="M0 0 C9.9 0 19.8 0 30 0 C30 9.9 30 19.8 30 30 C20.1 30 10.2 30 0 30 C0 20.1 0 10.2 0 0 Z " fill="#D3CFF9" transform="translate(171,371)"/>
<path d="M0 0 C9.9 0 19.8 0 30 0 C30 9.9 30 19.8 30 30 C20.1 30 10.2 30 0 30 C0 20.1 0 10.2 0 0 Z " fill="#D2CDF9" transform="translate(251,291)"/>
<path d="M0 0 C9.9 0 19.8 0 30 0 C30 9.9 30 19.8 30 30 C20.1 30 10.2 30 0 30 C0 20.1 0 10.2 0 0 Z " fill="#D3CFFA" transform="translate(171,291)"/>
<path d="M0 0 C9.9 0 19.8 0 30 0 C30 9.9 30 19.8 30 30 C20.1 30 10.2 30 0 30 C0 20.1 0 10.2 0 0 Z " fill="#D6D1FA" transform="translate(81,291)"/>
<path d="M0 0 C9.9 0 19.8 0 30 0 C30 9.9 30 19.8 30 30 C20.1 30 10.2 30 0 30 C0 20.1 0 10.2 0 0 Z " fill="#D4CFFA" transform="translate(0,291)"/>
<path d="M0 0 C9.9 0 19.8 0 30 0 C30 9.9 30 19.8 30 30 C20.1 30 10.2 30 0 30 C0 20.1 0 10.2 0 0 Z " fill="#FCE8FA" transform="translate(251,120)"/>
<path d="M0 0 C10.23 0 20.46 0 31 0 C31 9.57 31 19.14 31 29 C20.77 29 10.54 29 0 29 C0 19.43 0 9.86 0 0 Z " fill="#F5DEFA" transform="translate(81,206)"/>
<path d="M0 0 C10.23 0 20.46 0 31 0 C31 9.57 31 19.14 31 29 C20.77 29 10.54 29 0 29 C0 19.43 0 9.86 0 0 Z " fill="#FDEAFB" transform="translate(81,121)"/>
<path d="M0 0 C9.57 0 19.14 0 29 0 C29 9.9 29 19.8 29 30 C19.43 30 9.86 30 0 30 C0 20.1 0 10.2 0 0 Z " fill="#E3D3F8" transform="translate(371,249)"/>
<path d="M0 0 C9.9 0 19.8 0 30 0 C30 9.57 30 19.14 30 29 C20.1 29 10.2 29 0 29 C0 19.43 0 9.86 0 0 Z " fill="#E7D9F9" transform="translate(40,248)"/>
<path d="M0 0 C9.9 0 19.8 0 30 0 C30 9.57 30 19.14 30 29 C20.1 29 10.2 29 0 29 C0 19.43 0 9.86 0 0 Z " fill="#F1DCFA" transform="translate(251,206)"/>
<path d="M0 0 C9.9 0 19.8 0 30 0 C30 9.57 30 19.14 30 29 C20.1 29 10.2 29 0 29 C0 19.43 0 9.86 0 0 Z " fill="#FCE5FA" transform="translate(40,163)"/>
<path d="M0 0 C9.9 0 19.8 0 30 0 C30 9.57 30 19.14 30 29 C20.1 29 10.2 29 0 29 C0 19.43 0 9.86 0 0 Z " fill="#FDEBFB" transform="translate(171,121)"/>
<path d="M0 0 C9.9 0 19.8 0 30 0 C30 9.57 30 19.14 30 29 C20.1 29 10.2 29 0 29 C0 19.43 0 9.86 0 0 Z " fill="#FDEAFB" transform="translate(0,121)"/>
<path d="M0 0 C9.57 0 19.14 0 29 0 C29 9.57 29 19.14 29 29 C19.43 29 9.86 29 0 29 C0 19.43 0 9.86 0 0 Z " fill="#E1D4F9" transform="translate(292,248)"/>
<path d="M0 0 C9.57 0 19.14 0 29 0 C29 9.57 29 19.14 29 29 C19.43 29 9.86 29 0 29 C0 19.43 0 9.86 0 0 Z " fill="#E6D8FA" transform="translate(211,248)"/>
<path d="M0 0 C9.57 0 19.14 0 29 0 C29 9.57 29 19.14 29 29 C19.43 29 9.86 29 0 29 C0 19.43 0 9.86 0 0 Z " fill="#FCE0F9" transform="translate(371,164)"/>
<path d="M0 0 C9.57 0 19.14 0 29 0 C29 9.57 29 19.14 29 29 C19.43 29 9.86 29 0 29 C0 19.43 0 9.86 0 0 Z " fill="#FBE4FB" transform="translate(211,163)"/>
<path d="M0 0 C9.57 0 19.14 0 29 0 C29 9.57 29 19.14 29 29 C19.43 29 9.86 29 0 29 C0 19.43 0 9.86 0 0 Z " fill="#F9E1FB" transform="translate(292,163)"/>
<path d="M0 0 C9.24 0 18.48 0 28 0 C28 9.9 28 19.8 28 30 C18.76 30 9.52 30 0 30 C0 20.1 0 10.2 0 0 Z " fill="#C9C8FA" transform="translate(332,291)"/>
<path d="M0 0 C9.9 0 19.8 0 30 0 C30 9.24 30 18.48 30 28 C20.1 28 10.2 28 0 28 C0 18.76 0 9.52 0 0 Z " fill="#FDF3FC" transform="translate(251,37)"/>
<path d="M0 0 C12.87 0 25.74 0 39 0 C39 14.19 39 28.38 39 43 C26.13 43 13.26 43 0 43 C0 38.71 0 34.42 0 30 C9.57 30 19.14 30 29 30 C29 20.43 29 10.86 29 1 C19.43 1 9.86 1 0 1 C0 0.67 0 0.34 0 0 Z " fill="#CD5FF0" transform="translate(371,163)"/>
<path d="M0 0 C0.33 0 0.66 0 1 0 C1 9.57 1 19.14 1 29 C10.57 29 20.14 29 30 29 C30 19.43 30 9.86 30 0 C33.3 0 36.6 0 40 0 C40 13.86 40 27.72 40 42 C27.13 42 14.26 42 1 42 C-0.125 28.5 -0.125 28.5 -0.09765625 22.265625 C-0.09443359 20.95078125 -0.09121094 19.6359375 -0.08789062 18.28125 C-0.0795413 16.93749929 -0.07107643 15.59374928 -0.0625 14.25 C-0.05746857 12.85937663 -0.0529086 11.46875148 -0.04882812 10.078125 C-0.03716347 6.71870295 -0.02079614 3.35937581 0 0 Z " fill="#8652F0" transform="translate(291,248)"/>
<path d="M0 0 C12.87 0 25.74 0 39 0 C39 14.52 39 29.04 39 44 C26.13 44 13.26 44 0 44 C0 39.71 0 35.42 0 31 C9.9 31 19.8 31 30 31 C30 21.1 30 11.2 30 1 C20.1 1 10.2 1 0 1 C0 0.67 0 0.34 0 0 Z " fill="#5854EC" transform="translate(0,290)"/>
<path d="M0 0 C12.87 0 25.74 0 39 0 C39 14.52 39 29.04 39 44 C26.13 44 13.26 44 0 44 C0 39.71 0 35.42 0 31 C9.9 31 19.8 31 30 31 C30 21.1 30 11.2 30 1 C20.1 1 10.2 1 0 1 C0 0.67 0 0.34 0 0 Z " fill="#6253EC" transform="translate(171,290)"/>
<path d="M0 0 C9.24 0 18.48 0 28 0 C28 9.57 28 19.14 28 29 C18.76 29 9.52 29 0 29 C0 19.43 0 9.86 0 0 Z " fill="#ECD9FA" transform="translate(332,206)"/>
<path d="M0 0 C9.24 0 18.48 0 28 0 C28 9.57 28 19.14 28 29 C18.76 29 9.52 29 0 29 C0 19.43 0 9.86 0 0 Z " fill="#FCE4FA" transform="translate(332,121)"/>
<path d="M0 0 C9.57 0 19.14 0 29 0 C29 9.24 29 18.48 29 28 C19.43 28 9.86 28 0 28 C0 18.76 0 9.52 0 0 Z " fill="#FDECFB" transform="translate(292,79)"/>
<path d="M0 0 C9.57 0 19.14 0 29 0 C29 9.24 29 18.48 29 28 C19.43 28 9.86 28 0 28 C0 18.76 0 9.52 0 0 Z " fill="#FDF0FB" transform="translate(211,79)"/>
<path d="M0 0 C9.57 0 19.14 0 29 0 C29 9.24 29 18.48 29 28 C19.43 28 9.86 28 0 28 C0 18.76 0 9.52 0 0 Z " fill="#FDF6FB" transform="translate(171,37)"/>
<path d="M0 0 C9.57 0 19.14 0 29 0 C29 9.24 29 18.48 29 28 C19.43 28 9.86 28 0 28 C0 18.76 0 9.52 0 0 Z " fill="#FDF3FC" transform="translate(1,37)"/>
<path d="M0 0 C13.53 0 27.06 0 41 0 C41 13.86 41 27.72 41 42 C27.8 42 14.6 42 1 42 C-0.125 28.5 -0.125 28.5 -0.09765625 22.265625 C-0.09515869 21.07743164 -0.09266113 19.88923828 -0.09008789 18.66503906 C-0.08098389 17.20807617 -0.07187988 15.75111328 -0.0625 14.25 C-0.0315625 7.19625 -0.0315625 7.19625 0 0 Z M1 1 C1 10.57 1 20.14 1 30 C11.23 30 21.46 30 32 30 C32 20.43 32 10.86 32 1 C21.77 1 11.54 1 1 1 Z " fill="#B667F7" transform="translate(80,205)"/>
<path d="M0 0 C3.3 0 6.6 0 10 0 C10 13.86 10 27.72 10 42 C-3.2 42 -16.4 42 -30 42 C-30 37.71 -30 33.42 -30 29 C-20.1 29 -10.2 29 0 29 C0 19.43 0 9.86 0 0 Z " fill="#9159F2" transform="translate(70,248)"/>
<path d="M0 0 C3.3 0 6.6 0 10 0 C10 13.86 10 27.72 10 42 C-3.2 42 -16.4 42 -30 42 C-30 37.71 -30 33.42 -30 29 C-20.1 29 -10.2 29 0 29 C0 19.43 0 9.86 0 0 Z " fill="#C76BF4" transform="translate(70,163)"/>
<path d="M0 0 C2.97 0 5.94 0 9 0 C9.33 14.19 9.66 28.38 10 43 C-3.53 43 -17.06 43 -31 43 C-31 38.71 -31 34.42 -31 30 C-20.77 30 -10.54 30 0 30 C0 20.1 0 10.2 0 0 Z " fill="#5C51EB" transform="translate(281,291)"/>
<path d="M0 0 C3.3 0 6.6 0 10 0 C10 13.53 10 27.06 10 41 C-3.2 41 -16.4 41 -30 41 C-30 36.71 -30 32.42 -30 28 C-20.1 28 -10.2 28 0 28 C0 18.76 0 9.52 0 0 Z " fill="#E382F6" transform="translate(70,79)"/>
<path d="M0 0 C13.2 0 26.4 0 40 0 C40.020625 4.7025 40.04125 9.405 40.0625 14.25 C40.071604 15.70696289 40.08070801 17.16392578 40.09008789 18.66503906 C40.09258545 19.85323242 40.09508301 21.04142578 40.09765625 22.265625 C40.10289307 23.45961914 40.10812988 24.65361328 40.11352539 25.88378906 C39.96506653 31.26662014 39.44718977 36.63372273 39 42 C26.13 42 13.26 42 0 42 C0 38.04 0 34.08 0 30 C9.9 30 19.8 30 30 30 C30 20.43 30 10.86 30 1 C20.1 1 10.2 1 0 1 C0 0.67 0 0.34 0 0 Z " fill="#AD63F5" transform="translate(251,205)"/>
<path d="M0 0 C0.33 0 0.66 0 1 0 C1 9.9 1 19.8 1 30 C10.24 30 19.48 30 29 30 C29 20.1 29 10.2 29 0 C32.3 0 35.6 0 39 0 C39 13.86 39 27.72 39 42 C26.13 42 13.26 42 0 42 C0 28.14 0 14.28 0 0 Z " fill="#D175EA" transform="translate(331,36)"/>
<path d="M0 0 C3.3 0 6.6 0 10 0 C10 13.86 10 27.72 10 42 C-2.87 42 -15.74 42 -29 42 C-29 37.71 -29 33.42 -29 29 C-19.43 29 -9.86 29 0 29 C0 19.43 0 9.86 0 0 Z " fill="#8F57F2" transform="translate(240,248)"/>
<path d="M0 0 C3.3 0 6.6 0 10 0 C10 13.86 10 27.72 10 42 C-2.87 42 -15.74 42 -29 42 C-29 37.71 -29 33.42 -29 29 C-19.43 29 -9.86 29 0 29 C0 19.43 0 9.86 0 0 Z " fill="#C667F6" transform="translate(240,163)"/>
<path d="M0 0 C12.54 0 25.08 0 38 0 C38 13.86 38 27.72 38 42 C25.46 42 12.92 42 0 42 C0 38.04 0 34.08 0 30 C9.24 30 18.48 30 28 30 C28 20.43 28 10.86 28 1 C18.76 1 9.52 1 0 1 C0 0.67 0 0.34 0 0 Z " fill="#C76BF5" transform="translate(332,120)"/>
<path d="M0 0 C13.2 0 26.4 0 40 0 C40 13.86 40 27.72 40 42 C26.8 42 13.6 42 0 42 C0 38.04 0 34.08 0 30 C10.23 30 20.46 30 31 30 C31 20.43 31 10.86 31 1 C20.77 1 10.54 1 0 1 C0 0.67 0 0.34 0 0 Z " fill="#D576F6" transform="translate(81,120)"/>
<path d="M0 0 C3.3 0 6.6 0 10 0 C10 13.86 10 27.72 10 42 C-2.87 42 -15.74 42 -29 42 C-29 38.04 -29 34.08 -29 30 C-19.43 30 -9.86 30 0 30 C0 20.1 0 10.2 0 0 Z " fill="#8D51EE" transform="translate(400,249)"/>
<path d="M0 0 C12.87 0 25.74 0 39 0 C39 13.86 39 27.72 39 42 C26.13 42 13.26 42 0 42 C0 38.04 0 34.08 0 30 C9.9 30 19.8 30 30 30 C30 20.43 30 10.86 30 1 C20.1 1 10.2 1 0 1 C0 0.67 0 0.34 0 0 Z " fill="#B264F6" transform="translate(171,205)"/>
<path d="M0 0 C12.87 0 25.74 0 39 0 C39 13.86 39 27.72 39 42 C26.13 42 13.26 42 0 42 C0 38.04 0 34.08 0 30 C9.9 30 19.8 30 30 30 C30 20.43 30 10.86 30 1 C20.1 1 10.2 1 0 1 C0 0.67 0 0.34 0 0 Z " fill="#B163F6" transform="translate(0,205)"/>
<path d="M0 0 C12.87 0 25.74 0 39 0 C39 13.86 39 27.72 39 42 C26.13 42 13.26 42 0 42 C0 38.04 0 34.08 0 30 C9.9 30 19.8 30 30 30 C30 20.43 30 10.86 30 1 C20.1 1 10.2 1 0 1 C0 0.67 0 0.34 0 0 Z " fill="#D473F6" transform="translate(171,120)"/>
<path d="M0 0 C12.87 0 25.74 0 39 0 C39 13.86 39 27.72 39 42 C26.13 42 13.26 42 0 42 C0 38.04 0 34.08 0 30 C9.9 30 19.8 30 30 30 C30 20.43 30 10.86 30 1 C20.1 1 10.2 1 0 1 C0 0.67 0 0.34 0 0 Z " fill="#D373F6" transform="translate(0,120)"/>
<path d="M0 0 C3.3 0 6.6 0 10 0 C10 13.53 10 27.06 10 41 C-2.87 41 -15.74 41 -29 41 C-29 37.04 -29 33.08 -29 29 C-19.43 29 -9.86 29 0 29 C0 19.43 0 9.86 0 0 Z " fill="#EB72F2" transform="translate(400,79)"/>
<path d="M0 0 C2.97 0 5.94 0 9 0 C9 13.53 9 27.06 9 41 C-3.87 41 -16.74 41 -30 41 C-30 37.04 -30 33.08 -30 29 C-20.1 29 -10.2 29 0 29 C0 19.43 0 9.86 0 0 Z " fill="#CF71F6" transform="translate(281,121)"/>
<path d="M0 0 C2.97 0 5.94 0 9 0 C9 13.53 9 27.06 9 41 C-3.54 41 -16.08 41 -29 41 C-29 37.04 -29 33.08 -29 29 C-19.43 29 -9.86 29 0 29 C0 19.43 0 9.86 0 0 Z " fill="#BE64F3" transform="translate(321,163)"/>
<path d="M0 0 C9.9 0 19.8 0 30 0 C30.04125 3.09375 30.0825 6.1875 30.125 9.375 C30.14320801 10.34872559 30.16141602 11.32245117 30.18017578 12.32568359 C30.1851709 13.09219238 30.19016602 13.85870117 30.1953125 14.6484375 C30.20578613 15.43395996 30.21625977 16.21948242 30.22705078 17.02880859 C30 19 30 19 28 21 C25.20263672 21.22705078 25.20263672 21.22705078 21.6796875 21.1953125 C19.79443359 21.18564453 19.79443359 21.18564453 17.87109375 21.17578125 C16.55238281 21.15902344 15.23367187 21.14226563 13.875 21.125 C12.53516279 21.11496983 11.19531848 21.10584404 9.85546875 21.09765625 C6.57023624 21.07402148 3.28509602 21.0381495 0 21 C0 14.07 0 7.14 0 0 Z " fill="#FE53C3" transform="translate(40,0)"/>
<path d="M0 0 C15.84 0 31.68 0 48 0 C48 4.29 48 8.58 48 13 C32.16 13 16.32 13 0 13 C0 8.71 0 4.42 0 0 Z " fill="#B149E9" transform="translate(122,192)"/>
<path d="M0 0 C15.84 0 31.68 0 48 0 C48 4.29 48 8.58 48 13 C32.16 13 16.32 13 0 13 C0 8.71 0 4.42 0 0 Z " fill="#CC57E9" transform="translate(122,107)"/>
<path d="M0 0 C9.57 0 19.14 0 29 0 C29.061875 3.09375 29.12375 6.1875 29.1875 9.375 C29.21481201 10.34872559 29.24212402 11.32245117 29.27026367 12.32568359 C29.27775635 13.09219238 29.28524902 13.85870117 29.29296875 14.6484375 C29.3086792 15.43395996 29.32438965 16.21948242 29.34057617 17.02880859 C29.22818604 17.67930176 29.1157959 18.32979492 29 19 C25.56238884 21.29174077 24.07928385 21.29524047 20.01953125 21.4140625 C18.85615234 21.45273437 17.69277344 21.49140625 16.49414062 21.53125 C15.27919922 21.5621875 14.06425781 21.593125 12.8125 21.625 C11.58595703 21.66367187 10.35941406 21.70234375 9.09570312 21.7421875 C6.06405285 21.83655794 3.03204688 21.91937174 0 22 C0 14.74 0 7.48 0 0 Z " fill="#FF41C2" transform="translate(211,0)"/>
<path d="M0 0 C0 4.29 0 8.58 0 13 C-15.84 13 -31.68 13 -48 13 C-48 9.04 -48 5.08 -48 1 C-43.4143081 0.85479029 -38.82853664 0.71252615 -34.24267578 0.57275391 C-32.68926653 0.52502077 -31.13587993 0.47654337 -29.58251953 0.42724609 C-19.71534508 0.11471116 -9.873313 -0.05244788 0 0 Z " fill="#9057F2" transform="translate(170,277)"/>
<path d="M0 0 C0.33 0 0.66 0 1 0 C1 9.9 1 19.8 1 30 C14.2 30 27.4 30 41 30 C41 20.1 41 10.2 41 0 C41.33 0 41.66 0 42 0 C42 13.86 42 27.72 42 42 C28.14 42 14.28 42 0 42 C0 28.14 0 14.28 0 0 Z " fill="#EE8BF5" transform="translate(80,36)"/>
<path d="M0 0 C9.24 0 18.48 0 28 0 C28 2.64 28 5.28 28 8 C28.20625 8.70125 28.4125 9.4025 28.625 10.125 C29.22056069 13.10280345 28.15435926 15.26599122 27 18 C24.4350007 19.28249965 22.18854597 19.42254264 19.3359375 19.75390625 C17.65371094 19.95209961 17.65371094 19.95209961 15.9375 20.15429688 C14.761875 20.28900391 13.58625 20.42371094 12.375 20.5625 C11.19164062 20.70107422 10.00828125 20.83964844 8.7890625 20.98242188 C5.85976435 21.32496077 2.92993014 21.66290963 0 22 C0 14.74 0 7.48 0 0 Z " fill="#FE22C0" transform="translate(291,0)"/>
<path d="M0 0 C0.33 0 0.66 0 1 0 C1 13.86 1 27.72 1 42 C13.54 42 26.08 42 39 42 C39 28.14 39 14.28 39 0 C39.33 0 39.66 0 40 0 C40 14.19 40 28.38 40 43 C27.13 43 14.26 43 1 43 C1 56.53 1 70.06 1 84 C13.87 84 26.74 84 40 84 C40 84.33 40 84.66 40 85 C27.13 85 14.26 85 1 85 C1 113.05 1 141.1 1 170 C13.54 170 26.08 170 39 170 C39 170.33 39 170.66 39 171 C26.46 171 13.92 171 1 171 C1 184.53 1 198.06 1 212 C13.87 212 26.74 212 40 212 C40 212.33 40 212.66 40 213 C27.13 213 14.26 213 1 213 C1 226.53 1 240.06 1 254 C0.67 254 0.34 254 0 254 C0 184.37 0 114.74 0 43 C-12.87 43 -25.74 43 -39 43 C-39 42.67 -39 42.34 -39 42 C-26.13 42 -13.26 42 0 42 C0 28.14 0 14.28 0 0 Z " fill="#57288C" transform="translate(370,36)"/>
<path d="M0 0 C7.92 0 15.84 0 24 0 C24 10.77272727 24 10.77272727 23.75 13.875 C23.68039063 14.95394531 23.68039063 14.95394531 23.609375 16.0546875 C23 18 23 18 21.53125 19.77734375 C17.61847588 21.66731026 13.99991373 21.0626877 9.75 20.6875 C8.90953125 20.62626953 8.0690625 20.56503906 7.203125 20.50195312 C5.13429401 20.34914175 3.06694492 20.17649838 1 20 C-0.1482685 17.703463 -0.11561175 16.41686833 -0.09765625 13.8671875 C-0.09515869 13.14128418 -0.09266113 12.41538086 -0.09008789 11.66748047 C-0.08098389 10.74596191 -0.07187988 9.82444336 -0.0625 8.875 C-0.041875 5.94625 -0.02125 3.0175 0 0 Z " fill="#FF50C3" transform="translate(133,0)"/>
<path d="M0 0 C12.54 0 25.08 0 38 0 C38 4.29 38 8.58 38 13 C25.46 12.67 12.92 12.34 0 12 C0 8.04 0 4.08 0 0 Z " fill="#4D4BE7" transform="translate(332,321)"/>
<path d="M0 0 C26.01830015 -0.14469452 51.99315192 0.22207042 78 1 C78 1.66 78 2.32 78 3 C65.13 3 52.26 3 39 3 C39 12.24 39 21.48 39 31 C35.7 31 32.4 31 29 31 C29 21.1 29 11.2 29 1 C19.43 1 9.86 1 0 1 C0 0.67 0 0.34 0 0 Z " fill="#7260DF" transform="translate(332,370)"/>
<path d="M0 0 C4.62 0 9.24 0 14 0 C14 9.57 14 19.14 14 29 C9.38 29 4.76 29 0 29 C0 19.43 0 9.86 0 0 Z " fill="#BC93F3" transform="translate(156,248)"/>
<path d="M0 0 C4.62 0 9.24 0 14 0 C14 9.57 14 19.14 14 29 C9.38 29 4.76 29 0 29 C0 19.43 0 9.86 0 0 Z " fill="#DCA4F5" transform="translate(156,163)"/>
<path d="M0 0 C4.62 0 9.24 0 14 0 C14 9.24 14 18.48 14 28 C9.38 28 4.76 28 0 28 C0 18.76 0 9.52 0 0 Z " fill="#EFB7F5" transform="translate(156,79)"/>
<path d="M0 0 C13.53 0 27.06 0 41 0 C41 10.23 41 20.46 41 31 C37.7 31 34.4 31 31 31 C31 21.1 31 11.2 31 1 C21.1 1 11.2 1 1 1 C1 10.9 1 20.8 1 31 C0.67 31 0.34 31 0 31 C0 20.77 0 10.54 0 0 Z " fill="#8973DC" transform="translate(170,370)"/>
<path d="M0 0 C13.53 0 27.06 0 41 0 C41 10.23 41 20.46 41 31 C37.7 31 34.4 31 31 31 C31 21.1 31 11.2 31 1 C21.1 1 11.2 1 1 1 C1 10.9 1 20.8 1 31 C0.67 31 0.34 31 0 31 C0 20.77 0 10.54 0 0 Z " fill="#9B84E9" transform="translate(80,290)"/>
<path d="M0 0 C0.33 0 0.66 0 1 0 C1 9.57 1 19.14 1 29 C10.9 29 20.8 29 31 29 C31 19.43 31 9.86 31 0 C34.3 0 37.6 0 41 0 C41 9.9 41 19.8 41 30 C27.47 30 13.94 30 0 30 C0 20.1 0 10.2 0 0 Z " fill="#A389EE" transform="translate(80,371)"/>
<path d="M0 0 C13.2 0 26.4 0 40 0 C40 9.9 40 19.8 40 30 C26.8 30 13.6 30 0 30 C0 29.67 0 29.34 0 29 C9.9 29 19.8 29 30 29 C30 19.76 30 10.52 30 1 C20.1 1 10.2 1 0 1 C0 0.67 0 0.34 0 0 Z " fill="#F3BEF4" transform="translate(81,36)"/>
<path d="M0 0 C12.87 0 25.74 0 39 0 C39 9.9 39 19.8 39 30 C35.7 30 32.4 30 29 30 C29 20.43 29 10.86 29 1 C19.76 1 10.52 1 1 1 C1 10.57 1 20.14 1 30 C0.67 30 0.34 30 0 30 C0 20.1 0 10.2 0 0 Z " fill="#B389E8" transform="translate(331,205)"/>
<path d="M0 0 C12.87 0 25.74 0 39 0 C39 9.9 39 19.8 39 30 C26.13 30 13.26 30 0 30 C0 20.1 0 10.2 0 0 Z M1 1 C1 10.24 1 19.48 1 29 C10.57 29 20.14 29 30 29 C30 19.76 30 10.52 30 1 C20.43 1 10.86 1 1 1 Z " fill="#F1B9F3" transform="translate(0,36)"/>
<path d="M0 0 C12.87 0 25.74 0 39 0 C39 9.9 39 19.8 39 30 C26.13 30 13.26 30 0 30 C0 29.67 0 29.34 0 29 C9.57 29 19.14 29 29 29 C29 19.76 29 10.52 29 1 C19.43 1 9.86 1 0 1 C0 0.67 0 0.34 0 0 Z " fill="#F0BAF4" transform="translate(171,36)"/>
<path d="M0 0 C3.63 0 7.26 0 11 0 C11 9.57 11 19.14 11 29 C18.59 29 26.18 29 34 29 C34 29.33 34 29.66 34 30 C22.78 30 11.56 30 0 30 C0 20.1 0 10.2 0 0 Z " fill="#C095F0" transform="translate(122,248)"/>
<path d="M0 0 C13.53 0 27.06 0 41 0 C41 9.9 41 19.8 41 30 C38.03 30 35.06 30 32 30 C32 20.43 32 10.86 32 1 C21.77 1 11.54 1 1 1 C1 10.57 1 20.14 1 30 C0.67 30 0.34 30 0 30 C0 20.1 0 10.2 0 0 Z " fill="#C496EA" transform="translate(80,205)"/>
<path d="M0 0 C3.3 0 6.6 0 10 0 C10 9.9 10 19.8 10 30 C-3.2 30 -16.4 30 -30 30 C-30 29.67 -30 29.34 -30 29 C-20.1 29 -10.2 29 0 29 C0 19.43 0 9.86 0 0 Z " fill="#957EEE" transform="translate(281,371)"/>
<path d="M0 0 C13.2 0 26.4 0 40 0 C40 9.9 40 19.8 40 30 C36.7 30 33.4 30 30 30 C30 20.43 30 10.86 30 1 C20.1 1 10.2 1 0 1 C0 0.67 0 0.34 0 0 Z " fill="#BD8EEC" transform="translate(251,205)"/>
<path d="M0 0 C12.87 0 25.74 0 39 0 C39 9.9 39 19.8 39 30 C26.13 30 13.26 30 0 30 C0 29.67 0 29.34 0 29 C9.9 29 19.8 29 30 29 C30 19.76 30 10.52 30 1 C20.1 1 10.2 1 0 1 C0 0.67 0 0.34 0 0 Z " fill="#ECB2F3" transform="translate(251,36)"/>
<path d="M0 0 C0.33 0 0.66 0 1 0 C1 9.57 1 19.14 1 29 C10.57 29 20.14 29 30 29 C30 19.43 30 9.86 30 0 C32.97 0 35.94 0 39 0 C39 9.9 39 19.8 39 30 C26.13 30 13.26 30 0 30 C0 20.1 0 10.2 0 0 Z " fill="#A784EB" transform="translate(291,248)"/>
<path d="M0 0 C3.3 0 6.6 0 10 0 C10 9.9 10 19.8 10 30 C-2.87 30 -15.74 30 -29 30 C-29 29.67 -29 29.34 -29 29 C-19.43 29 -9.86 29 0 29 C0 19.43 0 9.86 0 0 Z " fill="#B38DF1" transform="translate(240,248)"/>
<path d="M0 0 C3.3 0 6.6 0 10 0 C10.02465746 4.1117256 10.04283959 8.22342278 10.05493164 12.33520508 C10.0599708 13.73495228 10.06680216 15.1346942 10.07543945 16.53442383 C10.0875232 18.54245777 10.09269807 20.55052957 10.09765625 22.55859375 C10.10289307 23.76829834 10.10812988 24.97800293 10.11352539 26.22436523 C10 29 10 29 9 30 C6.1156618 30.08865208 3.25537842 30.11521296 0.37109375 30.09765625 C-0.92525246 30.09553383 -0.92525246 30.09553383 -2.24778748 30.09336853 C-5.01939292 30.08775239 -7.7909188 30.07519719 -10.5625 30.0625 C-12.4368478 30.05748708 -14.31119685 30.05292381 -16.18554688 30.04882812 C-20.79039544 30.03777772 -25.39518421 30.0205023 -30 30 C-30 29.67 -30 29.34 -30 29 C-20.1 29 -10.2 29 0 29 C0 19.43 0 9.86 0 0 Z " fill="#BD95F3" transform="translate(70,248)"/>
<path d="M0 0 C12.87 0 25.74 0 39 0 C39 9.9 39 19.8 39 30 C35.7 30 32.4 30 29 30 C29 20.43 29 10.86 29 1 C19.43 1 9.86 1 0 1 C0 0.67 0 0.34 0 0 Z " fill="#D090E9" transform="translate(371,163)"/>
<path d="M0 0 C12.54 0 25.08 0 38 0 C38 9.9 38 19.8 38 30 C34.7 30 31.4 30 28 30 C28 20.43 28 10.86 28 1 C18.76 1 9.52 1 0 1 C0 0.67 0 0.34 0 0 Z " fill="#CD98F1" transform="translate(332,120)"/>
<path d="M0 0 C3.63 0 7.26 0 11 0 C11 9.57 11 19.14 11 29 C7.37 29 3.74 29 0 29 C0 19.43 0 9.86 0 0 Z " fill="#DEA6F3" transform="translate(122,163)"/>
<path d="M0 0 C12.87 0 25.74 0 39 0 C39 9.57 39 19.14 39 29 C35.7 29 32.4 29 29 29 C29 19.76 29 10.52 29 1 C19.43 1 9.86 1 0 1 C0 0.67 0 0.34 0 0 Z " fill="#DEA8EC" transform="translate(211,78)"/>
<path d="M0 0 C0.33 0 0.66 0 1 0 C1 6.93 1 13.86 1 21 C4.96952059 20.88032876 8.93878262 20.75778283 12.90795898 20.62768555 C14.25914147 20.58428777 15.61038053 20.5426163 16.96166992 20.50268555 C18.90036701 20.44510048 20.83886276 20.38085702 22.77734375 20.31640625 C23.94515381 20.27974854 25.11296387 20.24309082 26.31616211 20.20532227 C28.91779795 20.29923812 28.91779795 20.29923812 30 19 C30.15620555 17.58672053 30.25056173 16.1664541 30.31640625 14.74609375 C30.35830078 13.89208984 30.40019531 13.03808594 30.44335938 12.15820312 C30.48267578 11.26037109 30.52199219 10.36253906 30.5625 9.4375 C30.60568359 8.53580078 30.64886719 7.63410156 30.69335938 6.70507812 C30.79977984 4.47024844 30.90042481 2.23514514 31 0 C34.3 0 37.6 0 41 0 C41 6.93 41 13.86 41 21 C33.8125 21.9375 33.8125 21.9375 31.57739258 22.22631836 C28.82533049 22.5894196 26.11991133 22.97228636 23.4140625 23.59765625 C19.33124548 24.27812575 15.34566655 23.58136795 11.25390625 23.15625 C7.99175735 22.99960419 5.19023911 23.34559198 2 24 C2.04125 25.0725 2.0825 26.145 2.125 27.25 C2 31 2 31 0 35 C0 23.45 0 11.9 0 0 Z " fill="#F92CBE" transform="translate(39,0)"/>
<path d="M0 0 C12.87 0 25.74 0 39 0 C39 10.23 39 20.46 39 31 C36.03 31 33.06 31 30 31 C30 21.1 30 11.2 30 1 C20.1 1 10.2 1 0 1 C0 0.67 0 0.34 0 0 Z " fill="#967FEA" transform="translate(0,290)"/>
<path d="M0 0 C12.87 0 25.74 0 39 0 C39 10.23 39 20.46 39 31 C36.03 31 33.06 31 30 31 C30 21.1 30 11.2 30 1 C20.1 1 10.2 1 0 1 C0 0.67 0 0.34 0 0 Z " fill="#977FEA" transform="translate(171,290)"/>
<path d="M0 0 C3.63 0 7.26 0 11 0 C11 9.24 11 18.48 11 28 C7.37 28 3.74 28 0 28 C0 18.76 0 9.52 0 0 Z " fill="#F1B6F2" transform="translate(122,79)"/>
<path d="M0 0 C13.2 0 26.4 0 40 0 C40 9.9 40 19.8 40 30 C37.03 30 34.06 30 31 30 C31 20.43 31 10.86 31 1 C20.77 1 10.54 1 0 1 C0 0.67 0 0.34 0 0 Z " fill="#DFAAF3" transform="translate(81,120)"/>
<path d="M0 0 C3.3 0 6.6 0 10 0 C10 9.9 10 19.8 10 30 C6.7 30 3.4 30 0 30 C0 20.1 0 10.2 0 0 Z " fill="#796DEF" transform="translate(360,291)"/>
<path d="M0 0 C3.3 0 6.6 0 10 0 C10 9.9 10 19.8 10 30 C6.7 30 3.4 30 0 30 C0 20.1 0 10.2 0 0 Z " fill="#AF80F1" transform="translate(400,249)"/>
<path d="M0 0 C12.87 0 25.74 0 39 0 C39 9.9 39 19.8 39 30 C36.03 30 33.06 30 30 30 C30 20.43 30 10.86 30 1 C20.1 1 10.2 1 0 1 C0 0.67 0 0.34 0 0 Z " fill="#C695F7" transform="translate(171,205)"/>
<path d="M0 0 C12.87 0 25.74 0 39 0 C39 9.9 39 19.8 39 30 C36.03 30 33.06 30 30 30 C30 20.43 30 10.86 30 1 C20.1 1 10.2 1 0 1 C0 0.67 0 0.34 0 0 Z " fill="#C897F4" transform="translate(0,205)"/>
<path d="M0 0 C12.87 0 25.74 0 39 0 C39 9.9 39 19.8 39 30 C36.03 30 33.06 30 30 30 C30 20.43 30 10.86 30 1 C20.1 1 10.2 1 0 1 C0 0.67 0 0.34 0 0 Z " fill="#DDAAF2" transform="translate(171,120)"/>
<path d="M0 0 C12.87 0 25.74 0 39 0 C39 9.9 39 19.8 39 30 C36.03 30 33.06 30 30 30 C30 20.43 30 10.86 30 1 C20.1 1 10.2 1 0 1 C0 0.67 0 0.34 0 0 Z " fill="#DDA7F1" transform="translate(0,120)"/>
<path d="M0 0 C3.3 0 6.6 0 10 0 C10 9.9 10 19.8 10 30 C6.7 30 3.4 30 0 30 C0 20.1 0 10.2 0 0 Z " fill="#DE9CF2" transform="translate(360,36)"/>
<path d="M0 0 C3.3 0 6.6 0 10 0 C10 9.57 10 19.14 10 29 C6.7 29 3.4 29 0 29 C0 19.43 0 9.86 0 0 Z " fill="#D6A1F5" transform="translate(240,163)"/>
<path d="M0 0 C3.3 0 6.6 0 10 0 C10 9.57 10 19.14 10 29 C6.7 29 3.4 29 0 29 C0 19.43 0 9.86 0 0 Z " fill="#D7A4F3" transform="translate(70,163)"/>
<path d="M0 0 C3.3 0 6.6 0 10 0 C10 9.57 10 19.14 10 29 C6.7 29 3.4 29 0 29 C0 19.43 0 9.86 0 0 Z " fill="#EBA2F1" transform="translate(400,79)"/>
<path d="M0 0 C10.89 0 21.78 0 33 0 C33 3.96 33 7.92 33 12 C25.41 12 17.82 12 10 12 C10 8.37 10 4.74 10 1 C6.7 1 3.4 1 0 1 C0 0.67 0 0.34 0 0 Z " fill="#C669F3" transform="translate(123,192)"/>
<path d="M0 0 C3.3 0 6.6 0 10 0 C10 9.24 10 18.48 10 28 C6.7 28 3.4 28 0 28 C0 18.76 0 9.52 0 0 Z " fill="#EBB3F4" transform="translate(70,79)"/>
<path d="M0 0 C2.97 0 5.94 0 9 0 C9 9.9 9 19.8 9 30 C6.03 30 3.06 30 0 30 C0 20.1 0 10.2 0 0 Z " fill="#917AF1" transform="translate(281,291)"/>
<path d="M0 0 C4.29 0 8.58 0 13 0 C13 4.95 13 9.9 13 15 C12.34 14.34 11.68 13.68 11 13 C10.67 13.99 10.34 14.98 10 16 C6.7 15.34 3.4 14.68 0 14 C0.020625 14.94875 0.04125 15.8975 0.0625 16.875 C0 20 0 20 -1 22 C-3.1796875 22.34375 -3.1796875 22.34375 -5.875 22.5 C-9.58038253 22.71605729 -10.80892206 22.87261471 -14 25 C-16 24.625 -16 24.625 -18 24 C-20.9254644 23.7763932 -20.9254644 23.7763932 -23 25 C-23.33 22.69 -23.66 20.38 -24 18 C-23.67 18.66 -23.34 19.32 -23 20 C-19.87507749 20.05791844 -16.75029234 20.09356746 -13.625 20.125 C-12.29082031 20.15013672 -12.29082031 20.15013672 -10.9296875 20.17578125 C-10.07890625 20.18222656 -9.228125 20.18867188 -8.3515625 20.1953125 C-7.56604004 20.20578613 -6.78051758 20.21625977 -5.97119141 20.22705078 C-3.765535 20.17990127 -3.765535 20.17990127 -2 18 C-1.54025497 16.07098859 -1.54025497 16.07098859 -1.3671875 13.8671875 C-1.28339844 13.06152344 -1.19960937 12.25585938 -1.11328125 11.42578125 C-0.99533203 10.16314453 -0.99533203 10.16314453 -0.875 8.875 C-0.78863281 8.02550781 -0.70226562 7.17601562 -0.61328125 6.30078125 C-0.40097443 4.20130273 -0.19946397 2.10073758 0 0 Z " fill="#FE27BF" transform="translate(157,0)"/>
<path d="M0 0 C7.59 0 15.18 0 23 0 C23 3.96 23 7.92 23 12 C15.74 12 8.48 12 1 12 C0.67 8.04 0.34 4.08 0 0 Z " fill="#E37AF7" transform="translate(133,107)"/>
<path d="M0 0 C2.97 0 5.94 0 9 0 C9 9.57 9 19.14 9 29 C6.03 29 3.06 29 0 29 C0 19.43 0 9.86 0 0 Z " fill="#CE97F4" transform="translate(321,163)"/>
<path d="M0 0 C2.97 0 5.94 0 9 0 C9 9.57 9 19.14 9 29 C6.03 29 3.06 29 0 29 C0 19.43 0 9.86 0 0 Z " fill="#DAA3F4" transform="translate(281,121)"/>
<path d="M0 0 C2.97 0 5.94 0 9 0 C9 9.24 9 18.48 9 28 C6.03 28 3.06 28 0 28 C0 18.76 0 9.52 0 0 Z " fill="#E1A6F4" transform="translate(321,79)"/>
<path d="M0 0 C0.33 0 0.66 0 1 0 C1 13.86 1 27.72 1 42 C13.54 42 26.08 42 39 42 C39 28.14 39 14.28 39 0 C39.33 0 39.66 0 40 0 C40 14.19 40 28.38 40 43 C27.13 43 14.26 43 1 43 C1 56.53 1 70.06 1 84 C13.87 84 26.74 84 40 84 C40 84.33 40 84.66 40 85 C26.8 85 13.6 85 0 85 C0 71.14 0 57.28 0 43 C-12.87 43 -25.74 43 -39 43 C-39 42.67 -39 42.34 -39 42 C-26.13 42 -13.26 42 0 42 C0 28.14 0 14.28 0 0 Z " fill="#752995" transform="translate(370,36)"/>
<path d="M0 0 C2.64 0 5.28 0 8 0 C8 9.9 8 19.8 8 30 C5.36 30 2.72 30 0 30 C0 20.1 0 10.2 0 0 Z " fill="#9C7EF0" transform="translate(30,371)"/>
<path d="M0 0 C0.33 0 0.66 0 1 0 C1 13.53 1 27.06 1 41 C10.9 41 20.8 41 31 41 C31 37.37 31 33.74 31 30 C34.3 30 37.6 30 41 30 C41 20.1 41 10.2 41 0 C41.33 0 41.66 0 42 0 C42 13.86 42 27.72 42 42 C28.14 42 14.28 42 0 42 C0 28.14 0 14.28 0 0 Z " fill="#D06AE3" transform="translate(80,36)"/>
<path d="M0 0 C0.33 0 0.66 0 1 0 C1 13.53 1 27.06 1 41 C10.9 41 20.8 41 31 41 C31 37.37 31 33.74 31 30 C33.97 30 36.94 30 40 30 C40 20.1 40 10.2 40 0 C40.33 0 40.66 0 41 0 C41 13.86 41 27.72 41 42 C27.47 42 13.94 42 0 42 C0 28.14 0 14.28 0 0 Z " fill="#C460DE" transform="translate(250,36)"/>
<path d="M0 0 C3.63 0 7.26 0 11 0 C11.05379226 2.95857409 11.09357093 5.91617721 11.125 8.875 C11.14175781 9.71675781 11.15851563 10.55851563 11.17578125 11.42578125 C11.18222656 12.23144531 11.18867188 13.03710938 11.1953125 13.8671875 C11.20578613 14.61081543 11.21625977 15.35444336 11.22705078 16.12060547 C11 18 11 18 9 20 C6.6670386 20.04166002 4.3329614 20.04166002 2 20 C1.34 20.33 0.68 20.66 0 21 C0 14.07 0 7.14 0 0 Z " fill="#FD2ABD" transform="translate(122,0)"/>
<path d="M0 0 C13.2 0 26.4 0 40 0 C40 12.21 40 24.42 40 37 C26.8 37 13.6 37 0 37 C0 24.79 0 12.58 0 0 Z M30 3 C30 4.65 30 6.3 30 8 C29.67 6.02 29.34 4.04 29 2 C19.76 2 10.52 2 1 2 C1 13.22 1 24.44 1 36 C13.54 36 26.08 36 39 36 C39 24.45 39 12.9 39 1 C35.20442119 1 33.37097383 1.50178941 30 3 Z " fill="#0D8EDE" transform="translate(291,334)"/>
<path d="M0 0 C0.33 0 0.66 0 1 0 C1 3.96 1 7.92 1 12 C10.9 12 20.8 12 31 12 C31 8.04 31 4.08 31 0 C34.3 0 37.6 0 41 0 C41 4.29 41 8.58 41 13 C27.47 13 13.94 13 0 13 C0 8.71 0 4.42 0 0 Z " fill="#533DD7" transform="translate(250,321)"/>
<path d="M0 0 C4.62 0 9.24 0 14 0 C14 3.96 14 7.92 14 12 C9.38 12 4.76 12 0 12 C0 8.04 0 4.08 0 0 Z " fill="#D259F2" transform="translate(156,107)"/>
<path d="M0 0 C3.3 0 6.6 0 10 0 C10 4.29 10 8.58 10 13 C-3.2 13 -16.4 13 -30 13 C-30 12.67 -30 12.34 -30 12 C-20.1 12 -10.2 12 0 12 C0 8.04 0 4.08 0 0 Z " fill="#B04FEB" transform="translate(70,192)"/>
<path d="M0 0 C3.3 0 6.6 0 10 0 C10 4.29 10 8.58 10 13 C-3.2 13 -16.4 13 -30 13 C-30 12.67 -30 12.34 -30 12 C-20.1 12 -10.2 12 0 12 C0 8.04 0 4.08 0 0 Z " fill="#CA60EE" transform="translate(70,107)"/>
<path d="M0 0 C3.3 0 6.6 0 10 0 C10 4.29 10 8.58 10 13 C-2.87 13 -15.74 13 -29 13 C-29 12.67 -29 12.34 -29 12 C-19.43 12 -9.86 12 0 12 C0 8.04 0 4.08 0 0 Z " fill="#AD40DF" transform="translate(400,193)"/>
<path d="M0 0 C3.3 0 6.6 0 10 0 C10 4.29 10 8.58 10 13 C-2.87 13 -15.74 13 -29 13 C-29 12.67 -29 12.34 -29 12 C-19.43 12 -9.86 12 0 12 C0 8.04 0 4.08 0 0 Z " fill="#C659ED" transform="translate(240,107)"/>
<path d="M0 0 C1.5631897 0.00785522 1.5631897 0.00785522 3.15795898 0.01586914 C4.28266602 0.0190918 5.40737305 0.02231445 6.56616211 0.02563477 C7.75016602 0.03401367 8.93416992 0.04239258 10.15405273 0.05102539 C11.34192383 0.05553711 12.52979492 0.06004883 13.75366211 0.06469727 C16.69967499 0.07652864 19.64558954 0.09301252 22.59155273 0.11352539 C22.26155273 1.76352539 21.93155273 3.41352539 21.59155273 5.11352539 C22.25155273 5.44352539 22.91155273 5.77352539 23.59155273 6.11352539 C14.35155273 6.11352539 5.11155273 6.11352539 -4.40844727 6.11352539 C-3.21606086 0.15159334 -3.21606086 0.15159334 0 0 Z " fill="#D86EF2" transform="translate(336.408447265625,71.886474609375)"/>
<path d="M0 0 C4.29 0 8.58 0 13 0 C13 3.96 13 7.92 13 12 C8.71 12 4.42 12 0 12 C0 8.04 0 4.08 0 0 Z " fill="#843FE9" transform="translate(157,278)"/>
<path d="M0 0 C0.33 0 0.66 0 1 0 C1 3.96 1 7.92 1 12 C11.23 12 21.46 12 32 12 C32 8.37 32 4.74 32 1 C34.97 1 37.94 1 41 1 C41 4.96 41 8.92 41 13 C27.47 13 13.94 13 0 13 C0 8.71 0 4.42 0 0 Z " fill="#5B42DD" transform="translate(80,321)"/>
<path d="M0 0 C0.33 0 0.66 0 1 0 C1 13.86 1 27.72 1 42 C-2.3 42 -5.6 42 -9 42 C-9 38.04 -9 34.08 -9 30 C-6.03 30 -3.06 30 0 30 C0 20.1 0 10.2 0 0 Z " fill="#753EDF" transform="translate(330,248)"/>
<path d="M0 0 C3.3 0 6.6 0 10 0 C10 4.29 10 8.58 10 13 C-2.87 13 -15.74 13 -29 13 C-29 12.67 -29 12.34 -29 12 C-19.1 12 -9.2 12 1 12 C0.67 8.04 0.34 4.08 0 0 Z " fill="#5C41E0" transform="translate(200,321)"/>
<path d="M0 0 C2.97 0 5.94 0 9 0 C9 4.29 9 8.58 9 13 C-3.87 13 -16.74 13 -30 13 C-30 12.67 -30 12.34 -30 12 C-20.1 12 -10.2 12 0 12 C0 8.04 0 4.08 0 0 Z " fill="#5842E0" transform="translate(30,321)"/>
<path d="M0 0 C2.97 0 5.94 0 9 0 C9 4.29 9 8.58 9 13 C-3.87 13 -16.74 13 -30 13 C-30 12.67 -30 12.34 -30 12 C-20.1 12 -10.2 12 0 12 C0 8.04 0 4.08 0 0 Z " fill="#AD49EA" transform="translate(241,192)"/>
<path d="M0 0 C15.84 0 31.68 0 48 0 C48 0.33 48 0.66 48 1 C33.15 1.33 18.3 1.66 3 2 C1.83597273 5.49208181 1.78881492 8.39147772 1.68359375 12.07421875 C1.64548584 13.32549561 1.60737793 14.57677246 1.56811523 15.8659668 C1.52501221 17.45707275 1.48190918 19.04817871 1.4375 20.6875 C1.293125 25.740625 1.14875 30.79375 1 36 C16.51 36 32.02 36 48 36 C48 36.33 48 36.66 48 37 C32.16 37 16.32 37 0 37 C0 24.79 0 12.58 0 0 Z " fill="#1587D9" transform="translate(122,334)"/>
<path d="M0 0 C3.3 0 6.6 0 10 0 C10 4.62 10 9.24 10 14 C6.04 14 2.08 14 -2 14 C-1.34 9.38 -0.68 4.76 0 0 Z " fill="#FD01C2" transform="translate(70,21)"/>
<path d="M0 0 C2.97 0 5.94 0 9 0 C9 3.96 9 7.92 9 12 C-3.87 12 -16.74 12 -30 12 C-30 11.67 -30 11.34 -30 11 C-20.1 11 -10.2 11 0 11 C0 7.37 0 3.74 0 0 Z " fill="#DA65F0" transform="translate(30,66)"/>
<path d="M0 0 C3.63 0 7.26 0 11 0 C11 3.96 11 7.92 11 12 C7.37 12 3.74 12 0 12 C0 8.04 0 4.08 0 0 Z " fill="#853EE8" transform="translate(122,278)"/>
<path d="M0 0 C0.33 0 0.66 0 1 0 C1 3.63 1 7.26 1 11 C14.2 11 27.4 11 41 11 C41 11.33 41 11.66 41 12 C27.8 12 14.6 12 1 12 C1 25.53 1 39.06 1 53 C0.67 53 0.34 53 0 53 C0 39.47 0 25.94 0 12 C-12.87 12 -25.74 12 -39 12 C-39 11.67 -39 11.34 -39 11 C-26.13 11 -13.26 11 0 11 C0 7.37 0 3.74 0 0 Z " fill="#8E4BA7" transform="translate(39,67)"/>
<path d="M0 0 C12.87 0 25.74 0 39 0 C39 0.33 39 0.66 39 1 C37.35 1.33 35.7 1.66 34 2 C34 9.92 34 17.84 34 26 C33.01 26.495 33.01 26.495 32 27 C31.34 27.66 30.68 28.32 30 29 C30 19.76 30 10.52 30 1 C20.1 1 10.2 1 0 1 C0 0.67 0 0.34 0 0 Z " fill="#C399E6" transform="translate(171,205)"/>
<path d="M0 0 C12.87 0 25.74 0 39 0 C39 12.21 39 24.42 39 37 C26.13 37 13.26 37 0 37 C0 36.67 0 36.34 0 36 C12.54 36 25.08 36 38 36 C37.67 24.78 37.34 13.56 37 2 C18.685 1.505 18.685 1.505 0 1 C0 0.67 0 0.34 0 0 Z " fill="#138ADE" transform="translate(211,334)"/>
<path d="M0 0 C3.3 0 6.6 0 10 0 C10 4.29 10 8.58 10 13 C6.7 12.67 3.4 12.34 0 12 C0 8.04 0 4.08 0 0 Z " fill="#4435DF" transform="translate(360,321)"/>
<path d="M0 0 C0 4.29 0 8.58 0 13 C-3.3 13 -6.6 13 -10 13 C-10 9.04 -10 5.08 -10 1 C-8.535625 0.835 -7.07125 0.67 -5.5625 0.5 C-4.32693359 0.36078125 -4.32693359 0.36078125 -3.06640625 0.21875 C-1 0 -1 0 0 0 Z " fill="#8440ED" transform="translate(80,277)"/>
<path d="M0 0 C3.3 0 6.6 0 10 0 C10 3.96 10 7.92 10 12 C6.7 12 3.4 12 0 12 C0 8.04 0 4.08 0 0 Z " fill="#8038E6" transform="translate(400,279)"/>
<path d="M0 0 C3.3 0 6.6 0 10 0 C10 3.96 10 7.92 10 12 C6.7 12 3.4 12 0 12 C0 8.04 0 4.08 0 0 Z " fill="#8939EA" transform="translate(360,235)"/>
<path d="M0 0 C3.3 0 6.6 0 10 0 C10 3.96 10 7.92 10 12 C6.7 12 3.4 12 0 12 C0 8.04 0 4.08 0 0 Z " fill="#A648EE" transform="translate(111,235)"/>
<path d="M0 0 C3.3 0 6.6 0 10 0 C10 3.96 10 7.92 10 12 C6.7 12 3.4 12 0 12 C0 8.04 0 4.08 0 0 Z " fill="#AD3EEF" transform="translate(360,150)"/>
<path d="M0 0 C3.3 0 6.6 0 10 0 C10 3.96 10 7.92 10 12 C6.7 12 3.4 12 0 12 C0 8.04 0 4.08 0 0 Z " fill="#C456F1" transform="translate(111,150)"/>
<path d="M0 0 C3.3 0 6.6 0 10 0 C10 3.96 10 7.92 10 12 C6.7 12 3.4 12 0 12 C0 8.04 0 4.08 0 0 Z " fill="#D348ED" transform="translate(400,108)"/>
<path d="M0 0 C3.3 0 6.6 0 10 0 C10 3.96 10 7.92 10 12 C6.7 12 3.4 12 0 12 C0 8.04 0 4.08 0 0 Z " fill="#BF3EED" transform="translate(360,66)"/>
<path d="M0 0 C0.33 0 0.66 0 1 0 C1.02465746 4.1117256 1.04283959 8.22342278 1.05493164 12.33520508 C1.0599708 13.73495228 1.06680216 15.1346942 1.07543945 16.53442383 C1.0875232 18.54245777 1.09269807 20.55052957 1.09765625 22.55859375 C1.10289307 23.76829834 1.10812988 24.97800293 1.11352539 26.22436523 C1 29 1 29 0 30 C-2.8843382 30.08865208 -5.74462158 30.11521296 -8.62890625 30.09765625 C-9.92525246 30.09553383 -9.92525246 30.09553383 -11.24778748 30.09336853 C-14.01939292 30.08775239 -16.7909188 30.07519719 -19.5625 30.0625 C-21.4368478 30.05748708 -23.31119685 30.05292381 -25.18554688 30.04882812 C-29.79039544 30.03777772 -34.39518421 30.0205023 -39 30 C-39 29.67 -39 29.34 -39 29 C-28.77 29 -18.54 29 -8 29 C-8 24.05 -8 19.1 -8 14 C-7.67 14 -7.34 14 -7 14 C-7 17.3 -7 20.6 -7 24 C-5.68 23.67 -4.36 23.34 -3 23 C-2.01 23.33 -1.02 23.66 0 24 C0 16.08 0 8.16 0 0 Z " fill="#AF87EC" transform="translate(79,248)"/>
<path d="M0 0 C3.3 0 6.6 0 10 0 C10 3.63 10 7.26 10 11 C6.7 11 3.4 11 0 11 C0 7.37 0 3.74 0 0 Z " fill="#BA44EE" transform="translate(123,193)"/>
<path d="M0 0 C2.97 0 5.94 0 9 0 C9 3.96 9 7.92 9 12 C6.03 12 3.06 12 0 12 C0 8.04 0 4.08 0 0 Z " fill="#823DEB" transform="translate(241,278)"/>
<path d="M0 0 C2.97 0 5.94 0 9 0 C9 3.96 9 7.92 9 12 C6.03 12 3.06 12 0 12 C0 8.04 0 4.08 0 0 Z " fill="#9A41EE" transform="translate(281,235)"/>
<path d="M0 0 C2.97 0 5.94 0 9 0 C9 3.96 9 7.92 9 12 C6.03 12 3.06 12 0 12 C0 8.04 0 4.08 0 0 Z " fill="#9E44F1" transform="translate(201,235)"/>
<path d="M0 0 C2.97 0 5.94 0 9 0 C9 3.96 9 7.92 9 12 C6.03 12 3.06 12 0 12 C0 8.04 0 4.08 0 0 Z " fill="#9D44EE" transform="translate(30,235)"/>
<path d="M0 0 C2.97 0 5.94 0 9 0 C9 3.96 9 7.92 9 12 C6.03 12 3.06 12 0 12 C0 8.04 0 4.08 0 0 Z " fill="#A73DEE" transform="translate(321,192)"/>
<path d="M0 0 C2.97 0 5.94 0 9 0 C9 3.96 9 7.92 9 12 C6.03 12 3.06 12 0 12 C0 8.04 0 4.08 0 0 Z " fill="#BB4CF1" transform="translate(281,150)"/>
<path d="M0 0 C2.97 0 5.94 0 9 0 C9 3.96 9 7.92 9 12 C6.03 12 3.06 12 0 12 C0 8.04 0 4.08 0 0 Z " fill="#BE50F3" transform="translate(201,150)"/>
<path d="M0 0 C2.97 0 5.94 0 9 0 C9 3.96 9 7.92 9 12 C6.03 12 3.06 12 0 12 C0 8.04 0 4.08 0 0 Z " fill="#C052F0" transform="translate(30,150)"/>
<path d="M0 0 C2.97 0 5.94 0 9 0 C9 3.96 9 7.92 9 12 C6.03 12 3.06 12 0 12 C0 8.04 0 4.08 0 0 Z " fill="#C24DF2" transform="translate(321,107)"/>
<path d="M0 0 C2.97 0 5.94 0 9 0 C9 3.96 9 7.92 9 12 C6.03 12 3.06 12 0 12 C0 8.04 0 4.08 0 0 Z " fill="#D85CF2" transform="translate(201,66)"/>
<path d="M0 0 C12.54 0 25.08 0 38 0 C38 0.33 38 0.66 38 1 C35.03 1 32.06 1 29 1 C29 1.66 29 2.32 29 3 C28.19256348 3.01458252 27.38512695 3.02916504 26.55322266 3.04418945 C22.9099873 3.11846086 19.26768967 3.21519025 15.625 3.3125 C14.35398437 3.33505859 13.08296875 3.35761719 11.7734375 3.38085938 C9.95585937 3.4340332 9.95585937 3.4340332 8.1015625 3.48828125 C6.42054443 3.52755737 6.42054443 3.52755737 4.70556641 3.56762695 C3.81272949 3.71031006 2.91989258 3.85299316 2 4 C1.34 4.99 0.68 5.98 0 7 C0 4.69 0 2.38 0 0 Z " fill="#740082" transform="translate(371,36)"/>
<path d="M0 0 C10.23 0 20.46 0 31 0 C30.67 0.99 30.34 1.98 30 3 C20.1 3 10.2 3 0 3 C0 2.01 0 1.02 0 0 Z " fill="#29005F" transform="translate(1,202)"/>
<path d="M0 0 C0.66 0.33 1.32 0.66 2 1 C2 9.25 2 17.5 2 26 C0.02 26 -1.96 26 -4 26 C-3.34 25.67 -2.68 25.34 -2 25 C-2.01160156 24.44054687 -2.02320313 23.88109375 -2.03515625 23.3046875 C-2.11898549 15.85586061 -1.83429278 8.40563595 -1 1 C-0.67 0.67 -0.34 0.34 0 0 Z " fill="#650081" transform="translate(288,9)"/>
<path d="M0 0 C9.9 0 19.8 0 30 0 C30 3.96 30 7.92 30 12 C29.67 12 29.34 12 29 12 C29 8.7 29 5.4 29 2 C20.09 2 11.18 2 2 2 C2 4.31 2 6.62 2 9 C1.34 9.99 0.68 10.98 0 12 C0 8.04 0 4.08 0 0 Z " fill="#C172EB" transform="translate(211,192)"/>
<path d="M0 0 C7.59 0 15.18 0 23 0 C23 0.66 23 1.32 23 2 C25.97 2 28.94 2 32 2 C32 2.33 32 2.66 32 3 C19.46 3 6.92 3 -6 3 C-6 2.67 -6 2.34 -6 2 C-4.02 2 -2.04 2 0 2 C0 1.34 0 0.68 0 0 Z " fill="#29005D" transform="translate(88,202)"/>
<path d="M0 0 C12.87 0 25.74 0 39 0 C39 9.9 39 19.8 39 30 C36.03 30 33.06 30 30 30 C30 29.67 30 29.34 30 29 C32.31 28.34 34.62 27.68 37 27 C37.33 18.42 37.66 9.84 38 1 C25.46 1 12.92 1 0 1 C0 0.67 0 0.34 0 0 Z " fill="#B48CDB" transform="translate(0,205)"/>
<path d="M0 0 C9.57 0 19.14 0 29 0 C29 0.33 29 0.66 29 1 C20.51168642 3.56943546 12.85406634 4.38558031 4 4 C3.67 3.34 3.34 2.68 3 2 C2.01 1.34 1.02 0.68 0 0 Z " fill="#6958E7" transform="translate(171,321)"/>
<path d="M0 0 C9.24 0 18.48 0 28 0 C28 0.33 28 0.66 28 1 C22.06 1.495 22.06 1.495 16 2 C17.32 2.66 18.64 3.32 20 4 C13.4 4 6.8 4 0 4 C0 2.68 0 1.36 0 0 Z " fill="#5551E3" transform="translate(332,321)"/>
<path d="M0 0 C0.33 0 0.66 0 1 0 C1.33 6.6 1.66 13.2 2 20 C2.99 20 3.98 20 5 20 C5.33 19.01 5.66 18.02 6 17 C6 18.32 6 19.64 6 21 C3.03 21 0.06 21 -3 21 C-2.88618103 18.06167355 -2.75943449 15.1248935 -2.625 12.1875 C-2.5940625 11.35412109 -2.563125 10.52074219 -2.53125 9.66210938 C-2.49257812 8.85966797 -2.45390625 8.05722656 -2.4140625 7.23046875 C-2.3826416 6.49207764 -2.3512207 5.75368652 -2.31884766 4.99291992 C-2 3 -2 3 0 0 Z " fill="#917AF1" transform="translate(204,300)"/>
<path d="M0 0 C15.51 0 31.02 0 47 0 C47 0.33 47 0.66 47 1 C36.63365638 1.67189264 26.35411446 2.10094969 15.96484375 1.9375 C13.11383791 1.65547977 13.11383791 1.65547977 12 3 C7.45049584 3.26247139 4.11560195 2.99544337 0 1 C0 0.67 0 0.34 0 0 Z " fill="#81008D" transform="translate(122,36)"/>
<path d="M0 0 C3.3 0 6.6 0 10 0 C10 4.95 10 9.9 10 15 C9.67 15 9.34 15 9 15 C9 10.38 9 5.76 9 1 C7.02 1.33 5.04 1.66 3 2 C2.34 10.91 1.68 19.82 1 29 C0.67 29 0.34 29 0 29 C0 19.43 0 9.86 0 0 Z " fill="#B48EE7" transform="translate(400,249)"/>
<path d="M0 0 C9.9 0 19.8 0 30 0 C30 0.33 30 0.66 30 1 C27.56288386 1.19484938 25.12562602 1.38115178 22.6875 1.5625 C21.99720703 1.61857422 21.30691406 1.67464844 20.59570312 1.73242188 C17.37487726 1.96581505 15.09672655 2.03224218 12 1 C12 1.99 12 2.98 12 4 C8.37 4 4.74 4 1 4 C0.67 2.68 0.34 1.36 0 0 Z " fill="#6058E6" transform="translate(0,321)"/>
<path d="M0 0 C9.9 0 19.8 0 30 0 C30 0.33 30 0.66 30 1 C28.90300781 1.04898437 27.80601562 1.09796875 26.67578125 1.1484375 C25.22133075 1.22350591 23.76690484 1.29905197 22.3125 1.375 C21.2306543 1.42140625 21.2306543 1.42140625 20.12695312 1.46875 C15.97725576 1.69613068 12.84914906 2.32704829 9 4 C6.66666667 4 4.33333333 4 2 4 C1.34 4.66 0.68 5.32 0 6 C0 4.02 0 2.04 0 0 Z " fill="#6255E3" transform="translate(251,321)"/>
<path d="M0 0 C1.66913272 0.32075666 3.33540699 0.65646104 5 1 C6.69257245 1.07700286 8.38773999 1.10805067 10.08203125 1.09765625 C11.01337891 1.09443359 11.94472656 1.09121094 12.90429688 1.08789062 C14.34385742 1.07532227 14.34385742 1.07532227 15.8125 1.0625 C16.79154297 1.05798828 17.77058594 1.05347656 18.77929688 1.04882812 C21.18626111 1.03708684 23.59309857 1.02066419 26 1 C26 1.66 26 2.32 26 3 C10.49 3 -5.02 3 -21 3 C-21 2.34 -21 1.68 -21 1 C-20.09906616 1.00785522 -20.09906616 1.00785522 -19.17993164 1.01586914 C-16.47413162 1.03658014 -13.76834823 1.04964125 -11.0625 1.0625 C-10.11697266 1.07087891 -9.17144531 1.07925781 -8.19726562 1.08789062 C-7.29814453 1.09111328 -6.39902344 1.09433594 -5.47265625 1.09765625 C-4.64000244 1.10289307 -3.80734863 1.10812988 -2.94946289 1.11352539 C-0.99483202 1.21643292 -0.99483202 1.21643292 0 0 Z " fill="#4F0275" transform="translate(144,75)"/>
<path d="M0 0 C2.64 0 5.28 0 8 0 C8 1.98 8 3.96 8 6 C7.01 6.495 7.01 6.495 6 7 C6 5.68 6 4.36 6 3 C4.35 3.66 2.7 4.32 1 5 C1 12.59 1 20.18 1 28 C0.67 28 0.34 28 0 28 C0 18.76 0 9.52 0 0 Z " fill="#F4BEEF" transform="translate(30,37)"/>
<path d="M0 0 C9.57 0 19.14 0 29 0 C28.67 0.99 28.34 1.98 28 3 C19.09 3 10.18 3 1 3 C0.67 2.01 0.34 1.02 0 0 Z " fill="#DD86F0" transform="translate(292,107)"/>
<path d="M0 0 C1.32 0 2.64 0 4 0 C4 10.89 4 21.78 4 33 C3.67 33 3.34 33 3 33 C2.67 23.76 2.34 14.52 2 5 C1.67 5.66 1.34 6.32 1 7 C0.34 7 -0.32 7 -1 7 C-0.67 4.69 -0.34 2.38 0 0 Z " fill="#009AF1" transform="translate(406,337)"/>
<path d="M0 0 C9.24 0 18.48 0 28 0 C28 0.33 28 0.66 28 1 C25.33397504 1.33931227 22.66736986 1.67157176 20 2 C19.25621094 2.09539063 18.51242188 2.19078125 17.74609375 2.2890625 C5.38256369 3.7941879 5.38256369 3.7941879 0 2 C0 1.34 0 0.68 0 0 Z " fill="#720087" transform="translate(211,36)"/>
<path d="M0 0 C7.59 0 15.18 0 23 0 C23 0.66 23 1.32 23 2 C12.11 2.495 12.11 2.495 1 3 C0.67 2.01 0.34 1.02 0 0 Z " fill="#E38BF2" transform="translate(133,107)"/>
<path d="M0 0 C2.475 0.495 2.475 0.495 5 1 C5 3.97 5 6.94 5 10 C3.35 10.33 1.7 10.66 0 11 C0 7.37 0 3.74 0 0 Z " fill="#B737ED" transform="translate(400,194)"/>
<path d="M0 0 C1.98 0 3.96 0 6 0 C5.2884375 0.61875 5.2884375 0.61875 4.5625 1.25 C1.4550831 4.73030693 1.82641315 9.02701539 1.68359375 13.515625 C1.64169922 14.76601562 1.59980469 16.01640625 1.55664062 17.3046875 C1.51732422 18.60664063 1.47800781 19.90859375 1.4375 21.25 C1.39431641 22.56742188 1.35113281 23.88484375 1.30664062 25.2421875 C1.20058083 28.49468788 1.09851976 31.74726392 1 35 C0.67 35 0.34 35 0 35 C0 23.45 0 11.9 0 0 Z " fill="#9F0093" transform="translate(80,0)"/>
<path d="M0 0 C0.33 0 0.66 0 1 0 C1 4.95 1 9.9 1 15 C-2.3 15 -5.6 15 -9 15 C-8.67 12.03 -8.34 9.06 -8 6 C-7.01 6.99 -6.02 7.98 -5 9 C-5 10.32 -5 11.64 -5 13 C-3.68 12.67 -2.36 12.34 -1 12 C-0.67 8.04 -0.34 4.08 0 0 Z " fill="#A078EA" transform="translate(409,264)"/>
<path d="M0 0 C0.66 0 1.32 0 2 0 C2 4.95 2 9.9 2 15 C1.01 15.495 1.01 15.495 0 16 C-0.19504458 13.89651926 -0.38078496 11.79217415 -0.5625 9.6875 C-0.66691406 8.51574219 -0.77132813 7.34398437 -0.87890625 6.13671875 C-1 3 -1 3 0 0 Z " fill="#FF0BC3" transform="translate(319,0)"/>
<path d="M0 0 C0.33 0.99 0.66 1.98 1 3 C1.61488281 2.97679687 2.22976562 2.95359375 2.86328125 2.9296875 C3.67152344 2.91164063 4.47976562 2.89359375 5.3125 2.875 C6.11300781 2.85179687 6.91351563 2.82859375 7.73828125 2.8046875 C10 3 10 3 13 5 C10 7 10 7 8 6.625 C7.34 6.41875 6.68 6.2125 6 6 C3.0745356 5.7763932 3.0745356 5.7763932 1 7 C0.67 4.69 0.34 2.38 0 0 Z " fill="#FF27C1" transform="translate(133,18)"/>
<path d="M0 0 C3.3 0 6.6 0 10 0 C10 0.33 10 0.66 10 1 C7.69 1.66 5.38 2.32 3 3 C2.87625 4.134375 2.7525 5.26875 2.625 6.4375 C2.41875 7.613125 2.2125 8.78875 2 10 C1.01 10.495 1.01 10.495 0 11 C0 7.37 0 3.74 0 0 Z " fill="#F5C3F4" transform="translate(123,79)"/>
<path d="M0 0 C2.97 0 5.94 0 9 0 C8.67 0.99 8.34 1.98 8 3 C7.195625 2.814375 6.39125 2.62875 5.5625 2.4375 C4.2940625 2.2209375 4.2940625 2.2209375 3 2 C1.50256881 3.49743119 1.66797307 4.98824239 1.4375 7.0625 C1.293125 8.361875 1.14875 9.66125 1 11 C0.67 11 0.34 11 0 11 C0 7.37 0 3.74 0 0 Z " fill="#A78AED" transform="translate(201,371)"/>
<path d="M0 0 C0.33 0 0.66 0 1 0 C1 5.61 1 11.22 1 17 C1.66 17 2.32 17 3 17 C3 17.99 3 18.98 3 20 C2.01 20.33 1.02 20.66 0 21 C0 14.07 0 7.14 0 0 Z " fill="#DBCFF2" transform="translate(211,256)"/>
<path d="M0 0 C0.33 0 0.66 0 1 0 C1.06058594 0.69867188 1.12117187 1.39734375 1.18359375 2.1171875 C1.26738281 3.02726562 1.35117188 3.93734375 1.4375 4.875 C1.51871094 5.77992188 1.59992188 6.68484375 1.68359375 7.6171875 C1.86989285 10.01110861 1.86989285 10.01110861 3 12 C3.66 12 4.32 12 5 12 C5 12.66 5 13.32 5 14 C3.35 14 1.7 14 0 14 C0 9.38 0 4.76 0 0 Z " fill="#A684EE" transform="translate(241,263)"/>
<path d="M0 0 C0.33 0 0.66 0 1 0 C1 2.31 1 4.62 1 7 C-2.3 7 -5.6 7 -9 7 C-8.67 5.35 -8.34 3.7 -8 2 C-7.67 3.32 -7.34 4.64 -7 6 C-5.35 6 -3.7 6 -2 6 C-1.34 4.02 -0.68 2.04 0 0 Z " fill="#AD7DF4" transform="translate(369,228)"/>
<path d="M0 0 C0.33 0.99 0.66 1.98 1 3 C1.99 2.67 2.98 2.34 4 2 C3.34 3.65 2.68 5.3 2 7 C3.98 7 5.96 7 8 7 C8 7.33 8 7.66 8 8 C5.03 8 2.06 8 -1 8 C-0.67 5.36 -0.34 2.72 0 0 Z " fill="#9670ED" transform="translate(322,270)"/>
<path d="M0 0 C2.97 0 5.94 0 9 0 C7 2 7 2 3.9375 2.9375 C2.968125 3.288125 1.99875 3.63875 1 4 C0.67 4.99 0.34 5.98 0 7 C0 4.69 0 2.38 0 0 Z " fill="#A84AE8" transform="translate(321,192)"/>
<path d="M0 0 C2.97 0 5.94 0 9 0 C9 0.66 9 1.32 9 2 C6.36 2.33 3.72 2.66 1 3 C0.67 3.99 0.34 4.98 0 6 C0 4.02 0 2.04 0 0 Z " fill="#C559EC" transform="translate(321,107)"/>
<path d="M0 0 C0.33 0 0.66 0 1 0 C1 4.95 1 9.9 1 15 C-0.32 14.67 -1.64 14.34 -3 14 C-3 13.34 -3 12.68 -3 12 C-2.34 12 -1.68 12 -1 12 C-0.67 8.04 -0.34 4.08 0 0 Z " fill="#E2CCF8" transform="translate(359,219)"/>
<path d="M0 0 C0.33 0 0.66 0 1 0 C1 4.62 1 9.24 1 14 C0.01 14 -0.98 14 -2 14 C-1.7834375 13.0409375 -1.7834375 13.0409375 -1.5625 12.0625 C-0.82763202 8.06155212 -0.41418889 4.04495104 0 0 Z " fill="#F000C8" transform="translate(169,21)"/>
<path d="M0 0 C1.32 0.33 2.64 0.66 4 1 C3.34 1.66 2.68 2.32 2 3 C1.53709779 5.66242821 1.53709779 5.66242821 1.375 8.625 C1.30023438 9.62789062 1.22546875 10.63078125 1.1484375 11.6640625 C1.09945313 12.43492188 1.05046875 13.20578125 1 14 C0.67 14 0.34 14 0 14 C0 9.38 0 4.76 0 0 Z " fill="#FB3ACA" transform="translate(291,0)"/>
<path d="M0 0 C1.98 0.99 1.98 0.99 4 2 C3.67 3.32 3.34 4.64 3 6 C2.01 6 1.02 6 0 6 C0 4.02 0 2.04 0 0 Z " fill="#FF12BE" transform="translate(244,0)"/>
<path d="M0 0 C0.33 0 0.66 0 1 0 C1 2.31 1 4.62 1 7 C-0.32 7 -1.64 7 -3 7 C-3 6.01 -3 5.02 -3 4 C-2.34 4 -1.68 4 -1 4 C-0.67 2.68 -0.34 1.36 0 0 Z " fill="#020C6E" transform="translate(125,326)"/>
<path d="M0 0 C0.66 0 1.32 0 2 0 C2.33 1.32 2.66 2.64 3 4 C0.03 4 -2.94 4 -6 4 C-4.68 3.34 -3.36 2.68 -2 2 C-1.34 1.34 -0.68 0.68 0 0 Z " fill="#D79FF2" transform="translate(207,146)"/>
<path d="M0 0 C0.33 0 0.66 0 1 0 C1 3.96 1 7.92 1 12 C0.01 12 -0.98 12 -2 12 C-1.34 8.04 -0.68 4.08 0 0 Z " fill="#8A4BF1" transform="translate(240,278)"/>
<path d="M0 0 C1.32 0 2.64 0 4 0 C4 0.66 4 1.32 4 2 C4.99 2.33 5.98 2.66 7 3 C4.36 3 1.72 3 -1 3 C-0.67 2.01 -0.34 1.02 0 0 Z " fill="#58007D" transform="translate(152,74)"/>
</svg>
