<svg id="Layer_1" data-name="Layer 1" xmlns="http://www.w3.org/2000/svg" viewBox="0 0 181.44 201.02"><defs><style>.cls-1{fill:#000039;}.cls-2{fill:#fff;}.cls-3{fill:none;}.cls-4{fill:#d5d5d5;}.cls-5{fill:#d12027;}.cls-6{fill:#0d1036;}</style></defs><path class="cls-1" d="M3.39,168.41a30.42,30.42,0,0,1,7.9-20.79,29.66,29.66,0,0,1,4.33-4c1.49,6.39,3.06,12.62,6.71,16.19a23.41,23.41,0,0,0,7.09,4.21h0a20.28,20.28,0,0,1,6,3.5h0l0,0h0c1.65,1.62,2.52,3.86,3.42,6.16h0a21.65,21.65,0,0,0,3.39,6.44c3.07,3.62,8.78,6,14.73,8.24-.09.09-.17.19-.26.29q-8.23,9.13-21.45,10.08a30.63,30.63,0,0,1-21.87-7.89Q4.34,182.71,3.4,169.48c0-.36,0-.72,0-1.07ZM5.83,34.51c0-.36,0-.71,0-1.07Q7,20.23,16.22,12.12a30.62,30.62,0,0,1,22-7.6q12.5,1.05,20.44,9.4c-6.13,2.24-12.07,4.54-15.26,8.2a21.68,21.68,0,0,0-3.48,6.39h0c-.92,2.28-1.82,4.5-3.49,6.1l0,0v0h0a20.39,20.39,0,0,1-6.09,3.42h0a23.33,23.33,0,0,0-7.14,4.12c-3.67,3.49-5.32,9.62-6.88,15.94h0a28.87,28.87,0,0,1-2.76-2.77A30.46,30.46,0,0,1,5.83,34.51Zm101.32,74.63.25.52h0Zm.29.61,0,.06h0Zm0,.06Zm0,0Zm.09.18,0,.06h0Zm0,.07Zm0,0v0l0,.09Zm0,.11,0,.07v0Zm.08.16Zm0,0Zm0,0Zm0,0Zm0,0Zm0,0Zm0,0h0Zm0,0Zm0,0h0v0h0Zm0,0h0Zm0,0h0Zm0,0h0l0,0h0Zm0,.06Zm-1-2.14,0,.05,0,0,0,0,0,.06v0l.12.24-.08-.17,0-.06h0v0l0,0v0l.06.13-.06-.13.28.6.4.83,0,.07h0v0h0l0,.12.06.12v0h0l.07.15h0l0,0h0v0h0v0l0,0h0l.06.12-.06-.12h0l0-.09,0,.08h0Zm1,2.15Zm0,0Zm0,0Zm0,0Zm0,0Zm0,0,0,.06,0,.06Zm0,0,.08.17,0-.11Zm0,0,0,0,.09.19,0-.08Zm-.64-1.34h0l.49,1,0,0,.12.25h0l.16.34-.1-.22,0,.08v0l0,0,0,.05,0-.1-.07-.16.09.2-.1-.21h0v0l-.11-.22,0,0-.06-.11-.1-.21,0,0v0l0,0v0l0,0,.11.24Zm.67,1.41.17.35h0Zm.17.35,0,.1Zm0,.1,0,.09,0-.08Zm.06.11Zm0,0Zm0,0h0Zm0,0h0Zm0,0Zm0,0Zm0,0Zm0,0Zm0,0Zm0,0h0Zm0,0Zm-.4-.85.08.17v0h0l0,.06,0-.06h0l.18.39h0v0l.13.27-.22-.45.19.41-.3-.65h0l0,0h0v0l-.08-.17Zm.43.91Zm0,0Zm0,0h0Zm0,0h0Zm0,0Zm0,0Zm0,0Zm0,0Zm0,0Zm0,0,0,0h0Zm0,0Zm0,0Zm0,0h0Zm0,0Zm0,0Zm0,0Zm0,0Zm0,0Zm0,0Zm-.15-.33.06.12v0h0v0l0,.06L108,111l.07.13L108,111l.07.13h0v0l0,0h0v0h0v0l-.1-.22,0,.06v0h0l0,0,0-.06Zm.17.37Zm0,0Zm-.17-.37.17.37,0,.07,0-.07-.17-.35h0v0h0Zm.14.29v0h0l0,0,1.44,3-1.45-3.06h0v0l0,0h0Zm1.35,2.87.47,1Zm.6,1.25Zm0,0Zm0,0h0Zm-1.93-4.08.22.46-.22-.46,1.32,2.79.47,1h0l.17.36h0l-.17-.35.12.24-1.91-4,1.43,3Zm2,4.15,0,0,0,0Zm0,0v0l0,0Zm0,0,0,.08,0-.07Zm0,0,0,.1h0Zm.07.15Zm-.11-.24,0,.06h0l0,0,.06.14,0,0,0,0h0l0,0v0l0,0h0l0-.07,0,.07h0l-.06-.13,0-.09,0,0Zm.11.24Zm.09.18.15.32Zm-.09-.17.24.49-.23-.47Zm-6.29-14.79,6.72-13.74h0Zm7.24,16.79h0Zm0,.06Zm0,.07Zm5.53-17.59h0c0,.35,0,.71,0,1.08,0-.24,0-.47,0-.7h0c0-.13,0-.25,0-.38Zm0,1.29Zm0,.2ZM126.9,14.24q7.74-7.08,19.29-7.9a30.67,30.67,0,0,1,21.86,7.89q9.15,8.23,10.08,21.45c0,.36,0,.72,0,1.08a30.46,30.46,0,0,1-7.89,20.79c-.43.47-.86.92-1.31,1.36h0c-1.46-6.24-3-12.3-6.62-15.8a23.43,23.43,0,0,0-7.11-4.21h0a20.36,20.36,0,0,1-6-3.49l0,0h0c-1.65-1.63-2.52-3.85-3.41-6.15h0v0a22,22,0,0,0-3.4-6.44c-3.2-3.77-9.23-6.17-15.42-8.51Zm-1.16,174.92c6.22-2.27,12.28-4.58,15.52-8.3a21.79,21.79,0,0,0,3.48-6.39v0c.92-2.28,1.83-4.5,3.49-6.11h0l0,0h0a20.47,20.47,0,0,1,6.08-3.43h0a23.42,23.42,0,0,0,7.14-4.11c3.62-3.45,5.28-9.49,6.82-15.72.71.66,1.38,1.36,2,2.09A30.5,30.5,0,0,1,178,168c0,.36,0,.72,0,1.08q-1.12,13.2-10.37,21.31a30.58,30.58,0,0,1-22,7.6q-12.09-1-19.9-8.85ZM.05,168.38c0,.39,0,.78,0,1.17v.17q1,14.57,11.18,23.7h0a33.88,33.88,0,0,0,24.17,8.73h.16q14.58-1,23.7-11.19h0A33.72,33.72,0,0,0,68,168c0-.39,0-.78,0-1.17a1,1,0,0,0,0-.17,34.58,34.58,0,0,0-7-19.25l-2.41,2.36a31.47,31.47,0,0,1,6.11,17.13c0,.36,0,.72,0,1.08a30.37,30.37,0,0,1-6.77,19.46h0c-1.69-6-3.52-11.81-7-15.2a24.2,24.2,0,0,0-6.77-4.12h0A30.68,30.68,0,0,1,40,165.93l28.83-28.27,23.28-5.1L89.8,132l-18.34,3.06L89.8,132l25.4,5.91,28.51,28.7a33.62,33.62,0,0,1-4.07,2.06h0a23.88,23.88,0,0,0-6.81,4c-3.73,3.51-5.65,9.66-7.5,16h0c-.33-.35-.65-.7-1-1.07a30.46,30.46,0,0,1-7.63-20.89c0-.36,0-.72,0-1.08a31.24,31.24,0,0,1,6.65-17.45L121,145.84a34.43,34.43,0,0,0-7.6,19.56,1,1,0,0,0,0,.17q0,.59,0,1.17a33.75,33.75,0,0,0,8.44,23.11h0q9,10.26,23.55,11.49h.17a33.91,33.91,0,0,0,24.28-8.42h0q10.26-9,11.49-23.55a1,1,0,0,1,0-.17c0-.39,0-.78,0-1.17a33.75,33.75,0,0,0-8.44-23.11h0a34.76,34.76,0,0,0-6.56-5.77l-.2-.12-3.46-2-.19-.1a34.11,34.11,0,0,0-8.64-2.92l-.23,0-4.14-.52-.3,0a34.29,34.29,0,0,0-19.16,4.7h0l2,2.68a31.1,31.1,0,0,1,17-4l4.14.51a31.09,31.09,0,0,1,7.79,2.63l3.47,2a31.37,31.37,0,0,1,3.22,2.49c-6.28,2.09-12.29,4.28-15.45,7.88a20.24,20.24,0,0,0-3.48,6.78v0h0a29.21,29.21,0,0,1-1.62,3.9l-26.19-34.47q-1-3.35-1.74-6.4h0a151.39,151.39,0,0,1-2.39-20.5h0c0,.45,0,.89,0,1.31h0c0-.43,0-.86,0-1.31,0-.06,0-.12,0-.19h0c0,.07,0,.13,0,.19a151.91,151.91,0,0,1,2.66-20.46h0c.53-2,1.15-4.18,1.84-6.41h0l26.59-34.08h0a29.3,29.3,0,0,1,1.58,4v0a20.26,20.26,0,0,0,3.4,6.83c3.12,3.65,9.12,5.92,15.37,8.09a31.59,31.59,0,0,1-4,3.09l-3.49,2a30.94,30.94,0,0,1-7.83,2.53l-4.14.46A31,31,0,0,1,132,63.44h0l-2.08,2.66h0a34.22,34.22,0,0,0,19,4.87,1.51,1.51,0,0,0,.3,0l4.14-.46.23,0a33.94,33.94,0,0,0,8.68-2.81l.19-.1,3.49-2,.19-.12a33.81,33.81,0,0,0,6.64-5.68h0a33.75,33.75,0,0,0,8.75-23c0-.39,0-.78,0-1.17,0-.06,0-.11,0-.17q-1-14.56-11.18-23.69h0A33.89,33.89,0,0,0,146.11,3H146q-14.56,1-23.7,11.18h0a33.72,33.72,0,0,0-8.75,23c0,.39,0,.78,0,1.18,0,.05,0,.11,0,.16a34.47,34.47,0,0,0,7.38,19.69h0l2.4-2.35a31.34,31.34,0,0,1-6.44-17.58c0-.36,0-.72,0-1.07a30.46,30.46,0,0,1,7.89-20.79c.55-.61,1.11-1.18,1.68-1.73h0c1.77,6.34,3.61,12.53,7.3,16.1a23.86,23.86,0,0,0,6.77,4.13h0a32.41,32.41,0,0,1,4,2.11L115.71,65.34,90.2,70.92l2.31-.5-23-5.37L40.93,36.32h0a32.58,32.58,0,0,1,4-2h0a24.1,24.1,0,0,0,6.82-4c3.66-3.45,5.58-9.46,7.4-15.67h0l.28.32a30.48,30.48,0,0,1,7.63,20.89c0,.36,0,.72,0,1.08a31.33,31.33,0,0,1-6.47,17.24h0L63,56.48h0a34.51,34.51,0,0,0,7.44-19.35.86.86,0,0,1,0-.16c0-.4,0-.79,0-1.17A33.73,33.73,0,0,0,62,12.69h0Q53,2.42,38.47,1.19H38.3A33.86,33.86,0,0,0,14,9.6h0Q3.75,18.6,2.52,33.16a.92.92,0,0,1,0,.16c0,.39,0,.78,0,1.17A33.75,33.75,0,0,0,10.93,57.6h0a34.41,34.41,0,0,0,6.56,5.77l.2.12,3.46,2,.19.1A34.24,34.24,0,0,0,30,68.53l.23,0,4.14.51.3,0A34.15,34.15,0,0,0,54.1,64.24l-2-2.68h0a31,31,0,0,1-17.29,4.21l-4.14-.52a31.09,31.09,0,0,1-7.79-2.63l-3.47-2a30.72,30.72,0,0,1-2.63-2h0c6.34-2.11,12.45-4.31,15.64-7.95a20.19,20.19,0,0,0,3.48-6.77v0A28.91,28.91,0,0,1,37.49,40h0L63.72,74.51h0q1,3.3,1.72,6.33h0a151.1,151.1,0,0,1,2.39,20.49,151.91,151.91,0,0,1-2.66,20.46h0c-.54,2.08-1.17,4.26-1.87,6.53h0l-26.57,34a28.41,28.41,0,0,1-1.61-4h0a20.24,20.24,0,0,0-3.39-6.83c-3.17-3.7-9.3-6-15.66-8.18.39-.29.8-.57,1.21-.84l3.49-2A30.93,30.93,0,0,1,28.59,138l4.15-.47a30.9,30.9,0,0,1,17.79,4.79l2.07-2.65a34.07,34.07,0,0,0-19.94-5.48l-.3,0-4.14.46-.23,0a34.05,34.05,0,0,0-8.68,2.8l-.19.1-3.49,2-.19.11a34.15,34.15,0,0,0-6.64,5.69h0a33.67,33.67,0,0,0-8.74,23Zm0,0" transform="translate(-0.05 -1.15)"/><path class="cls-2" d="M74.45,101.79v0a17.62,17.62,0,0,0,17.46,17.69h0a18.09,18.09,0,0,0,4.68-.6l.1,0,2-.68.1,0a17.93,17.93,0,0,0,3.92-2.26h0a17.54,17.54,0,0,0,6.75-11.47.22.22,0,0,0,0-.08,22.94,22.94,0,0,0,.15-2.31,17.18,17.18,0,0,0-3.58-10.82h0a17.57,17.57,0,0,0-11.47-6.75l-.15,0-2.17-.16h-.15a17.6,17.6,0,0,0-17.69,17.46v0Zm0,0" transform="translate(-0.05 -1.15)"/><path class="cls-3" d="M76.06,101.8a17.85,17.85,0,0,0,.69,4.71h0L88.38,94.14,79.45,92h0a16.12,16.12,0,0,0-3.39,9.76Zm0,0" transform="translate(-0.05 -1.15)"/><path class="cls-3" d="M77.37,108.25a16,16,0,0,0,11.53,9.32L84,101.22l-6.61,7Zm0,0" transform="translate(-0.05 -1.15)"/><path class="cls-3" d="M87.91,108.57l2.79,9.26c.41,0,.83.06,1.26.08a16.16,16.16,0,0,0,4.26-.55l2-.67a15.85,15.85,0,0,0,6-4.3Zm0,0" transform="translate(-0.05 -1.15)"/><path class="cls-3" d="M80.69,90.64l16,3.77.55,1.82-7-1.66-5,5.27,2.08,6.91,7,1.66,12.29-13.07a15.48,15.48,0,0,0-1.88-3.13A15.76,15.76,0,0,0,96,86.41h0l4.63,15.35-1.3,1.38L94.19,86.05l-2-.15a16,16,0,0,0-11.35,4.61l-.13.13Zm0,0" transform="translate(-0.05 -1.15)"/><path class="cls-3" d="M96.24,108.84l9,2.12a16.55,16.55,0,0,0,2.64-6.78A17.42,17.42,0,0,0,108,102a16.09,16.09,0,0,0-.71-5Zm0,0" transform="translate(-0.05 -1.15)"/><path d="M92.2,96.69l.67,0a4.94,4.94,0,0,1,4.37,5.45,4.9,4.9,0,0,1-1.79,3.29,5,5,0,0,1-1.08.67l-.6.23a4.72,4.72,0,0,1-1.31.21,4.94,4.94,0,1,1-.26-9.87" transform="translate(-0.05 -1.15)"/><path class="cls-4" d="M91,102.92l.18.18a2,2,0,0,1,.56,1.18,1.06,1.06,0,0,1-.39,1,1.32,1.32,0,0,1-1.1.17,1.87,1.87,0,0,1-.41-.15l-.21-.11a2.7,2.7,0,0,1-.4-.29,2.28,2.28,0,0,1-.7-1.16,1.15,1.15,0,0,1,.22-1.06,1.22,1.22,0,0,1,1-.33,2.28,2.28,0,0,1,1.22.59" transform="translate(-0.05 -1.15)"/><polygon class="cls-1" points="63.25 127.17 24.52 101.28 63.67 73.36 72.52 77.45 70.13 123.75 63.25 127.17"/><rect class="cls-5" x="138.24" y="96.84" width="24.84" height="8.67"/><polygon class="cls-6" points="140.2 114.42 140.2 87.92 122.2 70.92 113.74 70.92 104.45 70.92 47.99 70.92 32.99 87.92 32.99 114.42 47.99 131.42 104.45 131.42 113.74 131.42 122.2 131.42 140.2 114.42"/></svg>