<?xml version="1.0" encoding="utf-8"?>
<!-- Generator: Adobe Illustrator 26.0.1, SVG Export Plug-In . SVG Version: 6.00 Build 0)  -->
<svg version="1.1" id="Layer_1" xmlns="http://www.w3.org/2000/svg" xmlns:xlink="http://www.w3.org/1999/xlink" x="0px" y="0px"
	 viewBox="0 0 182 203" style="enable-background:new 0 0 182 203;" xml:space="preserve">
<style type="text/css">
	.st0{fill:#000039;}
	.st1{fill:#FFFFFF;}
	.st2{fill:none;}
	.st3{fill:#D5D5D5;}
	.st4{fill:#D12027;}
	.st5{fill:#0D1036;}
</style>
<g>
	<g>
		<path class="st0" d="M178.14,34.92c-0.05,8.03-2.68,14.96-7.9,20.79c-1.31,1.46-2.76,2.78-4.33,3.96
			c-1.49-6.39-3.06-12.62-6.71-16.19c-1.98-1.94-4.58-3.09-7.09-4.21l-0.02-0.01l-0.02-0.01c-2.27-1.01-4.47-1.99-6.02-3.5
			c0,0,0,0,0,0c-0.01-0.01-0.02-0.02-0.03-0.03l0,0c-1.65-1.63-2.52-3.86-3.42-6.16l-0.01-0.02c-0.87-2.22-1.76-4.51-3.4-6.43
			c-3.07-3.62-8.78-5.98-14.73-8.24c0.09-0.1,0.17-0.19,0.26-0.29c5.49-6.09,12.64-9.46,21.45-10.08
			c8.49-0.18,15.78,2.44,21.87,7.89c6.09,5.49,9.46,12.64,10.08,21.45C178.14,34.2,178.14,34.56,178.14,34.92L178.14,34.92z
			 M175.7,168.81c0,0.36-0.01,0.72-0.02,1.08c-0.74,8.8-4.2,15.91-10.36,21.32c-6.16,5.36-13.48,7.9-21.97,7.6
			c-8.34-0.7-15.15-3.84-20.44-9.4c6.13-2.23,12.07-4.53,15.26-8.2c1.66-1.9,2.58-4.18,3.48-6.39l0-0.01l0-0.01l0.01-0.01
			c0.93-2.28,1.83-4.5,3.49-6.1c0.01-0.01,0,0,0.02-0.02l0.02-0.02v0l0,0v0c1.57-1.49,3.79-2.44,6.08-3.43l0.02-0.01
			c2.52-1.08,5.14-2.2,7.15-4.11c3.67-3.49,5.32-9.63,6.88-15.94v0c0.98,0.86,1.9,1.78,2.76,2.77
			C173.21,153.82,175.75,160.78,175.7,168.81L175.7,168.81z M74.38,94.19l-0.25-0.53l0-0.01L74.38,94.19z M74.09,93.58l-0.03-0.06
			l0,0l0,0l0,0l0,0L74.09,93.58z M74.06,93.52L74.06,93.52L74.06,93.52L74.06,93.52L74.06,93.52z M74.06,93.52L74.06,93.52
			L74.06,93.52z M73.97,93.33l-0.03-0.06l-0.01-0.01l0.01,0.01l0,0l0,0L73.97,93.33z M73.94,93.27L73.94,93.27L73.94,93.27
			L73.94,93.27z M73.94,93.26l-0.01-0.02l-0.04-0.09L73.94,93.26z M73.89,93.15l-0.03-0.06l0.01,0.03L73.89,93.15z M73.81,93
			L73.81,93L73.81,93z M73.81,92.99L73.81,92.99z M73.81,92.99L73.81,92.99L73.81,92.99L73.81,92.99z M73.81,92.99L73.81,92.99
			L73.81,92.99L73.81,92.99z M73.81,92.99L73.81,92.99L73.81,92.99L73.81,92.99z M73.81,92.98L73.81,92.98L73.81,92.98L73.81,92.98z
			 M73.81,92.98L73.81,92.98L73.81,92.98L73.81,92.98L73.81,92.98z M73.81,92.98L73.81,92.98L73.81,92.98L73.81,92.98z M73.81,92.99
			L73.81,92.99L73.81,92.99L73.81,92.99L73.81,92.99L73.81,92.99L73.81,92.99l-0.01-0.02l0,0l0-0.01L73.81,92.99z M73.8,92.96
			L73.8,92.96L73.8,92.96L73.8,92.96z M73.79,92.93L73.79,92.93L73.79,92.93L73.79,92.93z M73.78,92.93L73.78,92.93l-0.02-0.05l0,0
			L73.78,92.93z M73.75,92.86L73.75,92.86L73.75,92.86L73.75,92.86z M74.77,95.01l-0.02-0.05l-0.02-0.04l0.02,0.04l-0.03-0.07
			l0.01,0.03l-0.01-0.03l-0.12-0.25l0.08,0.17l0.03,0.06l0.01,0.01l-0.01-0.02l-0.01-0.02l-0.01-0.03l-0.01-0.03l-0.06-0.13
			l0.06,0.13l-0.28-0.6l-0.39-0.83l-0.03-0.07l0,0.01l-0.01-0.02l0,0.01l-0.06-0.12l-0.06-0.12L73.82,93l0,0l-0.07-0.15l0,0l0,0.01
			v0l0,0.01l0-0.01l0.01,0.01l0.02,0.05l0,0l0,0l0,0v0l0.01,0.02l0,0l0,0l0,0.01l0,0l0,0l0.01,0.01l0,0l-0.01-0.01l-0.01-0.02
			l0.02,0.04l0,0v0l0,0v0l0,0l0,0.01l0,0l0,0l-0.06-0.12l0.06,0.12l0,0l0,0l0,0l0,0l0,0v0l0,0l0,0.01l0-0.01l0,0l0,0l0.01,0.01
			L73.81,93l0,0l0.04,0.09L73.82,93l0,0.01l0-0.01l0,0l0-0.01h0L74.77,95.01z M73.75,92.86L73.75,92.86L73.75,92.86z M73.74,92.85
			L73.74,92.85z M73.74,92.85L73.74,92.85L73.74,92.85z M73.74,92.85L73.74,92.85z M73.74,92.85L73.74,92.85z M73.73,92.82
			l-0.03-0.06l-0.03-0.06L73.73,92.82z M73.73,92.82l-0.08-0.17l0.05,0.11L73.73,92.82z M73.74,92.84l-0.02-0.05l-0.09-0.19
			l0.04,0.08L73.74,92.84z M74.38,94.19L74.38,94.19l-0.49-1.03l-0.02-0.03l-0.12-0.25l-0.01-0.01l0-0.01l-0.01-0.01h0l0-0.01h0
			l-0.16-0.33l0.1,0.21l-0.03-0.07l0.01,0.03l-0.02-0.04l-0.02-0.05l0.05,0.1l0.07,0.16l-0.09-0.2l0.1,0.2l0,0l0,0l0,0l0,0
			l0.01,0.01l0.01,0.02l0.11,0.23l-0.02-0.05l0.05,0.11l0.1,0.21l0.02,0.05L74,93.38l0.02,0.04l-0.01-0.02l0.01,0.03L74,93.4
			l-0.11-0.24L74.38,94.19z M73.71,92.78l-0.16-0.35v0L73.71,92.78z M73.54,92.42l-0.05-0.1L73.54,92.42z M73.5,92.32l-0.04-0.09
			l0.04,0.08L73.5,92.32z M73.44,92.21L73.44,92.21L73.44,92.21z M73.44,92.21L73.44,92.21L73.44,92.21L73.44,92.21z M73.44,92.21
			L73.44,92.21L73.44,92.21z M73.44,92.2L73.44,92.2L73.44,92.2z M73.44,92.2L73.44,92.2L73.44,92.2z M73.44,92.2L73.44,92.2
			L73.44,92.2L73.44,92.2L73.44,92.2L73.44,92.2L73.44,92.2z M73.43,92.19L73.43,92.19z M73.43,92.19L73.43,92.19z M73.43,92.19
			L73.43,92.19L73.43,92.19z M73.43,92.19L73.43,92.19L73.43,92.19L73.43,92.19L73.43,92.19L73.43,92.19L73.43,92.19L73.43,92.19
			L73.43,92.19L73.43,92.19L73.43,92.19z M73.43,92.18L73.43,92.18L73.43,92.18L73.43,92.18z M73.83,93.03l-0.08-0.17l-0.01-0.02v0
			l0-0.01l0-0.01l-0.03-0.06l0.03,0.06l0,0l-0.19-0.39l0,0l0,0l-0.01-0.02l-0.13-0.28l0.22,0.46l-0.19-0.41l0.31,0.65v0l0,0v0v0v0
			l0,0l0.01,0.02l0,0l0-0.01v0v0v0l0,0l0,0l0,0v0l0.01,0.02L73.83,93.03L73.83,93.03z M73.4,92.12L73.4,92.12z M73.4,92.12
			L73.4,92.12L73.4,92.12z M73.4,92.12L73.4,92.12L73.4,92.12z M73.4,92.12L73.4,92.12L73.4,92.12z M73.4,92.12L73.4,92.12z
			 M73.4,92.12L73.4,92.12z M73.4,92.12L73.4,92.12L73.4,92.12z M73.4,92.12L73.4,92.12z M73.4,92.12L73.4,92.12L73.4,92.12z
			 M73.42,92.15l-0.02-0.04l0,0.01L73.42,92.15z M73.39,92.11L73.39,92.11L73.39,92.11L73.39,92.11z M73.39,92.11L73.39,92.11
			L73.39,92.11z M73.4,92.11L73.4,92.11L73.4,92.11L73.4,92.11L73.4,92.11L73.4,92.11L73.4,92.11L73.4,92.11L73.4,92.11L73.4,92.11
			L73.4,92.11z M73.39,92.1L73.39,92.1L73.39,92.1L73.39,92.1L73.39,92.1z M73.39,92.1L73.39,92.1z M73.39,92.1L73.39,92.1z
			 M73.39,92.1L73.39,92.1L73.39,92.1z M73.39,92.1L73.39,92.1L73.39,92.1L73.39,92.1L73.39,92.1L73.39,92.1L73.39,92.1L73.39,92.1
			L73.39,92.1z M73.39,92.1L73.39,92.1L73.39,92.1L73.39,92.1L73.39,92.1L73.39,92.1L73.39,92.1L73.39,92.1z M73.54,92.42
			l-0.06-0.12l-0.01-0.02l0,0.01l-0.01-0.02l-0.03-0.07l0.06,0.12l-0.06-0.13l0.06,0.13l-0.06-0.13l0,0l0,0l0,0l0,0l0,0v0v0l0,0l0,0
			l0.01,0.02l-0.01-0.02l0.01,0.02l-0.02-0.04l-0.01-0.01l0-0.01l-0.01-0.03l0-0.01l-0.01-0.03l0.1,0.22l-0.03-0.06l-0.01-0.02l0,0
			l0-0.01l0,0.01l0.02,0.05l0.03,0.06L73.54,92.42z M73.37,92.06L73.37,92.06z M73.37,92.06L73.37,92.06z M73.54,92.42l-0.17-0.37
			l-0.03-0.07l0.03,0.07l0.17,0.35l0,0L73.54,92.42l-0.01-0.01l0,0L73.54,92.42z M73.41,92.13l-0.01-0.02l-0.01-0.02l-0.02-0.04
			l-1.44-3.03l1.45,3.06v0l-0.01-0.02l0.02,0.04l0,0L73.41,92.13z M72.05,89.26l-0.47-0.98L72.05,89.26z M71.46,88.02L71.46,88.02
			L71.46,88.02L71.46,88.02L71.46,88.02z M71.45,88.01L71.45,88.01L71.45,88.01L71.45,88.01z M71.44,87.97L71.44,87.97L71.44,87.97
			L71.44,87.97z M73.37,92.06l-0.22-0.47L73.37,92.06l-1.32-2.79l-0.47-0.99l0,0.01l-0.17-0.35l0,0l0.16,0.35l-0.11-0.24
			L73.37,92.06l-1.43-3.02L73.37,92.06z M71.41,87.91l-0.02-0.04l0.01,0.03L71.41,87.91z M71.39,87.87l-0.01-0.02l-0.03-0.05
			L71.39,87.87z M71.39,87.87l-0.04-0.08l0.03,0.07L71.39,87.87z M71.39,87.87l-0.05-0.1l0,0L71.39,87.87z M71.32,87.72L71.32,87.72
			L71.32,87.72z M71.43,87.95L71.4,87.9l0,0l-0.01-0.03l-0.07-0.14l0.02,0.05l-0.02-0.05l0-0.01l0,0l0,0l0,0l0,0l0,0l0,0l0.02,0.05
			l0.01,0.02l-0.03-0.06l0-0.01l0.03,0.07l-0.03-0.07l0,0l0.06,0.13l0.04,0.09l-0.02-0.03L71.43,87.95z M71.31,87.71L71.31,87.71
			L71.31,87.71L71.31,87.71L71.31,87.71L71.31,87.71z M71.23,87.53l-0.15-0.32L71.23,87.53z M71.31,87.7l-0.23-0.49l0.22,0.47
			L71.31,87.7z M77.61,102.49l-6.73,13.74v0L77.61,102.49z M70.36,85.7L70.36,85.7L70.36,85.7L70.36,85.7z M70.33,85.65L70.33,85.65
			L70.33,85.65z M70.3,85.57L70.3,85.57z M64.77,103.16L64.77,103.16c0-0.35-0.01-0.71-0.01-1.07c0.01,0.24,0.01,0.47,0.01,0.7v0
			C64.77,102.91,64.77,103.04,64.77,103.16L64.77,103.16z M64.75,101.87L64.75,101.87C64.75,101.87,64.75,101.87,64.75,101.87
			C64.75,101.87,64.75,101.87,64.75,101.87L64.75,101.87z M64.74,101.67C64.74,101.67,64.74,101.67,64.74,101.67L64.74,101.67
			C64.74,101.67,64.74,101.67,64.74,101.67L64.74,101.67z M54.63,189.08c-5.16,4.72-11.59,7.35-19.28,7.9
			c-8.49,0.18-15.77-2.45-21.87-7.89c-6.09-5.49-9.46-12.64-10.08-21.45c-0.01-0.36-0.01-0.72-0.01-1.08
			c0.05-8.03,2.68-14.96,7.9-20.79c0.42-0.47,0.86-0.92,1.31-1.36v0c1.46,6.25,3.04,12.3,6.62,15.8c1.99,1.94,4.59,3.1,7.1,4.21
			l0.02,0.01l0.02,0.01c2.28,1.01,4.47,1.99,6.01,3.49c0.01,0.01,0.02,0.02,0.03,0.03c0,0,0,0,0,0v0c1.64,1.62,2.51,3.85,3.41,6.15
			v0l0.01,0.02c0.87,2.22,1.77,4.51,3.4,6.44C42.41,184.35,48.45,186.74,54.63,189.08L54.63,189.08z M55.8,14.17
			c-6.22,2.26-12.28,4.58-15.52,8.3c-1.66,1.9-2.58,4.18-3.48,6.39l-0.01,0.02c-0.93,2.29-1.83,4.51-3.5,6.11c0,0,0,0,0,0
			c-0.01,0.01-0.02,0.02-0.03,0.03c0,0,0,0,0,0c-1.57,1.49-3.79,2.44-6.08,3.42l-0.02,0.01l-0.01,0c-2.52,1.08-5.13,2.2-7.14,4.11
			c-3.63,3.45-5.28,9.49-6.83,15.72c-0.71-0.66-1.38-1.36-2.02-2.09C6.02,50.3,3.48,43.33,3.53,35.3c0-0.36,0.01-0.72,0.02-1.08
			c0.74-8.81,4.2-15.91,10.36-21.32c6.16-5.36,13.48-7.9,21.97-7.6C43.95,5.99,50.58,8.94,55.8,14.17L55.8,14.17z M181.49,34.94
			c0-0.39,0-0.78-0.01-1.17c0-0.05,0-0.11-0.01-0.16c-0.69-9.71-4.42-17.61-11.18-23.7l-0.01-0.01c-6.75-6.03-14.8-8.94-24.17-8.74
			c-0.05,0-0.11,0-0.16,0.01c-9.71,0.69-17.61,4.42-23.7,11.18l-0.01,0.01c-5.77,6.46-8.69,14.13-8.75,23c0,0.39,0,0.78,0.01,1.17
			c0,0.05,0,0.11,0.01,0.16c0.53,7.5,2.88,13.91,7.03,19.25l2.41-2.36c-3.59-4.76-5.63-10.47-6.1-17.13
			c-0.01-0.36-0.01-0.72-0.01-1.08c0.05-7.43,2.31-13.92,6.77-19.47v0c1.69,6.03,3.53,11.81,7.04,15.2
			c1.94,1.88,4.41,3.02,6.77,4.13c0.01,0,0.01,0,0.02,0.01l0.02,0.01c1.45,0.68,2.87,1.34,4.08,2.14L112.7,65.67l-23.27,5.1
			l2.3,0.54l18.35-3.06L91.73,71.3l-25.4-5.91l-28.51-28.7c1.22-0.77,2.63-1.41,4.08-2.06l0.02-0.01l0.01-0.01
			c2.37-1.07,4.85-2.18,6.81-4.03c3.73-3.5,5.64-9.66,7.49-15.97v0c0.33,0.35,0.66,0.7,0.98,1.07c5.13,5.9,7.67,12.86,7.62,20.89
			c0,0.36-0.01,0.72-0.02,1.08c-0.58,6.85-2.79,12.66-6.65,17.46l2.37,2.39c4.42-5.36,6.96-11.88,7.61-19.56
			c0-0.05,0.01-0.11,0.01-0.16c0.01-0.39,0.02-0.78,0.02-1.17c0.06-8.87-2.76-16.57-8.44-23.11l-0.01-0.01
			c-6-6.84-13.85-10.67-23.55-11.49c-0.05,0-0.11-0.01-0.16-0.01c-9.36-0.33-17.45,2.48-24.28,8.42l-0.01,0.01
			c-6.84,6-10.67,13.85-11.49,23.55c0,0.05-0.01,0.11-0.01,0.16c-0.01,0.39-0.02,0.78-0.02,1.17c-0.06,8.87,2.76,16.57,8.44,23.11
			l0.01,0.01c1.93,2.19,4.11,4.12,6.56,5.77c0.06,0.04,0.13,0.08,0.19,0.12l3.46,2.01c0.06,0.04,0.12,0.07,0.19,0.1
			c2.69,1.34,5.57,2.31,8.64,2.92c0.08,0.01,0.15,0.03,0.23,0.04l4.14,0.52c0.1,0.01,0.2,0.02,0.3,0.02
			c7.12,0.25,13.51-1.32,19.16-4.69v0l-2.04-2.68c-5.03,2.91-10.69,4.26-17,4.04l-4.14-0.52c-2.78-0.55-5.38-1.42-7.79-2.63
			l-3.46-2.01c-1.14-0.77-2.21-1.6-3.23-2.5c6.28-2.09,12.29-4.28,15.45-7.88c1.75-2,2.63-4.43,3.48-6.78l0.01-0.02l0.01-0.02v0
			c0.49-1.37,0.98-2.71,1.63-3.91l26.18,34.47c0.66,2.23,1.24,4.36,1.74,6.4c0,0,0,0,0,0c1.45,8.46,2.25,15.29,2.39,20.49v0
			c0.02-0.45,0.03-0.88,0.04-1.31v0c-0.01,0.42-0.02,0.86-0.04,1.31c0,0.06,0,0.12,0.01,0.19v0h0v0v0c0-0.06,0-0.12,0-0.19
			c-0.21,5.2-1.1,12.02-2.66,20.46c0,0,0,0,0,0c0,0,0,0,0,0.01v0c-0.53,2.04-1.14,4.18-1.84,6.41v0l-26.59,34.07v0
			c-0.63-1.21-1.1-2.56-1.58-3.94l-0.01-0.02c-0.82-2.36-1.67-4.81-3.4-6.83c-3.12-3.65-9.12-5.92-15.37-8.09
			c1.23-1.13,2.56-2.16,3.98-3.09l3.49-1.97c2.43-1.17,5.04-2.02,7.83-2.53l4.14-0.46c6.26-0.14,11.87,1.26,16.83,4.19v0l2.08-2.66
			v0c-5.58-3.4-11.9-5.02-18.98-4.87c-0.1,0-0.2,0.01-0.3,0.02l-4.14,0.46c-0.08,0.01-0.15,0.02-0.23,0.03
			c-3.08,0.57-5.97,1.5-8.68,2.8c-0.06,0.03-0.13,0.06-0.19,0.1l-3.49,1.97c-0.07,0.04-0.13,0.08-0.19,0.12
			c-2.47,1.62-4.68,3.51-6.64,5.68l-0.01,0.01c-5.77,6.46-8.69,14.13-8.75,23c0,0.39,0,0.78,0.01,1.17c0,0.06,0,0.11,0.01,0.16
			c0.69,9.71,4.42,17.61,11.18,23.7l0.01,0.01c6.75,6.03,14.8,8.94,24.17,8.74c0.06,0,0.11,0,0.16-0.01
			c9.71-0.69,17.61-4.42,23.7-11.18l0.01-0.01c5.77-6.46,8.69-14.13,8.75-23c0-0.39,0-0.78-0.01-1.17c0-0.05,0-0.11-0.01-0.16
			c-0.55-7.71-3.01-14.27-7.38-19.69v0l-2.4,2.36c3.81,4.85,5.96,10.71,6.45,17.57c0.01,0.36,0.01,0.72,0.01,1.08
			c-0.05,8.03-2.68,14.96-7.9,20.79c-0.54,0.6-1.1,1.18-1.68,1.73v0c-1.76-6.34-3.6-12.54-7.29-16.1c-1.95-1.88-4.42-3.03-6.78-4.13
			h0l-0.03-0.02c-1.43-0.67-2.83-1.32-4.04-2.11l28.84-28.29l25.5-5.59l-2.31,0.51l23.05,5.36L140.61,167v0
			c-1.22,0.77-2.62,1.4-4.05,2.05l-0.02,0.01c-2.38,1.07-4.85,2.18-6.82,4.04c-3.67,3.45-5.58,9.46-7.4,15.67v0
			c-0.1-0.11-0.19-0.21-0.28-0.32c-5.13-5.9-7.68-12.86-7.62-20.89c0-0.36,0.01-0.72,0.02-1.08c0.57-6.74,2.73-12.49,6.48-17.24v0
			l-2.38-2.39v0c-4.32,5.32-6.8,11.77-7.44,19.35c0,0.05-0.01,0.11-0.01,0.16c-0.01,0.39-0.02,0.78-0.02,1.17
			c-0.06,8.87,2.76,16.57,8.44,23.11l0.01,0.01c6,6.84,13.85,10.67,23.55,11.49c0.05,0,0.11,0.01,0.16,0.01
			c9.36,0.33,17.45-2.48,24.28-8.42l0.01-0.01c6.84-6,10.67-13.85,11.49-23.55c0-0.05,0.01-0.11,0.01-0.17
			c0.01-0.39,0.02-0.78,0.02-1.17c0.06-8.87-2.76-16.57-8.44-23.11l-0.01-0.01c-1.93-2.19-4.11-4.12-6.56-5.77
			c-0.06-0.04-0.13-0.08-0.19-0.12l-3.46-2.01c-0.06-0.04-0.12-0.07-0.19-0.1c-2.69-1.34-5.57-2.31-8.64-2.92
			c-0.08-0.01-0.15-0.03-0.23-0.04l-4.14-0.52c-0.1-0.01-0.2-0.02-0.3-0.02c-7.24-0.25-13.72,1.37-19.44,4.86l2.04,2.68v0
			c5.1-3.03,10.86-4.43,17.29-4.2l4.14,0.52c2.78,0.55,5.38,1.42,7.79,2.63l3.46,2.01c0.92,0.62,1.8,1.28,2.64,1.99v0
			c-6.35,2.11-12.45,4.3-15.65,7.94c-1.75,1.99-2.63,4.43-3.48,6.78l-0.01,0.02l-0.01,0.02c-0.49,1.36-0.97,2.69-1.61,3.88v0
			l-26.23-34.53v0c-0.65-2.2-1.22-4.31-1.72-6.33v0c-1.45-8.46-2.25-15.29-2.39-20.49c0.21-5.2,1.1-12.02,2.66-20.46v0
			c0.54-2.08,1.17-4.26,1.87-6.53v0l26.56-34.04c0.65,1.23,1.13,2.6,1.61,4.01l0.01,0.02c0.82,2.36,1.67,4.8,3.39,6.82
			c3.17,3.7,9.3,5.98,15.66,8.19c-0.4,0.29-0.8,0.57-1.22,0.84l-3.49,1.97c-2.43,1.17-5.04,2.02-7.83,2.53l-4.14,0.46
			c-6.67,0.14-12.61-1.45-17.8-4.78l-2.07,2.65c5.81,3.81,12.46,5.64,19.94,5.48c0.1,0,0.2-0.01,0.3-0.02l4.14-0.46
			c0.08-0.01,0.15-0.02,0.23-0.03c3.08-0.57,5.97-1.5,8.68-2.8c0.06-0.03,0.13-0.06,0.19-0.1l3.49-1.97
			c0.07-0.04,0.13-0.08,0.19-0.12c2.47-1.62,4.68-3.51,6.64-5.68l0.01-0.01C178.51,51.48,181.43,43.81,181.49,34.94L181.49,34.94z
			 M181.49,34.94"/>
		<path class="st1" d="M107.08,101.54c0-0.01,0-0.03,0-0.04c-0.09-4.96-1.78-9.11-5.08-12.45c-3.29-3.34-7.42-5.08-12.38-5.24
			c-0.02,0-0.03,0-0.05,0c-1.62-0.01-3.18,0.19-4.69,0.6c-0.03,0.01-0.07,0.02-0.1,0.03l-1.98,0.67c-0.03,0.01-0.07,0.02-0.1,0.04
			c-1.41,0.59-2.72,1.34-3.92,2.26l-0.01,0c-3.71,2.86-5.96,6.68-6.75,11.47c0,0.03-0.01,0.05-0.01,0.08
			c-0.09,0.79-0.14,1.56-0.14,2.31c-0.03,4.06,1.16,7.67,3.57,10.82l0,0.01c2.86,3.71,6.68,5.96,11.47,6.75
			c0.05,0.01,0.1,0.01,0.14,0.02l2.17,0.16c0.05,0,0.1,0.01,0.15,0c4.96-0.09,9.11-1.79,12.45-5.08c3.34-3.29,5.08-7.42,5.24-12.38
			C107.08,101.57,107.08,101.55,107.08,101.54L107.08,101.54z M107.08,101.54"/>
		<path class="st2" d="M105.47,101.53c-0.03-1.67-0.26-3.24-0.69-4.71v0l-11.63,12.37l8.93,2.1v0
			C104.22,108.57,105.35,105.32,105.47,101.53L105.47,101.53z M105.47,101.53"/>
		<path class="st2" d="M104.16,95.08c-0.77-1.81-1.87-3.44-3.31-4.9c-2.29-2.32-5.03-3.8-8.23-4.42l4.93,16.35L104.16,95.08
			L104.16,95.08z M104.16,95.08"/>
		<path class="st2" d="M93.62,94.76l-2.79-9.26c-0.41-0.04-0.84-0.07-1.27-0.08c-1.48-0.01-2.9,0.18-4.26,0.54l-1.98,0.67
			c-1.28,0.54-2.47,1.22-3.56,2.05c-0.89,0.69-1.69,1.44-2.4,2.25L93.62,94.76z M93.62,94.76"/>
		<path class="st2" d="M100.84,112.68l-16.02-3.77l-0.55-1.81l7.03,1.65l4.95-5.26l-2.08-6.92l-7.03-1.65l-12.29,13.07
			c0.49,1.09,1.12,2.14,1.88,3.13c2.26,2.94,5.19,4.87,8.79,5.8v0l-4.62-15.35l1.3-1.38l5.15,17.1l2.02,0.15
			c4.53-0.08,8.32-1.62,11.35-4.61C100.75,112.77,100.8,112.73,100.84,112.68L100.84,112.68z M100.84,112.68"/>
		<path class="st2" d="M85.3,94.48l-9.03-2.12c-1.34,1.96-2.22,4.22-2.65,6.79c-0.08,0.73-0.13,1.44-0.13,2.14
			c-0.01,1.76,0.23,3.42,0.72,4.99L85.3,94.48z M85.3,94.48"/>
		<path d="M89.34,106.64l-0.67-0.03c-1.36-0.18-2.45-0.77-3.29-1.79c-0.84-1.02-1.2-2.24-1.08-3.66c0.18-1.36,0.77-2.45,1.79-3.29
			c0.33-0.27,0.69-0.49,1.08-0.67l0.6-0.23c0.42-0.13,0.85-0.2,1.31-0.21c1.4,0,2.58,0.45,3.53,1.35c0.95,0.9,1.47,2.06,1.54,3.45
			c0,1.4-0.45,2.58-1.35,3.53C91.88,106.05,90.73,106.57,89.34,106.64"/>
		<path class="st3" d="M90.53,100.4l-0.18-0.18c-0.34-0.38-0.52-0.77-0.56-1.18c-0.04-0.41,0.09-0.73,0.39-0.98
			c0.3-0.21,0.67-0.27,1.1-0.17c0.14,0.03,0.28,0.08,0.42,0.15l0.21,0.11c0.14,0.08,0.27,0.18,0.4,0.29
			c0.38,0.36,0.62,0.74,0.71,1.16c0.09,0.42,0.02,0.77-0.22,1.05c-0.26,0.27-0.6,0.38-1.03,0.33
			C91.33,100.94,90.92,100.75,90.53,100.4"/>
	</g>
	<polygon class="st0" points="118.24,75 156.97,100.9 117.81,128.81 108.97,124.73 111.35,78.43 	"/>
</g>
<rect x="18.4" y="96.67" class="st4" width="24.84" height="8.67"/>
<polygon class="st5" points="41.29,87.75 41.29,114.25 59.29,131.25 67.75,131.25 77.04,131.25 133.5,131.25 148.5,114.25 
	148.5,87.75 133.5,70.75 77.04,70.75 67.75,70.75 59.29,70.75 "/>
</svg>
