<svg id="Layer_1" data-name="Layer 1" xmlns="http://www.w3.org/2000/svg" viewBox="0 0 201.02 181.44"><defs><style>.cls-1{fill:#000039;}.cls-2{fill:#fff;}.cls-3{fill:none;}.cls-4{fill:#d5d5d5;}.cls-5{fill:#d12027;}.cls-6{fill:#0d1036;}</style></defs><path class="cls-1" d="M34.52,3.79a30.46,30.46,0,0,1,20.79,7.89,30.85,30.85,0,0,1,4,4.34c-6.4,1.49-12.63,3.05-16.19,6.7a23.58,23.58,0,0,0-4.21,7.1h0v0a20.41,20.41,0,0,1-3.49,6h0l0,0h0c-1.63,1.64-3.86,2.52-6.16,3.41h0a21.76,21.76,0,0,0-6.43,3.4c-3.62,3.07-6,8.77-8.24,14.72l-.29-.25Q5.06,49,4.11,35.74A30.58,30.58,0,0,1,12,13.88Q20.22,4.73,33.45,3.79c.36,0,.72,0,1.07,0Zm133.9,2.44,1.07,0q13.22,1.11,21.32,10.37a30.61,30.61,0,0,1,7.6,22q-1,12.51-9.4,20.44c-2.24-6.13-4.54-12.06-8.21-15.26a22,22,0,0,0-6.38-3.48h0c-2.28-.92-4.5-1.83-6.11-3.49v0l0,0h0a20.57,20.57,0,0,1-3.43-6.08v0a23.7,23.7,0,0,0-4.12-7.15c-3.49-3.66-9.62-5.32-15.94-6.88h0a30,30,0,0,1,2.76-2.76,30.52,30.52,0,0,1,20.9-7.62ZM93.79,107.55l-.53.25h0Zm-.61.29-.06,0h0Zm-.06,0Zm0,0Zm-.18.08-.06,0h0Zm-.07,0h0Zm0,0h0l-.09,0Zm-.1.05-.07,0h0Zm-.16.07Zm0,0Zm0,0h0Zm0,0h0Zm0,0Zm0,0Zm0,0Zm0,0Zm0,0h0Zm0,0Zm0,0h0Zm0,0h0l0,0h0Zm-.07,0Zm2.15-1,0,0,0,0,0,0-.06,0,0,0,0,0-.24.11.17-.08.06,0h-.06l0,0-.13.06.13-.06-.6.28-.83.39-.07,0h0l0,0h0l-.12.06-.12.06h0l-.15.07h0l0,0h0l0,0h0l-.12.06.12-.06h0l.09,0-.09,0h0Zm-2.15,1Zm0,0Zm0,0Zm0,0Zm0,0Zm0,0-.06,0-.06,0Zm0,0-.17.08.11,0Zm0,0,0,0-.19.09.08,0Zm1.34-.63h0l-1,.49,0,0-.25.12h0l-.34.15.22-.1-.08,0,0,0,0,0,0,0,.1,0,.16-.08-.2.1.21-.1h0l.22-.11,0,0,.12,0,.21-.1,0,0h0l0,0h0l-.24.12Zm-1.41.67-.35.16h0Zm-.35.16-.1.05Zm-.1.05-.09,0,.08,0Zm-.11,0h0Zm0,0h0Zm0,0h0Zm0,0h0Zm0,0Zm0,0Zm0,0Zm0,0Zm0,0h0Zm0,0Zm0,0Zm.85-.4-.17.08h0l-.06,0,.06,0h0l-.39.19h0l-.28.13.46-.21-.41.19.65-.31h0l.16-.08Zm-.92.43Zm0,0Zm0,0Zm0,0Zm0,0Zm0,0Zm0,0Zm0,0Zm0,0Zm0,0-.05,0h0Zm-.05,0Zm0,0Zm0,0Zm0,0Zm0,0Zm0,0Zm0,0Zm0,0h0Zm0,0Zm.33-.16-.13.06h0l-.06,0,.12-.06-.13.06.13-.06-.13.06h0l0,0h-.06l0,0,.22-.11-.06,0h0l.05,0,.06,0Zm-.37.18Zm0,0Zm.37-.18-.37.18-.07,0,.07,0,.35-.17h0Zm-.29.14h0l0,0-3,1.43,3.05-1.44h0l0,0h0Zm-2.87,1.36-1,.47Zm-1.25.59Zm0,0Zm0,0h0Zm4.08-1.93-.46.22.46-.22-2.79,1.32-1,.47h0l-.35.16h0l.35-.16-.24.11,4-1.9-3,1.43Zm-4.15,2,0,0h0Zm0,0h0l0,0Zm0,0-.08,0,.07,0Zm0,0-.1,0h0Zm-.15.07h0Zm.23-.11,0,0h0l-.14.07,0,0-.05,0h0l.05,0h0l-.06,0h0l.07,0-.07,0h0l.13-.06.09,0h0Zm-.24.12Zm-.18.08-.32.15Zm.18-.08-.5.23.48-.22Zm14.79-6.3,13.74,6.73h0Zm-16.8,7.25Zm0,0Zm-.07,0Zm17.59,5.53Zm-1.29,0Zm-.2,0Zm87.41,10.12q7.08,7.74,7.9,19.28a30.67,30.67,0,0,1-7.89,21.87q-8.23,9.13-21.45,10.08h-1.08a30.47,30.47,0,0,1-20.79-7.9c-.47-.42-.92-.85-1.36-1.3h0c6.24-1.46,12.3-3,15.8-6.63a23.26,23.26,0,0,0,4.21-7.1v0a20.3,20.3,0,0,1,3.49-6l0,0h0c1.62-1.64,3.85-2.51,6.15-3.41h0a21.84,21.84,0,0,0,6.44-3.41c3.77-3.19,6.16-9.23,8.51-15.41ZM13.77,126.13c2.26,6.22,4.58,12.28,8.3,15.52a21.56,21.56,0,0,0,6.39,3.48h0c2.28.93,4.5,1.83,6.11,3.5h0l0,0h0a20.44,20.44,0,0,1,3.43,6.08h0a23.3,23.3,0,0,0,4.11,7.14c3.45,3.63,9.49,5.28,15.72,6.83a28.47,28.47,0,0,1-2.09,2,30.4,30.4,0,0,1-20.89,7.62l-1.08,0Q20.63,177.26,12.51,168a30.68,30.68,0,0,1-7.6-22q1-12.09,8.86-19.91ZM34.54.44H33.21q-14.57,1-23.7,11.18h0A33.83,33.83,0,0,0,.77,35.82V36q1,14.57,11.18,23.7h0a33.69,33.69,0,0,0,23,8.74h1.33a34.66,34.66,0,0,0,19.26-7L53.18,59a31.43,31.43,0,0,1-17.12,6.1H35a30.46,30.46,0,0,1-19.46-6.77h0c6-1.7,11.81-3.53,15.2-7a23.92,23.92,0,0,0,4.12-6.77h0v0A30.68,30.68,0,0,1,37,40.4L65.27,69.23l5.1,23.27.53-2.3L67.84,71.85,70.9,90.2,65,115.6l-28.7,28.51A33.05,33.05,0,0,1,34.23,140h0v0a24.25,24.25,0,0,0-4-6.81c-3.51-3.72-9.66-5.64-16-7.49h0c.35-.33.7-.66,1.07-1a30.5,30.5,0,0,1,20.89-7.62l1.07,0a31.39,31.39,0,0,1,17.46,6.65l2.39-2.37a34.51,34.51,0,0,0-19.56-7.61h-.17l-1.17,0a33.7,33.7,0,0,0-23.11,8.44h0q-10.26,9-11.49,23.55c0,.05,0,.11,0,.16A33.88,33.88,0,0,0,10,170.2h0q9,10.28,23.55,11.49h.16l1.17,0A33.68,33.68,0,0,0,58,173.29h0a33.49,33.49,0,0,0,5.77-6.56.76.76,0,0,0,.12-.19l2-3.46.1-.19a33.83,33.83,0,0,0,2.91-8.64,1.85,1.85,0,0,0,0-.23l.52-4.14c0-.1,0-.2,0-.3a34.18,34.18,0,0,0-4.69-19.16h0l-2.68,2a31.07,31.07,0,0,1,4,17l-.52,4.14a30.25,30.25,0,0,1-2.63,7.8l-2,3.46a31.82,31.82,0,0,1-2.49,3.23c-2.09-6.28-4.28-12.29-7.88-15.45a20.18,20.18,0,0,0-6.78-3.49h0a27.47,27.47,0,0,1-3.9-1.63l34.47-26.18q3.34-1,6.4-1.74h0a153.32,153.32,0,0,1,20.5-2.4h0l-1.31,0h0l1.31,0h0a152.19,152.19,0,0,1,20.46,2.67h0q3.06.8,6.41,1.83h0l34.08,26.6h0a29.83,29.83,0,0,1-4,1.58h0a20.26,20.26,0,0,0-6.83,3.4c-3.65,3.13-5.92,9.12-8.09,15.37a31.76,31.76,0,0,1-3.1-4l-2-3.49a30.55,30.55,0,0,1-2.53-7.83l-.46-4.15a31.13,31.13,0,0,1,4.18-16.83h0l-2.66-2.07h0a34.27,34.27,0,0,0-4.87,19c0,.1,0,.2,0,.3l.47,4.15,0,.23a34.07,34.07,0,0,0,2.81,8.68l.09.19,2,3.49.12.19a34.1,34.1,0,0,0,5.68,6.64h0a33.74,33.74,0,0,0,23,8.74h1.33q14.57-1.05,23.7-11.19h0a33.86,33.86,0,0,0,8.74-24.16c0-.06,0-.11,0-.17q-1-14.57-11.18-23.69h0a33.7,33.7,0,0,0-23-8.75H164.4a34.43,34.43,0,0,0-19.7,7.38h0l2.35,2.4a31.35,31.35,0,0,1,17.58-6.45h1.07a30.51,30.51,0,0,1,20.79,7.9c.61.54,1.18,1.1,1.73,1.68h0c-6.34,1.76-12.53,3.6-16.1,7.29a24.05,24.05,0,0,0-4.13,6.78h0v0a32.55,32.55,0,0,1-2.11,4L137.59,116.1,132,90.6l.5,2.31,5.37-23,28.73-28.54h0a32.58,32.58,0,0,1,2,4v0a23.83,23.83,0,0,0,4,6.82c3.44,3.67,9.46,5.58,15.67,7.4h0l-.32.29a30.52,30.52,0,0,1-20.9,7.62l-1.07,0A31.38,31.38,0,0,1,148.84,61h0l-2.39,2.38h0a34.57,34.57,0,0,0,19.35,7.43H166l1.17,0a33.74,33.74,0,0,0,23.11-8.45h0q10.26-9,11.49-23.55a.86.86,0,0,0,0-.16,33.85,33.85,0,0,0-8.42-24.28h0q-9-10.26-23.55-11.49h-.16l-1.17,0a33.69,33.69,0,0,0-23.11,8.44h0a33.49,33.49,0,0,0-5.77,6.56l-.12.19-2,3.47a1.62,1.62,0,0,0-.1.18,33.85,33.85,0,0,0-2.92,8.64,2.23,2.23,0,0,0,0,.23l-.52,4.14c0,.1,0,.2,0,.3a34.27,34.27,0,0,0,4.86,19.45l2.68-2h0a31,31,0,0,1-4.21-17.29l.52-4.14a30.43,30.43,0,0,1,2.63-7.79l2-3.47a32.54,32.54,0,0,1,2-2.64h0c2.11,6.35,4.31,12.46,7.94,15.65A20.33,20.33,0,0,0,159,36.26h0A28.93,28.93,0,0,1,163,37.89h0L128.42,64.12h0c-2.2.64-4.31,1.22-6.33,1.71h0a153.38,153.38,0,0,1-20.49,2.4,153.56,153.56,0,0,1-20.46-2.66h0c-2.08-.55-4.26-1.17-6.54-1.88h0l-34-26.56a27.59,27.59,0,0,1,4-1.61h0a20.28,20.28,0,0,0,6.82-3.39c3.7-3.17,6-9.3,8.19-15.67.29.4.57.81.84,1.22l2,3.49A30.67,30.67,0,0,1,64.93,29l.47,4.14a30.91,30.91,0,0,1-4.79,17.8L63.26,53a34.09,34.09,0,0,0,5.48-19.94c0-.1,0-.2,0-.3l-.47-4.14a2,2,0,0,0,0-.24,33.85,33.85,0,0,0-2.8-8.67c0-.07-.07-.13-.1-.19l-2-3.49a.76.76,0,0,0-.12-.19A33.52,33.52,0,0,0,57.55,9.2h0a33.73,33.73,0,0,0-23-8.75Zm0,0" transform="translate(-0.76 -0.44)"/><path class="cls-2" d="M101.14,74.85h0A17.62,17.62,0,0,0,83.41,92.31v0A17.28,17.28,0,0,0,84,97l0,.1.67,2a.3.3,0,0,1,0,.1A17.54,17.54,0,0,0,87,103.14h0a17.52,17.52,0,0,0,11.47,6.76h.08a20.16,20.16,0,0,0,2.31.14,17.12,17.12,0,0,0,10.82-3.57h0A17.54,17.54,0,0,0,118.46,95s0-.09,0-.14l.16-2.17v-.15a17.62,17.62,0,0,0-17.46-17.69Zm0,0" transform="translate(-0.76 -0.44)"/><path class="cls-3" d="M101.13,76.46a17.85,17.85,0,0,0-4.71.69h0l12.37,11.63,2.1-8.93h0a16.14,16.14,0,0,0-9.76-3.39Zm0,0" transform="translate(-0.76 -0.44)"/><path class="cls-3" d="M94.68,77.76A15.94,15.94,0,0,0,85.36,89.3l16.35-4.92-7-6.62Zm0,0" transform="translate(-0.76 -0.44)"/><path class="cls-3" d="M94.36,88.3,85.1,91.09c0,.42-.07.84-.08,1.27a16.16,16.16,0,0,0,.55,4.26l.67,2a15.92,15.92,0,0,0,2.05,3.56,17.16,17.16,0,0,0,2.25,2.4Zm0,0" transform="translate(-0.76 -0.44)"/><path class="cls-3" d="M112.28,81.09l-3.76,16-1.82.54,1.66-7-5.27-5-6.91,2.09-1.66,7,13.07,12.29a16.25,16.25,0,0,0,3.13-1.88,15.76,15.76,0,0,0,5.8-8.79h0L101.17,101l-1.39-1.3,17.1-5.15.15-2a15.93,15.93,0,0,0-4.61-11.35l-.14-.13Zm0,0" transform="translate(-0.76 -0.44)"/><path class="cls-3" d="M94.09,96.63l-2.13,9a16.61,16.61,0,0,0,6.79,2.65,19.65,19.65,0,0,0,2.14.13,16.32,16.32,0,0,0,5-.72Zm0,0" transform="translate(-0.76 -0.44)"/><path d="M106.24,92.59l0,.67a4.94,4.94,0,0,1-8.74,2.59,4.64,4.64,0,0,1-.67-1.08l-.23-.6a4.78,4.78,0,0,1-.21-1.31,4.94,4.94,0,1,1,9.87-.27" transform="translate(-0.76 -0.44)"/><path class="cls-4" d="M100,91.4l-.18.18a2.11,2.11,0,0,1-1.18.56,1,1,0,0,1-1-.39,1.32,1.32,0,0,1-.17-1.1,1.77,1.77,0,0,1,.15-.42l.11-.2a2.7,2.7,0,0,1,.29-.4,2.26,2.26,0,0,1,1.16-.71,1.16,1.16,0,0,1,1.05.23,1.18,1.18,0,0,1,.34,1A2.27,2.27,0,0,1,100,91.4" transform="translate(-0.76 -0.44)"/><polygon class="cls-1" points="73.85 63.25 99.75 24.52 127.66 63.67 123.57 72.52 77.28 70.13 73.85 63.25"/><rect class="cls-5" x="95.52" y="138.24" width="8.67" height="24.84"/><polygon class="cls-6" points="86.6 140.2 113.1 140.2 130.1 122.2 130.1 113.74 130.1 104.45 130.1 47.99 113.1 32.99 86.6 32.99 69.6 47.99 69.6 104.45 69.6 113.74 69.6 122.2 86.6 140.2"/></svg>