<svg id="Layer_1" data-name="Layer 1" xmlns="http://www.w3.org/2000/svg" viewBox="0 0 9.58 25.35"><defs><style>.cls-1{fill:#7c1a19;}.cls-2{fill:#e4091d;}.cls-3{fill:#12100b;}</style></defs><polygon class="cls-1" points="3.23 9.83 2.44 11.56 4.1 11.37 5.04 12.61 5.19 11.83 5.72 11.79 5.8 10.71 7.08 10.86 7.31 9.7 7.39 8.71 6.37 9.99 5.95 9.36 6.49 7.89 5.68 8.03 5.14 7.36 4.75 7.8 4.83 8.32 3.96 8.32 3.8 9.26 3.23 9.83"/><polygon class="cls-2" points="3.42 9.88 2.74 11.38 4.18 11.21 5 12.29 5.13 11.61 5.59 11.59 5.66 10.64 6.78 10.77 6.97 9.76 7.04 8.9 6.15 10.02 5.79 9.47 6.26 8.19 5.55 8.31 5.08 7.73 4.74 8.11 4.82 8.57 4.06 8.57 3.92 9.38 3.42 9.88"/><polygon class="cls-1" points="2.88 10.02 0.79 12.72 3 12.72 0 16.47 3.38 14.63 2.78 25.35 4.69 14.86 6.75 23.89 6.13 13.12 7.27 14.38 6.97 11.95 9.58 13.37 6.97 10.02 6.78 11.11 5.81 11.11 5.76 11.85 5.41 11.88 5.24 13.09 4 11.58 2.38 11.65 2.88 10.02"/><polygon class="cls-1" points="6.19 9.09 7.43 7.48 6.12 7.48 7.9 5.26 5.9 6.35 6.25 0 5.12 6.22 3.9 0.87 4.27 7.25 3.59 6.5 3.77 7.94 2.22 7.1 3.77 9.09 3.88 8.44 4.46 8.44 4.49 8 4.69 7.98 4.8 7.26 5.53 8.16 6.49 8.12 6.19 9.09"/><polygon class="cls-3" points="3.58 9.93 2.99 11.24 4.24 11.09 4.95 12.02 5.06 11.44 5.46 11.41 5.52 10.59 6.49 10.71 6.66 9.83 6.72 9.09 5.95 10.06 5.64 9.58 6.04 8.47 5.43 8.57 5.02 8.07 4.73 8.4 4.79 8.8 4.14 8.8 4.01 9.5 3.58 9.93"/><polygon class="cls-2" points="3.36 10.05 1.79 12.07 3.45 12.07 1.2 14.88 3.73 13.51 3.28 21.54 4.71 13.68 6.26 20.45 5.79 12.37 6.65 13.32 6.43 11.5 8.38 12.56 6.43 10.05 6.28 10.87 5.55 10.87 5.51 11.42 5.25 11.44 5.12 12.35 4.19 11.22 2.98 11.28 3.36 10.05"/><polygon class="cls-2" points="5.75 9.28 6.51 8.3 5.71 8.3 6.79 6.95 5.57 7.61 5.79 3.73 5.1 7.53 4.35 4.26 4.58 8.16 4.16 7.7 4.27 8.58 3.33 8.07 4.27 9.28 4.34 8.89 4.69 8.89 4.71 8.62 4.83 8.61 4.9 8.17 5.35 8.72 5.93 8.69 5.75 9.28"/></svg>