<svg id="Layer_1" data-name="Layer 1" xmlns="http://www.w3.org/2000/svg" viewBox="0 0 9.58 25.35"><defs><style>.cls-1{fill:#7c1a19;}.cls-2{fill:#e4091d;}.cls-3{fill:#12100b;}</style></defs><polygon class="cls-1" points="6.35 15.52 7.14 13.79 5.48 13.99 4.54 12.74 4.39 13.53 3.86 13.56 3.78 14.64 2.5 14.49 2.27 15.65 2.19 16.65 3.21 15.36 3.63 15.99 3.09 17.47 3.9 17.32 4.44 17.99 4.83 17.55 4.75 17.03 5.61 17.03 5.78 16.09 6.35 15.52"/><polygon class="cls-2" points="6.16 15.48 6.84 13.97 5.4 14.14 4.58 13.06 4.45 13.74 3.99 13.77 3.92 14.71 2.8 14.58 2.6 15.59 2.54 16.45 3.42 15.33 3.79 15.89 3.32 17.17 4.03 17.04 4.49 17.62 4.84 17.24 4.76 16.78 5.51 16.78 5.66 15.97 6.16 15.48"/><polygon class="cls-1" points="6.7 15.34 8.79 12.63 6.58 12.63 9.58 8.88 6.2 10.72 6.8 0 4.89 10.5 2.83 1.46 3.45 12.23 2.31 10.97 2.61 13.4 0 11.99 2.61 15.34 2.8 14.24 3.77 14.24 3.82 13.5 4.17 13.47 4.34 12.26 5.58 13.77 7.2 13.7 6.7 15.34"/><polygon class="cls-1" points="3.39 16.27 2.15 17.87 3.46 17.87 1.68 20.09 3.68 19 3.33 25.35 4.46 19.13 5.68 24.48 5.31 18.11 5.99 18.86 5.81 17.41 7.36 18.25 5.81 16.27 5.7 16.91 5.12 16.91 5.09 17.36 4.89 17.37 4.78 18.09 4.05 17.19 3.09 17.24 3.39 16.27"/><polygon class="cls-3" points="5.99 15.42 6.59 14.11 5.34 14.26 4.63 13.33 4.52 13.92 4.12 13.94 4.06 14.76 3.09 14.64 2.92 15.52 2.86 16.27 3.63 15.3 3.94 15.78 3.54 16.89 4.15 16.78 4.55 17.28 4.85 16.95 4.79 16.55 5.44 16.55 5.56 15.85 5.99 15.42"/><polygon class="cls-2" points="6.22 15.3 7.78 13.28 6.13 13.28 8.38 10.47 5.85 11.85 6.3 3.81 4.86 11.68 3.32 4.91 3.79 12.98 2.93 12.03 3.15 13.85 1.2 12.79 3.15 15.3 3.3 14.49 4.03 14.49 4.06 13.93 4.32 13.91 4.46 13 5.38 14.13 6.59 14.08 6.22 15.3"/><polygon class="cls-2" points="3.83 16.07 3.07 17.05 3.87 17.05 2.78 18.41 4.01 17.74 3.79 21.63 4.48 17.82 5.23 21.09 5 17.19 5.42 17.65 5.31 16.77 6.25 17.28 5.31 16.07 5.24 16.46 4.89 16.46 4.87 16.73 4.74 16.74 4.68 17.18 4.23 16.64 3.65 16.66 3.83 16.07"/></svg>