<svg id="Layer_1" data-name="Layer 1" xmlns="http://www.w3.org/2000/svg" viewBox="0 0 25.35 9.58"><defs><style>.cls-1{fill:#7c1a19;}.cls-2{fill:#e4091d;}.cls-3{fill:#12100b;}</style></defs><polygon class="cls-1" points="9.83 6.35 11.56 7.14 11.37 5.48 12.61 4.54 11.83 4.39 11.79 3.86 10.71 3.78 10.86 2.5 9.7 2.27 8.71 2.19 9.99 3.21 9.36 3.63 7.89 3.09 8.03 3.9 7.36 4.44 7.8 4.83 8.32 4.75 8.32 5.61 9.26 5.78 9.83 6.35"/><polygon class="cls-2" points="9.88 6.16 11.38 6.84 11.21 5.4 12.29 4.58 11.61 4.45 11.59 3.99 10.64 3.92 10.77 2.8 9.76 2.6 8.9 2.54 10.02 3.42 9.47 3.79 8.19 3.32 8.31 4.03 7.73 4.49 8.11 4.84 8.57 4.76 8.57 5.51 9.38 5.66 9.88 6.16"/><polygon class="cls-1" points="10.02 6.7 12.72 8.79 12.72 6.58 16.47 9.58 14.63 6.2 25.35 6.8 14.86 4.89 23.89 2.83 13.12 3.45 14.38 2.31 11.95 2.61 13.37 0 10.02 2.61 11.11 2.8 11.11 3.77 11.85 3.82 11.88 4.17 13.09 4.34 11.58 5.58 11.65 7.2 10.02 6.7"/><polygon class="cls-1" points="9.09 3.39 7.48 2.15 7.48 3.46 5.26 1.68 6.35 3.68 0 3.33 6.22 4.46 0.87 5.68 7.25 5.31 6.5 5.99 7.94 5.81 7.1 7.36 9.09 5.81 8.44 5.7 8.44 5.12 8 5.09 7.98 4.89 7.26 4.78 8.16 4.05 8.12 3.09 9.09 3.39"/><polygon class="cls-3" points="9.93 5.99 11.24 6.59 11.09 5.34 12.02 4.63 11.44 4.52 11.41 4.12 10.59 4.06 10.71 3.09 9.83 2.92 9.09 2.86 10.06 3.63 9.58 3.94 8.47 3.54 8.57 4.15 8.07 4.55 8.4 4.85 8.8 4.79 8.8 5.44 9.5 5.56 9.93 5.99"/><polygon class="cls-2" points="10.05 6.22 12.07 7.78 12.07 6.13 14.88 8.38 13.51 5.85 21.54 6.3 13.68 4.86 20.45 3.32 12.37 3.79 13.32 2.93 11.5 3.15 12.56 1.2 10.05 3.15 10.87 3.3 10.87 4.03 11.42 4.06 11.44 4.32 12.35 4.46 11.22 5.38 11.28 6.59 10.05 6.22"/><polygon class="cls-2" points="9.28 3.83 8.3 3.07 8.3 3.87 6.95 2.78 7.61 4.01 3.73 3.79 7.53 4.48 4.26 5.23 8.16 5 7.7 5.42 8.58 5.31 8.07 6.25 9.28 5.31 8.89 5.24 8.89 4.89 8.62 4.87 8.61 4.74 8.17 4.68 8.72 4.23 8.69 3.65 9.28 3.83"/></svg>