<svg id="Layer_1" data-name="Layer 1" xmlns="http://www.w3.org/2000/svg" viewBox="0 0 25.35 9.58"><defs><style>.cls-1{fill:#7c1a19;}.cls-2{fill:#e4091d;}.cls-3{fill:#12100b;}</style></defs><polygon class="cls-1" points="15.52 3.23 13.79 2.44 13.99 4.1 12.74 5.04 13.53 5.19 13.56 5.72 14.64 5.8 14.49 7.08 15.65 7.31 16.65 7.39 15.36 6.37 15.99 5.95 17.47 6.49 17.32 5.68 17.99 5.14 17.55 4.75 17.03 4.83 17.03 3.96 16.09 3.8 15.52 3.23"/><polygon class="cls-2" points="15.48 3.42 13.97 2.74 14.14 4.18 13.06 5 13.74 5.13 13.77 5.59 14.71 5.66 14.58 6.78 15.59 6.97 16.45 7.04 15.33 6.15 15.89 5.79 17.17 6.26 17.04 5.55 17.62 5.08 17.24 4.74 16.78 4.82 16.78 4.06 15.97 3.92 15.48 3.42"/><polygon class="cls-1" points="15.34 2.88 12.63 0.79 12.63 3 8.88 0 10.72 3.38 0 2.78 10.5 4.69 1.46 6.75 12.23 6.13 10.97 7.27 13.4 6.97 11.99 9.58 15.34 6.97 14.24 6.78 14.24 5.81 13.5 5.76 13.47 5.41 12.26 5.24 13.77 4 13.7 2.38 15.34 2.88"/><polygon class="cls-1" points="16.27 6.19 17.87 7.43 17.87 6.12 20.09 7.9 19 5.9 25.35 6.25 19.13 5.12 24.48 3.9 18.11 4.27 18.86 3.59 17.41 3.77 18.25 2.22 16.27 3.77 16.91 3.88 16.91 4.46 17.36 4.49 17.37 4.69 18.09 4.8 17.19 5.53 17.24 6.49 16.27 6.19"/><polygon class="cls-3" points="15.42 3.58 14.11 2.99 14.26 4.24 13.33 4.95 13.92 5.06 13.94 5.46 14.76 5.52 14.64 6.49 15.52 6.66 16.27 6.72 15.3 5.95 15.78 5.64 16.89 6.04 16.78 5.43 17.28 5.02 16.95 4.73 16.55 4.79 16.55 4.14 15.85 4.01 15.42 3.58"/><polygon class="cls-2" points="15.3 3.36 13.28 1.79 13.28 3.45 10.47 1.2 11.85 3.73 3.81 3.28 11.68 4.71 4.91 6.26 12.98 5.79 12.03 6.65 13.85 6.43 12.79 8.38 15.3 6.43 14.49 6.28 14.49 5.55 13.93 5.51 13.91 5.25 13 5.12 14.13 4.19 14.08 2.98 15.3 3.36"/><polygon class="cls-2" points="16.07 5.75 17.05 6.51 17.05 5.71 18.41 6.79 17.74 5.57 21.63 5.79 17.82 5.1 21.09 4.35 17.19 4.58 17.65 4.16 16.77 4.27 17.28 3.33 16.07 4.27 16.46 4.34 16.46 4.69 16.73 4.71 16.74 4.83 17.18 4.9 16.64 5.35 16.66 5.93 16.07 5.75"/></svg>