<svg id="Layer_1" data-name="Layer 1" xmlns="http://www.w3.org/2000/svg" viewBox="0 0 192.06 44.5"><defs><style>.cls-1{fill:#7c1919;}.cls-2{fill:#e20a13;}.cls-3{fill:#a71a17;}</style></defs><path class="cls-1" d="M59.84,103.33s.15,3.68,1,4.54,1.85-16.05.53-24.39-1.81-6.54-2.26-5.33-.59,7.42-.59,7.42.6-5.36,1.14-4.67S61,93.19,60.89,97.73s-.28,8-.28,8Z" transform="translate(-4.93 -69.38)"/><path class="cls-1" d="M67.67,103.82s.17,4.25,1.2,5.25,2.14-18.59.62-28.24-2.1-7.57-2.62-6.17-.69,8.6-.69,8.6.7-6.2,1.33-5.41S69,92.07,68.88,97.33s-.32,9.29-.32,9.29Z" transform="translate(-4.93 -69.38)"/><polygon class="cls-1" points="72.08 30.17 119.23 28.94 71.62 28.35 72.08 30.17"/><polygon class="cls-1" points="70.1 15.86 119.23 14.63 69.62 14.04 70.1 15.86"/><path d="M15.2,87.82a29,29,0,0,0-8.54,3.42c-2.31,1.54-2.31,2.92,0,4.37a27.51,27.51,0,0,0,7.57,3c10.81,2.94,21.88,3.66,33,3.9,3.38.07,6.76,0,10.14-.21,16.34-1.19,20.44-2.73,21.39-3.59-.05-.2.13-.44.21-.65a17.58,17.58,0,0,0,.69-2.13,14.7,14.7,0,0,0-.29-7,12.32,12.32,0,0,0-1-2c-.69-1-2.55-1.69-4.86-2.16a3.2,3.2,0,0,1-.7-.14c-1.08-.2-8.29-.63-8.59-.85l-4.17-.09h0a5,5,0,0,1-1.09,0c-5.47.09-10.94,0-16.41.28A133.62,133.62,0,0,0,15.2,87.82Zm-.74,7.83,24,2.81C29.86,99,19.3,97.78,14.46,95.65ZM33,92.89c4.21-.58,26.54-.78,29.27-.17A234.56,234.56,0,0,1,33,92.89Zm26.86-7.72a60.11,60.11,0,0,1,12.74,1.45c1.66.42,3.4.77,4.56,2.52-22.2-5.08-44.13-2-66.05,1.76A62.22,62.22,0,0,1,23.6,87.73,186.18,186.18,0,0,1,59.82,85.17Z" transform="translate(-4.93 -69.38)"/><path class="cls-2" d="M68,106.06s.2,4.89,1.38,6,2.46-21.34.71-32.43-2.42-8.69-3-7.08-.79,9.87-.79,9.87.81-7.12,1.52-6.21,1.77,16.33,1.58,22.37-.37,10.67-.37,10.67Z" transform="translate(-4.93 -69.38)"/><path class="cls-2" d="M69.06,109.28l-1-3.22s.2,4.89,1.38,6" transform="translate(-4.93 -69.38)"/><path class="cls-2" d="M60.34,104.8s.17,4.08,1.16,5,2-17.81.59-27.06-2-7.26-2.51-5.91-.66,8.23-.66,8.23.67-5.94,1.27-5.18,1.47,13.63,1.32,18.67-.31,8.9-.31,8.9Z" transform="translate(-4.93 -69.38)"/><path class="cls-3" d="M86.51,94.88,197,89.65,83.92,88v6.88ZM85.4,89.09h43.71v1.34H85.4Z" transform="translate(-4.93 -69.38)"/><path class="cls-2" d="M80.42,99.17s-.58,9.71.51,11.27c0,0,3.88-14.85,1.15-30.45s-5-3.33-5-3.33l-2,8.58-1.53-.63s2.58-14.27,6.16-15.18S84.42,81.2,84.42,81.2s1.53,17.51-.69,26.53S80,113.2,80,113.2s-2-8.8-1.17-13.7S80.42,99.17,80.42,99.17Z" transform="translate(-4.93 -69.38)"/></svg>