<svg id="Layer_1" data-name="Layer 1" xmlns="http://www.w3.org/2000/svg" viewBox="0 0 192.06 44.5"><defs><style>.cls-1{fill:#7c1919;}.cls-2{fill:#e20a13;}.cls-3{fill:#a71a17;}</style></defs><path class="cls-1" d="M142.08,79.93s-.15-3.68-1-4.53-1.84,16-.53,24.39,1.82,6.54,2.26,5.33.6-7.43.6-7.43-.61,5.36-1.15,4.67S140.9,90.08,141,85.53s.27-8,.27-8Z" transform="translate(-4.93 -69.38)"/><path class="cls-1" d="M134.25,79.45s-.17-4.26-1.2-5.25-2.14,18.58-.62,28.23,2.11,7.57,2.62,6.17.69-8.59.69-8.59-.7,6.2-1.32,5.41S132.88,91.2,133,85.93s.32-9.29.32-9.29Z" transform="translate(-4.93 -69.38)"/><polygon class="cls-1" points="119.97 14.34 72.83 15.57 120.44 16.15 119.97 14.34"/><polygon class="cls-1" points="121.96 28.64 72.83 29.88 122.44 30.46 121.96 28.64"/><path d="M186.72,95.44A28.63,28.63,0,0,0,195.26,92c2.31-1.53,2.31-2.91,0-4.37a27.68,27.68,0,0,0-7.57-2.94c-10.8-2.94-21.88-3.66-33-3.9-3.38-.07-6.77,0-10.14.2-16.35,1.2-20.44,2.73-21.4,3.59.05.2-.12.45-.21.65a18.79,18.79,0,0,0-.69,2.13,14.62,14.62,0,0,0,.3,7.06,12.17,12.17,0,0,0,1,2c.69,1,2.55,1.69,4.87,2.17a3.23,3.23,0,0,1,.69.14c1.08.19,8.29.62,8.59.84l4.17.09h0a4.34,4.34,0,0,1,1.08,0c5.47-.09,10.94.05,16.42-.28C168.61,98.87,177.77,97.89,186.72,95.44Zm.74-7.82-24-2.81C172.07,84.26,182.62,85.49,187.46,87.62ZM169,90.38c-4.21.57-26.54.77-29.27.16A234.55,234.55,0,0,1,169,90.38Zm-26.85,7.71a59.39,59.39,0,0,1-12.74-1.45c-1.67-.41-3.41-.76-4.57-2.52,22.2,5.08,44.13,2,66.06-1.76a61.84,61.84,0,0,1-12.54,3.18A186.86,186.86,0,0,1,142.11,98.09Z" transform="translate(-4.93 -69.38)"/><path class="cls-2" d="M133.89,77.21s-.2-4.89-1.39-6-2.45,21.34-.71,32.42,2.42,8.7,3,7.09.79-9.87.79-9.87-.8,7.12-1.52,6.21-1.76-16.33-1.58-22.38.37-10.67.37-10.67Z" transform="translate(-4.93 -69.38)"/><path class="cls-2" d="M132.86,74l1,3.23s-.2-4.89-1.39-6" transform="translate(-4.93 -69.38)"/><path class="cls-2" d="M141.58,78.46s-.17-4.08-1.15-5-2.05,17.81-.6,27.06,2,7.25,2.51,5.91.67-8.24.67-8.24-.68,6-1.27,5.19-1.48-13.63-1.32-18.67.31-8.91.31-8.91Z" transform="translate(-4.93 -69.38)"/><path class="cls-3" d="M115.41,88.38,4.93,93.61,118,95.26V88.38Zm1.12,5.8H72.81V92.83h43.72Z" transform="translate(-4.93 -69.38)"/><path class="cls-2" d="M121.51,84.1s.57-9.71-.51-11.27c0,0-3.88,14.85-1.16,30.45s5,3.33,5,3.33l2-8.58,1.53.62s-2.58,14.28-6.16,15.19-4.75-11.78-4.75-11.78-1.54-17.51.68-26.52,3.69-5.47,3.69-5.47,2,8.8,1.17,13.7S121.51,84.1,121.51,84.1Z" transform="translate(-4.93 -69.38)"/></svg>