<svg id="Layer_1" data-name="Layer 1" xmlns="http://www.w3.org/2000/svg" viewBox="0 0 44.5 192.06"><defs><style>.cls-1{fill:#7c1919;}.cls-2{fill:#e20a13;}.cls-3{fill:#a71a17;}</style></defs><path class="cls-1" d="M102.87,142.54s3.68-.15,4.54-1S91.35,139.66,83,141s-6.54,1.82-5.33,2.26,7.42.6,7.42.6-5.36-.61-4.67-1.15,12.28-1.32,16.83-1.18,8,.27,8,.27Z" transform="translate(-68.92 -5.39)"/><path class="cls-1" d="M103.36,134.72s4.25-.18,5.25-1.21-18.59-2.14-28.24-.62S72.8,135,74.2,135.51s8.6.69,8.6.69-6.21-.7-5.41-1.32,14.22-1.54,19.48-1.38,9.29.32,9.29.32Z" transform="translate(-68.92 -5.39)"/><polygon class="cls-1" points="30.17 119.97 28.94 72.83 28.35 120.44 30.17 119.97"/><polygon class="cls-1" points="15.86 121.96 14.63 72.83 14.04 122.44 15.86 121.96"/><path d="M87.36,187.18a28.63,28.63,0,0,0,3.42,8.54c1.54,2.31,2.91,2.31,4.37,0a27.71,27.71,0,0,0,2.95-7.57c2.94-10.8,3.66-21.88,3.9-33,.07-3.38,0-6.77-.21-10.14-1.19-16.34-2.73-20.44-3.59-21.4-.2,0-.44-.12-.65-.2a14.66,14.66,0,0,0-2.13-.69,14.45,14.45,0,0,0-7,.29,11.25,11.25,0,0,0-2,1c-1,.68-1.69,2.55-2.17,4.86a2.9,2.9,0,0,1-.13.7c-.2,1.07-.63,8.28-.85,8.58,0,.51-.09,4-.09,4.17a.06.06,0,0,0,0,0,4.35,4.35,0,0,1,0,1.08c.1,5.47,0,10.94.28,16.42C83.93,169.07,84.91,178.23,87.36,187.18Zm7.83.74q1.41-12,2.81-24C98.54,172.53,97.32,183.08,95.19,187.92Zm-2.76-18.49c-.58-4.22-.78-26.54-.17-29.28A234.72,234.72,0,0,1,92.43,169.43Zm-7.72-26.86a60,60,0,0,1,1.45-12.74c.42-1.67.77-3.41,2.52-4.57-5.08,22.2-2,44.13,1.76,66.06a62.48,62.48,0,0,1-3.17-12.54A186.08,186.08,0,0,1,84.71,142.57Z" transform="translate(-68.92 -5.39)"/><path class="cls-2" d="M105.6,134.35s4.89-.2,6-1.39-21.34-2.45-32.43-.71-8.69,2.42-7.08,3,9.87.79,9.87.79-7.13-.8-6.21-1.52,16.33-1.76,22.37-1.58,10.67.37,10.67.37Z" transform="translate(-68.92 -5.39)"/><path class="cls-2" d="M108.82,133.32l-3.22,1s4.89-.2,6-1.39" transform="translate(-68.92 -5.39)"/><path class="cls-2" d="M104.34,142s4.08-.16,5-1.15-17.81-2-27.06-.59-7.25,2-5.91,2.5,8.24.67,8.24.67-5.94-.68-5.18-1.27,13.62-1.48,18.67-1.32,8.9.31,8.9.31Z" transform="translate(-68.92 -5.39)"/><path class="cls-3" d="M94.42,115.87,89.19,5.39,87.54,118.47h6.88ZM88.63,117V73.27H90V117Z" transform="translate(-68.92 -5.39)"/><path class="cls-2" d="M98.71,122s9.71.57,11.26-.51c0,0-14.84-3.88-30.44-1.16s-3.33,5.06-3.33,5.06l8.58,2-.63,1.53S69.88,126.3,69,122.72,80.74,118,80.74,118s17.51-1.53,26.53.68,5.47,3.69,5.47,3.69-8.8,2-13.7,1.17S98.71,122,98.71,122Z" transform="translate(-68.92 -5.39)"/></svg>