<svg id="Layer_1" data-name="Layer 1" xmlns="http://www.w3.org/2000/svg" viewBox="0 0 44.5 192.06"><defs><style>.cls-1{fill:#7c1919;}.cls-2{fill:#e20a13;}.cls-3{fill:#a71a17;}</style></defs><path class="cls-1" d="M79.47,60.3s-3.68.15-4.53,1,16,1.85,24.39.53,6.54-1.81,5.33-2.26S97.23,59,97.23,59s5.36.6,4.67,1.14-12.28,1.33-16.83,1.19-8-.28-8-.28Z" transform="translate(-68.92 -5.39)"/><path class="cls-1" d="M79,68.13s-4.26.17-5.25,1.2S92.32,71.47,102,70s7.57-2.1,6.17-2.62-8.59-.69-8.59-.69,6.2.71,5.4,1.33-14.21,1.54-19.48,1.37S76.18,69,76.18,69Z" transform="translate(-68.92 -5.39)"/><polygon class="cls-1" points="14.34 72.08 15.57 119.23 16.15 71.62 14.34 72.08"/><polygon class="cls-1" points="28.64 70.1 29.88 119.23 30.46 69.62 28.64 70.1"/><path d="M95,15.66a28.74,28.74,0,0,0-3.42-8.54c-1.54-2.31-2.91-2.31-4.37,0a27.81,27.81,0,0,0-2.94,7.57c-2.94,10.81-3.66,21.88-3.9,33-.07,3.38,0,6.76.2,10.14,1.2,16.34,2.73,20.44,3.59,21.39.2,0,.45.13.65.21a17.58,17.58,0,0,0,2.13.69A14.74,14.74,0,0,0,94,79.86a12.24,12.24,0,0,0,2-1c1-.69,1.69-2.55,2.17-4.86a3.24,3.24,0,0,1,.13-.7c.2-1.08.63-8.29.85-8.59,0-.5.09-4,.09-4.16v0a4.34,4.34,0,0,1,0-1.08C99.16,54,99.3,48.49,99,43,98.41,33.78,97.43,24.61,95,15.66Zm-7.83-.74q-1.4,12-2.8,24C83.8,30.32,85,19.76,87.15,14.92Zm2.77,18.5c.57,4.21.77,26.54.16,29.27A232.64,232.64,0,0,1,89.92,33.42Zm7.71,26.86A59.47,59.47,0,0,1,96.18,73c-.41,1.67-.76,3.41-2.52,4.57,5.08-22.21,2-44.14-1.76-66.06a62.41,62.41,0,0,1,3.18,12.53A187,187,0,0,1,97.63,60.28Z" transform="translate(-68.92 -5.39)"/><path class="cls-2" d="M76.75,68.5s-4.89.2-6,1.38,21.34,2.46,32.42.71,8.69-2.41,7.08-3-9.86-.79-9.86-.79,7.12.81,6.21,1.52-16.33,1.77-22.38,1.58-10.67-.37-10.67-.37Z" transform="translate(-68.92 -5.39)"/><path class="cls-2" d="M73.52,69.52l3.23-1s-4.89.2-6,1.38" transform="translate(-68.92 -5.39)"/><path class="cls-2" d="M78,60.8S73.92,61,73,62,90.78,64,100,62.55s7.25-2,5.91-2.51-8.24-.66-8.24-.66,6,.67,5.19,1.27S89.26,62.12,84.22,62s-8.91-.31-8.91-.31Z" transform="translate(-68.92 -5.39)"/><path class="cls-3" d="M87.92,87l5.23,110.47L94.8,84.38H87.92Zm5.8-1.12v43.71H92.37V85.86Z" transform="translate(-68.92 -5.39)"/><path class="cls-2" d="M83.64,80.88s-9.71-.58-11.27.51c0,0,14.85,3.88,30.45,1.16s3.32-5.06,3.32-5.06l-8.58-2L98.19,74s14.28,2.58,15.19,6.16-11.78,4.76-11.78,4.76-17.51,1.53-26.52-.68-5.47-3.7-5.47-3.7,8.8-2,13.69-1.17S83.64,80.88,83.64,80.88Z" transform="translate(-68.92 -5.39)"/></svg>