<?xml version="1.0" encoding="UTF-8"?>
<svg version="1.1" xmlns="http://www.w3.org/2000/svg" width="291" height="288">
<path d="M0 0 C96.03 0 192.06 0 291 0 C291 95.04 291 190.08 291 288 C194.97 288 98.94 288 0 288 C0 192.96 0 97.92 0 0 Z " fill="#403797" transform="translate(0,0)"></path>
<path d="M0 0 C9.24 0 18.48 0 28 0 C28 86.79 28 173.58 28 263 C18.76 263 9.52 263 0 263 C0 254.75 0 246.5 0 238 C-8.91 238 -17.82 238 -27 238 C-27 246.25 -27 254.5 -27 263 C-36.57 263 -46.14 263 -56 263 C-56 254.42 -56 245.84 -56 237 C-65.24 237 -74.48 237 -84 237 C-84 226.77 -84 216.54 -84 206 C-74.76 206 -65.52 206 -56 206 C-56 196.1 -56 186.2 -56 176 C-65.24 176 -74.48 176 -84 176 C-84 166.1 -84 156.2 -84 146 C-74.76 146 -65.52 146 -56 146 C-56 136.1 -56 126.2 -56 116 C-65.24 116 -74.48 116 -84 116 C-84 106.1 -84 96.2 -84 86 C-74.76 86 -65.52 86 -56 86 C-56 76.1 -56 66.2 -56 56 C-65.24 56 -74.48 56 -84 56 C-84 46.1 -84 36.2 -84 26 C-74.43 26 -64.86 26 -55 26 C-55 35.9 -55 45.8 -55 56 C-45.76 56 -36.52 56 -27 56 C-27 46.1 -27 36.2 -27 26 C-18.09 26 -9.18 26 0 26 C0 17.42 0 8.84 0 0 Z " fill="#35379B" transform="translate(263,0)"></path>
<path d="M0 0 C49.17 0 98.34 0 149 0 C149 28.38 149 56.76 149 86 C140.09 86 131.18 86 122 86 C121.67 76.1 121.34 66.2 121 56 C111.76 56 102.52 56 93 56 C93 65.9 93 75.8 93 86 C81.78 86 70.56 86 59 86 C59 95.9 59 105.8 59 116 C70.22 116 81.44 116 93 116 C93 125.9 93 135.8 93 146 C81.78 146 70.56 146 59 146 C59 155.9 59 165.8 59 176 C70.22 176 81.44 176 93 176 C93 185.9 93 195.8 93 206 C102.24 206 111.48 206 121 206 C121 216.23 121 226.46 121 237 C111.76 237 102.52 237 93 237 C93 227.1 93 217.2 93 207 C81.78 207 70.56 207 59 207 C59 216.9 59 226.8 59 237 C49.1 237 39.2 237 29 237 C29 226.77 29 216.54 29 206 C19.43 206 9.86 206 0 206 C0 196.1 0 186.2 0 176 C9.57 176 19.14 176 29 176 C29 166.1 29 156.2 29 146 C19.43 146 9.86 146 0 146 C0 136.1 0 126.2 0 116 C9.57 116 19.14 116 29 116 C29 106.1 29 96.2 29 86 C19.43 86 9.86 86 0 86 C0 76.1 0 66.2 0 56 C9.57 56 19.14 56 29 56 C29 46.1 29 36.2 29 26 C19.43 26 9.86 26 0 26 C0 17.42 0 8.84 0 0 Z " fill="#7C0A92" transform="translate(29,0)"></path>
<path d="M0 0 C9.57 0 19.14 0 29 0 C29 8.58 29 17.16 29 26 C38.57 26 48.14 26 58 26 C58 35.9 58 45.8 58 56 C48.43 56 38.86 56 29 56 C29 65.9 29 75.8 29 86 C38.57 86 48.14 86 58 86 C58 95.9 58 105.8 58 116 C48.43 116 38.86 116 29 116 C29 125.9 29 135.8 29 146 C38.57 146 48.14 146 58 146 C58 155.9 58 165.8 58 176 C48.43 176 38.86 176 29 176 C29 196.13 29 216.26 29 237 C19.76 237 10.52 237 1 237 C1 245.58 1 254.16 1 263 C29.38 263 57.76 263 87 263 C87 271.25 87 279.5 87 288 C58.29 288 29.58 288 0 288 C0 192.96 0 97.92 0 0 Z " fill="#860096" transform="translate(0,0)"></path>
<path d="M0 0 C29.7 0 59.4 0 90 0 C90 28.38 90 56.76 90 86 C81.09 86 72.18 86 63 86 C62.67 76.1 62.34 66.2 62 56 C41.54 56 21.08 56 0 56 C0 37.52 0 19.04 0 0 Z " fill="#7B008B" transform="translate(88,0)"></path>
<path d="M0 0 C8.91 0 17.82 0 27 0 C27 8.25 27 16.5 27 25 C36.24 25 45.48 25 55 25 C55 33.25 55 41.5 55 50 C18.04 50 -18.92 50 -57 50 C-57 41.75 -57 33.5 -57 25 C-38.19 25 -19.38 25 0 25 C0 16.75 0 8.5 0 0 Z " fill="#C0C0F5" transform="translate(236,238)"></path>
<path d="M0 0 C0.33 0 0.66 0 1 0 C1 9.9 1 19.8 1 30 C10.24 30 19.48 30 29 30 C29 40.23 29 50.46 29 61 C19.76 61 10.52 61 1 61 C1 69.58 1 78.16 1 87 C29.38 87 57.76 87 87 87 C87 95.25 87 103.5 87 112 C58.29 112 29.58 112 0 112 C0 75.04 0 38.08 0 0 Z " fill="#5F57EA" transform="translate(0,176)"></path>
<path d="M0 0 C28.05 0 56.1 0 85 0 C85 8.58 85 17.16 85 26 C76.09 26 67.18 26 58 26 C58 35.9 58 45.8 58 56 C48.76 56 39.52 56 30 56 C30 46.1 30 36.2 30 26 C20.1 26 10.2 26 0 26 C0 17.42 0 8.84 0 0 Z " fill="#F901C1" transform="translate(178,0)"></path>
<path d="M0 0 C8.91 0 17.82 0 27 0 C27 10.23 27 20.46 27 31 C18.09 31 9.18 31 0 31 C0 40.57 0 50.14 0 60 C-9.24 60 -18.48 60 -28 60 C-28 50.1 -28 40.2 -28 30 C-18.76 30 -9.52 30 0 30 C0 20.1 0 10.2 0 0 Z " fill="#A25DF2" transform="translate(264,116)"></path>
<path d="M0 0 C8.91 0 17.82 0 27 0 C27 9.9 27 19.8 27 30 C18.09 30 9.18 30 0 30 C0 39.57 0 49.14 0 59 C-9.24 59 -18.48 59 -28 59 C-28 49.1 -28 39.2 -28 29 C-18.76 29 -9.52 29 0 29 C0 19.43 0 9.86 0 0 Z " fill="#2A0164" transform="translate(264,147)"></path>
<path d="M0 0 C8.91 0 17.82 0 27 0 C27 18.48 27 36.96 27 56 C18.09 56 9.18 56 0 56 C0 37.52 0 19.04 0 0 Z " fill="#590078" transform="translate(264,0)"></path>
<path d="M0 0 C11.22 0 22.44 0 34 0 C34 9.9 34 19.8 34 30 C22.78 30 11.56 30 0 30 C0 20.1 0 10.2 0 0 Z " fill="#0E0965" transform="translate(88,207)"></path>
<path d="M0 0 C11.22 0 22.44 0 34 0 C34 9.9 34 19.8 34 30 C22.78 30 11.56 30 0 30 C0 20.1 0 10.2 0 0 Z " fill="#2B0068" transform="translate(88,146)"></path>
<path d="M0 0 C11.22 0 22.44 0 34 0 C34 9.9 34 19.8 34 30 C22.78 30 11.56 30 0 30 C0 20.1 0 10.2 0 0 Z " fill="#FCE3FB" transform="translate(88,116)"></path>
<path d="M0 0 C11.22 0 22.44 0 34 0 C34 9.9 34 19.8 34 30 C22.78 30 11.56 30 0 30 C0 20.1 0 10.2 0 0 Z " fill="#3F0172" transform="translate(88,86)"></path>
<path d="M0 0 C11.22 0 22.44 0 34 0 C34 9.9 34 19.8 34 30 C22.78 30 11.56 30 0 30 C0 20.1 0 10.2 0 0 Z " fill="#E7B0EF" transform="translate(88,56)"></path>
<path d="M0 0 C11.22 0 22.44 0 34 0 C34 9.9 34 19.8 34 30 C22.78 30 11.56 30 0 30 C0 20.1 0 10.2 0 0 Z " fill="#640084" transform="translate(88,26)"></path>
<path d="M0 0 C9.57 0 19.14 0 29 0 C29 10.23 29 20.46 29 31 C19.43 31 9.86 31 0 31 C0 20.77 0 10.54 0 0 Z " fill="#6454E9" transform="translate(58,206)"></path>
<path d="M0 0 C9.57 0 19.14 0 29 0 C29 10.23 29 20.46 29 31 C19.43 31 9.86 31 0 31 C0 20.77 0 10.54 0 0 Z " fill="#0F0965" transform="translate(29,206)"></path>
<path d="M0 0 C11.22 0 22.44 0 34 0 C34 8.58 34 17.16 34 26 C22.78 26 11.56 26 0 26 C0 17.42 0 8.84 0 0 Z " fill="#FE16C2" transform="translate(88,0)"></path>
<path d="M0 0 C9.57 0 19.14 0 29 0 C29 9.9 29 19.8 29 30 C19.43 30 9.86 30 0 30 C0 20.1 0 10.2 0 0 Z " fill="#E3D5F6" transform="translate(29,176)"></path>
<path d="M0 0 C9.57 0 19.14 0 29 0 C29 9.9 29 19.8 29 30 C19.43 30 9.86 30 0 30 C0 20.1 0 10.2 0 0 Z " fill="#210165" transform="translate(58,176)"></path>
<path d="M0 0 C9.57 0 19.14 0 29 0 C29 9.9 29 19.8 29 30 C19.43 30 9.86 30 0 30 C0 20.1 0 10.2 0 0 Z " fill="#F3DDF8" transform="translate(58,146)"></path>
<path d="M0 0 C9.57 0 19.14 0 29 0 C29 9.9 29 19.8 29 30 C19.43 30 9.86 30 0 30 C0 20.1 0 10.2 0 0 Z " fill="#2A0067" transform="translate(29,146)"></path>
<path d="M0 0 C9.57 0 19.14 0 29 0 C29 9.9 29 19.8 29 30 C19.43 30 9.86 30 0 30 C0 20.1 0 10.2 0 0 Z " fill="#C769F5" transform="translate(29,116)"></path>
<path d="M0 0 C9.57 0 19.14 0 29 0 C29 9.9 29 19.8 29 30 C19.43 30 9.86 30 0 30 C0 20.1 0 10.2 0 0 Z " fill="#34006B" transform="translate(58,116)"></path>
<path d="M0 0 C9.57 0 19.14 0 29 0 C29 9.9 29 19.8 29 30 C19.43 30 9.86 30 0 30 C0 20.1 0 10.2 0 0 Z " fill="#D575F6" transform="translate(58,86)"></path>
<path d="M0 0 C9.57 0 19.14 0 29 0 C29 9.9 29 19.8 29 30 C19.43 30 9.86 30 0 30 C0 20.1 0 10.2 0 0 Z " fill="#3C0170" transform="translate(29,86)"></path>
<path d="M0 0 C9.57 0 19.14 0 29 0 C29 9.9 29 19.8 29 30 C19.43 30 9.86 30 0 30 C0 20.1 0 10.2 0 0 Z " fill="#E17EF5" transform="translate(29,56)"></path>
<path d="M0 0 C9.57 0 19.14 0 29 0 C29 9.9 29 19.8 29 30 C19.43 30 9.86 30 0 30 C0 20.1 0 10.2 0 0 Z " fill="#4D017A" transform="translate(58,56)"></path>
<path d="M0 0 C9.57 0 19.14 0 29 0 C29 9.9 29 19.8 29 30 C19.43 30 9.86 30 0 30 C0 20.1 0 10.2 0 0 Z " fill="#EE8EF5" transform="translate(58,26)"></path>
<path d="M0 0 C9.57 0 19.14 0 29 0 C29 9.9 29 19.8 29 30 C19.43 30 9.86 30 0 30 C0 20.1 0 10.2 0 0 Z " fill="#630083" transform="translate(29,26)"></path>
<path d="M0 0 C11.22 0 22.44 0 34 0 C34 8.25 34 16.5 34 25 C22.78 25 11.56 25 0 25 C0 16.75 0 8.5 0 0 Z " fill="#00ADFA" transform="translate(88,238)"></path>
<path d="M0 0 C9.24 0 18.48 0 28 0 C28 9.9 28 19.8 28 30 C18.76 30 9.52 30 0 30 C0 20.1 0 10.2 0 0 Z " fill="#090A61" transform="translate(208,207)"></path>
<path d="M0 0 C9.24 0 18.48 0 28 0 C28 9.9 28 19.8 28 30 C18.76 30 9.52 30 0 30 C0 20.1 0 10.2 0 0 Z " fill="#1C0164" transform="translate(1,176)"></path>
<path d="M0 0 C9.24 0 18.48 0 28 0 C28 9.9 28 19.8 28 30 C18.76 30 9.52 30 0 30 C0 20.1 0 10.2 0 0 Z " fill="#1D0163" transform="translate(179,176)"></path>
<path d="M0 0 C9.24 0 18.48 0 28 0 C28 9.9 28 19.8 28 30 C18.76 30 9.52 30 0 30 C0 20.1 0 10.2 0 0 Z " fill="#1F0165" transform="translate(122,176)"></path>
<path d="M0 0 C9.24 0 18.48 0 28 0 C28 9.9 28 19.8 28 30 C18.76 30 9.52 30 0 30 C0 20.1 0 10.2 0 0 Z " fill="#260064" transform="translate(208,146)"></path>
<path d="M0 0 C9.24 0 18.48 0 28 0 C28 9.9 28 19.8 28 30 C18.76 30 9.52 30 0 30 C0 20.1 0 10.2 0 0 Z " fill="#F1DCF9" transform="translate(122,146)"></path>
<path d="M0 0 C9.24 0 18.48 0 28 0 C28 9.9 28 19.8 28 30 C18.76 30 9.52 30 0 30 C0 20.1 0 10.2 0 0 Z " fill="#F3DEFA" transform="translate(1,146)"></path>
<path d="M0 0 C9.24 0 18.48 0 28 0 C28 9.9 28 19.8 28 30 C18.76 30 9.52 30 0 30 C0 20.1 0 10.2 0 0 Z " fill="#2A0066" transform="translate(236,116)"></path>
<path d="M0 0 C9.24 0 18.48 0 28 0 C28 9.9 28 19.8 28 30 C18.76 30 9.52 30 0 30 C0 20.1 0 10.2 0 0 Z " fill="#300069" transform="translate(179,116)"></path>
<path d="M0 0 C9.24 0 18.48 0 28 0 C28 9.9 28 19.8 28 30 C18.76 30 9.52 30 0 30 C0 20.1 0 10.2 0 0 Z " fill="#33006B" transform="translate(122,116)"></path>
<path d="M0 0 C9.24 0 18.48 0 28 0 C28 9.9 28 19.8 28 30 C18.76 30 9.52 30 0 30 C0 20.1 0 10.2 0 0 Z " fill="#33006B" transform="translate(1,116)"></path>
<path d="M0 0 C9.24 0 18.48 0 28 0 C28 9.9 28 19.8 28 30 C18.76 30 9.52 30 0 30 C0 20.1 0 10.2 0 0 Z " fill="#35016B" transform="translate(208,86)"></path>
<path d="M0 0 C9.24 0 18.48 0 28 0 C28 9.9 28 19.8 28 30 C18.76 30 9.52 30 0 30 C0 20.1 0 10.2 0 0 Z " fill="#FCE8FA" transform="translate(179,86)"></path>
<path d="M0 0 C9.24 0 18.48 0 28 0 C28 9.9 28 19.8 28 30 C18.76 30 9.52 30 0 30 C0 20.1 0 10.2 0 0 Z " fill="#FCE9FA" transform="translate(122,86)"></path>
<path d="M0 0 C9.24 0 18.48 0 28 0 C28 9.9 28 19.8 28 30 C18.76 30 9.52 30 0 30 C0 20.1 0 10.2 0 0 Z " fill="#FDE9FA" transform="translate(1,86)"></path>
<path d="M0 0 C9.24 0 18.48 0 28 0 C28 9.9 28 19.8 28 30 C18.76 30 9.52 30 0 30 C0 20.1 0 10.2 0 0 Z " fill="#450075" transform="translate(179,56)"></path>
<path d="M0 0 C9.24 0 18.48 0 28 0 C28 9.9 28 19.8 28 30 C18.76 30 9.52 30 0 30 C0 20.1 0 10.2 0 0 Z " fill="#4D007A" transform="translate(1,56)"></path>
<path d="M0 0 C9.24 0 18.48 0 28 0 C28 9.9 28 19.8 28 30 C18.76 30 9.52 30 0 30 C0 20.1 0 10.2 0 0 Z " fill="#E581F4" transform="translate(179,26)"></path>
<path d="M0 0 C9.24 0 18.48 0 28 0 C28 9.9 28 19.8 28 30 C18.76 30 9.52 30 0 30 C0 20.1 0 10.2 0 0 Z " fill="#EA87F4" transform="translate(122,26)"></path>
<path d="M0 0 C9.24 0 18.48 0 28 0 C28 9.9 28 19.8 28 30 C18.76 30 9.52 30 0 30 C0 20.1 0 10.2 0 0 Z " fill="#EA84F3" transform="translate(1,26)"></path>
<path d="M0 0 C9.24 0 18.48 0 28 0 C28 9.9 28 19.8 28 30 C18.76 30 9.52 30 0 30 C0 20.1 0 10.2 0 0 Z " fill="#4F0079" transform="translate(208,26)"></path>
<path d="M0 0 C9.24 0 18.48 0 28 0 C28 9.57 28 19.14 28 29 C24.82212459 30.0592918 22.57411057 30.11458939 19.23828125 30.09765625 C17.72681519 30.09390991 17.72681519 30.09390991 16.18481445 30.09008789 C14.2680188 30.07643188 14.2680188 30.07643188 12.3125 30.0625 C6.2178125 30.0315625 6.2178125 30.0315625 0 30 C0 20.1 0 10.2 0 0 Z " fill="#4B0079" transform="translate(122,56)"></path>
<path d="M0 0 C11.22 0 22.44 0 34 0 C34 7.92 34 15.84 34 24 C22.78 24 11.56 24 0 24 C0 16.08 0 8.16 0 0 Z " fill="#0D0864" transform="translate(88,264)"></path>
<path d="M0 0 C9.24 0 18.48 0 28 0 C28 9.57 28 19.14 28 29 C18.76 29 9.52 29 0 29 C0 19.43 0 9.86 0 0 Z " fill="#160361" transform="translate(236,177)"></path>
<path d="M0 0 C8.91 0 17.82 0 27 0 C27 9.9 27 19.8 27 30 C18.09 30 9.18 30 0 30 C0 20.1 0 10.2 0 0 Z " fill="#060A60" transform="translate(264,208)"></path>
<path d="M0 0 C8.91 0 17.82 0 27 0 C27 9.9 27 19.8 27 30 C18.09 30 9.18 30 0 30 C0 20.1 0 10.2 0 0 Z " fill="#0D0963" transform="translate(151,207)"></path>
<path d="M0 0 C8.91 0 17.82 0 27 0 C27 9.9 27 19.8 27 30 C18.09 30 9.18 30 0 30 C0 20.1 0 10.2 0 0 Z " fill="#E3D5F9" transform="translate(151,176)"></path>
<path d="M0 0 C8.91 0 17.82 0 27 0 C27 9.9 27 19.8 27 30 C18.09 30 9.18 30 0 30 C0 20.1 0 10.2 0 0 Z " fill="#290066" transform="translate(151,146)"></path>
<path d="M0 0 C8.91 0 17.82 0 27 0 C27 9.9 27 19.8 27 30 C18.09 30 9.18 30 0 30 C0 20.1 0 10.2 0 0 Z " fill="#FBE3FA" transform="translate(151,116)"></path>
<path d="M0 0 C8.91 0 17.82 0 27 0 C27 9.9 27 19.8 27 30 C18.09 30 9.18 30 0 30 C0 20.1 0 10.2 0 0 Z " fill="#3A0069" transform="translate(264,86)"></path>
<path d="M0 0 C8.91 0 17.82 0 27 0 C27 9.9 27 19.8 27 30 C18.09 30 9.18 30 0 30 C0 20.1 0 10.2 0 0 Z " fill="#3B016E" transform="translate(151,86)"></path>
<path d="M0 0 C8.91 0 17.82 0 27 0 C27 9.9 27 19.8 27 30 C18.09 30 9.18 30 0 30 C0 20.1 0 10.2 0 0 Z " fill="#E07DF6" transform="translate(151,56)"></path>
<path d="M0 0 C8.91 0 17.82 0 27 0 C27 9.9 27 19.8 27 30 C18.09 30 9.18 30 0 30 C0 20.1 0 10.2 0 0 Z " fill="#D76DF4" transform="translate(236,26)"></path>
<path d="M0 0 C8.91 0 17.82 0 27 0 C27 9.9 27 19.8 27 30 C18.09 30 9.18 30 0 30 C0 20.1 0 10.2 0 0 Z " fill="#5A007F" transform="translate(151,26)"></path>
<path d="M0 0 C8.91 0 17.82 0 27 0 C27 9.57 27 19.14 27 29 C18.09 29 9.18 29 0 29 C0 19.43 0 9.86 0 0 Z " fill="#DB76F5" transform="translate(208,56)"></path>
<path d="M0 0 C8.91 0 17.82 0 27 0 C27 9.57 27 19.14 27 29 C18.09 29 9.18 29 0 29 C0 19.43 0 9.86 0 0 Z " fill="#FEEAFA" transform="translate(264,57)"></path>
<path d="M0 0 C2.97 0.495 2.97 0.495 6 1 C6.33 0.67 6.66 0.34 7 0 C8.4887186 -0.08669432 9.981445 -0.10703494 11.47265625 -0.09765625 C12.28226807 -0.09515869 13.09187988 -0.09266113 13.92602539 -0.09008789 C14.96106201 -0.08098389 15.99609863 -0.07187988 17.0625 -0.0625 C20.341875 -0.041875 23.62125 -0.02125 27 0 C27 9.57 27 19.14 27 29 C18.09 29 9.18 29 0 29 C0 19.43 0 9.86 0 0 Z " fill="#3A006E" transform="translate(236,57)"></path>
<path d="M0 0 C9.57 0 19.14 0 29 0 C29 8.58 29 17.16 29 26 C19.43 26 9.86 26 0 26 C0 17.42 0 8.84 0 0 Z " fill="#730087" transform="translate(178,0)"></path>
<path d="M0 0 C9.57 0 19.14 0 29 0 C29 8.58 29 17.16 29 26 C19.43 26 9.86 26 0 26 C0 17.42 0 8.84 0 0 Z " fill="#FE54C3" transform="translate(29,0)"></path>
<path d="M0 0 C9.24 0 18.48 0 28 0 C28 8.58 28 17.16 28 26 C18.76 26 9.52 26 0 26 C0 17.42 0 8.84 0 0 Z " fill="#01135D" transform="translate(1,237)"></path>
<path d="M0 0 C9.24 0 18.48 0 28 0 C28 8.58 28 17.16 28 26 C18.76 26 9.52 26 0 26 C0 17.42 0 8.84 0 0 Z " fill="#01125B" transform="translate(179,237)"></path>
<path d="M0 0 C9.57 0 19.14 0 29 0 C29 8.25 29 16.5 29 25 C19.43 25 9.86 25 0 25 C0 16.75 0 8.5 0 0 Z " fill="#D3CEF7" transform="translate(58,263)"></path>
<path d="M0 0 C9.57 0 19.14 0 29 0 C29 8.25 29 16.5 29 25 C19.43 25 9.86 25 0 25 C0 16.75 0 8.5 0 0 Z " fill="#00125B" transform="translate(58,238)"></path>
<path d="M0 0 C9.57 0 19.14 0 29 0 C29 8.25 29 16.5 29 25 C19.43 25 9.86 25 0 25 C0 16.75 0 8.5 0 0 Z " fill="#00B3FB" transform="translate(29,238)"></path>
<path d="M0 0 C11.22 0 22.44 0 34 0 C34 6.93 34 13.86 34 21 C22.78 21 11.56 21 0 21 C0 14.07 0 7.14 0 0 Z " fill="#E7D8F9" transform="translate(88,176)"></path>
<path d="M0 0 C8.91 0 17.82 0 27 0 C27 8.58 27 17.16 27 26 C18.09 26 9.18 26 0 26 C0 17.42 0 8.84 0 0 Z " fill="#FD00C2" transform="translate(151,0)"></path>
<path d="M0 0 C8.91 0 17.82 0 27 0 C27 8.58 27 17.16 27 26 C18.09 26 9.18 26 0 26 C0 17.42 0 8.84 0 0 Z " fill="#FE00BA" transform="translate(264,0)"></path>
<path d="M0 0 C8.91 0 17.82 0 27 0 C27 8.58 27 17.16 27 26 C18.09 26 9.18 26 0 26 C0 17.42 0 8.84 0 0 Z " fill="#5A007C" transform="translate(236,0)"></path>
<path d="M0 0 C9.24 0 18.48 0 28 0 C28 8.25 28 16.5 28 25 C18.76 25 9.52 25 0 25 C0 16.75 0 8.5 0 0 Z " fill="#D0CCF7" transform="translate(122,263)"></path>
<path d="M0 0 C9.24 0 18.48 0 28 0 C28 8.25 28 16.5 28 25 C18.76 25 9.52 25 0 25 C0 16.75 0 8.5 0 0 Z " fill="#00125B" transform="translate(122,238)"></path>
<path d="M0 0 C9.57 0 19.14 0 29 0 C29 7.92 29 15.84 29 24 C19.43 24 9.86 24 0 24 C0 16.08 0 8.16 0 0 Z " fill="#0D0762" transform="translate(29,264)"></path>
<path d="M0 0 C8.91 0 17.82 0 27 0 C27 8.25 27 16.5 27 25 C18.09 25 9.18 25 0 25 C0 16.75 0 8.5 0 0 Z " fill="#001159" transform="translate(236,238)"></path>
<path d="M0 0 C8.91 0 17.82 0 27 0 C27 8.25 27 16.5 27 25 C18.09 25 9.18 25 0 25 C0 16.75 0 8.5 0 0 Z " fill="#00B0FC" transform="translate(208,238)"></path>
<path d="M0 0 C8.91 0 17.82 0 27 0 C27 8.25 27 16.5 27 25 C18.09 25 9.18 25 0 25 C0 16.75 0 8.5 0 0 Z " fill="#00B3FD" transform="translate(151,238)"></path>
<path d="M0 0 C9.24 0 18.48 0 28 0 C28 7.92 28 15.84 28 24 C18.76 24 9.52 24 0 24 C0 16.08 0 8.16 0 0 Z " fill="#0D0861" transform="translate(151,264)"></path>
<path d="M0 0 C9.24 0 18.48 0 28 0 C28 7.92 28 15.84 28 24 C18.76 24 9.52 24 0 24 C0 16.08 0 8.16 0 0 Z " fill="#07095F" transform="translate(208,264)"></path>
<path d="M0 0 C8.91 0 17.82 0 27 0 C27 7.92 27 15.84 27 24 C18.09 24 9.18 24 0 24 C0 16.08 0 8.16 0 0 Z " fill="#00B6FD" transform="translate(264,239)"></path>
<path d="M0 0 C8.91 0 17.82 0 27 0 C27 7.59 27 15.18 27 23 C18.09 23 9.18 23 0 23 C0 15.41 0 7.82 0 0 Z " fill="#06095F" transform="translate(264,265)"></path>
<path d="M0 0 C9.24 0 18.48 0 28 0 C28 0.33 28 0.66 28 1 C26.02 1 24.04 1 22 1 C22 7.93 22 14.86 22 22 C14.74 22 7.48 22 0 22 C0 14.74 0 7.48 0 0 Z " fill="#D4CFF9" transform="translate(179,263)"></path>
<path d="M0 0 C7.26 0 14.52 0 22 0 C22 6.93 22 13.86 22 21 C14.74 21 7.48 21 0 21 C0 14.07 0 7.14 0 0 Z " fill="#D2CDF9" transform="translate(122,207)"></path>
<path d="M0 0 C7.26 0 14.52 0 22 0 C22 6.93 22 13.86 22 21 C14.74 21 7.48 21 0 21 C0 14.07 0 7.14 0 0 Z " fill="#D1CDF9" transform="translate(1,207)"></path>
<path d="M0 0 C7.26 0 14.52 0 22 0 C22 6.93 22 13.86 22 21 C14.74 21 7.48 21 0 21 C0 14.07 0 7.14 0 0 Z " fill="#F0DBF9" transform="translate(179,146)"></path>
<path d="M0 0 C6.93 0 13.86 0 21 0 C21 6.93 21 13.86 21 21 C14.07 21 7.14 21 0 21 C0 14.07 0 7.14 0 0 Z " fill="#D5D0F9" transform="translate(1,263)"></path>
<path d="M0 0 C6.93 0 13.86 0 21 0 C21 6.93 21 13.86 21 21 C14.07 21 7.14 21 0 21 C0 14.07 0 7.14 0 0 Z " fill="#D2CEFA" transform="translate(179,207)"></path>
<path d="M0 0 C6.93 0 13.86 0 21 0 C21 6.93 21 13.86 21 21 C14.07 21 7.14 21 0 21 C0 14.07 0 7.14 0 0 Z " fill="#D6D1FA" transform="translate(59,207)"></path>
<path d="M0 0 C6.93 0 13.86 0 21 0 C21 6.93 21 13.86 21 21 C14.07 21 7.14 21 0 21 C0 14.07 0 7.14 0 0 Z " fill="#E2D2F8" transform="translate(264,177)"></path>
<path d="M0 0 C6.93 0 13.86 0 21 0 C21 6.93 21 13.86 21 21 C14.07 21 7.14 21 0 21 C0 14.07 0 7.14 0 0 Z " fill="#E0D3F8" transform="translate(208,176)"></path>
<path d="M0 0 C6.93 0 13.86 0 21 0 C21 6.93 21 13.86 21 21 C14.07 21 7.14 21 0 21 C0 14.07 0 7.14 0 0 Z " fill="#F8E0FA" transform="translate(208,116)"></path>
<path d="M0 0 C9.24 0 18.48 0 28 0 C28 10.23 28 20.46 28 31 C18.76 31 9.52 31 0 31 C0 28.03 0 25.06 0 22 C6.93 22 13.86 22 21 22 C21 15.07 21 8.14 21 1 C14.07 1 7.14 1 0 1 C0 0.67 0 0.34 0 0 Z " fill="#5B50EA" transform="translate(179,206)"></path>
<path d="M0 0 C6.6 0 13.2 0 20 0 C20 6.93 20 13.86 20 21 C13.4 21 6.8 21 0 21 C0 14.07 0 7.14 0 0 Z " fill="#C9C9FA" transform="translate(236,207)"></path>
<path d="M0 0 C6.6 0 13.2 0 20 0 C20 6.93 20 13.86 20 21 C13.4 21 6.8 21 0 21 C0 14.07 0 7.14 0 0 Z " fill="#ECDAFA" transform="translate(236,146)"></path>
<path d="M0 0 C6.93 0 13.86 0 21 0 C21 6.6 21 13.2 21 20 C14.07 20 7.14 20 0 20 C0 13.4 0 6.8 0 0 Z " fill="#FCE5FA" transform="translate(30,116)"></path>
<path d="M0 0 C6.93 0 13.86 0 21 0 C21 6.6 21 13.2 21 20 C14.07 20 7.14 20 0 20 C0 13.4 0 6.8 0 0 Z " fill="#FCDFF9" transform="translate(264,117)"></path>
<path d="M0 0 C6.6 0 13.2 0 20 0 C20 6.93 20 13.86 20 21 C13.4 21 6.8 21 0 21 C0 14.07 0 7.14 0 0 Z " fill="#FCE5FA" transform="translate(236,86)"></path>
<path d="M0 0 C6.93 0 13.86 0 21 0 C21 6.6 21 13.2 21 20 C14.07 20 7.14 20 0 20 C0 13.4 0 6.8 0 0 Z " fill="#FEECFB" transform="translate(59,86)"></path>
<path d="M0 0 C6.93 0 13.86 0 21 0 C21 6.6 21 13.2 21 20 C14.07 20 7.14 20 0 20 C0 13.4 0 6.8 0 0 Z " fill="#FDF3FC" transform="translate(179,27)"></path>
<path d="M0 0 C6.93 0 13.86 0 21 0 C21 6.6 21 13.2 21 20 C14.07 20 7.14 20 0 20 C0 13.4 0 6.8 0 0 Z " fill="#FDF5FB" transform="translate(122,27)"></path>
<path d="M0 0 C6.93 0 13.86 0 21 0 C21 6.6 21 13.2 21 20 C14.07 20 7.14 20 0 20 C0 13.4 0 6.8 0 0 Z " fill="#FDF7FC" transform="translate(59,27)"></path>
<path d="M0 0 C8.91 0 17.82 0 27 0 C27 10.23 27 20.46 27 31 C18.09 31 9.18 31 0 31 C0 28.03 0 25.06 0 22 C6.6 22 13.2 22 20 22 C20 15.07 20 8.14 20 1 C13.4 1 6.8 1 0 1 C0 0.67 0 0.34 0 0 Z " fill="#504EE6" transform="translate(236,206)"></path>
<path d="M0 0 C2.31 0 4.62 0 7 0 C7 9.9 7 19.8 7 30 C-2.57 30 -12.14 30 -22 30 C-22 27.03 -22 24.06 -22 21 C-14.74 21 -7.48 21 0 21 C0 14.07 0 7.14 0 0 Z " fill="#925BF0" transform="translate(51,176)"></path>
<path d="M0 0 C2.31 0 4.62 0 7 0 C7 9.9 7 19.8 7 30 C-2.57 30 -12.14 30 -22 30 C-22 27.03 -22 24.06 -22 21 C-14.74 21 -7.48 21 0 21 C0 14.07 0 7.14 0 0 Z " fill="#B668F6" transform="translate(80,146)"></path>
<path d="M0 0 C9.24 0 18.48 0 28 0 C28 10.23 28 20.46 28 31 C18.76 31 9.52 31 0 31 C0 28.03 0 25.06 0 22 C7.26 22 14.52 22 22 22 C22 15.07 22 8.14 22 1 C14.74 1 7.48 1 0 1 C0 0.67 0 0.34 0 0 Z " fill="#6354EA" transform="translate(122,206)"></path>
<path d="M0 0 C6.6 0 13.2 0 20 0 C20 6.6 20 13.2 20 20 C13.4 20 6.8 20 0 20 C0 13.4 0 6.8 0 0 Z " fill="#FEECFB" transform="translate(236,27)"></path>
<path d="M0 0 C6.6 0 13.2 0 20 0 C20 6.6 20 13.2 20 20 C13.4 20 6.8 20 0 20 C0 13.4 0 6.8 0 0 Z " fill="#FDF3FC" transform="translate(2,27)"></path>
<path d="M0 0 C2.31 0 4.62 0 7 0 C7 9.9 7 19.8 7 30 C-2.24 30 -11.48 30 -21 30 C-21 27.03 -21 24.06 -21 21 C-14.07 21 -7.14 21 0 21 C0 14.07 0 7.14 0 0 Z " fill="#8755EF" transform="translate(229,176)"></path>
<path d="M0 0 C2.31 0 4.62 0 7 0 C7 9.9 7 19.8 7 30 C-2.24 30 -11.48 30 -21 30 C-21 27.03 -21 24.06 -21 21 C-14.07 21 -7.14 21 0 21 C0 14.07 0 7.14 0 0 Z " fill="#BD61F4" transform="translate(229,116)"></path>
<path d="M0 0 C2.31 0 4.62 0 7 0 C7 9.9 7 19.8 7 30 C-2.24 30 -11.48 30 -21 30 C-21 27.03 -21 24.06 -21 21 C-14.07 21 -7.14 21 0 21 C0 14.07 0 7.14 0 0 Z " fill="#D372F6" transform="translate(22,86)"></path>
<path d="M0 0 C6.93 0 13.86 0 21 0 C21 6.27 21 12.54 21 19 C14.07 19 7.14 19 0 19 C0 12.73 0 6.46 0 0 Z " fill="#FEF1FB" transform="translate(30,57)"></path>
<path d="M0 0 C8.91 0 17.82 0 27 0 C27 9.9 27 19.8 27 30 C18.09 30 9.18 30 0 30 C0 27.03 0 24.06 0 21 C6.93 21 13.86 21 21 21 C21 14.4 21 7.8 21 1 C14.07 1 7.14 1 0 1 C0 0.67 0 0.34 0 0 Z " fill="#CC5CF2" transform="translate(264,116)"></path>
<path d="M0 0 C2.31 0 4.62 0 7 0 C7 9.9 7 19.8 7 30 C-1.91 30 -10.82 30 -20 30 C-20 27.03 -20 24.06 -20 21 C-13.4 21 -6.8 21 0 21 C0 14.07 0 7.14 0 0 Z " fill="#C76BF5" transform="translate(256,86)"></path>
<path d="M0 0 C6.6 0 13.2 0 20 0 C20 6.27 20 12.54 20 19 C13.4 19 6.8 19 0 19 C0 12.73 0 6.46 0 0 Z " fill="#FEEDFB" transform="translate(208,57)"></path>
<path d="M0 0 C6.6 0 13.2 0 20 0 C20 6.27 20 12.54 20 19 C13.4 19 6.8 19 0 19 C0 12.73 0 6.46 0 0 Z " fill="#FEF1FB" transform="translate(151,57)"></path>
<path d="M0 0 C1.98 0 3.96 0 6 0 C6 9.9 6 19.8 6 30 C-3.24 30 -12.48 30 -22 30 C-22 27.03 -22 24.06 -22 21 C-14.74 21 -7.48 21 0 21 C0 14.07 0 7.14 0 0 Z " fill="#AE64F5" transform="translate(201,146)"></path>
<path d="M0 0 C1.98 0 3.96 0 6 0 C6 9.9 6 19.8 6 30 C-3.24 30 -12.48 30 -22 30 C-22 27.03 -22 24.06 -22 21 C-14.74 21 -7.48 21 0 21 C0 14.07 0 7.14 0 0 Z " fill="#B063F4" transform="translate(144,146)"></path>
<path d="M0 0 C1.98 0 3.96 0 6 0 C6 9.9 6 19.8 6 30 C-3.24 30 -12.48 30 -22 30 C-22 27.03 -22 24.06 -22 21 C-14.74 21 -7.48 21 0 21 C0 14.07 0 7.14 0 0 Z " fill="#B164F6" transform="translate(23,146)"></path>
<path d="M0 0 C1.98 0 3.96 0 6 0 C6 9.9 6 19.8 6 30 C-3.24 30 -12.48 30 -22 30 C-22 27.03 -22 24.06 -22 21 C-14.74 21 -7.48 21 0 21 C0 14.07 0 7.14 0 0 Z " fill="#CE70F5" transform="translate(201,86)"></path>
<path d="M0 0 C1.98 0 3.96 0 6 0 C6 9.9 6 19.8 6 30 C-3.24 30 -12.48 30 -22 30 C-22 27.03 -22 24.06 -22 21 C-14.74 21 -7.48 21 0 21 C0 14.07 0 7.14 0 0 Z " fill="#D372F6" transform="translate(144,86)"></path>
<path d="M0 0 C1.98 0 3.96 0 6 0 C6 9.9 6 19.8 6 30 C-2.91 30 -11.82 30 -21 30 C-21 27.03 -21 24.06 -21 21 C-14.07 21 -7.14 21 0 21 C0 14.07 0 7.14 0 0 Z " fill="#8E53ED" transform="translate(285,177)"></path>
<path d="M0 0 C1.98 0 3.96 0 6 0 C6 9.9 6 19.8 6 30 C-2.91 30 -11.82 30 -21 30 C-21 27.03 -21 24.06 -21 21 C-14.07 21 -7.14 21 0 21 C0 14.07 0 7.14 0 0 Z " fill="#9059F1" transform="translate(172,176)"></path>
<path d="M0 0 C1.98 0 3.96 0 6 0 C6 9.9 6 19.8 6 30 C-2.91 30 -11.82 30 -21 30 C-21 27.03 -21 24.06 -21 21 C-14.07 21 -7.14 21 0 21 C0 14.07 0 7.14 0 0 Z " fill="#C467F5" transform="translate(172,116)"></path>
<path d="M0 0 C1.98 0 3.96 0 6 0 C6 9.57 6 19.14 6 29 C-2.91 29 -11.82 29 -21 29 C-21 26.03 -21 23.06 -21 20 C-14.07 20 -7.14 20 0 20 C0 13.4 0 6.8 0 0 Z " fill="#E474F1" transform="translate(285,57)"></path>
<path d="M0 0 C3.3 0 6.6 0 10 0 C10 8.58 10 17.16 10 26 C1.75 25.67 -6.5 25.34 -15 25 C-15 24.01 -15 23.02 -15 22 C-10.60062591 21.32317322 -6.45033498 21 -2 21 C-0.9609622 16.57317509 -0.68407049 12.21065368 -0.4375 7.6875 C-0.39431641 6.94693359 -0.35113281 6.20636719 -0.30664062 5.44335938 C-0.20129568 3.62908536 -0.10021684 1.8145645 0 0 Z " fill="#FE01C2" transform="translate(112,0)"></path>
<path d="M0 0 C11.22 0 22.44 0 34 0 C34 2.97 34 5.94 34 9 C22.78 9 11.56 9 0 9 C0 6.03 0 3.06 0 0 Z " fill="#9159F2" transform="translate(88,197)"></path>
<path d="M0 0 C11.22 0 22.44 0 34 0 C34 2.97 34 5.94 34 9 C22.78 9 11.56 9 0 9 C0 6.03 0 3.06 0 0 Z " fill="#AF48E8" transform="translate(88,137)"></path>
<path d="M0 0 C11.22 0 22.44 0 34 0 C34 2.97 34 5.94 34 9 C22.78 9 11.56 9 0 9 C0 6.03 0 3.06 0 0 Z " fill="#C250E3" transform="translate(88,77)"></path>
<path d="M0 0 C5.28 0 10.56 0 16 0 C16 6.27 16 12.54 16 19 C10.72 19 5.44 19 0 19 C0 12.73 0 6.46 0 0 Z " fill="#FEF0FB" transform="translate(96,57)"></path>
<path d="M0 0 C6.6 0 13.2 0 20 0 C20 4.62 20 9.24 20 14 C15.96423344 15.00894164 12.36293071 15.11303696 8.25 15.0625 C7.55261719 15.05798828 6.85523438 15.05347656 6.13671875 15.04882812 C4.42444197 15.0371002 2.71220967 15.01916653 1 15 C-1.13079691 10.73840618 -0.04502317 4.59236298 0 0 Z " fill="#FF42C1" transform="translate(151,0)"></path>
<path d="M0 0 C9.57 0 19.14 0 29 0 C29 3.3 29 6.6 29 10 C19.43 10 9.86 10 0 10 C0 6.7 0 3.4 0 0 Z " fill="#FE11C1" transform="translate(29,16)"></path>
<path d="M0 0 C6.6 0 13.2 0 20 0 C20 10 20 10 19 13 C13.06527311 15.52800439 6.30882271 15.17771332 0 15 C0 10.05 0 5.1 0 0 Z " fill="#FF23C0" transform="translate(208,0)"></path>
<path d="M0 0 C1.2890625 0.00322266 2.578125 0.00644531 3.90625 0.00976562 C5.25260486 0.01811892 6.59895902 0.02658384 7.9453125 0.03515625 C9.31510254 0.04017795 10.68489435 0.04473968 12.0546875 0.04882812 C15.3932744 0.06058371 18.73177065 0.07701661 22.0703125 0.09765625 C22.0703125 0.42765625 22.0703125 0.75765625 22.0703125 1.09765625 C12.8303125 1.09765625 3.5903125 1.09765625 -5.9296875 1.09765625 C-5.9296875 9.01765625 -5.9296875 16.93765625 -5.9296875 25.09765625 C-15.4996875 25.09765625 -25.0696875 25.09765625 -34.9296875 25.09765625 C-34.9296875 24.10765625 -34.9296875 23.11765625 -34.9296875 22.09765625 C-27.6696875 22.09765625 -20.4096875 22.09765625 -12.9296875 22.09765625 C-12.9296875 15.16765625 -12.9296875 8.23765625 -12.9296875 1.09765625 C-8.34786884 0.33401981 -4.57715323 -0.02025289 0 0 Z " fill="#5951CC" transform="translate(213.9296875,262.90234375)"></path>
<path d="M0 0 C11.22 0 22.44 0 34 0 C34 0.33 34 0.66 34 1 C25.09 1 16.18 1 7 1 C7 8.59 7 16.18 7 24 C-2.24 24 -11.48 24 -21 24 C-21 23.01 -21 22.02 -21 21 C-14.07 21 -7.14 21 0 21 C0 14.07 0 7.14 0 0 Z " fill="#7161E5" transform="translate(257,264)"></path>
<path d="M0 0 C5.28 0 10.56 0 16 0 C16 5.28 16 10.56 16 16 C10.72 16 5.44 16 0 16 C0 10.72 0 5.44 0 0 Z " fill="#FF50C3" transform="translate(96,0)"></path>
<path d="M0 0 C2.31 0 4.62 0 7 0 C7 8.25 7 16.5 7 25 C-2.57 25 -12.14 25 -22 25 C-22 24.01 -22 23.02 -22 22 C-14.74 22 -7.48 22 0 22 C0 14.74 0 7.48 0 0 Z " fill="#A183F0" transform="translate(80,263)"></path>
<path d="M0 0 C0.33 0 0.66 0 1 0 C1 18.48 1 36.96 1 56 C9.91 56 18.82 56 28 56 C28 56.33 28 56.66 28 57 C19.09 57 10.18 57 1 57 C1 76.47 1 95.94 1 116 C0.67 116 0.34 116 0 116 C0 96.53 0 77.06 0 57 C-12.11483603 57.22693762 -12.11483603 57.22693762 -24 59 C-24.99 58.34 -25.98 57.68 -27 57 C-27 66.57 -27 76.14 -27 86 C-36.24 86 -45.48 86 -55 86 C-55 85.67 -55 85.34 -55 85 C-46.09 85 -37.18 85 -28 85 C-28 75.43 -28 65.86 -28 56 C-18.76 56 -9.52 56 0 56 C0 37.52 0 19.04 0 0 Z " fill="#832CA5" transform="translate(263,0)"></path>
<path d="M0 0 C1.98 0 3.96 0 6 0 C6 8.25 6 16.5 6 25 C-3.24 25 -12.48 25 -22 25 C-22 24.01 -22 23.02 -22 22 C-14.74 22 -7.48 22 0 22 C0 14.74 0 7.48 0 0 Z " fill="#9A7EF0" transform="translate(144,263)"></path>
<path d="M0 0 C3.3 0 6.6 0 10 0 C10 6.93 10 13.86 10 21 C6.7 21 3.4 21 0 21 C0 14.07 0 7.14 0 0 Z " fill="#B990F1" transform="translate(112,176)"></path>
<path d="M0 0 C3.3 0 6.6 0 10 0 C10 6.93 10 13.86 10 21 C6.7 21 3.4 21 0 21 C0 14.07 0 7.14 0 0 Z " fill="#D9A0F3" transform="translate(112,116)"></path>
<path d="M0 0 C9.57 0 19.14 0 29 0 C29 6.93 29 13.86 29 21 C19.43 21 9.86 21 0 21 C0 14.07 0 7.14 0 0 Z M1 1 C1 7.27 1 13.54 1 20 C7.93 20 14.86 20 22 20 C22 13.73 22 7.46 22 1 C15.07 1 8.14 1 1 1 Z " fill="#E3B0EC" transform="translate(29,56)"></path>
<path d="M0 0 C11.88 0 23.76 0 36 0 C36 0.33 36 0.66 36 1 C26.43 1 16.86 1 7 1 C7 7.93 7 14.86 7 22 C-2.24 22 -11.48 22 -21 22 C-21 21.67 -21 21.34 -21 21 C-14.07 21 -7.14 21 0 21 C0 14.07 0 7.14 0 0 Z " fill="#927EE2" transform="translate(22,263)"></path>
<path d="M0 0 C9.57 0 19.14 0 29 0 C29 7.26 29 14.52 29 22 C26.69 22 24.38 22 22 22 C22 15.07 22 8.14 22 1 C15.07 1 8.14 1 1 1 C1 7.93 1 14.86 1 22 C0.67 22 0.34 22 0 22 C0 14.74 0 7.48 0 0 Z " fill="#A089E9" transform="translate(58,206)"></path>
<path d="M0 0 C0.33 0 0.66 0 1 0 C1 35.97 1 71.94 1 109 C10.24 109 19.48 109 29 109 C29 109.99 29 110.98 29 112 C19.43 112 9.86 112 0 112 C0 75.04 0 38.08 0 0 Z " fill="#2953DB" transform="translate(0,176)"></path>
<path d="M0 0 C0.33 0 0.66 0 1 0 C1 6.6 1 13.2 1 20 C7.93 20 14.86 20 22 20 C22 13.4 22 6.8 22 0 C24.31 0 26.62 0 29 0 C29 6.93 29 13.86 29 21 C19.43 21 9.86 21 0 21 C0 14.07 0 7.14 0 0 Z " fill="#D9A9F0" transform="translate(29,116)"></path>
<path d="M0 0 C0.33 0 0.66 0 1 0 C1 6.6 1 13.2 1 20 C7.93 20 14.86 20 22 20 C22 13.4 22 6.8 22 0 C24.31 0 26.62 0 29 0 C29 6.93 29 13.86 29 21 C19.43 21 9.86 21 0 21 C0 14.07 0 7.14 0 0 Z " fill="#E2B1F3" transform="translate(58,86)"></path>
<path d="M0 0 C9.57 0 19.14 0 29 0 C29 6.93 29 13.86 29 21 C26.69 21 24.38 21 22 21 C22 14.4 22 7.8 22 1 C15.07 1 8.14 1 1 1 C1 7.6 1 14.2 1 21 C0.67 21 0.34 21 0 21 C0 14.07 0 7.14 0 0 Z " fill="#EFBCF1" transform="translate(58,26)"></path>
<path d="M0 0 C9.24 0 18.48 0 28 0 C28 6.93 28 13.86 28 21 C25.69 21 23.38 21 21 21 C21 14.4 21 7.8 21 1 C14.4 1 7.8 1 1 1 C1 7.6 1 14.2 1 21 C0.67 21 0.34 21 0 21 C0 14.07 0 7.14 0 0 Z " fill="#F0B8F1" transform="translate(1,26)"></path>
<path d="M0 0 C8.91 0 17.82 0 27 0 C27 6.93 27 13.86 27 21 C18.09 21 9.18 21 0 21 C0 20.67 0 20.34 0 20 C6.6 20 13.2 20 20 20 C20 13.73 20 7.46 20 1 C13.4 1 6.8 1 0 1 C0 0.67 0 0.34 0 0 Z " fill="#DFABEF" transform="translate(208,56)"></path>
<path d="M0 0 C8.91 0 17.82 0 27 0 C27 6.93 27 13.86 27 21 C18.09 21 9.18 21 0 21 C0 20.67 0 20.34 0 20 C6.6 20 13.2 20 20 20 C20 13.73 20 7.46 20 1 C13.4 1 6.8 1 0 1 C0 0.67 0 0.34 0 0 Z " fill="#E4B2F0" transform="translate(151,56)"></path>
<path d="M0 0 C2.64 0 5.28 0 8 0 C8 6.27 8 12.54 8 19 C13.28 19 18.56 19 24 19 C24 19.33 24 19.66 24 20 C16.08 20 8.16 20 0 20 C0 13.4 0 6.8 0 0 Z " fill="#F4BBF5" transform="translate(88,57)"></path>
<path d="M0 0 C9.24 0 18.48 0 28 0 C28 7.26 28 14.52 28 22 C25.69 22 23.38 22 21 22 C21 15.07 21 8.14 21 1 C14.07 1 7.14 1 0 1 C0 0.67 0 0.34 0 0 Z " fill="#947FEB" transform="translate(179,206)"></path>
<path d="M0 0 C8.91 0 17.82 0 27 0 C27 7.26 27 14.52 27 22 C24.69 22 22.38 22 20 22 C20 15.07 20 8.14 20 1 C13.4 1 6.8 1 0 1 C0 0.67 0 0.34 0 0 Z " fill="#8073E9" transform="translate(236,206)"></path>
<path d="M0 0 C8.91 0 17.82 0 27 0 C27 7.26 27 14.52 27 22 C18.09 22 9.18 22 0 22 C0 21.67 0 21.34 0 21 C6.93 21 13.86 21 21 21 C21 14.4 21 7.8 21 1 C14.07 1 7.14 1 0 1 C0 0.67 0 0.34 0 0 Z " fill="#CE8DE5" transform="translate(264,116)"></path>
<path d="M0 0 C2.64 0 5.28 0 8 0 C8 6.93 8 13.86 8 21 C5.36 21 2.72 21 0 21 C0 14.07 0 7.14 0 0 Z " fill="#C59BF2" transform="translate(88,176)"></path>
<path d="M0 0 C2.64 0 5.28 0 8 0 C8 6.93 8 13.86 8 21 C5.36 21 2.72 21 0 21 C0 14.07 0 7.14 0 0 Z " fill="#E2AAF5" transform="translate(88,116)"></path>
<path d="M0 0 C9.24 0 18.48 0 28 0 C28 6.93 28 13.86 28 21 C25.69 21 23.38 21 21 21 C21 14.4 21 7.8 21 1 C14.07 1 7.14 1 0 1 C0 0.67 0 0.34 0 0 Z " fill="#EBB3F3" transform="translate(179,26)"></path>
<path d="M0 0 C9.24 0 18.48 0 28 0 C28 6.93 28 13.86 28 21 C25.69 21 23.38 21 21 21 C21 14.4 21 7.8 21 1 C14.07 1 7.14 1 0 1 C0 0.67 0 0.34 0 0 Z " fill="#F0BAF3" transform="translate(122,26)"></path>
<path d="M0 0 C8.91 0 17.82 0 27 0 C27 6.93 27 13.86 27 21 C24.69 21 22.38 21 20 21 C20 14.4 20 7.8 20 1 C13.4 1 6.8 1 0 1 C0 0.67 0 0.34 0 0 Z " fill="#DEA5F0" transform="translate(236,26)"></path>
<path d="M0 0 C2.31 0 4.62 0 7 0 C7 7.92 7 15.84 7 24 C5.02 24 3.04 24 1 24 C0.28586721 15.97875848 -0.14525497 8.05358138 0 0 Z " fill="#00A5F9" transform="translate(284,239)"></path>
<path d="M0 0 C9.24 0 18.48 0 28 0 C28 7.26 28 14.52 28 22 C26.02 22 24.04 22 22 22 C22 15.07 22 8.14 22 1 C14.74 1 7.48 1 0 1 C0 0.67 0 0.34 0 0 Z " fill="#977FEB" transform="translate(122,206)"></path>
<path d="M0 0 C9.24 0 18.48 0 28 0 C28 7.26 28 14.52 28 22 C26.02 22 24.04 22 22 22 C22 15.07 22 8.14 22 1 C14.74 1 7.48 1 0 1 C0 0.67 0 0.34 0 0 Z " fill="#9680EA" transform="translate(1,206)"></path>
<path d="M0 0 C2.31 0 4.62 0 7 0 C7 6.93 7 13.86 7 21 C4.69 21 2.38 21 0 21 C0 14.07 0 7.14 0 0 Z " fill="#BB93F3" transform="translate(51,176)"></path>
<path d="M0 0 C2.31 0 4.62 0 7 0 C7 6.93 7 13.86 7 21 C4.69 21 2.38 21 0 21 C0 14.07 0 7.14 0 0 Z " fill="#B88BF2" transform="translate(256,146)"></path>
<path d="M0 0 C2.31 0 4.62 0 7 0 C7 6.93 7 13.86 7 21 C4.69 21 2.38 21 0 21 C0 14.07 0 7.14 0 0 Z " fill="#CD9BF4" transform="translate(80,146)"></path>
<path d="M0 0 C2.31 0 4.62 0 7 0 C7 6.93 7 13.86 7 21 C4.69 21 2.38 21 0 21 C0 14.07 0 7.14 0 0 Z " fill="#D09CF2" transform="translate(256,86)"></path>
<path d="M0 0 C2.31 0 4.62 0 7 0 C7 6.93 7 13.86 7 21 C4.69 21 2.38 21 0 21 C0 14.07 0 7.14 0 0 Z " fill="#E1AAF5" transform="translate(22,86)"></path>
<path d="M0 0 C2.31 0 4.62 0 7 0 C7 5.28 7 10.56 7 16 C-2.57 16 -12.14 16 -22 16 C-21.67 15.01 -21.34 14.02 -21 13 C-21 13.66 -21 14.32 -21 15 C-14.73 14.67 -8.46 14.34 -2 14 C-0.99740493 10.99221479 -0.69685358 8.46179353 -0.4375 5.3125 C-0.35371094 4.31863281 -0.26992188 3.32476562 -0.18359375 2.30078125 C-0.09271484 1.16189453 -0.09271484 1.16189453 0 0 Z " fill="#FE32C2" transform="translate(51,0)"></path>
<path d="M0 0 C3.3 0 6.6 0 10 0 C10 8.58 10 17.16 10 26 C9.67 26 9.34 26 9 26 C9 21.38 9 16.76 9 12 C6.36 11.67 3.72 11.34 1 11 C0.67 12.32 0.34 13.64 0 15 C0 10.05 0 5.1 0 0 Z " fill="#F516BC" transform="translate(112,0)"></path>
<path d="M0 0 C5.28 0 10.56 0 16 0 C16 2.64 16 5.28 16 8 C10.72 8 5.44 8 0 8 C0 5.36 0 2.72 0 0 Z " fill="#C667F5" transform="translate(96,137)"></path>
<path d="M0 0 C5.28 0 10.56 0 16 0 C16 2.64 16 5.28 16 8 C10.72 8 5.44 8 0 8 C0 5.36 0 2.72 0 0 Z " fill="#E37BF6" transform="translate(96,77)"></path>
<path d="M0 0 C1.98 0 3.96 0 6 0 C6 6.93 6 13.86 6 21 C4.02 21 2.04 21 0 21 C0 14.07 0 7.14 0 0 Z " fill="#9177EF" transform="translate(201,264)"></path>
<path d="M0 0 C1.98 0 3.96 0 6 0 C6 6.93 6 13.86 6 21 C4.02 21 2.04 21 0 21 C0 14.07 0 7.14 0 0 Z " fill="#B081F0" transform="translate(285,177)"></path>
<path d="M0 0 C1.98 0 3.96 0 6 0 C6 6.93 6 13.86 6 21 C4.02 21 2.04 21 0 21 C0 14.07 0 7.14 0 0 Z " fill="#A982F2" transform="translate(229,176)"></path>
<path d="M0 0 C1.98 0 3.96 0 6 0 C6 6.93 6 13.86 6 21 C4.02 21 2.04 21 0 21 C0 14.07 0 7.14 0 0 Z " fill="#B18AF3" transform="translate(172,176)"></path>
<path d="M0 0 C1.98 0 3.96 0 6 0 C6 6.93 6 13.86 6 21 C4.02 21 2.04 21 0 21 C0 14.07 0 7.14 0 0 Z " fill="#C290F5" transform="translate(201,146)"></path>
<path d="M0 0 C1.98 0 3.96 0 6 0 C6 6.93 6 13.86 6 21 C4.02 21 2.04 21 0 21 C0 14.07 0 7.14 0 0 Z " fill="#C593F4" transform="translate(23,146)"></path>
<path d="M0 0 C1.98 0 3.96 0 6 0 C6 6.93 6 13.86 6 21 C4.02 21 2.04 21 0 21 C0 14.07 0 7.14 0 0 Z " fill="#C796F5" transform="translate(144,146)"></path>
<path d="M0 0 C1.98 0 3.96 0 6 0 C6 6.93 6 13.86 6 21 C4.02 21 2.04 21 0 21 C0 14.07 0 7.14 0 0 Z " fill="#D6A0F7" transform="translate(172,116)"></path>
<path d="M0 0 C1.98 0 3.96 0 6 0 C6 6.93 6 13.86 6 21 C4.02 21 2.04 21 0 21 C0 14.07 0 7.14 0 0 Z " fill="#CE96F5" transform="translate(229,116)"></path>
<path d="M0 0 C1.98 0 3.96 0 6 0 C6 6.93 6 13.86 6 21 C4.02 21 2.04 21 0 21 C0 14.07 0 7.14 0 0 Z " fill="#DAA0F6" transform="translate(201,86)"></path>
<path d="M0 0 C1.98 0 3.96 0 6 0 C6 6.93 6 13.86 6 21 C4.02 21 2.04 21 0 21 C0 14.07 0 7.14 0 0 Z " fill="#DFA8F5" transform="translate(144,86)"></path>
<path d="M0 0 C0.33 1.32 0.66 2.64 1 4 C1.763125 3.690625 2.52625 3.38125 3.3125 3.0625 C7.41874899 1.87934351 11.26290891 1.53404905 15.51171875 1.24609375 C18.12913611 1.07991138 18.12913611 1.07991138 21 0 C21 2.64 21 5.28 21 8 C14.07 8 7.14 8 0 8 C0 5.36 0 2.72 0 0 Z " fill="#5554EB" transform="translate(1,229)"></path>
<path d="M0 0 C9.24 0 18.48 0 28 0 C28 0.33 28 0.66 28 1 C19.09 1 10.18 1 1 1 C1 10.57 1 20.14 1 30 C-1.64 30 -4.28 30 -7 30 C-7 27.03 -7 24.06 -7 21 C-4.69 21 -2.38 21 0 21 C0 14.07 0 7.14 0 0 Z " fill="#7C32CC" transform="translate(263,146)"></path>
<path d="M0 0 C1.98 0 3.96 0 6 0 C6 6.6 6 13.2 6 20 C4.02 20 2.04 20 0 20 C0 13.4 0 6.8 0 0 Z " fill="#EDA3F2" transform="translate(285,57)"></path>
<path d="M0 0 C2.64 0 5.28 0 8 0 C8 4.95 8 9.9 8 15 C5.36 15 2.72 15 0 15 C0 10.05 0 5.1 0 0 Z " fill="#FF2BBE" transform="translate(88,0)"></path>
<path d="M0 0 C0.33 0 0.66 0 1 0 C1 9.9 1 19.8 1 30 C-8.24 30 -17.48 30 -27 30 C-27 29.67 -27 29.34 -27 29 C-20.07 29 -13.14 29 -6 29 C-6 26.36 -6 23.72 -6 21 C-4.02 21 -2.04 21 0 21 C0 14.07 0 7.14 0 0 Z " fill="#9B49DA" transform="translate(235,116)"></path>
<path d="M0 0 C6.6 0 13.2 0 20 0 C20 1.32 20 2.64 20 4 C15.38 4 10.76 4 6 4 C6.33 4.99 6.66 5.98 7 7 C4.69 7 2.38 7 0 7 C0 4.69 0 2.38 0 0 Z " fill="#EF71F2" transform="translate(264,78)"></path>
<path d="M0 0 C9.24 0 18.48 0 28 0 C28 0.33 28 0.66 28 1 C26.02 1 24.04 1 22 1 C22 7.93 22 14.86 22 22 C14.74 22 7.48 22 0 22 C0 14.74 0 7.48 0 0 Z M1 1 C0.9175 3.5575 0.835 6.115 0.75 8.75 C0.71358398 9.54889648 0.67716797 10.34779297 0.63964844 11.17089844 C0.58822526 14.46364035 0.79594774 16.6599129 2.5 19.5 C6.03355928 21.62013557 9.26997458 21.43142109 13.25 21.25 C17.08625 21.12625 17.08625 21.12625 21 21 C21 14.4 21 7.8 21 1 C14.4 1 7.8 1 1 1 Z " fill="#BAB5EF" transform="translate(179,263)"></path>
<path d="M0 0 C0.33 0 0.66 0 1 0 C1 8.58 1 17.16 1 26 C-3.95 26 -8.9 26 -14 26 C-14 25.67 -14 25.34 -14 25 C-10.535 24.505 -10.535 24.505 -7 24 C-6.67 21.36 -6.34 18.72 -6 16 C-4.02 16 -2.04 16 0 16 C0 10.72 0 5.44 0 0 Z " fill="#D900BC" transform="translate(235,0)"></path>
<path d="M0 0 C0.33 0 0.66 0 1 0 C1 2.64 1 5.28 1 8 C7.93 8 14.86 8 22 8 C22 5.36 22 2.72 22 0 C24.31 0 26.62 0 29 0 C29 2.97 29 5.94 29 9 C19.43 9 9.86 9 0 9 C0 6.03 0 3.06 0 0 Z " fill="#A34EEA" transform="translate(58,167)"></path>
<path d="M0 0 C0.33 0 0.66 0 1 0 C1 2.64 1 5.28 1 8 C7.93 8 14.86 8 22 8 C22 5.36 22 2.72 22 0 C24.31 0 26.62 0 29 0 C29 2.97 29 5.94 29 9 C19.43 9 9.86 9 0 9 C0 6.03 0 3.06 0 0 Z " fill="#AE50E8" transform="translate(29,137)"></path>
<path d="M0 0 C0.33 0 0.66 0 1 0 C1 2.64 1 5.28 1 8 C7.93 8 14.86 8 22 8 C22 5.36 22 2.72 22 0 C24.31 0 26.62 0 29 0 C29 2.97 29 5.94 29 9 C19.43 9 9.86 9 0 9 C0 6.03 0 3.06 0 0 Z " fill="#BE59EA" transform="translate(58,107)"></path>
<path d="M0 0 C0.33 0 0.66 0 1 0 C1 2.64 1 5.28 1 8 C7.93 8 14.86 8 22 8 C22 5.36 22 2.72 22 0 C24.31 0 26.62 0 29 0 C29 2.97 29 5.94 29 9 C19.43 9 9.86 9 0 9 C0 6.03 0 3.06 0 0 Z " fill="#DE6EF0" transform="translate(58,47)"></path>
<path d="M0 0 C3.3 0 6.6 0 10 0 C10 2.97 10 5.94 10 9 C6.7 9 3.4 9 0 9 C0 6.03 0 3.06 0 0 Z " fill="#8440E8" transform="translate(112,197)"></path>
<path d="M0 0 C0 3.63 0 7.26 0 11 C-2.64 11 -5.28 11 -8 11 C-8 7.37 -8 3.74 -8 0 C-2.25 -1.125 -2.25 -1.125 0 0 Z " fill="#FE01C1" transform="translate(96,15)"></path>
<path d="M0 0 C9.57 0 19.14 0 29 0 C29 0.99 29 1.98 29 3 C19.43 3 9.86 3 0 3 C0 2.01 0 1.02 0 0 Z " fill="#6755E9" transform="translate(58,285)"></path>
<path d="M0 0 C2.31 0 4.62 0 7 0 C7 2.97 7 5.94 7 9 C-2.57 9 -12.14 9 -22 9 C-22 8.67 -22 8.34 -22 8 C-14.74 8 -7.48 8 0 8 C0 5.36 0 2.72 0 0 Z " fill="#C159E6" transform="translate(51,77)"></path>
<path d="M0 0 C9.24 0 18.48 0 28 0 C28 0.99 28 1.98 28 3 C18.76 3 9.52 3 0 3 C0 2.01 0 1.02 0 0 Z " fill="#4D4DE4" transform="translate(236,285)"></path>
<path d="M0 0 C9.24 0 18.48 0 28 0 C28 0.99 28 1.98 28 3 C18.76 3 9.52 3 0 3 C0 2.01 0 1.02 0 0 Z " fill="#6755E9" transform="translate(122,285)"></path>
<path d="M0 0 C0.33 0 0.66 0 1 0 C1 9.9 1 19.8 1 30 C-1.31 30 -3.62 30 -6 30 C-6 27.03 -6 24.06 -6 21 C-4.02 21 -2.04 21 0 21 C0 14.07 0 7.14 0 0 Z " fill="#713DD9" transform="translate(235,176)"></path>
<path d="M0 0 C2.31 0 4.62 0 7 0 C7 2.97 7 5.94 7 9 C-2.24 9 -11.48 9 -21 9 C-21 8.67 -21 8.34 -21 8 C-14.07 8 -7.14 8 0 8 C0 5.36 0 2.72 0 0 Z " fill="#9A49EB" transform="translate(200,167)"></path>
<path d="M0 0 C2.31 0 4.62 0 7 0 C7 2.97 7 5.94 7 9 C-2.24 9 -11.48 9 -21 9 C-21 8.67 -21 8.34 -21 8 C-14.07 8 -7.14 8 0 8 C0 5.36 0 2.72 0 0 Z " fill="#9D4BEC" transform="translate(22,167)"></path>
<path d="M0 0 C2.31 0 4.62 0 7 0 C7 2.97 7 5.94 7 9 C-2.24 9 -11.48 9 -21 9 C-21 8.67 -21 8.34 -21 8 C-14.07 8 -7.14 8 0 8 C0 5.36 0 2.72 0 0 Z " fill="#B65BE4" transform="translate(22,107)"></path>
<path d="M0 0 C2.31 0 4.62 0 7 0 C7 2.97 7 5.94 7 9 C-1.58 9 -10.16 9 -19 9 C-19 8.67 -19 8.34 -19 8 C-12.73 8 -6.46 8 0 8 C0 5.36 0 2.72 0 0 Z " fill="#AB46E9" transform="translate(256,107)"></path>
<path d="M0 0 C8.91 0 17.82 0 27 0 C27 1.32 27 2.64 27 4 C26.34 4 25.68 4 25 4 C25 3.34 25 2.68 25 2 C24.37738281 2.16371094 23.75476563 2.32742187 23.11328125 2.49609375 C18.79307618 3.19534902 14.55543955 3.10484393 10.1875 3.0625 C9.30384766 3.05798828 8.42019531 3.05347656 7.50976562 3.04882812 C5.33981441 3.03709866 3.16989828 3.01916495 1 3 C0.67 2.01 0.34 1.02 0 0 Z " fill="#29016B" transform="translate(1,176)"></path>
<path d="M0 0 C1.98 0 3.96 0 6 0 C6 2.97 6 5.94 6 9 C-3.24 9 -12.48 9 -22 9 C-22 8.67 -22 8.34 -22 8 C-14.74 8 -7.48 8 0 8 C0 5.36 0 2.72 0 0 Z " fill="#B651EB" transform="translate(201,107)"></path>
<path d="M0 0 C1.98 0 3.96 0 6 0 C6 2.97 6 5.94 6 9 C-3.24 9 -12.48 9 -22 9 C-22 8.67 -22 8.34 -22 8 C-14.74 8 -7.48 8 0 8 C0 5.36 0 2.72 0 0 Z " fill="#BB54ED" transform="translate(144,107)"></path>
<path d="M0 0 C1.98 0 3.96 0 6 0 C6 2.97 6 5.94 6 9 C-2.91 9 -11.82 9 -21 9 C-21 8.67 -21 8.34 -21 8 C-14.07 8 -7.14 8 0 8 C0 5.36 0 2.72 0 0 Z " fill="#AD49EA" transform="translate(172,137)"></path>
<path d="M0 0 C8.91 0 17.82 0 27 0 C27 6.27 27 12.54 27 19 C26.01 18.34 25.02 17.68 24 17 C23.7775052 14.19359893 23.71911519 11.66883108 23.8125 8.875 C23.9053125 4.976875 23.9053125 4.976875 24 1 C16.08 1 8.16 1 0 1 C0 0.67 0 0.34 0 0 Z " fill="#450374" transform="translate(264,86)"></path>
<path d="M0 0 C1.98 0 3.96 0 6 0 C6 2.97 6 5.94 6 9 C-2.91 9 -11.82 9 -21 9 C-21 8.67 -21 8.34 -21 8 C-14.07 8 -7.14 8 0 8 C0 5.36 0 2.72 0 0 Z " fill="#BD52E6" transform="translate(172,77)"></path>
<path d="M0 0 C2.31 0 4.62 0 7 0 C7 3.3 7 6.6 7 10 C3.7 9.67 0.4 9.34 -3 9 C-2.34 8.67 -1.68 8.34 -1 8 C-0.53476937 6.10466658 -0.53476937 6.10466658 -0.375 3.9375 C-0.25125 2.638125 -0.1275 1.33875 0 0 Z " fill="#FD00C2" transform="translate(51,16)"></path>
<path d="M0 0 C2.64 0 5.28 0 8 0 C8 2.97 8 5.94 8 9 C5.36 9 2.72 9 0 9 C0 6.03 0 3.06 0 0 Z " fill="#8841EA" transform="translate(88,197)"></path>
<path d="M0 0 C2.97 0 5.94 0 9 0 C9 2.64 9 5.28 9 8 C6.03 8 3.06 8 0 8 C0 5.36 0 2.72 0 0 Z " fill="#D256F2" transform="translate(112,77)"></path>
<path d="M0 0 C2.31 0 4.62 0 7 0 C7 2.97 7 5.94 7 9 C2.38 9 -2.24 9 -7 9 C-7 8.67 -7 8.34 -7 8 C-4.69 8 -2.38 8 0 8 C0 5.36 0 2.72 0 0 Z " fill="#4637DE" transform="translate(256,228)"></path>
<path d="M0 0 C0.99 0 1.98 0 3 0 C3 9.57 3 19.14 3 29 C2.67 29 2.34 29 2 29 C1.67 26.69 1.34 24.38 1 22 C0.67 22 0.34 22 0 22 C0 14.74 0 7.48 0 0 Z " fill="#1D0B69" transform="translate(261,177)"></path>
<path d="M0 0 C0.33 0 0.66 0 1 0 C1 6.6 1 13.2 1 20 C3.743125 19.855625 6.48625 19.71125 9.3125 19.5625 C10.17270752 19.51939697 11.03291504 19.47629395 11.91918945 19.43188477 C12.60198975 19.39377686 13.28479004 19.35566895 13.98828125 19.31640625 C15.03302612 19.26141968 15.03302612 19.26141968 16.09887695 19.20532227 C18.2216572 19.04418847 18.2216572 19.04418847 21 18 C21 12.06 21 6.12 21 0 C21.33 0 21.66 0 22 0 C22 6.93 22 13.86 22 21 C14.74 21 7.48 21 0 21 C0 14.07 0 7.14 0 0 Z " fill="#E2C2F3" transform="translate(1,146)"></path>
<path d="M0 0 C2.64 0 5.28 0 8 0 C8 9.9 8 19.8 8 30 C4.87577437 25.83436582 4.61295055 25.02766174 4.48828125 20.140625 C4.45283203 19.02558594 4.41738281 17.91054687 4.38085938 16.76171875 C4.35830078 15.60285156 4.33574219 14.44398438 4.3125 13.25 C4.27833984 12.07566406 4.24417969 10.90132812 4.20898438 9.69140625 C4.12654827 6.79436611 4.05738189 3.89762702 4 1 C2.68 0.67 1.36 0.34 0 0 Z " fill="#3A0771" transform="translate(256,116)"></path>
<path d="M0 0 C2.64 0 5.28 0 8 0 C8 2.64 8 5.28 8 8 C5.36 8 2.72 8 0 8 C0 5.36 0 2.72 0 0 Z " fill="#B848EA" transform="translate(88,137)"></path>
<path d="M0 0 C2.31 0 4.62 0 7 0 C7 2.97 7 5.94 7 9 C4.69 9 2.38 9 0 9 C0 6.03 0 3.06 0 0 Z " fill="#8441ED" transform="translate(51,197)"></path>
<path d="M0 0 C1.4540625 0.0309375 1.4540625 0.0309375 2.9375 0.0625 C2.9375 3.0325 2.9375 6.0025 2.9375 9.0625 C0.6275 9.0625 -1.6825 9.0625 -4.0625 9.0625 C-4.16015625 2.91015625 -4.16015625 2.91015625 -4.0625 1.0625 C-3.0625 0.0625 -3.0625 0.0625 0 0 Z " fill="#5C41E5" transform="translate(26.0625,227.9375)"></path>
<path d="M0 0 C5.61 0.33 11.22 0.66 17 1 C17 1.66 17 2.32 17 3 C20.3 3 23.6 3 27 3 C27 3.33 27 3.66 27 4 C18.09 4 9.18 4 0 4 C0 2.68 0 1.36 0 0 Z " fill="#450072" transform="translate(208,52)"></path>
<path d="M0 0 C0.33 1.32 0.66 2.64 1 4 C-8.57 4 -18.14 4 -28 4 C-28 3.01 -28 2.02 -28 1 C-26.18757948 0.97312721 -24.37504767 0.95366285 -22.5625 0.9375 C-21.55316406 0.92589844 -20.54382812 0.91429687 -19.50390625 0.90234375 C-17 1 -17 1 -16 2 C-13.28206055 2.07296482 -10.57742685 1.99626869 -7.859375 1.9375 C-5.11029664 1.99758914 -2.67171936 2.37594876 0 3 C0 2.01 0 1.02 0 0 Z " fill="#510078" transform="translate(57,52)"></path>
<path d="M0 0 C1.65 0 3.3 0 5 0 C5.33 1.32 5.66 2.64 6 4 C5.01 4.33 4.02 4.66 3 5 C2.67 4.67 2.34 4.34 2 4 C1.67 7.96 1.34 11.92 1 16 C-5.93 16 -12.86 16 -20 16 C-19.67 15.01 -19.34 14.02 -19 13 C-19 13.66 -19 14.32 -19 15 C-13.06 14.67 -7.12 14.34 -1 14 C-0.67 9.38 -0.34 4.76 0 0 Z " fill="#FF1EC2" transform="translate(171,0)"></path>
<path d="M0 0 C2.31 0 4.62 0 7 0 C7 2.64 7 5.28 7 8 C4.69 8 2.38 8 0 8 C0 5.36 0 2.72 0 0 Z " fill="#6241E6" transform="translate(80,229)"></path>
<path d="M0 0 C6.93 0 13.86 0 21 0 C20.01 0.33 19.02 0.66 18 1 C18 1.66 18 2.32 18 3 C12.39 3 6.78 3 1 3 C0.67 2.01 0.34 1.02 0 0 Z " fill="#6254E6" transform="translate(179,228)"></path>
<path d="M0 0 C2.31 0 4.62 0 7 0 C7 2.97 7 5.94 7 9 C5.02 9 3.04 9 1 9 C0.67 6.03 0.34 3.06 0 0 Z " fill="#5A3CE0" transform="translate(200,228)"></path>
<path d="M0 0 C2.31 0 4.62 0 7 0 C7 2.97 7 5.94 7 9 C5.02 9 3.04 9 1 9 C0.67 6.03 0.34 3.06 0 0 Z " fill="#5F3EE5" transform="translate(143,228)"></path>
<path d="M0 0 C8.91 0 17.82 0 27 0 C27 0.99 27 1.98 27 3 C17.86661545 3.28994872 9.03698325 2.1741788 0 1 C0 0.67 0 0.34 0 0 Z " fill="#5E54EB" transform="translate(2,285)"></path>
<path d="M0 0 C1.98 0 3.96 0 6 0 C6 2.97 6 5.94 6 9 C4.02 9 2.04 9 0 9 C0 6.03 0 3.06 0 0 Z " fill="#8037E6" transform="translate(285,198)"></path>
<path d="M0 0 C1.98 0 3.96 0 6 0 C6 2.97 6 5.94 6 9 C4.02 9 2.04 9 0 9 C0 6.03 0 3.06 0 0 Z " fill="#843EEC" transform="translate(172,197)"></path>
<path d="M0 0 C1.98 0 3.96 0 6 0 C6 2.97 6 5.94 6 9 C4.02 9 2.04 9 0 9 C0 6.03 0 3.06 0 0 Z " fill="#9C43F0" transform="translate(144,167)"></path>
<path d="M0 0 C1.98 0 3.96 0 6 0 C6 2.97 6 5.94 6 9 C4.02 9 2.04 9 0 9 C0 6.03 0 3.06 0 0 Z " fill="#D346ED" transform="translate(285,77)"></path>
<path d="M0 0 C2.97 0 5.94 0 9 0 C9 2.97 9 5.94 9 9 C8.01 9.495 8.01 9.495 7 10 C7 8.02 7 6.04 7 4 C5.35 4.33 3.7 4.66 2 5 C1.67 6.65 1.34 8.3 1 10 C0.67 10 0.34 10 0 10 C0 6.7 0 3.4 0 0 Z " fill="#FF2CBE" transform="translate(112,0)"></path>
<path d="M0 0 C8.91 0 17.82 0 27 0 C23.09574382 1.95212809 21.98528804 2.21229184 17.875 2.0625 C8.69460767 1.6731655 8.69460767 1.6731655 0 4 C0 2.68 0 1.36 0 0 Z " fill="#680084" transform="translate(208,26)"></path>
<path d="M0 0 C6.6 0 13.2 0 20 0 C20 0.33 20 0.66 20 1 C18.1746875 1.2165625 18.1746875 1.2165625 16.3125 1.4375 C13.17149234 1.83012596 10.09565483 2.33066923 7 3 C5.33333333 3.33333333 3.66666667 3.66666667 2 4 C1.67 5.65 1.34 7.3 1 9 C0.67 9 0.34 9 0 9 C0 6.03 0 3.06 0 0 Z " fill="#DF86F0" transform="translate(236,47)"></path>
<path d="M0 0 C1.98 0 3.96 0 6 0 C5.67 1.65 5.34 3.3 5 5 C4.34 5 3.68 5 3 5 C1.9458482 8.16245541 1.68724328 10.86948218 1.4375 14.1875 C1.35371094 15.27417969 1.26992188 16.36085938 1.18359375 17.48046875 C1.12300781 18.31191406 1.06242187 19.14335938 1 20 C0.67 20 0.34 20 0 20 C0 13.4 0 6.8 0 0 Z " fill="#F7C5F3" transform="translate(22,27)"></path>
<path d="M0 0 C2.31 0 4.62 0 7 0 C7 6.93 7 13.86 7 21 C5.02 21 3.04 21 1 21 C1 19.35 1 17.7 1 16 C2.65 16.33 4.3 16.66 6 17 C6 11.72 6 6.44 6 1 C4.02 1 2.04 1 0 1 C0 0.67 0 0.34 0 0 Z " fill="#AA82E6" transform="translate(51,176)"></path>
<path d="M0 0 C1.98 0 3.96 0 6 0 C6 2.64 6 5.28 6 8 C4.02 8 2.04 8 0 8 C0 5.36 0 2.72 0 0 Z " fill="#B535EB" transform="translate(285,138)"></path>
<path d="M0 0 C1.98 0 3.96 0 6 0 C6 2.64 6 5.28 6 8 C4.02 8 2.04 8 0 8 C0 5.36 0 2.72 0 0 Z " fill="#C34CF2" transform="translate(229,77)"></path>
<path d="M0 0 C1.98 0 3.96 0 6 0 C6 2.64 6 5.28 6 8 C4.02 8 2.04 8 0 8 C0 5.36 0 2.72 0 0 Z " fill="#C03CED" transform="translate(257,48)"></path>
<path d="M0 0 C1.98 0 3.96 0 6 0 C6 2.64 6 5.28 6 8 C4.02 8 2.04 8 0 8 C0 5.36 0 2.72 0 0 Z " fill="#D256F0" transform="translate(201,48)"></path>
<path d="M0 0 C1.98 0 3.96 0 6 0 C6 2.64 6 5.28 6 8 C4.02 8 2.04 8 0 8 C0 5.36 0 2.72 0 0 Z " fill="#D95AF3" transform="translate(144,48)"></path>
<path d="M0 0 C1.98 0 3.96 0 6 0 C6 2.64 6 5.28 6 8 C4.02 8 2.04 8 0 8 C0 5.36 0 2.72 0 0 Z " fill="#DA60F2" transform="translate(23,48)"></path>
<path d="M0 0 C2.31 0 4.62 0 7 0 C7 3.96 7 7.92 7 12 C6.01 12.495 6.01 12.495 5 13 C4.80522261 11.37585622 4.61940542 9.75063577 4.4375 8.125 C4.33308594 7.22007812 4.22867188 6.31515625 4.12109375 5.3828125 C4 3 4 3 5 1 C1.87393036 2.60480784 1.87393036 2.60480784 1.48828125 4.9453125 C1.43027344 5.66460937 1.37226563 6.38390625 1.3125 7.125 C1.209375 8.40375 1.10625 9.6825 1 11 C0.67 11 0.34 11 0 11 C0 7.37 0 3.74 0 0 Z " fill="#009BF6" transform="translate(228,238)"></path>
<path d="M0 0 C5.61 0 11.22 0 17 0 C14 3 14 3 11.40625 3.2578125 C10.4471875 3.21398437 9.488125 3.17015625 8.5 3.125 C5.19973502 2.9919248 3.1614716 2.94617613 0 4 C0 2.68 0 1.36 0 0 Z " fill="#EADBF7" transform="translate(265,178)"></path>
<path d="M0 0 C6.27 0 12.54 0 19 0 C18.67 0.66 18.34 1.32 18 2 C9.585 2.495 9.585 2.495 1 3 C0.67 4.32 0.34 5.64 0 7 C0 4.69 0 2.38 0 0 Z " fill="#ECDDF8" transform="translate(151,177)"></path>
<path d="M0 0 C0.99 1.485 0.99 1.485 2 3 C4.68436058 3.33333269 7.18447811 3.51249915 9.875 3.5625 C14.50682718 3.67435987 17.73143477 3.86571738 22 6 C14.74 6 7.48 6 0 6 C0 4.02 0 2.04 0 0 Z " fill="#27005D" transform="translate(179,140)"></path>
<path d="M0 0 C4.75 -0.125 4.75 -0.125 7 1 C9.87910588 1.23274209 12.74146495 1.41972757 15.625 1.5625 C16.42679688 1.60568359 17.22859375 1.64886719 18.0546875 1.69335938 C20.0362511 1.79951457 22.01810271 1.90026855 24 2 C24 2.33 24 2.66 24 3 C13.11 3 2.22 3 -9 3 C-9 2.67 -9 2.34 -9 2 C-4.545 1.505 -4.545 1.505 0 1 C0 0.67 0 0.34 0 0 Z " fill="#500177" transform="translate(97,53)"></path>
<path d="M0 0 C1.98 0 3.96 0 6 0 C6 2.31 6 4.62 6 7 C4.02 7 2.04 7 0 7 C0 4.69 0 2.38 0 0 Z " fill="#C452F4" transform="translate(22,108)"></path>
<path d="M0 0 C6.6 0 13.2 0 20 0 C17.03651571 1.9756562 16.31979627 2.26376859 12.98828125 2.4140625 C11.85229492 2.47207031 11.85229492 2.47207031 10.69335938 2.53125 C9.90767578 2.5621875 9.12199219 2.593125 8.3125 2.625 C7.51521484 2.66367188 6.71792969 2.70234375 5.89648438 2.7421875 C3.93136525 2.83632494 1.9657146 2.91924632 0 3 C0 2.01 0 1.02 0 0 Z " fill="#ECDFF8" transform="translate(30,177)"></path>
<path d="M0 0 C3.63 0 7.26 0 11 0 C11 2.97 11 5.94 11 9 C9.25372522 6.38058783 8.61277612 4.96175123 8 2 C5.48916886 3.25541557 5.12874554 4.50063488 4 7 C3.896875 6.21625 3.79375 5.4325 3.6875 4.625 C3.22404978 1.66954819 3.22404978 1.66954819 0 0 Z " fill="#009CF7" transform="translate(167,238)"></path>
<path d="M0 0 C0.33 0 0.66 0 1 0 C1 2.31 1 4.62 1 7 C-2.63 7 -6.26 7 -10 7 C-10 6.67 -10 6.34 -10 6 C-7.69 6 -5.38 6 -3 6 C-3 4.68 -3 3.36 -3 2 C-2.34 2 -1.68 2 -1 2 C-0.67 1.34 -0.34 0.68 0 0 Z " fill="#001364" transform="translate(290,231)"></path>
<path d="M0 0 C0.99 0 1.98 0 3 0 C3.042721 1.66611905 3.04063832 3.33382885 3 5 C2.67 5.33 2.34 5.66 2 6 C1.76636119 7.84891946 1.58696365 9.70488031 1.4375 11.5625 C1.35371094 12.57441406 1.26992187 13.58632812 1.18359375 14.62890625 C1.12300781 15.41136719 1.06242187 16.19382812 1 17 C0.67 17 0.34 17 0 17 C0 11.39 0 5.78 0 0 Z " fill="#8C008E" transform="translate(122,0)"></path>
<path d="M0 0 C2.64 0 5.28 0 8 0 C7.01 1.485 7.01 1.485 6 3 C3.375 3.1875 3.375 3.1875 1 3 C1 5.31 1 7.62 1 10 C0.67 10 0.34 10 0 10 C0 6.7 0 3.4 0 0 Z " fill="#FA22BF" transform="translate(29,16)"></path>
<path d="M0 0 C0.33 0 0.66 0 1 0 C1 3.96 1 7.92 1 12 C0.01 12 -0.98 12 -2 12 C-2.17835515 7.45194365 -1.99785435 4.1205746 0 0 Z " fill="#61007F" transform="translate(206,13)"></path>
<path d="M0 0 C0.99 0.33 1.98 0.66 3 1 C3 2.98 3 4.96 3 7 C1.02 7 -0.96 7 -3 7 C-2.01 4.69 -1.02 2.38 0 0 Z " fill="#CA90F7" transform="translate(260,100)"></path>
<path d="M0 0 C2.31 0 4.62 0 7 0 C7 0.99 7 1.98 7 3 C4.69 3.33 2.38 3.66 0 4 C0 2.68 0 1.36 0 0 Z " fill="#BD44F3" transform="translate(89,138)"></path>
<path d="M0 0 C0.99 0 1.98 0 3 0 C3 1.98 3 3.96 3 6 C0.03 6 -2.94 6 -6 6 C-6 5.67 -6 5.34 -6 5 C-3.69 5 -1.38 5 1 5 C0.67 3.35 0.34 1.7 0 0 Z " fill="#4C0076" transform="translate(175,50)"></path>
<path d="M0 0 C2.31 0 4.62 0 7 0 C7 0.99 7 1.98 7 3 C4.69 3 2.38 3 0 3 C0 2.01 0 1.02 0 0 Z " fill="#6A40E4" transform="translate(80,285)"></path>
<path d="M0 0 C2.31 0 4.62 0 7 0 C7 0.99 7 1.98 7 3 C4.69 3 2.38 3 0 3 C0 2.01 0 1.02 0 0 Z " fill="#603DE1" transform="translate(22,285)"></path>
<path d="M0 0 C2.31 0 4.62 0 7 0 C7 0.99 7 1.98 7 3 C4.69 3 2.38 3 0 3 C0 2.01 0 1.02 0 0 Z " fill="#4234DE" transform="translate(257,285)"></path>
<path d="M0 0 C2.475 0.495 2.475 0.495 5 1 C5 2.32 5 3.64 5 5 C3.35 5 1.7 5 0 5 C0 3.35 0 1.7 0 0 Z " fill="#B088F1" transform="translate(52,192)"></path>
<path d="M0 0 C0.99 0 1.98 0 3 0 C3 1.98 3 3.96 3 6 C1.02 6 -0.96 6 -3 6 C-2.01 5.67 -1.02 5.34 0 5 C0 3.35 0 1.7 0 0 Z " fill="#9F3DE5" transform="translate(232,140)"></path>
<path d="M0 0 C2.31 0.33 4.62 0.66 7 1 C4.82575883 3.50037734 3.26954202 4.43628586 0 5 C0 3.35 0 1.7 0 0 Z " fill="#FF11BB" transform="translate(264,0)"></path>
<path d="M0 0 C2.97 0 5.94 0 9 0 C9 0.66 9 1.32 9 2 C6.23735711 2.59732819 3.83967231 3 1 3 C0.67 2.01 0.34 1.02 0 0 Z " fill="#0099F5" transform="translate(112,238)"></path>
<path d="M0 0 C2.64 0 5.28 0 8 0 C7.67 3.3 7.34 6.6 7 10 C6.67 10 6.34 10 6 10 C5.67 7.36 5.34 4.72 5 2 C3.35 1.67 1.7 1.34 0 1 C0 0.67 0 0.34 0 0 Z " fill="#880093" transform="translate(142,0)"></path>
<path d="M0 0 C0.66 0.33 1.32 0.66 2 1 C2.144375 1.639375 2.28875 2.27875 2.4375 2.9375 C2.86165035 5.38210855 2.86165035 5.38210855 6 7 C3.69 7 1.38 7 -1 7 C-0.67 4.69 -0.34 2.38 0 0 Z " fill="#917CF3" transform="translate(81,221)"></path>
<path d="M0 0 C0.33 0 0.66 0 1 0 C1.12375 1.134375 1.2475 2.26875 1.375 3.4375 C1.58125 4.613125 1.7875 5.78875 2 7 C2.66 7.33 3.32 7.66 4 8 C4 8.66 4 9.32 4 10 C2.68 10.33 1.36 10.66 0 11 C0 7.37 0 3.74 0 0 Z " fill="#A37EE7" transform="translate(285,187)"></path>
<path d="M0 0 C0.66 0.33 1.32 0.66 2 1 C2 1.66 2 2.32 2 3 C-2.95 3 -7.9 3 -13 3 C-13 2.67 -13 2.34 -13 2 C-12.14535156 1.93941406 -11.29070312 1.87882813 -10.41015625 1.81640625 C-8.75306641 1.69072266 -8.75306641 1.69072266 -7.0625 1.5625 C-5.96035156 1.48128906 -4.85820312 1.40007812 -3.72265625 1.31640625 C-1.08890097 1.29581916 -1.08890097 1.29581916 0 0 Z " fill="#E1CDF7" transform="translate(254,164)"></path>
<path d="M0 0 C1.98 0 3.96 0 6 0 C6 0.99 6 1.98 6 3 C4.02 3 2.04 3 0 3 C0 2.01 0 1.02 0 0 Z " fill="#5E3BE0" transform="translate(201,285)"></path>
<path d="M0 0 C1.98 0 3.96 0 6 0 C6 0.99 6 1.98 6 3 C4.02 3 2.04 3 0 3 C0 2.01 0 1.02 0 0 Z " fill="#643DE5" transform="translate(144,285)"></path>
<path d="M0 0 C0.99 1.485 0.99 1.485 2 3 C3.32 3 4.64 3 6 3 C6 3.99 6 4.98 6 6 C4.02 6 2.04 6 0 6 C0 4.02 0 2.04 0 0 Z " fill="#9E7BED" transform="translate(229,191)"></path>
</svg>
