<?xml version="1.0" encoding="UTF-8"?>
<svg version="1.1" xmlns="http://www.w3.org/2000/svg" width="292" height="292">
<path d="M0 0 C96.36 0 192.72 0 292 0 C292 96.36 292 192.72 292 292 C195.64 292 99.28 292 0 292 C0 195.64 0 99.28 0 0 Z " fill="#63369A" transform="translate(0,0)"></path>
<path d="M0 0 C96.36 0 192.72 0 292 0 C292 64.68 292 129.36 292 196 C282.43 196 272.86 196 263 196 C263 206.89 263 217.78 263 229 C270.59 229 278.18 229 286 229 C286 236.92 286 244.84 286 253 C278.41 253 270.82 253 263 253 C263 245.41 263 237.82 263 230 C252.44 230 241.88 230 231 230 C231 240.89 231 251.78 231 263 C220.77 263 210.54 263 200 263 C200 251.78 200 240.56 200 229 C210.23 229 220.46 229 231 229 C230.98839844 226.62941406 230.97679687 224.25882813 230.96484375 221.81640625 C230.95705304 219.52954238 230.95097636 217.24267996 230.94506836 214.95581055 C230.94002843 213.36205386 230.9331965 211.76830181 230.92456055 210.17456055 C230.91248001 207.88849747 230.90676845 205.60249533 230.90234375 203.31640625 C230.89718246 202.59973282 230.89202118 201.88305939 230.88670349 201.14466858 C230.88650737 199.42936328 230.93807993 197.71418734 231 196 C232 195 232 195 234.95922852 194.88647461 C236.25272217 194.89171143 237.54621582 194.89694824 238.87890625 194.90234375 C240.76331421 194.90609009 240.76331421 194.90609009 242.68579102 194.90991211 C245.09976196 194.92356812 245.09976196 194.92356812 247.5625 194.9375 C252.656875 194.958125 257.75125 194.97875 263 195 C263 184.11 263 173.22 263 162 C252.44 162 241.88 162 231 162 C231 151.11 231 140.22 231 129 C220.44 129 209.88 129 199 129 C199 117.78 199 106.56 199 95 C188.77 95 178.54 95 168 95 C168 106.22 168 117.44 168 129 C157.44 129 146.88 129 136 129 C136 117.78 136 106.56 136 95 C123.46 95 110.92 95 98 95 C98 84.44 98 73.88 98 63 C76.88 63 55.76 63 34 63 C34 73.56 34 84.12 34 95 C33.86874706 101.33764174 33.72373333 107.66639481 33.5 114 C33.45134931 115.49217213 33.4031751 116.98435988 33.35546875 118.4765625 C33.24317943 121.98463569 33.12155778 125.49218972 33 129 C23.1 129 13.2 129 3 129 C3 139.89 3 150.78 3 162 C12.9 162 22.8 162 33 162 C33 172.89 33 183.78 33 195 C23.1 195 13.2 195 3 195 C3 206.22 3 217.44 3 229 C12.9 229 22.8 229 33 229 C33 240.22 33 251.44 33 263 C23.1 263 13.2 263 3 263 C3 272.57 3 282.14 3 292 C2.01 292 1.02 292 0 292 C0 195.64 0 99.28 0 0 Z " fill="#8342A3" transform="translate(0,0)"></path>
<path d="M0 0 C10.56 0 21.12 0 32 0 C32 10.89 32 21.78 32 33 C44.54 33 57.08 33 70 33 C70 22.11 70 11.22 70 0 C80.56 0 91.12 0 102 0 C102 10.89 102 21.78 102 33 C112.23 33 122.46 33 133 33 C133 22.11 133 11.22 133 0 C143.56 0 154.12 0 165 0 C165 10.89 165 21.78 165 33 C154.77 33 144.54 33 134 33 C134 44.22 134 55.44 134 67 C144.23 67 154.46 67 165 67 C165 56.11 165 45.22 165 34 C175.56 34 186.12 34 197 34 C197 41.59 197 49.18 197 57 C204.59 57 212.18 57 220 57 C220 49.08 220 41.16 220 33 C212.41 33 204.82 33 197 33 C197 22.11 197 11.22 197 0 C206.57 0 216.14 0 226 0 C226 31.68 226 63.36 226 96 C130.63 96 35.26 96 -63 96 C-63 86.43 -63 76.86 -63 67 C-53.1 67 -43.2 67 -33 67 C-33 56.11 -33 45.22 -33 34 C-22.44 34 -11.88 34 -1 34 C-1 41.59 -1 49.18 -1 57 C7.25 57 15.5 57 24 57 C24 49.08 24 41.16 24 33 C16.08 33 8.16 33 0 33 C0 22.11 0 11.22 0 0 Z " fill="#2E3AA1" transform="translate(66,196)"></path>
<path d="M0 0 C95.37 0 190.74 0 289 0 C289 9.24 289 18.48 289 28 C279.43 28 269.86 28 260 28 C260 38.89 260 49.78 260 61 C249.77 61 239.54 61 229 61 C229 50.11 229 39.22 229 28 C218.11 28 207.22 28 196 28 C196 38.89 196 49.78 196 61 C185.77 61 175.54 61 165 61 C165 50.11 165 39.22 165 28 C154.44 28 143.88 28 133 28 C133 38.89 133 49.78 133 61 C120.46 61 107.92 61 95 61 C95 50.11 95 39.22 95 28 C84.11 28 73.22 28 62 28 C62 38.89 62 49.78 62 61 C51.77 61 41.54 61 31 61 C31 50.11 31 39.22 31 28 C20.77 28 10.54 28 0 28 C0 18.76 0 9.52 0 0 Z " fill="#A2189B" transform="translate(3,1)"></path>
<path d="M0 0 C96.36 0 192.72 0 292 0 C292 0.33 292 0.66 292 1 C196.63 1 101.26 1 3 1 C3 10.24 3 19.48 3 29 C12.9 29 22.8 29 33 29 C33 39.89 33 50.78 33 62 C23.1 62 13.2 62 3 62 C3 72.89 3 83.78 3 95 C12.9 95 22.8 95 33 95 C33 106.22 33 117.44 33 129 C23.1 129 13.2 129 3 129 C3 139.89 3 150.78 3 162 C12.9 162 22.8 162 33 162 C33 172.89 33 183.78 33 195 C23.1 195 13.2 195 3 195 C3 206.22 3 217.44 3 229 C12.9 229 22.8 229 33 229 C33 240.22 33 251.44 33 263 C23.1 263 13.2 263 3 263 C3 272.57 3 282.14 3 292 C2.01 292 1.02 292 0 292 C0 195.64 0 99.28 0 0 Z " fill="#9739F8" transform="translate(0,0)"></path>
<path d="M0 0 C9.57 0 19.14 0 29 0 C29 11.22 29 22.44 29 34 C19.43 34 9.86 34 0 34 C0 44.89 0 55.78 0 67 C7.59 67 15.18 67 23 67 C23 74.92 23 82.84 23 91 C15.41 91 7.82 91 0 91 C0 83.41 0 75.82 0 68 C-10.56 68 -21.12 68 -32 68 C-32 78.89 -32 89.78 -32 101 C-42.23 101 -52.46 101 -63 101 C-63 89.78 -63 78.56 -63 67 C-52.77 67 -42.54 67 -32 67 C-32.01160156 64.62941406 -32.02320313 62.25882813 -32.03515625 59.81640625 C-32.04294696 57.52954238 -32.04902364 55.24267996 -32.05493164 52.95581055 C-32.05997157 51.36205386 -32.0668035 49.76830181 -32.07543945 48.17456055 C-32.08751999 45.88849747 -32.09323155 43.60249533 -32.09765625 41.31640625 C-32.10281754 40.59973282 -32.10797882 39.88305939 -32.11329651 39.14466858 C-32.11349263 37.42936328 -32.06192007 35.71418734 -32 34 C-31 33 -31 33 -28.04077148 32.88647461 C-26.74727783 32.89171143 -25.45378418 32.89694824 -24.12109375 32.90234375 C-22.86482178 32.90484131 -21.6085498 32.90733887 -20.31420898 32.90991211 C-18.70489502 32.91901611 -17.09558105 32.92812012 -15.4375 32.9375 C-10.343125 32.958125 -5.24875 32.97875 0 33 C0 22.11 0 11.22 0 0 Z " fill="#7348CF" transform="translate(263,162)"></path>
<path d="M0 0 C30.69 0 61.38 0 93 0 C93 9.24 93 18.48 93 28 C83.43 28 73.86 28 64 28 C64 38.89 64 49.78 64 61 C53.77 61 43.54 61 33 61 C33 50.11 33 39.22 33 28 C22.11 28 11.22 28 0 28 C0 18.76 0 9.52 0 0 Z " fill="#F500C1" transform="translate(199,1)"></path>
<path d="M0 0 C12.54 0 25.08 0 38 0 C38 11.22 38 22.44 38 34 C25.46 34 12.92 34 0 34 C0 22.78 0 11.56 0 0 Z " fill="#410273" transform="translate(98,95)"></path>
<path d="M0 0 C12.54 0 25.08 0 38 0 C38 10.89 38 21.78 38 33 C25.46 33 12.92 33 0 33 C0 22.11 0 11.22 0 0 Z " fill="#0E0965" transform="translate(98,230)"></path>
<path d="M0 0 C12.54 0 25.08 0 38 0 C38 10.89 38 21.78 38 33 C25.46 33 12.92 33 0 33 C0 22.11 0 11.22 0 0 Z " fill="#2B0068" transform="translate(98,162)"></path>
<path d="M0 0 C12.54 0 25.08 0 38 0 C38 10.89 38 21.78 38 33 C25.46 33 12.92 33 0 33 C0 22.11 0 11.22 0 0 Z " fill="#FBE2FB" transform="translate(98,129)"></path>
<path d="M0 0 C12.54 0 25.08 0 38 0 C38 10.89 38 21.78 38 33 C25.46 33 12.92 33 0 33 C0 22.11 0 11.22 0 0 Z " fill="#620083" transform="translate(98,29)"></path>
<path d="M0 0 C12.54 0 25.08 0 38 0 C38 10.56 38 21.12 38 32 C25.46 32 12.92 32 0 32 C0 21.44 0 10.88 0 0 Z " fill="#FEF0FB" transform="translate(98,63)"></path>
<path d="M0 0 C12.54 0 25.08 0 38 0 C38 9.24 38 18.48 38 28 C25.46 28 12.92 28 0 28 C0 18.76 0 9.52 0 0 Z " fill="#FE29BF" transform="translate(98,1)"></path>
<path d="M0 0 C10.56 0 21.12 0 32 0 C32 10.89 32 21.78 32 33 C16.16 33.495 16.16 33.495 0 34 C0 22.78 0 11.56 0 0 Z " fill="#270166" transform="translate(231,162)"></path>
<path d="M0 0 C10.56 0 21.12 0 32 0 C32 10.89 32 21.78 32 33 C21.44 33 10.88 33 0 33 C0 22.11 0 11.22 0 0 Z " fill="#0A0A62" transform="translate(231,230)"></path>
<path d="M0 0 C10.56 0 21.12 0 32 0 C32 10.89 32 21.78 32 33 C21.44 33 10.88 33 0 33 C0 22.11 0 11.22 0 0 Z " fill="#0E0964" transform="translate(33,230)"></path>
<path d="M0 0 C10.56 0 21.12 0 32 0 C32 10.89 32 21.78 32 33 C21.44 33 10.88 33 0 33 C0 22.11 0 11.22 0 0 Z " fill="#1D0162" transform="translate(199,196)"></path>
<path d="M0 0 C10.56 0 21.12 0 32 0 C32 10.89 32 21.78 32 33 C21.44 33 10.88 33 0 33 C0 22.11 0 11.22 0 0 Z " fill="#200164" transform="translate(66,196)"></path>
<path d="M0 0 C10.56 0 21.12 0 32 0 C32 10.89 32 21.78 32 33 C21.44 33 10.88 33 0 33 C0 22.11 0 11.22 0 0 Z " fill="#B666F8" transform="translate(66,162)"></path>
<path d="M0 0 C10.56 0 21.12 0 32 0 C32 10.89 32 21.78 32 33 C21.44 33 10.88 33 0 33 C0 22.11 0 11.22 0 0 Z " fill="#30006A" transform="translate(199,129)"></path>
<path d="M0 0 C10.56 0 21.12 0 32 0 C32 10.89 32 21.78 32 33 C21.44 33 10.88 33 0 33 C0 22.11 0 11.22 0 0 Z " fill="#34006B" transform="translate(66,129)"></path>
<path d="M0 0 C10.56 0 21.12 0 32 0 C32 10.89 32 21.78 32 33 C21.44 33 10.88 33 0 33 C0 22.11 0 11.22 0 0 Z " fill="#DF80EE" transform="translate(199,29)"></path>
<path d="M0 0 C10.56 0 21.12 0 32 0 C32 10.89 32 21.78 32 33 C21.44 33 10.88 33 0 33 C0 22.11 0 11.22 0 0 Z " fill="#EE8AF6" transform="translate(66,29)"></path>
<path d="M0 0 C10.23 0 20.46 0 31 0 C31 11.22 31 22.44 31 34 C20.77 34 10.54 34 0 34 C0 22.78 0 11.56 0 0 Z " fill="#3C0270" transform="translate(168,95)"></path>
<path d="M0 0 C10.56 0 21.12 0 32 0 C32 10.89 32 21.78 32 33 C21.77 33 11.54 33 1 33 C-0.125 22.875 -0.125 22.875 -0.09765625 17.87109375 C-0.09515869 16.91904053 -0.09266113 15.9669873 -0.09008789 14.98608398 C-0.08098389 13.81505127 -0.07187988 12.64401855 -0.0625 11.4375 C-0.041875 7.663125 -0.02125 3.88875 0 0 Z " fill="#AD61F6" transform="translate(199,162)"></path>
<path d="M0 0 C12.21 0 24.42 0 37 0 C37 9.24 37 18.48 37 28 C24.79 28 12.58 28 0 28 C0 18.76 0 9.52 0 0 Z " fill="#00A5F9" transform="translate(99,264)"></path>
<path d="M0 0 C10.56 0 21.12 0 32 0 C32 10.56 32 21.12 32 32 C21.44 32 10.88 32 0 32 C0 21.44 0 10.88 0 0 Z " fill="#440075" transform="translate(199,63)"></path>
<path d="M0 0 C10.56 0 21.12 0 32 0 C32 10.56 32 21.12 32 32 C21.44 32 10.88 32 0 32 C0 21.44 0 10.88 0 0 Z " fill="#4C007A" transform="translate(66,63)"></path>
<path d="M0 0 C10.23 0 20.46 0 31 0 C31 10.89 31 21.78 31 33 C20.77 33 10.54 33 0 33 C0 22.11 0 11.22 0 0 Z " fill="#0D0963" transform="translate(168,230)"></path>
<path d="M0 0 C10.23 0 20.46 0 31 0 C31 10.89 31 21.78 31 33 C20.77 33 10.54 33 0 33 C0 22.11 0 11.22 0 0 Z " fill="#1E0164" transform="translate(137,196)"></path>
<path d="M0 0 C10.23 0 20.46 0 31 0 C31 10.89 31 21.78 31 33 C20.77 33 10.54 33 0 33 C0 22.11 0 11.22 0 0 Z " fill="#290066" transform="translate(168,162)"></path>
<path d="M0 0 C10.23 0 20.46 0 31 0 C31 10.89 31 21.78 31 33 C20.77 33 10.54 33 0 33 C0 22.11 0 11.22 0 0 Z " fill="#C495EF" transform="translate(137,162)"></path>
<path d="M0 0 C10.23 0 20.46 0 31 0 C31 10.89 31 21.78 31 33 C20.77 33 10.54 33 0 33 C0 22.11 0 11.22 0 0 Z " fill="#2A0068" transform="translate(34,162)"></path>
<path d="M0 0 C10.23 0 20.46 0 31 0 C31 10.89 31 21.78 31 33 C20.77 33 10.54 33 0 33 C0 22.11 0 11.22 0 0 Z " fill="#FBE3FA" transform="translate(168,129)"></path>
<path d="M0 0 C10.23 0 20.46 0 31 0 C31 10.89 31 21.78 31 33 C20.77 33 10.54 33 0 33 C0 22.11 0 11.22 0 0 Z " fill="#FCE4FA" transform="translate(34,129)"></path>
<path d="M0 0 C10.23 0 20.46 0 31 0 C31 10.89 31 21.78 31 33 C20.77 33 10.54 33 0 33 C0 22.11 0 11.22 0 0 Z " fill="#33006B" transform="translate(137,129)"></path>
<path d="M0 0 C10.23 0 20.46 0 31 0 C31 10.89 31 21.78 31 33 C20.77 33 10.54 33 0 33 C0 22.11 0 11.22 0 0 Z " fill="#ED87F6" transform="translate(137,29)"></path>
<path d="M0 0 C10.23 0 20.46 0 31 0 C31 10.89 31 21.78 31 33 C20.77 33 10.54 33 0 33 C0 22.11 0 11.22 0 0 Z " fill="#50007A" transform="translate(232,29)"></path>
<path d="M0 0 C10.23 0 20.46 0 31 0 C31 10.89 31 21.78 31 33 C20.77 33 10.54 33 0 33 C0 22.11 0 11.22 0 0 Z " fill="#59007E" transform="translate(168,29)"></path>
<path d="M0 0 C10.23 0 20.46 0 31 0 C31 10.89 31 21.78 31 33 C20.77 33 10.54 33 0 33 C0 22.11 0 11.22 0 0 Z " fill="#640083" transform="translate(34,29)"></path>
<path d="M0 0 C0 10.89 0 21.78 0 33 C-10.23 33 -20.46 33 -31 33 C-31 22.44 -31 11.88 -31 1 C-23.6059375 0.7525 -23.6059375 0.7525 -16.0625 0.5 C-13.7268396 0.42168945 -13.7268396 0.42168945 -11.34399414 0.34179688 C-10.12832764 0.30119141 -8.91266113 0.26058594 -7.66015625 0.21875 C-6.40855713 0.17685547 -5.15695801 0.13496094 -3.86743164 0.09179688 C-1 0 -1 0 0 0 Z " fill="#35006B" transform="translate(263,95)"></path>
<path d="M0 0 C10.23 0 20.46 0 31 0 C31 10.56 31 21.12 31 32 C20.77 32 10.54 32 0 32 C0 21.44 0 10.88 0 0 Z " fill="#3C0070" transform="translate(34,96)"></path>
<path d="M0 0 C10.23 0 20.46 0 31 0 C31 10.56 31 21.12 31 32 C20.77 32 10.54 32 0 32 C0 21.44 0 10.88 0 0 Z " fill="#DD84F2" transform="translate(168,63)"></path>
<path d="M0 0 C10.23 0 20.46 0 31 0 C31 10.56 31 21.12 31 32 C20.77 32 10.54 32 0 32 C0 21.44 0 10.88 0 0 Z " fill="#FEF1FC" transform="translate(34,63)"></path>
<path d="M0 0 C10.23 0 20.46 0 31 0 C31 10.56 31 21.12 31 32 C20.77 32 10.54 32 0 32 C0 21.44 0 10.88 0 0 Z " fill="#4A0079" transform="translate(137,63)"></path>
<path d="M0 0 C9.9 0 19.8 0 30 0 C30 10.89 30 21.78 30 33 C20.1 33 10.2 33 0 33 C0 22.11 0 11.22 0 0 Z " fill="#1D0164" transform="translate(3,196)"></path>
<path d="M0 0 C9.9 0 19.8 0 30 0 C30 10.89 30 21.78 30 33 C20.1 33 10.2 33 0 33 C0 22.11 0 11.22 0 0 Z " fill="#33006B" transform="translate(3,129)"></path>
<path d="M0 0 C9.9 0 19.8 0 30 0 C30 10.89 30 21.78 30 33 C20.1 33 10.2 33 0 33 C0 22.11 0 11.22 0 0 Z " fill="#FDF3FC" transform="translate(3,29)"></path>
<path d="M0 0 C9.9 0 19.8 0 30 0 C30 10.56 30 21.12 30 32 C20.1 32 10.2 32 0 32 C0 21.44 0 10.88 0 0 Z " fill="#FEECFB" transform="translate(232,63)"></path>
<path d="M0 0 C9.9 0 19.8 0 30 0 C30 10.56 30 21.12 30 32 C20.1 32 10.2 32 0 32 C0 21.44 0 10.88 0 0 Z " fill="#4C007A" transform="translate(3,63)"></path>
<path d="M0 0 C9.57 0 19.14 0 29 0 C29 10.89 29 21.78 29 33 C19.43 33 9.86 33 0 33 C0 22.11 0 11.22 0 0 Z " fill="#170361" transform="translate(263,196)"></path>
<path d="M0 0 C9.57 0 19.14 0 29 0 C29 10.89 29 21.78 29 33 C19.43 33 9.86 33 0 33 C0 22.11 0 11.22 0 0 Z " fill="#2A0067" transform="translate(263,129)"></path>
<path d="M0 0 C9.57 0 19.14 0 29 0 C29 10.89 29 21.78 29 33 C19.43 33 9.86 33 0 33 C0 22.11 0 11.22 0 0 Z " fill="#FEECFB" transform="translate(263,29)"></path>
<path d="M0 0 C9.57 0 19.14 0 29 0 C29 10.56 29 21.12 29 32 C19.43 32 9.86 32 0 32 C0 21.44 0 10.88 0 0 Z " fill="#3A006E" transform="translate(263,63)"></path>
<path d="M0 0 C10.89 0 21.78 0 33 0 C33 9.24 33 18.48 33 28 C22.11 28 11.22 28 0 28 C0 18.76 0 9.52 0 0 Z " fill="#83008E" transform="translate(65,1)"></path>
<path d="M0 0 C10.56 0 21.12 0 32 0 C32 9.24 32 18.48 32 28 C21.44 28 10.88 28 0 28 C0 18.76 0 9.52 0 0 Z " fill="#00125A" transform="translate(199,264)"></path>
<path d="M0 0 C10.56 0 21.12 0 32 0 C32 9.24 32 18.48 32 28 C21.44 28 10.88 28 0 28 C0 18.76 0 9.52 0 0 Z " fill="#00115B" transform="translate(66,264)"></path>
<path d="M0 0 C10.56 0 21.12 0 32 0 C32 9.24 32 18.48 32 28 C21.44 28 10.88 28 0 28 C0 18.76 0 9.52 0 0 Z " fill="#730088" transform="translate(199,1)"></path>
<path d="M0 0 C10.23 0 20.46 0 31 0 C31 9.24 31 18.48 31 28 C20.77 28 10.54 28 0 28 C0 18.76 0 9.52 0 0 Z " fill="#00B3FD" transform="translate(231,264)"></path>
<path d="M0 0 C10.23 0 20.46 0 31 0 C31 9.24 31 18.48 31 28 C20.77 28 10.54 28 0 28 C0 18.76 0 9.52 0 0 Z " fill="#00B0FA" transform="translate(168,264)"></path>
<path d="M0 0 C10.23 0 20.46 0 31 0 C31 9.24 31 18.48 31 28 C20.77 28 10.54 28 0 28 C0 18.76 0 9.52 0 0 Z " fill="#00B4FD" transform="translate(34,264)"></path>
<path d="M0 0 C10.23 0 20.46 0 31 0 C31 9.24 31 18.48 31 28 C20.77 28 10.54 28 0 28 C0 18.76 0 9.52 0 0 Z " fill="#00115B" transform="translate(137,264)"></path>
<path d="M0 0 C10.23 0 20.46 0 31 0 C31 9.24 31 18.48 31 28 C20.77 28 10.54 28 0 28 C0 18.76 0 9.52 0 0 Z " fill="#FC00C2" transform="translate(168,1)"></path>
<path d="M0 0 C12.21 0 24.42 0 37 0 C37 7.59 37 15.18 37 23 C24.79 23 12.58 23 0 23 C0 15.41 0 7.82 0 0 Z " fill="#E6D6F9" transform="translate(99,196)"></path>
<path d="M0 0 C9.9 0 19.8 0 30 0 C30 9.24 30 18.48 30 28 C20.1 28 10.2 28 0 28 C0 18.76 0 9.52 0 0 Z " fill="#00125B" transform="translate(3,264)"></path>
<path d="M0 0 C9.9 0 19.8 0 30 0 C30 9.24 30 18.48 30 28 C20.1 28 10.2 28 0 28 C0 18.76 0 9.52 0 0 Z " fill="#7F008C" transform="translate(3,1)"></path>
<path d="M0 0 C9.57 0 19.14 0 29 0 C29 9.24 29 18.48 29 28 C19.43 28 9.86 28 0 28 C0 18.76 0 9.52 0 0 Z " fill="#001159" transform="translate(263,264)"></path>
<path d="M0 0 C9.57 0 19.14 0 29 0 C29 9.24 29 18.48 29 28 C19.43 28 9.86 28 0 28 C0 18.76 0 9.52 0 0 Z " fill="#5A007C" transform="translate(263,1)"></path>
<path d="M0 0 C7.92 0 15.84 0 24 0 C24 7.92 24 15.84 24 24 C16.08 24 8.16 24 0 24 C0 16.08 0 8.16 0 0 Z " fill="#D5D0F9" transform="translate(66,229)"></path>
<path d="M0 0 C7.59 0 15.18 0 23 0 C23 7.92 23 15.84 23 24 C15.41 24 7.82 24 0 24 C0 16.08 0 8.16 0 0 Z " fill="#C7C6F9" transform="translate(263,229)"></path>
<path d="M0 0 C7.59 0 15.18 0 23 0 C23 7.92 23 15.84 23 24 C15.41 24 7.82 24 0 24 C0 16.08 0 8.16 0 0 Z " fill="#D2CDF9" transform="translate(200,229)"></path>
<path d="M0 0 C7.59 0 15.18 0 23 0 C23 7.92 23 15.84 23 24 C15.41 24 7.82 24 0 24 C0 16.08 0 8.16 0 0 Z " fill="#D3CFF9" transform="translate(137,229)"></path>
<path d="M0 0 C7.59 0 15.18 0 23 0 C23 7.92 23 15.84 23 24 C15.41 24 7.82 24 0 24 C0 16.08 0 8.16 0 0 Z " fill="#D4CFF9" transform="translate(3,229)"></path>
<path d="M0 0 C7.92 0 15.84 0 24 0 C24 7.59 24 15.18 24 23 C16.08 23 8.16 23 0 23 C0 15.41 0 7.82 0 0 Z " fill="#E8D9FA" transform="translate(34,196)"></path>
<path d="M0 0 C7.92 0 15.84 0 24 0 C24 7.59 24 15.18 24 23 C16.08 23 8.16 23 0 23 C0 15.41 0 7.82 0 0 Z " fill="#FDE8FA" transform="translate(200,96)"></path>
<path d="M0 0 C7.92 0 15.84 0 24 0 C24 7.59 24 15.18 24 23 C16.08 23 8.16 23 0 23 C0 15.41 0 7.82 0 0 Z " fill="#FEEBFB" transform="translate(66,96)"></path>
<path d="M0 0 C10.56 0 21.12 0 32 0 C32 11.22 32 22.44 32 34 C21.44 34 10.88 34 0 34 C0 22.78 0 11.56 0 0 Z M1 1 C1 8.59 1 16.18 1 24 C8.92 24 16.84 24 25 24 C25 16.41 25 8.82 25 1 C17.08 1 9.16 1 1 1 Z " fill="#CE70F5" transform="translate(199,95)"></path>
<path d="M0 0 C10.56 0 21.12 0 32 0 C32 11.22 32 22.44 32 34 C21.44 34 10.88 34 0 34 C0 30.7 0 27.4 0 24 C7.92 24 15.84 24 24 24 C24 16.41 24 8.82 24 1 C16.08 1 8.16 1 0 1 C0 0.67 0 0.34 0 0 Z " fill="#D575F6" transform="translate(66,95)"></path>
<path d="M0 0 C7.59 0 15.18 0 23 0 C23 7.59 23 15.18 23 23 C15.41 23 7.82 23 0 23 C0 15.41 0 7.82 0 0 Z " fill="#E2D5F9" transform="translate(232,196)"></path>
<path d="M0 0 C7.59 0 15.18 0 23 0 C23 7.59 23 15.18 23 23 C15.41 23 7.82 23 0 23 C0 15.41 0 7.82 0 0 Z " fill="#E7D9FA" transform="translate(169,196)"></path>
<path d="M0 0 C7.59 0 15.18 0 23 0 C23 7.59 23 15.18 23 23 C15.41 23 7.82 23 0 23 C0 15.41 0 7.82 0 0 Z " fill="#F9E1FA" transform="translate(232,129)"></path>
<path d="M0 0 C7.59 0 15.18 0 23 0 C23 7.59 23 15.18 23 23 C15.41 23 7.82 23 0 23 C0 15.41 0 7.82 0 0 Z " fill="#FAE3FA" transform="translate(263,96)"></path>
<path d="M0 0 C7.59 0 15.18 0 23 0 C23 7.59 23 15.18 23 23 C15.41 23 7.82 23 0 23 C0 15.41 0 7.82 0 0 Z " fill="#FEEBFB" transform="translate(137,96)"></path>
<path d="M0 0 C7.59 0 15.18 0 23 0 C23 7.59 23 15.18 23 23 C15.41 23 7.82 23 0 23 C0 15.41 0 7.82 0 0 Z " fill="#FDEAFB" transform="translate(3,96)"></path>
<path d="M0 0 C7.92 0 15.84 0 24 0 C24 7.26 24 14.52 24 22 C16.08 22 8.16 22 0 22 C0 14.74 0 7.48 0 0 Z " fill="#F6E0FA" transform="translate(66,163)"></path>
<path d="M0 0 C7.92 0 15.84 0 24 0 C24 7.26 24 14.52 24 22 C16.08 22 8.16 22 0 22 C0 14.74 0 7.48 0 0 Z " fill="#FDF7FC" transform="translate(66,30)"></path>
<path d="M0 0 C2.64 0 5.28 0 8 0 C8 11.22 8 22.44 8 34 C-2.56 34 -13.12 34 -24 34 C-24 30.7 -24 27.4 -24 24 C-16.08 24 -8.16 24 0 24 C0 16.08 0 8.16 0 0 Z " fill="#6656EB" transform="translate(90,229)"></path>
<path d="M0 0 C7.59 0 15.18 0 23 0 C23 7.26 23 14.52 23 22 C15.41 22 7.82 22 0 22 C0 14.74 0 7.48 0 0 Z " fill="#F1DEFA" transform="translate(200,163)"></path>
<path d="M0 0 C7.59 0 15.18 0 23 0 C23 7.26 23 14.52 23 22 C15.41 22 7.82 22 0 22 C0 14.74 0 7.48 0 0 Z " fill="#F4E0FA" transform="translate(137,163)"></path>
<path d="M0 0 C7.59 0 15.18 0 23 0 C23 7.26 23 14.52 23 22 C15.41 22 7.82 22 0 22 C0 14.74 0 7.48 0 0 Z " fill="#F4DFFB" transform="translate(3,163)"></path>
<path d="M0 0 C7.59 0 15.18 0 23 0 C23 7.26 23 14.52 23 22 C15.41 22 7.82 22 0 22 C0 14.74 0 7.48 0 0 Z " fill="#FDF4FC" transform="translate(200,30)"></path>
<path d="M0 0 C7.59 0 15.18 0 23 0 C23 7.26 23 14.52 23 22 C15.41 22 7.82 22 0 22 C0 14.74 0 7.48 0 0 Z " fill="#FDF6FC" transform="translate(137,30)"></path>
<path d="M0 0 C0.33 0 0.66 0 1 0 C1 5.28 1 10.56 1 16 C2.98 16 4.96 16 7 16 C7 14.35 7 12.7 7 11 C7.66 11 8.32 11 9 11 C9 12.98 9 14.96 9 17 C11.43757413 17.02698422 13.87484915 17.04683099 16.3125 17.0625 C17.00279297 17.07087891 17.69308594 17.07925781 18.40429688 17.08789062 C21.5483025 17.10307906 23.99420019 17.00193327 27 16 C27.33 14.35 27.66 12.7 28 11 C30.97 11 33.94 11 37 11 C38.2773034 16.90752824 38 21.60354376 38 28 C25.46 28 12.92 28 0 28 C0 18.76 0 9.52 0 0 Z " fill="#FC06C1" transform="translate(98,1)"></path>
<path d="M0 0 C2.64 0 5.28 0 8 0 C8 11.22 8 22.44 8 34 C-2.23 34 -12.46 34 -23 34 C-23 30.7 -23 27.4 -23 24 C-15.41 24 -7.82 24 0 24 C0 16.08 0 8.16 0 0 Z " fill="#6556EB" transform="translate(160,229)"></path>
<path d="M0 0 C1.38294718 0.01329757 2.76582404 0.03715018 4.1484375 0.0703125 C4.85484375 0.07933594 5.56125 0.08835937 6.2890625 0.09765625 C8.03399848 0.12123647 9.77876045 0.15710789 11.5234375 0.1953125 C12.46483071 6.1966942 12.57856427 11.97439297 12.4609375 18.046875 C12.45727482 21.69120465 12.45727482 21.69120465 13.5234375 27.1953125 C6.9234375 27.1953125 0.3234375 27.1953125 -6.4765625 27.1953125 C-8.4673606 23.21371631 -7.04704367 18.02534452 -6.6640625 13.6953125 C-6.58091797 12.62410156 -6.49777344 11.55289062 -6.41210938 10.44921875 C-6.32380859 9.42699219 -6.23550781 8.40476562 -6.14453125 7.3515625 C-6.06485107 6.41119141 -5.9851709 5.47082031 -5.90307617 4.50195312 C-5.16877211 0.5307426 -3.9371363 0.22118743 0 0 Z " fill="#00B8FD" transform="translate(113.4765625,264.8046875)"></path>
<path d="M0 0 C0.33 0 0.66 0 1 0 C1 7.59 1 15.18 1 23 C8.59 23 16.18 23 24 23 C24 15.41 24 7.82 24 0 C26.31 0 28.62 0 31 0 C31 10.89 31 21.78 31 33 C20.77 33 10.54 33 0 33 C0 22.11 0 11.22 0 0 Z " fill="#915DEC" transform="translate(168,196)"></path>
<path d="M0 0 C2.64 0 5.28 0 8 0 C8 10.89 8 21.78 8 33 C-2.23 33 -12.46 33 -23 33 C-23 29.7 -23 26.4 -23 23 C-15.41 23 -7.82 23 0 23 C0 15.41 0 7.82 0 0 Z " fill="#BE63F4" transform="translate(255,129)"></path>
<path d="M0 0 C0.33 0 0.66 0 1 0 C1 7.59 1 15.18 1 23 C8.59 23 16.18 23 24 23 C24 15.41 24 7.82 24 0 C26.31 0 28.62 0 31 0 C31 10.89 31 21.78 31 33 C20.77 33 10.54 33 0 33 C0 22.11 0 11.22 0 0 Z " fill="#C16CEE" transform="translate(168,129)"></path>
<path d="M0 0 C2.64 0 5.28 0 8 0 C8 10.89 8 21.78 8 33 C-2.23 33 -12.46 33 -23 33 C-23 29.7 -23 26.4 -23 23 C-15.41 23 -7.82 23 0 23 C0 15.41 0 7.82 0 0 Z " fill="#D472F6" transform="translate(160,96)"></path>
<path d="M0 0 C9.9 0 19.8 0 30 0 C30 11.22 30 22.44 30 34 C20.1 34 10.2 34 0 34 C0 30.7 0 27.4 0 24 C7.59 24 15.18 24 23 24 C23 16.41 23 8.82 23 1 C15.41 1 7.82 1 0 1 C0 0.67 0 0.34 0 0 Z " fill="#D372F6" transform="translate(3,95)"></path>
<path d="M0 0 C9.9 0 19.8 0 30 0 C30 10.89 30 21.78 30 33 C20.1 33 10.2 33 0 33 C0 29.7 0 26.4 0 23 C7.59 23 15.18 23 23 23 C23 15.74 23 8.48 23 1 C15.41 1 7.82 1 0 1 C0 0.67 0 0.34 0 0 Z " fill="#B469F6" transform="translate(3,162)"></path>
<path d="M0 0 C7.26 0 14.52 0 22 0 C22 7.26 22 14.52 22 22 C14.74 22 7.48 22 0 22 C0 14.74 0 7.48 0 0 Z " fill="#ECDAFA" transform="translate(263,163)"></path>
<path d="M0 0 C7.26 0 14.52 0 22 0 C22 7.26 22 14.52 22 22 C14.74 22 7.48 22 0 22 C0 14.74 0 7.48 0 0 Z " fill="#FEF1FB" transform="translate(169,63)"></path>
<path d="M0 0 C9.9 0 19.8 0 30 0 C30 10.89 30 21.78 30 33 C20.1 33 10.2 33 0 33 C0 29.7 0 26.4 0 23 C7.59 23 15.18 23 23 23 C23 15.74 23 8.48 23 1 C15.41 1 7.82 1 0 1 C0 0.67 0 0.34 0 0 Z " fill="#ED84F5" transform="translate(3,29)"></path>
<path d="M0 0 C9.57 0 19.14 0 29 0 C29 10.89 29 21.78 29 33 C19.43 33 9.86 33 0 33 C0 29.7 0 26.4 0 23 C7.26 23 14.52 23 22 23 C22 15.74 22 8.48 22 1 C14.74 1 7.48 1 0 1 C0 0.67 0 0.34 0 0 Z " fill="#A35CF4" transform="translate(263,162)"></path>
<path d="M0 0 C9.57 0 19.14 0 29 0 C29 10.89 29 21.78 29 33 C19.43 33 9.86 33 0 33 C0 29.7 0 26.4 0 23 C7.26 23 14.52 23 22 23 C22 15.74 22 8.48 22 1 C14.74 1 7.48 1 0 1 C0 0.67 0 0.34 0 0 Z " fill="#DA71F5" transform="translate(263,29)"></path>
<path d="M0 0 C2.31 0 4.62 0 7 0 C7 10.89 7 21.78 7 33 C-3.23 33 -13.46 33 -24 33 C-24 29.7 -24 26.4 -24 23 C-16.08 23 -8.16 23 0 23 C0 15.41 0 7.82 0 0 Z " fill="#925AF1" transform="translate(58,196)"></path>
<path d="M0 0 C2.31 0 4.62 0 7 0 C7 10.89 7 21.78 7 33 C-3.23 33 -13.46 33 -24 33 C-24 29.7 -24 26.4 -24 23 C-16.08 23 -8.16 23 0 23 C0 15.41 0 7.82 0 0 Z " fill="#C76AF5" transform="translate(58,129)"></path>
<path d="M0 0 C2.31 0 4.62 0 7 0 C7 11.22 7 22.44 7 34 C-2.9 34 -12.8 34 -23 34 C-23 30.7 -23 27.4 -23 24 C-15.41 24 -7.82 24 0 24 C0 16.08 0 8.16 0 0 Z " fill="#5C56EC" transform="translate(26,229)"></path>
<path d="M0 0 C2.31 0 4.62 0 7 0 C7 10.56 7 21.12 7 32 C-3.23 32 -13.46 32 -24 32 C-24 28.7 -24 25.4 -24 22 C-16.08 22 -8.16 22 0 22 C0 14.74 0 7.48 0 0 Z " fill="#E282F6" transform="translate(58,63)"></path>
<path d="M0 0 C9.57 0 19.14 0 29 0 C29 11.22 29 22.44 29 34 C19.43 34 9.86 34 0 34 C0 30.7 0 27.4 0 24 C7.59 24 15.18 24 23 24 C23 16.41 23 8.82 23 1 C15.41 1 7.82 1 0 1 C0 0.67 0 0.34 0 0 Z " fill="#C66AF4" transform="translate(263,95)"></path>
<path d="M0 0 C2.31 0 4.62 0 7 0 C7 10.56 7 21.12 7 32 C-2.9 32 -12.8 32 -23 32 C-23 28.7 -23 25.4 -23 22 C-15.41 22 -7.82 22 0 22 C0 14.74 0 7.48 0 0 Z " fill="#DB7AF5" transform="translate(255,63)"></path>
<path d="M0 0 C1.98 0 3.96 0 6 0 C6 11.22 6 22.44 6 34 C-3.57 34 -13.14 34 -23 34 C-23 30.7 -23 27.4 -23 24 C-15.41 24 -7.82 24 0 24 C0 16.08 0 8.16 0 0 Z " fill="#514EE6" transform="translate(286,229)"></path>
<path d="M0 0 C0.33 0 0.66 0 1 0 C1 7.59 1 15.18 1 23 C13.21 23 25.42 23 38 23 C38 26.3 38 29.6 38 33 C25.46 33 12.92 33 0 33 C0 22.11 0 11.22 0 0 Z " fill="#9057F1" transform="translate(98,196)"></path>
<path d="M0 0 C0.33 0 0.66 0 1 0 C1 7.59 1 15.18 1 23 C13.21 23 25.42 23 38 23 C38 26.3 38 29.6 38 33 C25.46 33 12.92 33 0 33 C0 22.11 0 11.22 0 0 Z " fill="#B348EC" transform="translate(98,129)"></path>
<path d="M0 0 C0.33 0 0.66 0 1 0 C1 7.26 1 14.52 1 22 C13.21 22 25.42 22 38 22 C38 25.3 38 28.6 38 32 C25.46 32 12.92 32 0 32 C0 21.44 0 10.88 0 0 Z " fill="#E27DF6" transform="translate(98,63)"></path>
<path d="M0 0 C7.59 0 15.18 0 23 0 C23 5.61 23 11.22 23 17 C15.74 17 8.48 17 1 17 C1 20.63 1 24.26 1 28 C0.67 28 0.34 28 0 28 C0 18.76 0 9.52 0 0 Z " fill="#FD3DC1" transform="translate(168,1)"></path>
<path d="M0 0 C0.33 0 0.66 0 1 0 C1.33 5.94 1.66 11.88 2 18 C4.36865234 17.76603516 4.36865234 17.76603516 6.78515625 17.52734375 C8.87756388 17.33030088 10.97001412 17.13371011 13.0625 16.9375 C14.10083984 16.83373047 15.13917969 16.72996094 16.20898438 16.62304688 C21.69931959 16.11758744 26.58592203 15.90182532 32 17 C32 20.63 32 24.26 32 28 C21.44 28 10.88 28 0 28 C0 18.76 0 9.52 0 0 Z " fill="#F913BF" transform="translate(33,1)"></path>
<path d="M0 0 C7.59 0 15.18 0 23 0 C23 9 23 9 21 15 C14.4 15.33 7.8 15.66 1 16 C1 19.96 1 23.92 1 28 C0.67 28 0.34 28 0 28 C0 18.76 0 9.52 0 0 Z " fill="#FC22BF" transform="translate(231,1)"></path>
<path d="M0 0 C10.23 0 20.46 0 31 0 C31 3.3 31 6.6 31 10 C20.77 10 10.54 10 0 10 C0 6.7 0 3.4 0 0 Z " fill="#5F53EA" transform="translate(200,253)"></path>
<path d="M0 0 C5.94 0 11.88 0 18 0 C18.1953125 10.7421875 18.1953125 10.7421875 18 14 C16 16 16 16 12.5234375 16.1953125 C11.14047367 16.18387695 9.75761943 16.15791258 8.375 16.125 C4.724375 16.063125 4.724375 16.063125 1 16 C0.67 10.72 0.34 5.44 0 0 Z " fill="#FF51C3" transform="translate(107,1)"></path>
<path d="M0 0 C10.56 0 21.12 0 32 0 C32 7.92 32 15.84 32 24 C21.44 24 10.88 24 0 24 C0 16.08 0 8.16 0 0 Z M1 1 C1 8.26 1 15.52 1 23 C8.59 23 16.18 23 24 23 C24 15.74 24 8.48 24 1 C16.41 1 8.82 1 1 1 Z " fill="#BF93E9" transform="translate(199,162)"></path>
<path d="M0 0 C3.63 0 7.26 0 11 0 C11 7.59 11 15.18 11 23 C7.37 23 3.74 23 0 23 C0 15.41 0 7.82 0 0 Z " fill="#DDA5F5" transform="translate(125,129)"></path>
<path d="M0 0 C10.23 0 20.46 0 31 0 C31 9.24 31 18.48 31 28 C29.35 27.67 27.7 27.34 26 27 C26 26.34 26 25.68 26 25 C25.34 24.67 24.68 24.34 24 24 C22.665082 16.46904751 22.8997315 8.62040589 23 1 C12.605 1.495 12.605 1.495 2 2 C1.67 10.58 1.34 19.16 1 28 C0.67 28 0.34 28 0 28 C0 18.76 0 9.52 0 0 Z " fill="#009DF2" transform="translate(231,264)"></path>
<path d="M0 0 C3.63 0 7.26 0 11 0 C11 7.26 11 14.52 11 22 C7.37 22 3.74 22 0 22 C0 14.74 0 7.48 0 0 Z " fill="#F0B9F5" transform="translate(125,63)"></path>
<path d="M0 0 C10.56 0 21.12 0 32 0 C32 7.92 32 15.84 32 24 C21.44 24 10.88 24 0 24 C0 23.67 0 23.34 0 23 C7.92 23 15.84 23 24 23 C24 15.74 24 8.48 24 1 C16.08 1 8.16 1 0 1 C0 0.67 0 0.34 0 0 Z " fill="#C899ED" transform="translate(66,162)"></path>
<path d="M0 0 C10.56 0 21.12 0 32 0 C32 7.92 32 15.84 32 24 C21.44 24 10.88 24 0 24 C0 23.67 0 23.34 0 23 C7.92 23 15.84 23 24 23 C24 15.74 24 8.48 24 1 C16.08 1 8.16 1 0 1 C0 0.67 0 0.34 0 0 Z " fill="#EFB8F1" transform="translate(66,29)"></path>
<path d="M0 0 C10.23 0 20.46 0 31 0 C31 7.92 31 15.84 31 24 C20.77 24 10.54 24 0 24 C0 23.67 0 23.34 0 23 C7.59 23 15.18 23 23 23 C23 15.74 23 8.48 23 1 C15.41 1 7.82 1 0 1 C0 0.67 0 0.34 0 0 Z " fill="#EAB0F1" transform="translate(200,29)"></path>
<path d="M0 0 C10.23 0 20.46 0 31 0 C31 7.92 31 15.84 31 24 C20.77 24 10.54 24 0 24 C0 23.67 0 23.34 0 23 C7.59 23 15.18 23 23 23 C23 15.74 23 8.48 23 1 C15.41 1 7.82 1 0 1 C0 0.67 0 0.34 0 0 Z " fill="#EDB5F2" transform="translate(137,29)"></path>
<path d="M0 0 C3.3 0 6.6 0 10 0 C10 7.59 10 15.18 10 23 C6.7 23 3.4 23 0 23 C0 15.41 0 7.82 0 0 Z " fill="#BD93F4" transform="translate(126,196)"></path>
<path d="M0 0 C0.33 0 0.66 0 1 0 C1 3.3 1 6.6 1 10 C24.1 10 47.2 10 71 10 C71 10.33 71 10.66 71 11 C58.79 11 46.58 11 34 11 C34 20.24 34 29.48 34 39 C33.67 39 33.34 39 33 39 C33 29.76 33 20.52 33 11 C22.44 11 11.88 11 1 11 C1 20.24 1 29.48 1 39 C0.67 39 0.34 39 0 39 C0 29.76 0 20.52 0 11 C-10.23 11 -20.46 11 -31 11 C-31 20.24 -31 29.48 -31 39 C-31.33 39 -31.66 39 -32 39 C-32 29.76 -32 20.52 -32 11 C-41.9 11 -51.8 11 -62 11 C-62 10.67 -62 10.34 -62 10 C-41.54 10 -21.08 10 0 10 C0 6.7 0 3.4 0 0 Z " fill="#104BA9" transform="translate(65,253)"></path>
<path d="M0 0 C10.56 0 21.12 0 32 0 C32 7.92 32 15.84 32 24 C29.36 24 26.72 24 24 24 C24 16.41 24 8.82 24 1 C16.08 1 8.16 1 0 1 C0 0.67 0 0.34 0 0 Z " fill="#D8A3ED" transform="translate(66,95)"></path>
<path d="M0 0 C9.9 0 19.8 0 30 0 C30 7.92 30 15.84 30 24 C20.1 24 10.2 24 0 24 C0 23.67 0 23.34 0 23 C7.59 23 15.18 23 23 23 C23 15.74 23 8.48 23 1 C15.41 1 7.82 1 0 1 C0 0.67 0 0.34 0 0 Z " fill="#F1B1F3" transform="translate(3,29)"></path>
<path d="M0 0 C9.57 0 19.14 0 29 0 C29 7.92 29 15.84 29 24 C19.43 24 9.86 24 0 24 C0 23.67 0 23.34 0 23 C7.26 23 14.52 23 22 23 C22 15.74 22 8.48 22 1 C14.74 1 7.48 1 0 1 C0 0.67 0 0.34 0 0 Z " fill="#B990ED" transform="translate(263,162)"></path>
<path d="M0 0 C9.57 0 19.14 0 29 0 C29 7.92 29 15.84 29 24 C19.43 24 9.86 24 0 24 C0 23.67 0 23.34 0 23 C7.26 23 14.52 23 22 23 C22 15.74 22 8.48 22 1 C14.74 1 7.48 1 0 1 C0 0.67 0 0.34 0 0 Z " fill="#E0A7EF" transform="translate(263,29)"></path>
<path d="M0 0 C0.77472656 0.00451172 1.54945312 0.00902344 2.34765625 0.01367188 C4.23180524 0.02530242 6.11591365 0.04323094 8 0.0625 C8 3.0325 8 6.0025 8 9.0625 C1.07 9.0625 -5.86 9.0625 -13 9.0625 C-13 8.0725 -13 7.0825 -13 6.0625 C-14.32 5.7325 -15.64 5.4025 -17 5.0625 C-17 3.7425 -17 2.4225 -17 1.0625 C-11.28094617 0.23713655 -5.7732851 -0.06503701 0 0 Z " fill="#C668F5" transform="translate(117,151.9375)"></path>
<path d="M0 0 C15.74487472 -0.18451025 15.74487472 -0.18451025 23 1 C23 3.64 23 6.28 23 9 C15.41 9 7.82 9 0 9 C0 6.03 0 3.06 0 0 Z " fill="#B263F8" transform="translate(137,186)"></path>
<path d="M0 0 C2.64 0 5.28 0 8 0 C8 7.92 8 15.84 8 24 C5.36 24 2.72 24 0 24 C0 16.08 0 8.16 0 0 Z " fill="#937DF0" transform="translate(223,229)"></path>
<path d="M0 0 C2.64 0 5.28 0 8 0 C8 7.92 8 15.84 8 24 C5.36 24 2.72 24 0 24 C0 16.08 0 8.16 0 0 Z " fill="#9981F0" transform="translate(160,229)"></path>
<path d="M0 0 C2.64 0 5.28 0 8 0 C8 7.92 8 15.84 8 24 C5.36 24 2.72 24 0 24 C0 16.08 0 8.16 0 0 Z " fill="#9C81F0" transform="translate(90,229)"></path>
<path d="M0 0 C9.9 0 19.8 0 30 0 C30 7.92 30 15.84 30 24 C27.69 24 25.38 24 23 24 C23 16.41 23 8.82 23 1 C15.41 1 7.82 1 0 1 C0 0.67 0 0.34 0 0 Z " fill="#D9A3EE" transform="translate(3,95)"></path>
<path d="M0 0 C2.64 0 5.28 0 8 0 C8 7.59 8 15.18 8 23 C5.36 23 2.72 23 0 23 C0 15.41 0 7.82 0 0 Z " fill="#C49AF3" transform="translate(99,196)"></path>
<path d="M0 0 C9.9 0 19.8 0 30 0 C30 7.59 30 15.18 30 23 C27.69 23 25.38 23 23 23 C23 15.74 23 8.48 23 1 C15.41 1 7.82 1 0 1 C0 0.67 0 0.34 0 0 Z " fill="#C496EE" transform="translate(3,162)"></path>
<path d="M0 0 C2.64 0 5.28 0 8 0 C8 7.59 8 15.18 8 23 C5.36 23 2.72 23 0 23 C0 15.41 0 7.82 0 0 Z " fill="#E1A8F5" transform="translate(99,129)"></path>
<path d="M0 0 C2.64 0 5.28 0 8 0 C8 7.59 8 15.18 8 23 C5.36 23 2.72 23 0 23 C0 15.41 0 7.82 0 0 Z " fill="#E1ABF5" transform="translate(160,96)"></path>
<path d="M0 0 C2.64 0 5.28 0 8 0 C8 7.26 8 14.52 8 22 C5.36 22 2.72 22 0 22 C0 14.74 0 7.48 0 0 Z " fill="#E8B1F4" transform="translate(191,63)"></path>
<path d="M0 0 C2.64 0 5.28 0 8 0 C8 7.26 8 14.52 8 22 C5.36 22 2.72 22 0 22 C0 14.74 0 7.48 0 0 Z " fill="#F4BBF4" transform="translate(99,63)"></path>
<path d="M0 0 C2.31 0 4.62 0 7 0 C7 7.92 7 15.84 7 24 C4.69 24 2.38 24 0 24 C0 16.08 0 8.16 0 0 Z " fill="#9980F0" transform="translate(26,229)"></path>
<path d="M0 0 C9.57 0 19.14 0 29 0 C29 7.92 29 15.84 29 24 C27.02 24 25.04 24 23 24 C23 16.41 23 8.82 23 1 C15.41 1 7.82 1 0 1 C0 0.67 0 0.34 0 0 Z " fill="#C393E5" transform="translate(263,95)"></path>
<path d="M0 0 C2.31 0 4.62 0 7 0 C7 5.61 7 11.22 7 17 C-2.9 17.33 -12.8 17.66 -23 18 C-23.33 18.66 -23.66 19.32 -24 20 C-24 18.68 -24 17.36 -24 16 C-16.97252688 15.33411422 -10.05985273 14.88233579 -3 15 C-1.08373163 10.01770224 -0.4452885 5.27315333 0 0 Z " fill="#FE30C1" transform="translate(58,1)"></path>
<path d="M0 0 C2.31 0 4.62 0 7 0 C7 7.59 7 15.18 7 23 C4.69 23 2.38 23 0 23 C0 15.41 0 7.82 0 0 Z " fill="#B089F2" transform="translate(192,196)"></path>
<path d="M0 0 C2.31 0 4.62 0 7 0 C7 7.59 7 15.18 7 23 C4.69 23 2.38 23 0 23 C0 15.41 0 7.82 0 0 Z " fill="#A680F1" transform="translate(255,196)"></path>
<path d="M0 0 C2.31 0 4.62 0 7 0 C7 7.59 7 15.18 7 23 C4.69 23 2.38 23 0 23 C0 15.41 0 7.82 0 0 Z " fill="#BB91F4" transform="translate(58,196)"></path>
<path d="M0 0 C2.31 0 4.62 0 7 0 C7 7.59 7 15.18 7 23 C4.69 23 2.38 23 0 23 C0 15.41 0 7.82 0 0 Z " fill="#D49EF5" transform="translate(192,129)"></path>
<path d="M0 0 C2.31 0 4.62 0 7 0 C7 7.59 7 15.18 7 23 C4.69 23 2.38 23 0 23 C0 15.41 0 7.82 0 0 Z " fill="#CE97F4" transform="translate(255,129)"></path>
<path d="M0 0 C2.31 0 4.62 0 7 0 C7 7.59 7 15.18 7 23 C4.69 23 2.38 23 0 23 C0 15.41 0 7.82 0 0 Z " fill="#D8A4F5" transform="translate(58,129)"></path>
<path d="M0 0 C2.31 0 4.62 0 7 0 C7 7.59 7 15.18 7 23 C4.69 23 2.38 23 0 23 C0 15.41 0 7.82 0 0 Z " fill="#DAA0F6" transform="translate(224,96)"></path>
<path d="M0 0 C10.56 0 21.12 0 32 0 C32 0.33 32 0.66 32 1 C21.77 1 11.54 1 1 1 C1 11.56 1 22.12 1 33 C8.92 33 16.84 33 25 33 C25 30.03 25 27.06 25 24 C27.31 24 29.62 24 32 24 C32 27.3 32 30.6 32 34 C21.44 34 10.88 34 0 34 C0 22.78 0 11.56 0 0 Z " fill="#AA5ED5" transform="translate(199,95)"></path>
<path d="M0 0 C2.31 0 4.62 0 7 0 C7 7.26 7 14.52 7 22 C4.69 22 2.38 22 0 22 C0 14.74 0 7.48 0 0 Z " fill="#E2A6F4" transform="translate(255,63)"></path>
<path d="M0 0 C2.31 0 4.62 0 7 0 C7 7.26 7 14.52 7 22 C4.69 22 2.38 22 0 22 C0 14.74 0 7.48 0 0 Z " fill="#ECB3F5" transform="translate(58,63)"></path>
<path d="M0 0 C1.98 0 3.96 0 6 0 C6 7.92 6 15.84 6 24 C4.02 24 2.04 24 0 24 C0 16.08 0 8.16 0 0 Z " fill="#7A6CEE" transform="translate(286,229)"></path>
<path d="M0 0 C0.33 0 0.66 0 1 0 C1 10.89 1 21.78 1 33 C-9.23 33 -19.46 33 -30 33 C-30 32.67 -30 32.34 -30 32 C-22.41 32 -14.82 32 -7 32 C-7 29.03 -7 26.06 -7 23 C-4.69 23 -2.38 23 0 23 C0 15.41 0 7.82 0 0 Z " fill="#9548D4" transform="translate(262,129)"></path>
<path d="M0 0 C0.33 0 0.66 0 1 0 C1 7.59 1 15.18 1 23 C3.64 23 6.28 23 9 23 C9 26.3 9 29.6 9 33 C6.03 33 3.06 33 0 33 C0 22.11 0 11.22 0 0 Z " fill="#8445DD" transform="translate(98,196)"></path>
<path d="M0 0 C0.33 0 0.66 0 1 0 C1 7.26 1 14.52 1 22 C3.64 22 6.28 22 9 22 C9 25.3 9 28.6 9 32 C6.03 32 3.06 32 0 32 C0 21.44 0 10.88 0 0 Z " fill="#CB5BE3" transform="translate(98,63)"></path>
<path d="M0 0 C3.63 0 7.26 0 11 0 C11 3.3 11 6.6 11 10 C7.37 10 3.74 10 0 10 C0 6.7 0 3.4 0 0 Z " fill="#D25AF3" transform="translate(125,85)"></path>
<path d="M0 0 C2.57161458 0.03255208 5.14322917 0.06510417 7.71484375 0.09765625 C7.71484375 3.39765625 7.71484375 6.69765625 7.71484375 10.09765625 C4.08484375 10.09765625 0.45484375 10.09765625 -3.28515625 10.09765625 C-3.3828125 3.1640625 -3.3828125 3.1640625 -3.28515625 1.09765625 C-2.28515625 0.09765625 -2.28515625 0.09765625 0 0 Z " fill="#8541EA" transform="translate(128.28515625,218.90234375)"></path>
<path d="M0 0 C2.64 0 5.28 0 8 0 C8 3.3 8 6.6 8 10 C-2.56 10 -13.12 10 -24 10 C-24 9.67 -24 9.34 -24 9 C-16.08 9 -8.16 9 0 9 C0 6.03 0 3.06 0 0 Z " fill="#BA53E8" transform="translate(90,119)"></path>
<path d="M0 0 C2.64 0 5.28 0 8 0 C8 3.3 8 6.6 8 10 C-2.23 10 -12.46 10 -23 10 C-23 9.67 -23 9.34 -23 9 C-15.41 9 -7.82 9 0 9 C0 6.03 0 3.06 0 0 Z " fill="#B750E9" transform="translate(160,119)"></path>
<path d="M0 0 C0.66 0.33 1.32 0.66 2 1 C2 7.6 2 14.2 2 21 C-8.23 21 -18.46 21 -29 21 C-29 20.67 -29 20.34 -29 20 C-20.09 20 -11.18 20 -2 20 C-2 17.03 -2 14.06 -2 11 C-1.88881348 9.16423966 -1.75065793 7.32947399 -1.5625 5.5 C-1.48128906 4.6646875 -1.40007812 3.829375 -1.31640625 2.96875 C-1 1 -1 1 0 0 Z " fill="#5D007A" transform="translate(229,8)"></path>
<path d="M0 0 C0.33 0 0.66 0 1 0 C1 7.59 1 15.18 1 23 C3.97 23 6.94 23 10 23 C10 23.33 10 23.66 10 24 C7.36 24 4.72 24 2 24 C2 25.32 2 26.64 2 28 C3.65 28 5.3 28 7 28 C6.67 29.32 6.34 30.64 6 32 C13.26 32 20.52 32 28 32 C28 32.33 28 32.66 28 33 C18.76 33 9.52 33 0 33 C0 22.11 0 11.22 0 0 Z " fill="#AC53DA" transform="translate(98,129)"></path>
<path d="M0 0 C2.31 0 4.62 0 7 0 C7 3.3 7 6.6 7 10 C-3.23 10 -13.46 10 -24 10 C-24 9.67 -24 9.34 -24 9 C-16.08 9 -8.16 9 0 9 C0 6.03 0 3.06 0 0 Z " fill="#B350ED" transform="translate(58,152)"></path>
<path d="M0 0 C2.31 0 4.62 0 7 0 C7 3.3 7 6.6 7 10 C-2.9 10 -12.8 10 -23 10 C-23 9.67 -23 9.34 -23 9 C-15.41 9 -7.82 9 0 9 C0 6.03 0 3.06 0 0 Z " fill="#B952E9" transform="translate(26,119)"></path>
<path d="M0 0 C7.59 0 15.18 0 23 0 C23 2.31 23 4.62 23 7 C22.01 7.495 22.01 7.495 21 8 C21 6.68 21 5.36 21 4 C20.05898438 4.01160156 19.11796875 4.02320313 18.1484375 4.03515625 C16.90320313 4.04417969 15.65796875 4.05320313 14.375 4.0625 C13.14523438 4.07410156 11.91546875 4.08570313 10.6484375 4.09765625 C7.32276209 4.00863924 4.25952412 3.63686087 1 3 C0.67 3.66 0.34 4.32 0 5 C0 3.35 0 1.7 0 0 Z " fill="#EFE1FA" transform="translate(34,196)"></path>
<path d="M0 0 C1.98 0 3.96 0 6 0 C6 3.3 6 6.6 6 10 C-3.57 10 -13.14 10 -23 10 C-23 9.67 -23 9.34 -23 9 C-15.41 9 -7.82 9 0 9 C0 6.03 0 3.06 0 0 Z " fill="#A642E4" transform="translate(286,119)"></path>
<path d="M0 0 C1.98 0 3.96 0 6 0 C6 3.63 6 7.26 6 11 C-0.625 11.25 -0.625 11.25 -4 9 C-3.34 8.01 -2.68 7.02 -2 6 C-1.29835358 4.01200182 -0.62627128 2.01301483 0 0 Z " fill="#FE00C2" transform="translate(59,18)"></path>
<path d="M0 0 C2.64 0 5.28 0 8 0 C8 3.3 8 6.6 8 10 C5.36 10 2.72 10 0 10 C0 6.7 0 3.4 0 0 Z " fill="#6040E5" transform="translate(160,253)"></path>
<path d="M0 0 C2.64 0 5.28 0 8 0 C8 3.3 8 6.6 8 10 C5.36 10 2.72 10 0 10 C0 6.7 0 3.4 0 0 Z " fill="#CB58F2" transform="translate(191,85)"></path>
<path d="M0 0 C0.33 0 0.66 0 1 0 C1 7.26 1 14.52 1 22 C0.67 22 0.34 22 0 22 C-0.33 19.36 -0.66 16.72 -1 14 C-1.66 14 -2.32 14 -3 14 C-3.66 14.66 -4.32 15.32 -5 16 C-5 12.04 -5 8.08 -5 4 C-4.34 4 -3.68 4 -3 4 C-3 3.34 -3 2.68 -3 2 C-2.34 2 -1.68 2 -1 2 C-0.67 1.34 -0.34 0.68 0 0 Z " fill="#F7B6F8" transform="translate(32,30)"></path>
<path d="M0 0 C12.21 0 24.42 0 37 0 C37 0.33 37 0.66 37 1 C36.01604248 1.02505615 35.03208496 1.0501123 34.01831055 1.07592773 C30.36729943 1.1701082 26.71647384 1.2703029 23.06567383 1.37231445 C21.48563985 1.41562305 19.90556031 1.45730106 18.32543945 1.49731445 C16.05405952 1.55511583 13.78290811 1.6187816 11.51171875 1.68359375 C10.80536789 1.70030624 10.09901703 1.71701874 9.3712616 1.73423767 C6.3335176 1.8259747 3.90376942 2.03207686 1 3 C1 12.9 1 22.8 1 33 C0.67 33 0.34 33 0 33 C0 22.11 0 11.22 0 0 Z " fill="#7C038D" transform="translate(98,29)"></path>
<path d="M0 0 C0 3.3 0 6.6 0 10 C-2.64 10 -5.28 10 -8 10 C-8 7.03 -8 4.06 -8 1 C-1.125 0 -1.125 0 0 0 Z " fill="#6140E4" transform="translate(98,253)"></path>
<path d="M0 0 C2.64 0 5.28 0 8 0 C8 2.97 8 5.94 8 9 C5.36 9 2.72 9 0 9 C0 6.03 0 3.06 0 0 Z " fill="#A445ED" transform="translate(90,186)"></path>
<path d="M0 0 C2.64 0 5.28 0 8 0 C8 2.97 8 5.94 8 9 C5.36 9 2.72 9 0 9 C0 6.03 0 3.06 0 0 Z " fill="#D45AF1" transform="translate(223,53)"></path>
<path d="M0 0 C2.64 0 5.28 0 8 0 C8 2.97 8 5.94 8 9 C5.36 9 2.72 9 0 9 C0 6.03 0 3.06 0 0 Z " fill="#D95DF2" transform="translate(160,53)"></path>
<path d="M0 0 C2.64 0 5.28 0 8 0 C8 2.97 8 5.94 8 9 C5.36 9 2.72 9 0 9 C0 6.03 0 3.06 0 0 Z " fill="#DE65F2" transform="translate(90,53)"></path>
<path d="M0 0 C2.31 0 4.62 0 7 0 C7 3.3 7 6.6 7 10 C4.69 10 2.38 10 0 10 C0 6.7 0 3.4 0 0 Z " fill="#5E41E6" transform="translate(26,253)"></path>
<path d="M0 0 C2.31 0 4.62 0 7 0 C7 3.3 7 6.6 7 10 C4.69 10 2.38 10 0 10 C0 6.7 0 3.4 0 0 Z " fill="#7739E7" transform="translate(255,219)"></path>
<path d="M0 0 C2.31 0 4.62 0 7 0 C7 3.3 7 6.6 7 10 C4.69 10 2.38 10 0 10 C0 6.7 0 3.4 0 0 Z " fill="#843FEE" transform="translate(58,219)"></path>
<path d="M0 0 C2.31 0 4.62 0 7 0 C7 3.3 7 6.6 7 10 C4.69 10 2.38 10 0 10 C0 6.7 0 3.4 0 0 Z " fill="#823DEB" transform="translate(192,219)"></path>
<path d="M0 0 C0.33 0 0.66 0 1 0 C1 7.59 1 15.18 1 23 C-6.92 23 -14.84 23 -23 23 C-22.67 22.34 -22.34 21.68 -22 21 C-19.0837882 20.77798387 -16.16792256 20.57191502 -13.25 20.375 C-12.425 20.31054688 -11.6 20.24609375 -10.75 20.1796875 C-9.95078125 20.128125 -9.1515625 20.0765625 -8.328125 20.0234375 C-7.5949707 19.97106934 -6.86181641 19.91870117 -6.10644531 19.86474609 C-4 20 -4 20 0 22 C0 14.74 0 7.48 0 0 Z " fill="#DDCDF9" transform="translate(57,196)"></path>
<path d="M0 0 C2.31 0 4.62 0 7 0 C7 3.3 7 6.6 7 10 C4.69 10 2.38 10 0 10 C0 6.7 0 3.4 0 0 Z " fill="#A049F0" transform="translate(26,185)"></path>
<path d="M0 0 C2.31 0 4.62 0 7 0 C7 3.3 7 6.6 7 10 C4.69 10 2.38 10 0 10 C0 6.7 0 3.4 0 0 Z " fill="#AF45EE" transform="translate(192,152)"></path>
<path d="M0 0 C2.31 0 4.62 0 7 0 C7 3.3 7 6.6 7 10 C4.69 10 2.38 10 0 10 C0 6.7 0 3.4 0 0 Z " fill="#D05FF4" transform="translate(58,85)"></path>
<path d="M0 0 C2.31 0 4.62 0 7 0 C7 3.3 7 6.6 7 10 C4.69 10 2.38 10 0 10 C0 6.7 0 3.4 0 0 Z " fill="#C34CF3" transform="translate(255,85)"></path>
<path d="M0 0 C9.9 0 19.8 0 30 0 C29.67 1.65 29.34 3.3 29 5 C28.67 4.34 28.34 3.68 28 3 C27.34 3 26.68 3 26 3 C26 3.66 26 4.32 26 5 C25.34 5 24.68 5 24 5 C24 10.94 24 16.88 24 23 C23.67 23 23.34 23 23 23 C23 15.74 23 8.48 23 1 C15.41 1 7.82 1 0 1 C0 0.67 0 0.34 0 0 Z " fill="#E8BBE7" transform="translate(3,29)"></path>
<path d="M0 0 C10.56 0 21.12 0 32 0 C32 0.33 32 0.66 32 1 C31.12674072 1.02505615 30.25348145 1.0501123 29.35375977 1.07592773 C26.12397448 1.17087709 22.89435846 1.27012029 19.66479492 1.37231445 C18.26510801 1.41571434 16.86536641 1.45738564 15.46557617 1.49731445 C13.45738505 1.55489445 11.44938851 1.61914 9.44140625 1.68359375 C8.23170166 1.72025146 7.02199707 1.75690918 5.77563477 1.79467773 C3.09294544 1.68938266 3.09294544 1.68938266 2 3 C1.84126045 5.21687994 1.74866163 7.43855298 1.68359375 9.66015625 C1.66281265 10.32462265 1.64203156 10.98908905 1.62062073 11.6736908 C1.55506342 13.80318543 1.49621215 15.93280668 1.4375 18.0625 C1.39432061 19.50326847 1.35070651 20.94402399 1.30664062 22.38476562 C1.19937607 25.9230404 1.09812629 29.46145869 1 33 C0.67 33 0.34 33 0 33 C0 22.11 0 11.22 0 0 Z " fill="#2C0772" transform="translate(199,196)"></path>
<path d="M0 0 C0 4.29 0 8.58 0 13 C-1.98 13 -3.96 13 -6 13 C-6.0270043 11.54176788 -6.04639787 10.08339325 -6.0625 8.625 C-6.07410156 7.81289062 -6.08570313 7.00078125 -6.09765625 6.1640625 C-6 4 -6 4 -5 2 C-1.44444444 0 -1.44444444 0 0 0 Z " fill="#CA92F5" transform="translate(292,106)"></path>
<path d="M0 0 C0.33 0 0.66 0 1 0 C1 7.59 1 15.18 1 23 C-6.59 23 -14.18 23 -22 23 C-19 20 -19 20 -16.7734375 19.671875 C-15.98195312 19.69765625 -15.19046875 19.7234375 -14.375 19.75 C-13.18003906 19.77320313 -13.18003906 19.77320313 -11.9609375 19.796875 C-10 20 -10 20 -9 21 C-6.03 21.33 -3.06 21.66 0 22 C0 14.74 0 7.48 0 0 Z " fill="#D7C8F8" transform="translate(254,196)"></path>
<path d="M0 0 C2.31 0 4.62 0 7 0 C7 2.97 7 5.94 7 9 C4.69 9 2.38 9 0 9 C0 6.03 0 3.06 0 0 Z " fill="#593CE0" transform="translate(224,254)"></path>
<path d="M0 0 C2.31 0 4.62 0 7 0 C7 2.97 7 5.94 7 9 C4.69 9 2.38 9 0 9 C0 6.03 0 3.06 0 0 Z " fill="#9940ED" transform="translate(224,186)"></path>
<path d="M0 0 C2.31 0 4.62 0 7 0 C7 2.97 7 5.94 7 9 C4.69 9 2.38 9 0 9 C0 6.03 0 3.06 0 0 Z " fill="#9C43F1" transform="translate(161,186)"></path>
<path d="M0 0 C2.31 0 4.62 0 7 0 C7 2.97 7 5.94 7 9 C4.69 9 2.38 9 0 9 C0 6.03 0 3.06 0 0 Z " fill="#DC63F3" transform="translate(26,53)"></path>
<path d="M0 0 C1.98 0 3.96 0 6 0 C6 3.3 6 6.6 6 10 C4.02 10 2.04 10 0 10 C0 6.7 0 3.4 0 0 Z " fill="#4635DF" transform="translate(286,253)"></path>
<path d="M0 0 C0.33 0 0.66 0 1 0 C1 7.59 1 15.18 1 23 C-5.27 23 -11.54 23 -18 23 C-14.39338934 21.19669467 -11.91606575 20.53400897 -8 20 C-8 20.66 -8 21.32 -8 22 C-6.02 21.67 -4.04 21.34 -2 21 C-1.24722485 18.26750659 -0.83358297 15.71899317 -0.68359375 12.890625 C-0.64169922 12.13652344 -0.59980469 11.38242188 -0.55664062 10.60546875 C-0.51732422 9.82816406 -0.47800781 9.05085937 -0.4375 8.25 C-0.39431641 7.45722656 -0.35113281 6.66445312 -0.30664062 5.84765625 C-0.20097009 3.89862185 -0.10002034 1.94933252 0 0 Z " fill="#D5C4F5" transform="translate(191,196)"></path>
<path d="M0 0 C7.26 0 14.52 0 22 0 C22 0.33 22 0.66 22 1 C17.12929813 2.88989379 12.77608662 3.4014447 7.625 3.625 C6.52091797 3.68300781 6.52091797 3.68300781 5.39453125 3.7421875 C3.59672594 3.83557998 1.79839892 3.9188371 0 4 C0 2.68 0 1.36 0 0 Z " fill="#EADFFB" transform="translate(232,196)"></path>
<path d="M0 0 C1.98 0 3.96 0 6 0 C6 2.97 6 5.94 6 9 C4.02 9 2.04 9 0 9 C0 6.03 0 3.06 0 0 Z " fill="#8938EA" transform="translate(286,186)"></path>
<path d="M0 0 C1.98 0 3.96 0 6 0 C6 2.97 6 5.94 6 9 C4.02 9 2.04 9 0 9 C0 6.03 0 3.06 0 0 Z " fill="#C03DEE" transform="translate(286,53)"></path>
<path d="M0 0 C10.23 0 20.46 0 31 0 C31 0.33 31 0.66 31 1 C25.72 1 20.44 1 15 1 C15 1.99 15 2.98 15 4 C12.125 4.125 12.125 4.125 9 4 C8.34 3.34 7.68 2.68 7 2 C3.91652174 1.83318891 3.91652174 1.83318891 1 2 C0.67 1.34 0.34 0.68 0 0 Z " fill="#7B008A" transform="translate(168,29)"></path>
<path d="M0 0 C0.66 1.32 1.32 2.64 2 4 C3.25296875 4.04898438 4.5059375 4.09796875 5.796875 4.1484375 C7.44793821 4.22348583 9.09897881 4.29903277 10.75 4.375 C11.9875 4.42140625 11.9875 4.42140625 13.25 4.46875 C14.04921875 4.50742188 14.8484375 4.54609375 15.671875 4.5859375 C16.4050293 4.6173584 17.13818359 4.6487793 17.89355469 4.68115234 C20 5 20 5 24 7 C16.08 7 8.16 7 0 7 C0 4.69 0 2.38 0 0 Z " fill="#28005F" transform="translate(200,155)"></path>
<path d="M0 0 C2.31 0 4.62 0 7 0 C5.68 2.97 4.36 5.94 3 9 C2.01 9 1.02 9 0 9 C0 6.03 0 3.06 0 0 Z " fill="#A840ED" transform="translate(255,152)"></path>
<path d="M0 0 C2.31 0 4.62 0 7 0 C7 2.64 7 5.28 7 8 C6.01 8 5.02 8 4 8 C4 7.01 4 6.02 4 5 C2.68 4.67 1.36 4.34 0 4 C0 2.68 0 1.36 0 0 Z " fill="#BB44F1" transform="translate(100,153)"></path>
<path d="M0 0 C4.29 0 8.58 0 13 0 C12.01 1.485 12.01 1.485 11 3 C7.9609375 3.29296875 7.9609375 3.29296875 4.375 3.1875 C3.18648437 3.16042969 1.99796875 3.13335937 0.7734375 3.10546875 C-0.14179688 3.07066406 -1.05703125 3.03585938 -2 3 C-1.34 2.67 -0.68 2.34 0 2 C0 1.34 0 0.68 0 0 Z " fill="#4F0077" transform="translate(171,59)"></path>
<path d="M0 0 C0.33 0 0.66 0 1 0 C1.33 2.64 1.66 5.28 2 8 C3.65 8 5.3 8 7 8 C7 9.32 7 10.64 7 12 C4.69 12 2.38 12 0 12 C0 8.04 0 4.08 0 0 Z " fill="#AD88ED" transform="translate(58,207)"></path>
<path d="M0 0 C3.63 0 7.26 0 11 0 C11.33 0.99 11.66 1.98 12 3 C8.04 3 4.08 3 0 3 C0 2.01 0 1.02 0 0 Z " fill="#55007C" transform="translate(34,59)"></path>
<path d="M0 0 C0 1.65 0 3.3 0 5 C-3.3 5 -6.6 5 -10 5 C-9.67 4.01 -9.34 3.02 -9 2 C-7.1875 1.26953125 -7.1875 1.26953125 -5 0.8125 C-4.278125 0.65394531 -3.55625 0.49539062 -2.8125 0.33203125 C-1 0 -1 0 0 0 Z " fill="#B288F5" transform="translate(136,214)"></path>
<path d="M0 0 C9.57 0 19.14 0 29 0 C29 0.33 29 0.66 29 1 C27.39602723 1.16852247 25.7918131 1.33474886 24.1875 1.5 C23.29417969 1.5928125 22.40085937 1.685625 21.48046875 1.78125 C14.39038225 2.40651747 7.12153839 2 0 2 C0 1.34 0 0.68 0 0 Z " fill="#28006A" transform="translate(3,196)"></path>
<path d="M0 0 C0.33 0 0.66 0 1 0 C1 2.97 1 5.94 1 9 C-1.64 9 -4.28 9 -7 9 C-6.67 7.02 -6.34 5.04 -6 3 C-4.35 3.99 -2.7 4.98 -1 6 C-0.67 4.02 -0.34 2.04 0 0 Z " fill="#D79DF2" transform="translate(167,110)"></path>
<path d="M0 0 C1.65 0 3.3 0 5 0 C5.33 1.32 5.66 2.64 6 4 C3.525 3.01 3.525 3.01 1 2 C1 6.62 1 11.24 1 16 C0.67 16 0.34 16 0 16 C0 10.72 0 5.44 0 0 Z " fill="#FF14BF" transform="translate(191,1)"></path>
<path d="M0 0 C2.31 0 4.62 0 7 0 C6.38125 0.37125 5.7625 0.7425 5.125 1.125 C2.4489404 3.48622906 1.9063156 5.60131652 1 9 C2.98 9 4.96 9 7 9 C7 9.33 7 9.66 7 10 C4.69 10 2.38 10 0 10 C0 6.7 0 3.4 0 0 Z " fill="#C256ED" transform="translate(255,85)"></path>
<path d="M0 0 C2.31 0 4.62 0 7 0 C6.67 1.32 6.34 2.64 6 4 C6 3.01 6 2.02 6 1 C2.7457985 3.83430453 1.4793247 5.68607774 1 10 C0.67 10 0.34 10 0 10 C0 6.7 0 3.4 0 0 Z " fill="#B18CF0" transform="translate(255,196)"></path>
<path d="M0 0 C0.33 0 0.66 0 1 0 C1 3.3 1 6.6 1 10 C-0.32 9.67 -1.64 9.34 -3 9 C-2.01 6.03 -1.02 3.06 0 0 Z " fill="#04116E" transform="translate(262,253)"></path>
<path d="M0 0 C2.64 0.33 5.28 0.66 8 1 C8 1.66 8 2.32 8 3 C6.02 3 4.04 3 2 3 C1.67 4.65 1.34 6.3 1 8 C0.67 8 0.34 8 0 8 C0 5.36 0 2.72 0 0 Z " fill="#BB4AF4" transform="translate(125,153)"></path>
<path d="M0 0 C3.3 0 6.6 0 10 0 C6.55549263 2.29633824 4.06187717 2.54016485 0 3 C0 2.01 0 1.02 0 0 Z " fill="#FF20C0" transform="translate(108,18)"></path>
<path d="M0 0 C2.31 0 4.62 0 7 0 C7 0.99 7 1.98 7 3 C5.02 3 3.04 3 1 3 C0.67 2.01 0.34 1.02 0 0 Z " fill="#6A0085" transform="translate(176,30)"></path>
</svg>
