<?xml version="1.0" encoding="UTF-8"?>
<svg version="1.1" xmlns="http://www.w3.org/2000/svg" width="437" height="428">
<path d="M0 0 C144.21 0 288.42 0 437 0 C437 141.24 437 282.48 437 428 C292.79 428 148.58 428 0 428 C0 286.76 0 145.52 0 0 Z " fill="#433598" transform="translate(0,0)"></path>
<path d="M0 0 C115.5 0 231 0 350 0 C350 27.72 350 55.44 350 84 C336.47 84 322.94 84 309 84 C309 69.15 309 54.3 309 39 C295.14 39 281.28 39 267 39 C267 53.85 267 68.7 267 84 C253.14 84.33 239.28 84.66 225 85 C224.67 99.19 224.34 113.38 224 128 C209.81 128 195.62 128 181 128 C181 142.85 181 157.7 181 173 C167.14 173 153.28 173 139 173 C138.67 158.48 138.34 143.96 138 129 C124.14 128.67 110.28 128.34 96 128 C96 142.85 96 157.7 96 173 C78.84 173 61.68 173 44 173 C44 158.15 44 143.3 44 128 C29.48 128 14.96 128 0 128 C0 142.85 0 157.7 0 173 C-14.52 173 -29.04 173 -44 173 C-44 158.15 -44 143.3 -44 128 C-29.81 128 -15.62 128 -1 128 C-1 113.48 -1 98.96 -1 84 C-15.19 84 -29.38 84 -44 84 C-43.67 69.15 -43.34 54.3 -43 39 C-29.14 38.67 -15.28 38.34 -1 38 C-0.67 25.46 -0.34 12.92 0 0 Z " fill="#5E0281" transform="translate(87,0)"></path>
<path d="M0 0 C14.52 0 29.04 0 44 0 C44 14.85 44 29.7 44 45 C69.245 44.505 69.245 44.505 95 44 C95.33 29.48 95.66 14.96 96 0 C110.19 0 124.38 0 139 0 C139 14.85 139 29.7 139 45 C124.81 45 110.62 45 96 45 C96 59.85 96 74.7 96 90 C110.19 90 124.38 90 139 90 C139 105.18 139 120.36 139 136 C152.86 136 166.72 136 181 136 C181 151.18 181 166.36 181 182 C167.14 182 153.28 182 139 182 C139 194.87 139 207.74 139 221 C124.81 221 110.62 221 96 221 C96 208.13 96 195.26 96 182 C78.84 182 61.68 182 44 182 C44 194.87 44 207.74 44 221 C29.48 221 14.96 221 0 221 C0 231.89 0 242.78 0 254 C-14.52 254 -29.04 254 -44 254 C-44 243.11 -44 232.22 -44 221 C-57.86 221 -71.72 221 -86 221 C-86 208.13 -86 195.26 -86 182 C-72.14 182 -58.28 182 -44 182 C-44 166.82 -44 151.64 -44 136 C-29.81 136 -15.62 136 -1 136 C-1 120.82 -1 105.64 -1 90 C-15.19 90 -29.38 90 -44 90 C-44 75.15 -44 60.3 -44 45 C-29.81 44.67 -15.62 44.34 -1 44 C-0.67 29.48 -0.34 14.96 0 0 Z " fill="#34006B" transform="translate(87,174)"></path>
<path d="M0 0 C28.71 0 57.42 0 87 0 C87 12.54 87 25.08 87 38 C86 39 86 39 82.03100586 39.11352539 C80.25894395 39.11327421 78.48687716 39.10770978 76.71484375 39.09765625 C75.8902063 39.09664917 75.06556885 39.09564209 74.21594238 39.09460449 C71.12311419 39.08935592 68.03030576 39.07539477 64.9375 39.0625 C58.028125 39.041875 51.11875 39.02125 44 39 C44 53.52 44 68.04 44 83 C57.86 83.33 71.72 83.66 86 84 C86 98.52 86 113.04 86 128 C71.81 128 57.62 128 43 128 C43 142.85 43 157.7 43 173 C57.52 173 72.04 173 87 173 C87 158.15 87 143.3 87 128 C101.52 128 116.04 128 131 128 C131 142.85 131 157.7 131 173 C148.16 173 165.32 173 183 173 C183 158.15 183 143.3 183 128 C189.909375 127.979375 196.81875 127.95875 203.9375 127.9375 C207.21288696 127.92384399 207.21288696 127.92384399 210.55444336 127.90991211 C212.2745762 127.90699302 213.99470972 127.90444445 215.71484375 127.90234375 C216.61658325 127.89722778 217.51832275 127.89211182 218.4473877 127.88684082 C220.63191745 127.88653118 222.8163633 127.9375413 225 128 C226 129 226 129 226.12025452 130.79066467 C226.11803391 131.57009933 226.11581329 132.349534 226.11352539 133.15258789 C226.11344986 134.03342545 226.11337433 134.914263 226.11329651 135.8217926 C226.10813522 136.77907761 226.10297394 137.73636261 226.09765625 138.72265625 C226.09553383 140.18547279 226.09553383 140.18547279 226.09336853 141.67784119 C226.08775133 144.80609143 226.07519593 147.93427123 226.0625 151.0625 C226.05748722 153.17773334 226.05292393 155.29296781 226.04882812 157.40820312 C226.03862531 162.60551801 226.01905331 167.80267975 226 173 C239.86 173 253.72 173 268 173 C268 158.15 268 143.3 268 128 C282.19 128 296.38 128 311 128 C311 143.18 311 158.36 311 174 C296.81 174 282.62 174 268 174 C268 188.85 268 203.7 268 219 C254.14 219 240.28 219 226 219 C226 204.15 226 189.3 226 174 C211.81 174 197.62 174 183 174 C183.01160156 177.16464844 183.02320313 180.32929688 183.03515625 183.58984375 C183.04294594 186.64119364 183.0490232 189.69254244 183.05493164 192.74389648 C183.05997298 194.87118014 183.06680591 196.99846031 183.07543945 199.12573242 C183.08751379 202.17627826 183.09323014 205.22677845 183.09765625 208.27734375 C183.10539818 209.71327126 183.10539818 209.71327126 183.11329651 211.1782074 C183.11337204 212.05904495 183.11344757 212.93988251 183.11352539 213.84741211 C183.115746 214.62684677 183.11796661 215.40628143 183.12025452 216.20933533 C183 218 183 218 182 219 C180.40389018 219.09333705 178.80366572 219.11745372 177.20483398 219.11352539 C176.18385117 219.11344986 175.16286835 219.11337433 174.11094666 219.11329651 C173.0005452 219.10813522 171.89014374 219.10297394 170.74609375 219.09765625 C169.61551041 219.0962413 168.48492706 219.09482635 167.32008362 219.09336853 C163.69252935 219.08775019 160.06503576 219.07519458 156.4375 219.0625 C153.98502693 219.05748736 151.5325529 219.05292405 149.08007812 219.04882812 C143.05334296 219.0386237 137.02673978 219.01905186 131 219 C131 204.15 131 189.3 131 174 C116.48 174 101.96 174 87 174 C87.03960662 188.43544337 87.03960662 188.43544337 87.09008789 202.87084961 C87.09300695 204.67301372 87.09555553 206.4751785 87.09765625 208.27734375 C87.10277222 209.22226685 87.10788818 210.16718994 87.11315918 211.14074707 C87.11334045 212.48054626 87.11334045 212.48054626 87.11352539 213.84741211 C87.115746 214.62684677 87.11796661 215.40628143 87.12025452 216.20933533 C87 218 87 218 86 219 C84.64905018 219.09268999 83.29332909 219.11747326 81.93920898 219.11352539 C81.06631226 219.11340454 80.19341553 219.11328369 79.29406738 219.11315918 C78.37073608 219.10804321 77.44740479 219.10292725 76.49609375 219.09765625 C75.6517981 219.09664917 74.80750244 219.09564209 73.93762207 219.09460449 C70.77090098 219.0893557 67.60419919 219.07539456 64.4375 219.0625 C57.363125 219.041875 50.28875 219.02125 43 219 C43 233.85 43 248.7 43 264 C57.19 264 71.38 264 86 264 C86 279.18 86 294.36 86 310 C71.81 310 57.62 310 43 310 C43 325.18 43 340.36 43 356 C29.14 356 15.28 356 1 356 C1 368.87 1 381.74 1 395 C14.86 395 28.72 395 43 395 C43 405.89 43 416.78 43 428 C28.81 428 14.62 428 0 428 C0 286.76 0 145.52 0 0 Z " fill="#800593" transform="translate(0,0)"></path>
<path d="M0 0 C13.86 0 27.72 0 42 0 C42 14.85 42 29.7 42 45 C56.52 45 71.04 45 86 45 C86 30.15 86 15.3 86 0 C100.52 0 115.04 0 130 0 C130 14.85 130 29.7 130 45 C147.16 45 164.32 45 182 45 C182 30.15 182 15.3 182 0 C188.909375 -0.020625 195.81875 -0.04125 202.9375 -0.0625 C206.21288696 -0.07615601 206.21288696 -0.07615601 209.55444336 -0.09008789 C211.2745762 -0.09300698 212.99470972 -0.09555555 214.71484375 -0.09765625 C215.61658325 -0.10277222 216.51832275 -0.10788818 217.4473877 -0.11315918 C219.63191745 -0.11346882 221.8163633 -0.0624587 224 0 C225 1 225 1 225.12025452 2.79066467 C225.11803391 3.57009933 225.11581329 4.349534 225.11352539 5.15258789 C225.11344986 6.03342545 225.11337433 6.914263 225.11329651 7.8217926 C225.10813522 8.77907761 225.10297394 9.73636261 225.09765625 10.72265625 C225.09553383 12.18547279 225.09553383 12.18547279 225.09336853 13.67784119 C225.08775133 16.80609143 225.07519593 19.93427123 225.0625 23.0625 C225.05748722 25.17773334 225.05292393 27.29296781 225.04882812 29.40820312 C225.03862531 34.60551801 225.01905331 39.80267975 225 45 C238.86 45 252.72 45 267 45 C267 30.15 267 15.3 267 0 C281.19 0 295.38 0 310 0 C310 15.18 310 30.36 310 46 C295.81 46 281.62 46 267 46 C267 60.85 267 75.7 267 91 C253.14 91 239.28 91 225 91 C225 76.15 225 61.3 225 46 C210.81 46 196.62 46 182 46 C182.01160156 49.16464844 182.02320313 52.32929688 182.03515625 55.58984375 C182.04294594 58.64119364 182.0490232 61.69254244 182.05493164 64.74389648 C182.05997298 66.87118014 182.06680591 68.99846031 182.07543945 71.12573242 C182.08751379 74.17627826 182.09323014 77.22677845 182.09765625 80.27734375 C182.10281754 81.23462875 182.10797882 82.19191376 182.11329651 83.1782074 C182.11337204 84.05904495 182.11344757 84.93988251 182.11352539 85.84741211 C182.115746 86.62684677 182.11796661 87.40628143 182.12025452 88.20933533 C182 90 182 90 181 91 C179.40389018 91.09333705 177.80366572 91.11745372 176.20483398 91.11352539 C175.18385117 91.11344986 174.16286835 91.11337433 173.11094666 91.11329651 C172.0005452 91.10813522 170.89014374 91.10297394 169.74609375 91.09765625 C168.61551041 91.0962413 167.48492706 91.09482635 166.32008362 91.09336853 C162.69252935 91.08775019 159.06503576 91.07519458 155.4375 91.0625 C152.98502693 91.05748736 150.5325529 91.05292405 148.08007812 91.04882812 C142.05334296 91.0386237 136.02673978 91.01905186 130 91 C130 76.15 130 61.3 130 46 C115.48 46 100.96 46 86 46 C86.03960662 60.43544337 86.03960662 60.43544337 86.09008789 74.87084961 C86.09300695 76.67301372 86.09555553 78.4751785 86.09765625 80.27734375 C86.10277222 81.22226685 86.10788818 82.16718994 86.11315918 83.14074707 C86.11334045 84.48054626 86.11334045 84.48054626 86.11352539 85.84741211 C86.115746 86.62684677 86.11796661 87.40628143 86.12025452 88.20933533 C86 90 86 90 85 91 C83.64905018 91.09268999 82.29332909 91.11747326 80.93920898 91.11352539 C80.06631226 91.11340454 79.19341553 91.11328369 78.29406738 91.11315918 C77.37073608 91.10804321 76.44740479 91.10292725 75.49609375 91.09765625 C74.6517981 91.09664917 73.80750244 91.09564209 72.93762207 91.09460449 C69.77090098 91.0893557 66.60419919 91.07539456 63.4375 91.0625 C56.363125 91.041875 49.28875 91.02125 42 91 C42 76.15 42 61.3 42 46 C28.14 46 14.28 46 0 46 C0 30.82 0 15.64 0 0 Z " fill="#8F52BA" transform="translate(1,128)"></path>
<path d="M0 0 C13.53 0 27.06 0 41 0 C41 44.88 41 89.76 41 136 C27.47 136 13.94 136 0 136 C0 150.52 0 165.04 0 180 C-13.86 180 -27.72 180 -42 180 C-42 165.15 -42 150.3 -42 135 C-55.86 135 -69.72 135 -84 135 C-84 120.15 -84 105.3 -84 90 C-70.14 90 -56.28 90 -42 90 C-42 75.15 -42 60.3 -42 45 C-28.14 45 -14.28 45 0 45 C0 30.15 0 15.3 0 0 Z " fill="#B88CF0" transform="translate(396,129)"></path>
<path d="M0 0 C17.16 0 34.32 0 52 0 C52 12.87 52 25.74 52 39 C66.19 39 80.38 39 95 39 C95 26.13 95 13.26 95 0 C123.05 0 151.1 0 180 0 C180 23.76 180 47.52 180 72 C106.08 72 32.16 72 -44 72 C-44 61.11 -44 50.22 -44 39 C-29.48 39 -14.96 39 0 39 C0 26.13 0 13.26 0 0 Z " fill="#9079E7" transform="translate(131,356)"></path>
<path d="M0 0 C73.59 0 147.18 0 223 0 C223 12.54 223 25.08 223 38 C222 39 222 39 218.12280273 39.11352539 C216.39305833 39.11336621 214.66330919 39.10766849 212.93359375 39.09765625 C212.02497086 39.0962413 211.11634796 39.09482635 210.18019104 39.09336853 C207.26592779 39.08775193 204.35174019 39.07519665 201.4375 39.0625 C199.46679798 39.05748714 197.49609476 39.05292386 195.52539062 39.04882812 C190.68356441 39.03777711 185.84179505 39.02050138 181 39 C181.00222061 39.54901474 181.00444122 40.09802948 181.00672913 40.66368103 C181.02878358 46.35707959 181.04390726 52.0504661 181.05493164 57.74389648 C181.05997298 59.87118014 181.06680591 61.99846031 181.07543945 64.12573242 C181.08751379 67.17627826 181.09323014 70.22677845 181.09765625 73.27734375 C181.10281754 74.23462875 181.10797882 75.19191376 181.11329651 76.1782074 C181.11337204 77.05904495 181.11344757 77.93988251 181.11352539 78.84741211 C181.115746 79.62684677 181.11796661 80.40628143 181.12025452 81.20933533 C181 83 181 83 180 84 C178.64905018 84.09268999 177.29332909 84.11747326 175.93920898 84.11352539 C175.06631226 84.11340454 174.19341553 84.11328369 173.29406738 84.11315918 C172.37073608 84.10804321 171.44740479 84.10292725 170.49609375 84.09765625 C169.6517981 84.09664917 168.80750244 84.09564209 167.93762207 84.09460449 C164.77090098 84.0893557 161.60419919 84.07539456 158.4375 84.0625 C151.363125 84.041875 144.28875 84.02125 137 84 C137 69.15 137 54.3 137 39 C123.14 39 109.28 39 95 39 C95.01160156 42.16464844 95.02320313 45.32929687 95.03515625 48.58984375 C95.04294594 51.64119364 95.0490232 54.69254244 95.05493164 57.74389648 C95.05997298 59.87118014 95.06680591 61.99846031 95.07543945 64.12573242 C95.08751379 67.17627826 95.09323014 70.22677845 95.09765625 73.27734375 C95.10281754 74.23462875 95.10797882 75.19191376 95.11329651 76.1782074 C95.11337204 77.05904495 95.11344757 77.93988251 95.11352539 78.84741211 C95.115746 79.62684677 95.11796661 80.40628143 95.12025452 81.20933533 C95 83 95 83 94 84 C90.89769856 84.08873532 87.81712641 84.11525687 84.71484375 84.09765625 C83.8902063 84.09664917 83.06556885 84.09564209 82.21594238 84.09460449 C79.12311419 84.08935592 76.03030576 84.07539477 72.9375 84.0625 C66.028125 84.041875 59.11875 84.02125 52 84 C52 68.82 52 53.64 52 38 C34.84 38 17.68 38 0 38 C0 25.46 0 12.92 0 0 Z " fill="#7F068E" transform="translate(131,0)"></path>
<path d="M0 0 C14.19 0 28.38 0 43 0 C43 15.18 43 30.36 43 46 C56.86 46 70.72 46 85 46 C85 61.18 85 76.36 85 92 C71.14 92 57.28 92 43 92 C43 104.87 43 117.74 43 131 C28.81 131 14.62 131 0 131 C0 118.13 0 105.26 0 92 C-17.16 92 -34.32 92 -52 92 C-52 76.82 -52 61.64 -52 46 C-34.84 46 -17.68 46 0 46 C0 30.82 0 15.64 0 0 Z " fill="#210568" transform="translate(183,264)"></path>
<path d="M0 0 C13.53 0 27.06 0 41 0 C41 38.28 41 76.56 41 116 C-0.25 116 -41.5 116 -84 116 C-84 105.44 -84 94.88 -84 84 C-70.14 83.67 -56.28 83.34 -42 83 C-42 70.46 -42 57.92 -42 45 C-28.14 45 -14.28 45 0 45 C0 30.15 0 15.3 0 0 Z " fill="#C9C9F9" transform="translate(396,312)"></path>
<path d="M0 0 C27.39 0 54.78 0 83 0 C83 27.72 83 55.44 83 84 C69.47 84 55.94 84 42 84 C42 69.15 42 54.3 42 39 C28.14 39 14.28 39 0 39 C0 53.85 0 68.7 0 84 C-13.86 84.33 -27.72 84.66 -42 85 C-42.33 99.19 -42.66 113.38 -43 128 C-57.19 128 -71.38 128 -86 128 C-86 113.48 -86 98.96 -86 84 C-71.81 83.67 -57.62 83.34 -43 83 C-42.67 68.48 -42.34 53.96 -42 39 C-28.47 38.67 -14.94 38.34 -1 38 C-0.67 25.46 -0.34 12.92 0 0 Z " fill="#5D027E" transform="translate(354,0)"></path>
<path d="M0 0 C13.53 0 27.06 0 41 0 C41 14.85 41 29.7 41 45 C27.47 45 13.94 45 0 45 C0 59.85 0 74.7 0 90 C-13.86 90 -27.72 90 -42 90 C-42 104.85 -42 119.7 -42 135 C-55.86 135 -69.72 135 -84 135 C-84 119.82 -84 104.64 -84 89 C-70.14 89 -56.28 89 -42 89 C-42.01160156 85.83535156 -42.02320313 82.67070312 -42.03515625 79.41015625 C-42.04294594 76.35880636 -42.0490232 73.30745756 -42.05493164 70.25610352 C-42.05997298 68.12881986 -42.06680591 66.00153969 -42.07543945 63.87426758 C-42.08751379 60.82372174 -42.09323014 57.77322155 -42.09765625 54.72265625 C-42.10281754 53.76537125 -42.10797882 52.80808624 -42.11329651 51.8217926 C-42.11337204 50.94095505 -42.11344757 50.06011749 -42.11352539 49.15258789 C-42.115746 48.37315323 -42.11796661 47.59371857 -42.12025452 46.79066467 C-42 45 -42 45 -41 44 C-37.97043757 43.91129359 -34.9631329 43.88473418 -31.93359375 43.90234375 C-31.1286145 43.90335083 -30.32363525 43.90435791 -29.4942627 43.90539551 C-26.47532739 43.91064386 -23.45641233 43.924605 -20.4375 43.9375 C-13.693125 43.958125 -6.94875 43.97875 0 44 C0 29.48 0 14.96 0 0 Z " fill="#A85DD5" transform="translate(396,84)"></path>
<path d="M0 0 C14.19 0 28.38 0 43 0 C43 14.85 43 29.7 43 45 C28.81 45 14.62 45 0 45 C0 59.85 0 74.7 0 90 C-17.16 90 -34.32 90 -52 90 C-52 75.15 -52 60.3 -52 45 C-26.755 44.505 -26.755 44.505 -1 44 C-0.67 29.48 -0.34 14.96 0 0 Z " fill="#2B0067" transform="translate(183,174)"></path>
<path d="M0 0 C13.86 0 27.72 0 42 0 C42 14.85 42 29.7 42 45 C28.14 45.33 14.28 45.66 0 46 C-0.33 60.19 -0.66 74.38 -1 89 C-15.19 89 -29.38 89 -44 89 C-44 74.48 -44 59.96 -44 45 C-29.81 44.67 -15.62 44.34 -1 44 C-0.67 29.48 -0.34 14.96 0 0 Z " fill="#490077" transform="translate(312,39)"></path>
<path d="M0 0 C13.53 0 27.06 0 41 0 C41 14.85 41 29.7 41 45 C27.47 45 13.94 45 0 45 C0 59.52 0 74.04 0 89 C-13.86 89 -27.72 89 -42 89 C-42 74.15 -42 59.3 -42 44 C-28.14 44 -14.28 44 0 44 C0 29.48 0 14.96 0 0 Z " fill="#290064" transform="translate(396,220)"></path>
<path d="M0 0 C13.53 0 27.06 0 41 0 C41 15.18 41 30.36 41 46 C27.47 46 13.94 46 0 46 C0 58.21 0 70.42 0 83 C-13.86 83 -27.72 83 -42 83 C-42 70.46 -42 57.92 -42 45 C-28.14 45 -14.28 45 0 45 C0 30.15 0 15.3 0 0 Z " fill="#060A60" transform="translate(396,312)"></path>
<path d="M0 0 C1.77206191 0.00025118 3.5441287 0.00581561 5.31616211 0.01586914 C6.14079956 0.01687622 6.96543701 0.0178833 7.81506348 0.0189209 C10.90789166 0.02416947 14.0007001 0.03813062 17.09350586 0.05102539 C24.00288086 0.07165039 30.91225586 0.09227539 38.03100586 0.11352539 C38.03100586 15.29352539 38.03100586 30.47352539 38.03100586 46.11352539 C24.17100586 46.11352539 10.31100586 46.11352539 -3.96899414 46.11352539 C-3.96899414 58.98352539 -3.96899414 71.85352539 -3.96899414 85.11352539 C9.89100586 85.11352539 23.75100586 85.11352539 38.03100586 85.11352539 C38.03100586 96.00352539 38.03100586 106.89352539 38.03100586 118.11352539 C23.84100586 118.11352539 9.65100586 118.11352539 -4.96899414 118.11352539 C-4.99154169 102.87589207 -5.00997362 87.63826623 -5.02080631 72.40062046 C-5.02596914 65.32599352 -5.03301158 58.25137765 -5.04443359 51.17675781 C-5.05544095 44.35573661 -5.06127032 37.53472695 -5.06387138 30.71369743 C-5.06572619 28.10485591 -5.06934784 25.49601506 -5.0747242 22.88717842 C-5.08193057 19.24719987 -5.08298525 15.60726964 -5.08251953 11.96728516 C-5.08611481 10.87684402 -5.08971008 9.78640289 -5.09341431 8.66291809 C-5.09203964 7.6770874 -5.09066498 6.69125671 -5.08924866 5.67555237 C-5.09017045 4.81367593 -5.09109224 3.95179949 -5.09204197 3.06380558 C-4.86062248 -0.60414079 -3.86447125 0.11053572 0 0 Z " fill="#4856E7" transform="translate(4.968994140625,309.886474609375)"></path>
<path d="M0 0 C17.16 0 34.32 0 52 0 C52 15.18 52 30.36 52 46 C34.84 46 17.68 46 0 46 C0 30.82 0 15.64 0 0 Z " fill="#0F0A66" transform="translate(131,310)"></path>
<path d="M0 0 C17.16 0 34.32 0 52 0 C52 15.18 52 30.36 52 46 C34.84 46 17.68 46 0 46 C0 30.82 0 15.64 0 0 Z " fill="#E7D8FA" transform="translate(131,264)"></path>
<path d="M0 0 C17.16 0 34.32 0 52 0 C52 14.85 52 29.7 52 45 C34.84 45 17.68 45 0 45 C0 30.15 0 15.3 0 0 Z " fill="#400172" transform="translate(131,128)"></path>
<path d="M0 0 C17.16 0 34.32 0 52 0 C52 14.52 52 29.04 52 44 C34.84 44 17.68 44 0 44 C0 29.48 0 14.96 0 0 Z " fill="#EDB6F3" transform="translate(131,84)"></path>
<path d="M0 0 C14.19 0 28.38 0 43 0 C43 14.85 43 29.7 43 45 C28.81 45 14.62 45 0 45 C0 59.85 0 74.7 0 90 C-0.33 90 -0.66 90 -1 90 C-1 75.48 -1 60.96 -1 46 C-17.5 46 -34 46 -51 46 C-51 60.52 -51 75.04 -51 90 C-51.33 90 -51.66 90 -52 90 C-52 75.15 -52 60.3 -52 45 C-26.755 44.505 -26.755 44.505 -1 44 C-0.67 29.48 -0.34 14.96 0 0 Z " fill="#35026C" transform="translate(183,174)"></path>
<path d="M0 0 C17.16 0 34.32 0 52 0 C52 12.87 52 25.74 52 39 C34.84 39 17.68 39 0 39 C0 26.13 0 13.26 0 0 Z " fill="#00B1FC" transform="translate(131,356)"></path>
<path d="M0 0 C14.52 0 29.04 0 44 0 C44 15.18 44 30.36 44 46 C29.48 46 14.96 46 0 46 C0 30.82 0 15.64 0 0 Z " fill="#D5D0F9" transform="translate(87,310)"></path>
<path d="M0 0 C14.52 0 29.04 0 44 0 C44 14.85 44 29.7 44 45 C29.48 45 14.96 45 0 45 C0 30.15 0 15.3 0 0 Z " fill="#210165" transform="translate(87,264)"></path>
<path d="M0 0 C14.52 0 29.04 0 44 0 C44 14.85 44 29.7 44 45 C29.48 45 14.96 45 0 45 C0 30.15 0 15.3 0 0 Z " fill="#B667F7" transform="translate(87,219)"></path>
<path d="M0 0 C14.52 0 29.04 0 44 0 C44 14.85 44 29.7 44 45 C29.48 45 14.96 45 0 45 C0 30.15 0 15.3 0 0 Z " fill="#3E0272" transform="translate(43,128)"></path>
<path d="M0 0 C14.52 0 29.04 0 44 0 C44 14.85 44 29.7 44 45 C29.48 45 14.96 45 0 45 C0 30.15 0 15.3 0 0 Z " fill="#FCF5FC" transform="translate(87,39)"></path>
<path d="M0 0 C14.19 0 28.38 0 43 0 C43 15.18 43 30.36 43 46 C28.81 46 14.62 46 0 46 C0 30.82 0 15.64 0 0 Z " fill="#E7D9FA" transform="translate(43,264)"></path>
<path d="M0 0 C17.16 0 34.32 0 52 0 C52 12.54 52 25.08 52 38 C34.84 38 17.68 38 0 38 C0 25.46 0 12.92 0 0 Z " fill="#FC27BE" transform="translate(131,0)"></path>
<path d="M0 0 C14.52 0 29.04 0 44 0 C44 14.52 44 29.04 44 44 C29.48 44 14.96 44 0 44 C0 29.48 0 14.96 0 0 Z " fill="#4D007A" transform="translate(87,84)"></path>
<path d="M0 0 C14.19 0 28.38 0 43 0 C43 14.85 43 29.7 43 45 C28.81 45 14.62 45 0 45 C0 30.15 0 15.3 0 0 Z " fill="#AE62F6" transform="translate(268,219)"></path>
<path d="M0 0 C14.19 0 28.38 0 43 0 C43 14.85 43 29.7 43 45 C28.81 45 14.62 45 0 45 C0 30.15 0 15.3 0 0 Z " fill="#B264F7" transform="translate(183,219)"></path>
<path d="M0 0 C14.19 0 28.38 0 43 0 C43 14.85 43 29.7 43 45 C28.81 45 14.62 45 0 45 C0 30.15 0 15.3 0 0 Z " fill="#300169" transform="translate(268,174)"></path>
<path d="M0 0 C14.19 0 28.38 0 43 0 C43 14.85 43 29.7 43 45 C28.81 45 14.62 45 0 45 C0 30.15 0 15.3 0 0 Z " fill="#FDF3FC" transform="translate(268,39)"></path>
<path d="M0 0 C13.86 0 27.72 0 42 0 C42 15.18 42 30.36 42 46 C28.14 46 14.28 46 0 46 C0 30.82 0 15.64 0 0 Z " fill="#0A0A61" transform="translate(312,310)"></path>
<path d="M0 0 C13.86 0 27.72 0 42 0 C42 15.18 42 30.36 42 46 C28.14 46 14.28 46 0 46 C0 30.82 0 15.64 0 0 Z " fill="#0E0964" transform="translate(226,310)"></path>
<path d="M0 0 C13.86 0 27.72 0 42 0 C42 15.18 42 30.36 42 46 C28.14 46 14.28 46 0 46 C0 30.82 0 15.64 0 0 Z " fill="#D3CFF9" transform="translate(183,310)"></path>
<path d="M0 0 C14.19 0 28.38 0 43 0 C43 14.52 43 29.04 43 44 C28.81 44 14.62 44 0 44 C0 29.48 0 14.96 0 0 Z " fill="#E37FF6" transform="translate(43,84)"></path>
<path d="M0 0 C13.86 0 27.72 0 42 0 C42 14.85 42 29.7 42 45 C27.81 45 13.62 45 -1 45 C-0.67 30.15 -0.34 15.3 0 0 Z " fill="#620083" transform="translate(44,39)"></path>
<path d="M0 0 C13.86 0 27.72 0 42 0 C42 14.85 42 29.7 42 45 C28.14 45 14.28 45 0 45 C0 30.15 0 15.3 0 0 Z " fill="#0D0963" transform="translate(44,311)"></path>
<path d="M0 0 C13.86 0 27.72 0 42 0 C42 14.85 42 29.7 42 45 C28.14 45 14.28 45 0 45 C0 30.15 0 15.3 0 0 Z " fill="#1E0165" transform="translate(1,264)"></path>
<path d="M0 0 C13.86 0 27.72 0 42 0 C42 14.85 42 29.7 42 45 C28.14 45 14.28 45 0 45 C0 30.15 0 15.3 0 0 Z " fill="#260064" transform="translate(312,219)"></path>
<path d="M0 0 C13.86 0 27.72 0 42 0 C42 14.85 42 29.7 42 45 C28.14 45 14.28 45 0 45 C0 30.15 0 15.3 0 0 Z " fill="#290066" transform="translate(226,219)"></path>
<path d="M0 0 C13.86 0 27.72 0 42 0 C42 14.85 42 29.7 42 45 C28.14 45 14.28 45 0 45 C0 30.15 0 15.3 0 0 Z " fill="#F1DAF9" transform="translate(1,219)"></path>
<path d="M0 0 C13.86 0 27.72 0 42 0 C42 14.85 42 29.7 42 45 C28.14 45 14.28 45 0 45 C0 30.15 0 15.3 0 0 Z " fill="#2B0168" transform="translate(354,174)"></path>
<path d="M0 0 C13.86 0 27.72 0 42 0 C42 14.85 42 29.7 42 45 C28.14 45 14.28 45 0 45 C0 30.15 0 15.3 0 0 Z " fill="#34006B" transform="translate(1,174)"></path>
<path d="M0 0 C13.86 0 27.72 0 42 0 C42 14.85 42 29.7 42 45 C28.14 45 14.28 45 0 45 C0 30.15 0 15.3 0 0 Z " fill="#CE6DE7" transform="translate(354,39)"></path>
<path d="M0 0 C13.86 0 27.72 0 42 0 C42 14.85 42 29.7 42 45 C28.14 45 14.28 45 0 45 C0 30.15 0 15.3 0 0 Z " fill="#FDF5FC" transform="translate(183,39)"></path>
<path d="M0 0 C13.86 0 27.72 0 42 0 C42 14.85 42 29.7 42 45 C28.14 45 14.28 45 0 45 C0 30.15 0 15.3 0 0 Z " fill="#FEF3FC" transform="translate(1,39)"></path>
<path d="M0 0 C13.53 0 27.06 0 41 0 C41 15.18 41 30.36 41 46 C27.8 46 14.6 46 1 46 C-0.125 31.375 -0.125 31.375 -0.09765625 24.51171875 C-0.09515869 23.20420654 -0.09266113 21.89669434 -0.09008789 20.54956055 C-0.08098389 18.94508057 -0.07187988 17.34060059 -0.0625 15.6875 C-0.041875 10.510625 -0.02125 5.33375 0 0 Z " fill="#8E51EE" transform="translate(396,265)"></path>
<path d="M0 0 C13.86 0 27.72 0 42 0 C42 14.52 42 29.04 42 44 C28.14 44 14.28 44 0 44 C0 29.48 0 14.96 0 0 Z " fill="#1D0162" transform="translate(269,265)"></path>
<path d="M0 0 C13.86 0 27.72 0 42 0 C42 14.52 42 29.04 42 44 C28.14 44 14.28 44 0 44 C0 29.48 0 14.96 0 0 Z " fill="#290067" transform="translate(44,220)"></path>
<path d="M0 0 C13.86 0 27.72 0 42 0 C42 14.52 42 29.04 42 44 C28.14 44 14.28 44 0 44 C0 29.48 0 14.96 0 0 Z " fill="#34006A" transform="translate(312,129)"></path>
<path d="M0 0 C13.86 0 27.72 0 42 0 C42 14.52 42 29.04 42 44 C28.14 44 14.28 44 0 44 C0 29.48 0 14.96 0 0 Z " fill="#3A006E" transform="translate(226,129)"></path>
<path d="M0 0 C13.86 0 27.72 0 42 0 C42 14.52 42 29.04 42 44 C28.14 44 14.28 44 0 44 C0 29.48 0 14.96 0 0 Z " fill="#D976F4" transform="translate(312,84)"></path>
<path d="M0 0 C13.86 0 27.72 0 42 0 C42 14.52 42 29.04 42 44 C28.14 44 14.28 44 0 44 C0 29.48 0 14.96 0 0 Z " fill="#DE7DF4" transform="translate(226,84)"></path>
<path d="M0 0 C13.86 0 27.72 0 42 0 C42 14.52 42 29.04 42 44 C28.14 44 14.28 44 0 44 C0 29.48 0 14.96 0 0 Z " fill="#3B006F" transform="translate(354,84)"></path>
<path d="M0 0 C13.86 0 27.72 0 42 0 C42 14.52 42 29.04 42 44 C28.14 44 14.28 44 0 44 C0 29.48 0 14.96 0 0 Z " fill="#4B0079" transform="translate(183,84)"></path>
<path d="M0 0 C13.86 0 27.72 0 42 0 C42 14.52 42 29.04 42 44 C28.14 44 14.28 44 0 44 C0 29.48 0 14.96 0 0 Z " fill="#4C007A" transform="translate(1,84)"></path>
<path d="M0 0 C13.53 0 27.06 0 41 0 C41 14.85 41 29.7 41 45 C27.47 45 13.94 45 0 45 C0 30.15 0 15.3 0 0 Z " fill="#3A006A" transform="translate(396,129)"></path>
<path d="M0 0 C13.53 0 27.06 0 41 0 C41 14.85 41 29.7 41 45 C27.47 45 13.94 45 0 45 C0 30.15 0 15.3 0 0 Z " fill="#580078" transform="translate(396,39)"></path>
<path d="M0 0 C14.52 0 29.04 0 44 0 C44 12.87 44 25.74 44 39 C29.48 39 14.96 39 0 39 C0 68.37 0 97.74 0 128 C-0.33 128 -0.66 128 -1 128 C-1.02358303 116.92174933 -1.04114155 105.84350501 -1.05181217 94.76523399 C-1.05694369 89.61642928 -1.06385435 84.46764221 -1.07543945 79.31884766 C-1.13343985 52.85433482 -0.81823472 26.45410848 0 0 Z " fill="#83058F" transform="translate(87,0)"></path>
<path d="M0 0 C4.723125 -0.020625 9.44625 -0.04125 14.3125 -0.0625 C15.77856689 -0.071604 17.24463379 -0.08070801 18.75512695 -0.09008789 C19.94581787 -0.09258545 21.13650879 -0.09508301 22.36328125 -0.09765625 C23.56251221 -0.10289307 24.76174316 -0.10812988 25.99731445 -0.11352539 C31.00994962 0.0286445 36.00594324 0.54599484 41 1 C41 15.19 41 29.38 41 44 C27.47 44 13.94 44 0 44 C0 29.48 0 14.96 0 0 Z " fill="#170361" transform="translate(354,265)"></path>
<path d="M0 0 C14.52 0 29.04 0 44 0 C44.020625 6.249375 44.04125 12.49875 44.0625 18.9375 C44.071604 20.91226318 44.08070801 22.88702637 44.09008789 24.92163086 C44.09300705 26.47770113 44.09555561 28.03377216 44.09765625 29.58984375 C44.10277222 30.40521606 44.10788818 31.22058838 44.11315918 32.06066895 C44.1134694 34.04080523 44.06238096 36.02084654 44 38 C42.05136075 39.94863925 39.1019128 39.1291874 36.50878906 39.13894653 C35.59838867 39.1369223 34.68798828 39.13489807 33.75 39.1328125 C32.82155273 39.13376923 31.89310547 39.13472595 30.93652344 39.13571167 C28.96940035 39.13639355 27.00227504 39.13453872 25.03515625 39.13037109 C22.01296974 39.12502295 18.99093185 39.13031582 15.96875 39.13671875 C14.06249967 39.13605797 12.15624943 39.13477681 10.25 39.1328125 C8.88439941 39.13584885 8.88439941 39.13584885 7.49121094 39.13894653 C1.11494969 39.11494969 1.11494969 39.11494969 0 38 C-0.0886126 35.18859849 -0.11529584 32.40120576 -0.09765625 29.58984375 C-0.09664917 28.84383911 -0.09564209 28.09783447 -0.09460449 27.32922363 C-0.08935689 24.53196687 -0.07539573 21.73473196 -0.0625 18.9375 C-0.041875 12.688125 -0.02125 6.43875 0 0 Z " fill="#FE53C3" transform="translate(43,0)"></path>
<path d="M0 0 C14.19 0 28.38 0 43 0 C43 12.87 43 25.74 43 39 C28.81 39 14.62 39 0 39 C0 26.13 0 13.26 0 0 Z " fill="#01125C" transform="translate(268,356)"></path>
<path d="M0 0 C14.52 0 29.04 0 44 0 C44 12.54 44 25.08 44 38 C29.48 38 14.96 38 0 38 C0 25.46 0 12.92 0 0 Z " fill="#00125B" transform="translate(87,357)"></path>
<path d="M0 0 C17.16 0 34.32 0 52 0 C52 10.56 52 21.12 52 32 C34.84 32 17.68 32 0 32 C0 21.44 0 10.88 0 0 Z " fill="#0F0864" transform="translate(131,396)"></path>
<path d="M0 0 C13.86 0 27.72 0 42 0 C42 12.87 42 25.74 42 39 C28.14 39 14.28 39 0 39 C0 26.13 0 13.26 0 0 Z " fill="#00B2FD" transform="translate(226,356)"></path>
<path d="M0 0 C13.86 0 27.72 0 42 0 C42 12.87 42 25.74 42 39 C28.14 39 14.28 39 0 39 C0 26.13 0 13.26 0 0 Z " fill="#01135D" transform="translate(1,356)"></path>
<path d="M0 0 C27.39 0 54.78 0 83 0 C83 0.33 83 0.66 83 1 C69.47 1 55.94 1 42 1 C42 13.21 42 25.42 42 38 C28.14 38 14.28 38 0 38 C0 25.46 0 12.92 0 0 Z " fill="#00135B" transform="translate(354,357)"></path>
<path d="M0 0 C14.19 0 28.38 0 43 0 C43 12.54 43 25.08 43 38 C28.81 38 14.62 38 0 38 C0 25.46 0 12.92 0 0 Z " fill="#00125C" transform="translate(183,357)"></path>
<path d="M0 0 C14.19 0 28.38 0 43 0 C43 12.54 43 25.08 43 38 C28.81 38 14.62 38 0 38 C0 25.46 0 12.92 0 0 Z " fill="#F500C1" transform="translate(311,0)"></path>
<path d="M0 0 C14.19 0 28.38 0 43 0 C43 12.54 43 25.08 43 38 C28.81 38 14.62 38 0 38 C0 25.46 0 12.92 0 0 Z " fill="#730088" transform="translate(268,0)"></path>
<path d="M0 0 C13.53 0 27.06 0 41 0 C41 12.87 41 25.74 41 39 C27.47 39 13.94 39 0 39 C0 26.13 0 13.26 0 0 Z " fill="#FC00BA" transform="translate(396,0)"></path>
<path d="M0 0 C13.86 0 27.72 0 42 0 C42 12.54 42 25.08 42 38 C28.14 38 14.28 38 0 38 C0 25.46 0 12.92 0 0 Z " fill="#00AFFC" transform="translate(312,357)"></path>
<path d="M0 0 C13.86 0 27.72 0 42 0 C42 12.54 42 25.08 42 38 C28.14 38 14.28 38 0 38 C0 25.46 0 12.92 0 0 Z " fill="#00B4FD" transform="translate(44,357)"></path>
<path d="M0 0 C13.86 0 27.72 0 42 0 C42 12.54 42 25.08 42 38 C28.14 38 14.28 38 0 38 C0 25.46 0 12.92 0 0 Z " fill="#FB01C1" transform="translate(226,0)"></path>
<path d="M0 0 C16.5 0 33 0 50 0 C50 10.23 50 20.46 50 31 C33.5 31 17 31 0 31 C0 20.77 0 10.54 0 0 Z " fill="#FBE2FB" transform="translate(132,174)"></path>
<path d="M0 0 C13.53 0 27.06 0 41 0 C41 12.21 41 24.42 41 37 C27.47 37 13.94 37 0 37 C0 24.79 0 12.58 0 0 Z " fill="#00B2FC" transform="translate(396,358)"></path>
<path d="M0 0 C14.19 0 28.38 0 43 0 C43 10.56 43 21.12 43 32 C28.81 32 14.62 32 0 32 C0 21.44 0 10.88 0 0 Z " fill="#0A0960" transform="translate(312,396)"></path>
<path d="M0 0 C14.19 0 28.38 0 43 0 C43 10.56 43 21.12 43 32 C28.81 32 14.62 32 0 32 C0 21.44 0 10.88 0 0 Z " fill="#0F0662" transform="translate(43,396)"></path>
<path d="M0 0 C13.86 0 27.72 0 42 0 C42 10.56 42 21.12 42 32 C28.14 32 14.28 32 0 32 C0 21.44 0 10.88 0 0 Z " fill="#0E0761" transform="translate(226,396)"></path>
<path d="M0 0 C5.094375 -0.020625 10.18875 -0.04125 15.4375 -0.0625 C17.02618896 -0.071604 18.61487793 -0.08070801 20.25170898 -0.09008789 C22.16705444 -0.09383423 22.16705444 -0.09383423 24.12109375 -0.09765625 C26.06133423 -0.10551147 26.06133423 -0.10551147 28.04077148 -0.11352539 C32.37465042 0.01074258 36.69085787 0.52120643 41 1 C41 11.23 41 21.46 41 32 C27.47 32 13.94 32 0 32 C0 21.44 0 10.88 0 0 Z " fill="#E7D9FA" transform="translate(226,264)"></path>
<path d="M0 0 C20.295 0.495 20.295 0.495 41 1 C41 11.23 41 21.46 41 32 C27.47 32 13.94 32 0 32 C0 21.44 0 10.88 0 0 Z " fill="#0A0A62" transform="translate(396,396)"></path>
<path d="M0 0 C13.53 0 27.06 0 41 0 C41 10.23 41 20.46 41 31 C27.47 31 13.94 31 0 31 C0 20.77 0 10.54 0 0 Z " fill="#FEEBFB" transform="translate(1,129)"></path>
<path d="M0 0 C10.56 0 21.12 0 32 0 C32 10.56 32 21.12 32 32 C21.44 32 10.88 32 0 32 C0 21.44 0 10.88 0 0 Z " fill="#D2CDF9" transform="translate(269,310)"></path>
<path d="M0 0 C10.56 0 21.12 0 32 0 C32 10.56 32 21.12 32 32 C21.44 32 10.88 32 0 32 C0 21.44 0 10.88 0 0 Z " fill="#D3CFFA" transform="translate(1,310)"></path>
<path d="M0 0 C10.89 0 21.78 0 33 0 C33 10.23 33 20.46 33 31 C22.11 31 11.22 31 0 31 C0 20.77 0 10.54 0 0 Z " fill="#D7D1F9" transform="translate(87,396)"></path>
<path d="M0 0 C10.89 0 21.78 0 33 0 C33 10.23 33 20.46 33 31 C22.11 31 11.22 31 0 31 C0 20.77 0 10.54 0 0 Z " fill="#FDEBFB" transform="translate(87,129)"></path>
<path d="M0 0 C10.56 0 21.12 0 32 0 C32 10.23 32 20.46 32 31 C21.44 31 10.88 31 0 31 C0 20.77 0 10.54 0 0 Z " fill="#D3CEF8" transform="translate(269,396)"></path>
<path d="M0 0 C10.56 0 21.12 0 32 0 C32 10.23 32 20.46 32 31 C21.44 31 10.88 31 0 31 C0 20.77 0 10.54 0 0 Z " fill="#D5D1F9" transform="translate(1,396)"></path>
<path d="M0 0 C10.23 0 20.46 0 31 0 C31 10.56 31 21.12 31 32 C20.77 32 10.54 32 0 32 C0 21.44 0 10.88 0 0 Z " fill="#DFD2F7" transform="translate(312,264)"></path>
<path d="M0 0 C10.56 0 21.12 0 32 0 C32 10.23 32 20.46 32 31 C21.44 31 10.88 31 0 31 C0 20.77 0 10.54 0 0 Z " fill="#FAE2FA" transform="translate(226,174)"></path>
<path d="M0 0 C10.56 0 21.12 0 32 0 C32 10.23 32 20.46 32 31 C21.44 31 10.88 31 0 31 C0 20.77 0 10.54 0 0 Z " fill="#FCE5FB" transform="translate(44,174)"></path>
<path d="M0 0 C10.56 0 21.12 0 32 0 C32 10.23 32 20.46 32 31 C21.44 31 10.88 31 0 31 C0 20.77 0 10.54 0 0 Z " fill="#FDEAFB" transform="translate(269,129)"></path>
<path d="M0 0 C10.56 0 21.12 0 32 0 C32 10.23 32 20.46 32 31 C21.44 31 10.88 31 0 31 C0 20.77 0 10.54 0 0 Z " fill="#FDEBFB" transform="translate(183,129)"></path>
<path d="M0 0 C14.19 0 28.38 0 43 0 C43 15.18 43 30.36 43 46 C28.81 46 14.62 46 0 46 C0 30.82 0 15.64 0 0 Z M1 1 C1 11.23 1 21.46 1 32 C11.56 32 22.12 32 33 32 C33 21.77 33 11.54 33 1 C22.44 1 11.88 1 1 1 Z " fill="#925AF2" transform="translate(43,264)"></path>
<path d="M0 0 C3.63 0 7.26 0 11 0 C11 15.18 11 30.36 11 46 C-3.52 46 -18.04 46 -33 46 C-33 41.38 -33 36.76 -33 32 C-22.11 32 -11.22 32 0 32 C0 21.44 0 10.88 0 0 Z " fill="#6454ED" transform="translate(120,310)"></path>
<path d="M0 0 C10.23 0 20.46 0 31 0 C31 10.23 31 20.46 31 31 C20.77 31 10.54 31 0 31 C0 20.77 0 10.54 0 0 Z " fill="#D5D1F9" transform="translate(184,396)"></path>
<path d="M0 0 C10.23 0 20.46 0 31 0 C31 10.23 31 20.46 31 31 C20.77 31 10.54 31 0 31 C0 20.77 0 10.54 0 0 Z " fill="#FCDFF9" transform="translate(397,175)"></path>
<path d="M0 0 C10.23 0 20.46 0 31 0 C31 10.23 31 20.46 31 31 C20.77 31 10.54 31 0 31 C0 20.77 0 10.54 0 0 Z " fill="#F8E0FA" transform="translate(312,174)"></path>
<path d="M0 0 C9.9 0 19.8 0 30 0 C30 10.56 30 21.12 30 32 C20.1 32 10.2 32 0 32 C0 21.44 0 10.88 0 0 Z " fill="#CAC9FA" transform="translate(355,310)"></path>
<path d="M0 0 C10.56 0 21.12 0 32 0 C32 9.9 32 19.8 32 30 C21.44 30 10.88 30 0 30 C0 20.1 0 10.2 0 0 Z " fill="#F1DDFA" transform="translate(269,220)"></path>
<path d="M0 0 C10.56 0 21.12 0 32 0 C32 9.9 32 19.8 32 30 C21.44 30 10.88 30 0 30 C0 20.1 0 10.2 0 0 Z " fill="#F6E0FA" transform="translate(88,220)"></path>
<path d="M0 0 C0.33 0 0.66 0 1 0 C1 10.56 1 21.12 1 32 C11.56 32 22.12 32 33 32 C33 21.44 33 10.88 33 0 C36.3 0 39.6 0 43 0 C43 15.18 43 30.36 43 46 C28.81 46 14.62 46 0 46 C0 30.82 0 15.64 0 0 Z " fill="#6156E6" transform="translate(268,310)"></path>
<path d="M0 0 C0.33 0 0.66 0 1 0 C1 10.23 1 20.46 1 31 C11.56 31 22.12 31 33 31 C33 20.77 33 10.54 33 0 C36.3 0 39.6 0 43 0 C43 14.85 43 29.7 43 45 C28.81 45 14.62 45 0 45 C0 30.15 0 15.3 0 0 Z " fill="#E780F5" transform="translate(268,39)"></path>
<path d="M0 0 C3.63 0 7.26 0 11 0 C11 15.18 11 30.36 11 46 C-2.86 46 -16.72 46 -31 46 C-31 41.38 -31 36.76 -31 32 C-20.77 32 -10.54 32 0 32 C0 21.44 0 10.88 0 0 Z " fill="#8653EF" transform="translate(343,264)"></path>
<path d="M0 0 C9.9 0 19.8 0 30 0 C30 10.23 30 20.46 30 31 C20.1 31 10.2 31 0 31 C0 20.77 0 10.54 0 0 Z " fill="#E4D5F8" transform="translate(397,266)"></path>
<path d="M0 0 C10.23 0 20.46 0 31 0 C31 9.9 31 19.8 31 30 C20.77 30 10.54 30 0 30 C0 20.1 0 10.2 0 0 Z " fill="#F4E0FA" transform="translate(184,220)"></path>
<path d="M0 0 C9.9 0 19.8 0 30 0 C30 10.23 30 20.46 30 31 C20.1 31 10.2 31 0 31 C0 20.77 0 10.54 0 0 Z " fill="#FCE5FA" transform="translate(355,129)"></path>
<path d="M0 0 C10.23 0 20.46 0 31 0 C31 9.9 31 19.8 31 30 C20.77 30 10.54 30 0 30 C0 20.1 0 10.2 0 0 Z " fill="#FEEAFA" transform="translate(397,85)"></path>
<path d="M0 0 C9.9 0 19.8 0 30 0 C30 10.23 30 20.46 30 31 C20.1 31 10.2 31 0 31 C0 20.77 0 10.54 0 0 Z " fill="#FEECFB" transform="translate(355,39)"></path>
<path d="M0 0 C0.33 0 0.66 0 1 0 C1 10.23 1 20.46 1 31 C11.23 31 21.46 31 32 31 C32 20.77 32 10.54 32 0 C35.3 0 38.6 0 42 0 C42 14.85 42 29.7 42 45 C28.14 45 14.28 45 0 45 C0 30.15 0 15.3 0 0 Z " fill="#EC8AF4" transform="translate(1,39)"></path>
<path d="M0 0 C10.56 0 21.12 0 32 0 C32 9.57 32 19.14 32 29 C21.44 29 10.88 29 0 29 C0 19.43 0 9.86 0 0 Z " fill="#FEF1FC" transform="translate(44,85)"></path>
<path d="M0 0 C3.3 0 6.6 0 10 0 C10 15.18 10 30.36 10 46 C-3.86 46 -17.72 46 -32 46 C-32 41.38 -32 36.76 -32 32 C-21.44 32 -10.88 32 0 32 C0 21.44 0 10.88 0 0 Z " fill="#6557EA" transform="translate(215,310)"></path>
<path d="M0 0 C9.9 0 19.8 0 30 0 C30 9.9 30 19.8 30 30 C20.1 30 10.2 30 0 30 C0 20.1 0 10.2 0 0 Z " fill="#ECDAFA" transform="translate(355,220)"></path>
<path d="M0 0 C13.86 0 27.72 0 42 0 C42 14.85 42 29.7 42 45 C28.14 45 14.28 45 0 45 C0 40.71 0 36.42 0 32 C10.56 32 21.12 32 32 32 C32 21.77 32 11.54 32 1 C21.44 1 10.88 1 0 1 C0 0.67 0 0.34 0 0 Z " fill="#D475F6" transform="translate(183,128)"></path>
<path d="M0 0 C3.3 0 6.6 0 10 0 C10 14.85 10 29.7 10 45 C-3.86 45 -17.72 45 -32 45 C-32 40.38 -32 35.76 -32 31 C-21.44 31 -10.88 31 0 31 C0 20.77 0 10.54 0 0 Z " fill="#EE87F8" transform="translate(215,39)"></path>
<path d="M0 0 C3.3 0 6.6 0 10 0 C10 15.18 10 30.36 10 46 C-3.2 46 -16.4 46 -30 46 C-30 41.38 -30 36.76 -30 32 C-20.1 32 -10.2 32 0 32 C0 21.44 0 10.88 0 0 Z " fill="#4E4CE7" transform="translate(385,310)"></path>
<path d="M0 0 C0.33 0 0.66 0 1 0 C1 12.54 1 25.08 1 38 C-15.83 38 -32.66 38 -50 38 C-50 33.05 -50 28.1 -50 23 C-47.69 22.34 -45.38 21.68 -43 21 C-41.45913678 17.48599332 -41.45913678 17.48599332 -41 14 C-40.67 14 -40.34 14 -40 14 C-39.01 17.96 -38.02 21.92 -37 26 C-35.68 25.34 -34.36 24.68 -33 24 C-30.30859375 23.8046875 -30.30859375 23.8046875 -27.4375 23.875 C-26.48746094 23.89304687 -25.53742188 23.91109375 -24.55859375 23.9296875 C-23.71425781 23.95289062 -22.86992187 23.97609375 -22 24 C-19.37886292 24 -17.49064888 23.68707555 -15 23 C-14.67 20.36 -14.34 17.72 -14 15 C-9.66666667 15 -5.33333333 15 -1 15 C-0.67 10.05 -0.34 5.1 0 0 Z " fill="#FC05C0" transform="translate(182,0)"></path>
<path d="M0 0 C9.9 0 19.8 0 30 0 C30 9.57 30 19.14 30 29 C20.1 29 10.2 29 0 29 C0 19.43 0 9.86 0 0 Z " fill="#FEECFB" transform="translate(313,85)"></path>
<path d="M0 0 C9.9 0 19.8 0 30 0 C30 9.57 30 19.14 30 29 C20.1 29 10.2 29 0 29 C0 19.43 0 9.86 0 0 Z " fill="#FEF1FB" transform="translate(227,85)"></path>
<path d="M0 0 C3.3 0 6.6 0 10 0 C10 14.52 10 29.04 10 44 C-4.19 44 -18.38 44 -33 44 C-33 39.71 -33 35.42 -33 31 C-22.11 31 -11.22 31 0 31 C0 20.77 0 10.54 0 0 Z " fill="#D577F6" transform="translate(120,129)"></path>
<path d="M0 0 C3.3 0 6.6 0 10 0 C10 14.85 10 29.7 10 45 C-3.86 45 -17.72 45 -32 45 C-32 40.71 -32 36.42 -32 32 C-21.44 32 -10.88 32 0 32 C0 21.44 0 10.88 0 0 Z " fill="#B163F7" transform="translate(33,219)"></path>
<path d="M0 0 C3.3 0 6.6 0 10 0 C10 14.52 10 29.04 10 44 C-3.86 44 -17.72 44 -32 44 C-32 39.71 -32 35.42 -32 31 C-21.44 31 -10.88 31 0 31 C0 20.77 0 10.54 0 0 Z " fill="#C868F7" transform="translate(76,174)"></path>
<path d="M0 0 C3.3 0 6.6 0 10 0 C10 14.52 10 29.04 10 44 C-3.86 44 -17.72 44 -32 44 C-32 39.71 -32 35.42 -32 31 C-21.44 31 -10.88 31 0 31 C0 20.77 0 10.54 0 0 Z " fill="#D073F6" transform="translate(301,129)"></path>
<path d="M0 0 C3.3 0 6.6 0 10 0 C10 14.52 10 29.04 10 44 C-3.2 44 -16.4 44 -30 44 C-30 39.71 -30 35.42 -30 31 C-20.1 31 -10.2 31 0 31 C0 20.77 0 10.54 0 0 Z " fill="#C86DF5" transform="translate(385,129)"></path>
<path d="M0 0 C2.97 0 5.94 0 9 0 C9 14.52 9 29.04 9 44 C-4.53 44 -18.06 44 -32 44 C-32 39.71 -32 35.42 -32 31 C-21.44 31 -10.88 31 0 31 C0 20.77 0 10.54 0 0 Z " fill="#C469F3" transform="translate(258,174)"></path>
<path d="M0 0 C3.96 0 7.92 0 12 0 C12 0.33 12 0.66 12 1 C8.37 1 4.74 1 1 1 C1 11.23 1 21.46 1 32 C17.5 32 34 32 51 32 C51 21.44 51 10.88 51 0 C51.33 0 51.66 0 52 0 C52 15.18 52 30.36 52 46 C34.84 46 17.68 46 0 46 C0 30.82 0 15.64 0 0 Z " fill="#9057F2" transform="translate(131,264)"></path>
<path d="M0 0 C2.97 0 5.94 0 9 0 C9 14.52 9 29.04 9 44 C-4.2 44 -17.4 44 -31 44 C-31 39.71 -31 35.42 -31 31 C-20.77 31 -10.54 31 0 31 C0 20.77 0 10.54 0 0 Z " fill="#CC5FF0" transform="translate(428,175)"></path>
<path d="M0 0 C2.97 0 5.94 0 9 0 C9 14.19 9 28.38 9 43 C-4.2 43 -17.4 43 -31 43 C-31 38.71 -31 34.42 -31 30 C-20.77 30 -10.54 30 0 30 C0 20.1 0 10.2 0 0 Z " fill="#EB73F2" transform="translate(428,85)"></path>
<path d="M0 0 C0.33 0 0.66 0 1 0 C1 7.59 1 15.18 1 23 C14.86 23 28.72 23 43 23 C43 15.41 43 7.82 43 0 C43.33 0 43.66 0 44 0 C44.02464849 5.39346988 44.04283531 10.78690725 44.05493164 16.18041992 C44.05997231 18.01668875 44.06680477 19.85295354 44.07543945 21.68920898 C44.08751672 24.32276401 44.09323081 26.95626616 44.09765625 29.58984375 C44.10281754 30.41588608 44.10797882 31.24192841 44.11329651 32.09300232 C44.11349205 34.06236368 44.06204152 36.03161614 44 38 C42.05136075 39.94863925 39.1019128 39.1291874 36.50878906 39.13894653 C35.59838867 39.1369223 34.68798828 39.13489807 33.75 39.1328125 C32.82155273 39.13376923 31.89310547 39.13472595 30.93652344 39.13571167 C28.96940035 39.13639355 27.00227504 39.13453872 25.03515625 39.13037109 C22.01296974 39.12502295 18.99093185 39.13031582 15.96875 39.13671875 C14.06249967 39.13605797 12.15624943 39.13477681 10.25 39.1328125 C8.88439941 39.13584885 8.88439941 39.13584885 7.49121094 39.13894653 C1.11494969 39.11494969 1.11494969 39.11494969 0 38 C-0.08861992 35.1883662 -0.11522355 32.40141745 -0.09765625 29.58984375 C-0.0962413 28.74780899 -0.09482635 27.90577423 -0.09336853 27.03822327 C-0.08775263 24.33794665 -0.07519748 21.63775172 -0.0625 18.9375 C-0.05748705 17.11132932 -0.05292379 15.28515734 -0.04882812 13.45898438 C-0.03777804 8.97262458 -0.02050279 4.48632616 0 0 Z " fill="#FE10C0" transform="translate(43,0)"></path>
<path d="M0 0 C8.25 0 16.5 0 25 0 C25 9.57 25 19.14 25 29 C16.75 29 8.5 29 0 29 C0 19.43 0 9.86 0 0 Z " fill="#FEEFFB" transform="translate(143,85)"></path>
<path d="M0 0 C10.23 0 20.46 0 31 0 C31 7.59 31 15.18 31 23 C20.77 23 10.54 23 0 23 C0 15.41 0 7.82 0 0 Z " fill="#FE40C2" transform="translate(226,0)"></path>
<path d="M0 0 C13.86 0 27.72 0 42 0 C42 15.18 42 30.36 42 46 C28.14 46 14.28 46 0 46 C0 41.38 0 36.76 0 32 C13.53 32 27.06 32 41 32 C41 21.77 41 11.54 41 1 C27.47 1 13.94 1 0 1 C0 0.67 0 0.34 0 0 Z " fill="#C971EC" transform="translate(1,128)"></path>
<path d="M0 0 C16.5 0 33 0 50 0 C50 4.29 50 8.58 50 13 C33.5 13 17 13 0 13 C0 8.71 0 4.42 0 0 Z " fill="#C669F4" transform="translate(132,205)"></path>
<path d="M0 0 C0.33 0 0.66 0 1 0 C1 14.85 1 29.7 1 45 C-13.52 45 -28.04 45 -43 45 C-43 40.38 -43 35.76 -43 31 C-28.81 31 -14.62 31 0 31 C0 20.77 0 10.54 0 0 Z " fill="#EB8CF3" transform="translate(130,39)"></path>
<path d="M0 0 C0 0.33 0 0.66 0 1 C-14.52 1 -29.04 1 -44 1 C-44 30.7 -44 60.4 -44 91 C-29.48 91 -14.96 91 0 91 C0 91.33 0 91.66 0 92 C-14.52 92 -29.04 92 -44 92 C-44 107.18 -44 122.36 -44 138 C-29.48 138 -14.96 138 0 138 C0 138.33 0 138.66 0 139 C-14.52 139 -29.04 139 -44 139 C-44 162.43 -44 185.86 -44 210 C-44.33 210 -44.66 210 -45 210 C-45 199.44 -45 188.88 -45 178 C-59.19 178 -73.38 178 -88 178 C-88 149.62 -88 121.24 -88 92 C-73.81 92 -59.62 92 -45 92 C-45 62.3 -45 32.6 -45 2 C-58.86 2 -72.72 2 -87 2 C-87 16.52 -87 31.04 -87 46 C-87.33 46 -87.66 46 -88 46 C-88 31.15 -88 16.3 -88 1 C-58.65131574 0.21475092 -29.35687012 -0.13509356 0 0 Z M-87 93 C-87 107.85 -87 122.7 -87 138 C-73.14 138 -59.28 138 -45 138 C-45 123.15 -45 108.3 -45 93 C-58.86 93 -72.72 93 -87 93 Z M-87 139 C-87 151.54 -87 164.08 -87 177 C-73.14 177 -59.28 177 -45 177 C-45 164.46 -45 151.92 -45 139 C-58.86 139 -72.72 139 -87 139 Z " fill="#353893" transform="translate(131,218)"></path>
<path d="M0 0 C10.23 0 20.46 0 31 0 C29.76923077 17.23076923 29.76923077 17.23076923 26 21 C23.81689453 21.30297852 23.81689453 21.30297852 21.1328125 21.37890625 C20.16472656 21.41306641 19.19664062 21.44722656 18.19921875 21.48242188 C17.18472656 21.50884766 16.17023438 21.53527344 15.125 21.5625 C13.12748948 21.62260435 11.13008216 21.68626963 9.1328125 21.75390625 C7.80080811 21.78979858 7.80080811 21.78979858 6.44189453 21.82641602 C3.71037268 21.94976926 3.71037268 21.94976926 0 23 C0 15.41 0 7.82 0 0 Z " fill="#FF23C0" transform="translate(312,0)"></path>
<path d="M0 0 C3.3 0 6.6 0 10 0 C10 15.18 10 30.36 10 46 C-3.86 46 -17.72 46 -32 46 C-32 41.38 -32 36.76 -32 32 C-18.47 32 -4.94 32 9 32 C9 21.77 9 11.54 9 1 C6.03 1 3.06 1 0 1 C0 0.67 0 0.34 0 0 Z " fill="#8F58F1" transform="translate(258,264)"></path>
<path d="M0 0 C17.16 0 34.32 0 52 0 C52 12.87 52 25.74 52 39 C51.67 39 51.34 39 51 39 C50.67 27.12 50.34 15.24 50 3 C46.37 3 42.74 3 39 3 C38.34 4.32 37.68 5.64 37 7 C37 5.35 37 3.7 37 2 C29.08 2 21.16 2 13 2 C13.01160156 4.41957031 13.02320313 6.83914063 13.03515625 9.33203125 C13.04295482 11.67521025 13.04902703 14.01838781 13.05493164 16.36157227 C13.05996065 17.99015958 13.06678465 19.61874237 13.07543945 21.24731445 C13.08756769 23.58806472 13.09324263 25.9287553 13.09765625 28.26953125 C13.10281754 28.99775589 13.10797882 29.72598053 13.11329651 30.47627258 C13.11364279 33.59602288 12.99455604 36.01633188 12 39 C8.04 39 4.08 39 0 39 C0 26.13 0 13.26 0 0 Z " fill="#0097EB" transform="translate(131,356)"></path>
<path d="M0 0 C45.54 0 91.08 0 138 0 C138 0.33 138 0.66 138 1 C135.03 1 132.06 1 129 1 C129.00523682 1.93384521 129.01047363 2.86769043 129.01586914 3.82983398 C129.0328762 7.28312796 129.04543302 10.73637767 129.05493164 14.18969727 C129.05997121 15.68644918 129.06680287 17.18319616 129.07543945 18.67993164 C129.08752159 20.82699807 129.09323191 22.97399962 129.09765625 25.12109375 C129.10289307 26.4145874 129.10812988 27.70808105 129.11352539 29.04077148 C129 32 129 32 128 33 C125.62458949 33.08838648 123.2776642 33.11537523 120.90234375 33.09765625 C118.95702759 33.09390991 118.95702759 33.09390991 116.97241211 33.09008789 C115.31089111 33.08098389 113.64937012 33.07187988 111.9375 33.0625 C106.678125 33.041875 101.41875 33.02125 96 33 C96 22.44 96 11.88 96 1 C78.84 1 61.68 1 44 1 C44 11.56 44 22.12 44 33 C29.48 33 14.96 33 0 33 C0 32.67 0 32.34 0 32 C10.89 32 21.78 32 33 32 C33 21.77 33 11.54 33 1 C22.11 1 11.22 1 0 1 C0 0.67 0 0.34 0 0 Z M97 1 C97 11.23 97 21.46 97 32 C107.23 32 117.46 32 128 32 C128 21.77 128 11.54 128 1 C117.77 1 107.54 1 97 1 Z " fill="#9E8DE7" transform="translate(87,395)"></path>
<path d="M0 0 C27.06 0 54.12 0 82 0 C82 0.66 82 1.32 82 2 C68.8 2 55.6 2 42 2 C41.67 12.23 41.34 22.46 41 33 C27.47 33 13.94 33 0 33 C0 22.11 0 11.22 0 0 Z M1 1 C1 11.23 1 21.46 1 32 C10.57 32 20.14 32 30 32 C30 21.77 30 11.54 30 1 C20.43 1 10.86 1 1 1 Z " fill="#867BEB" transform="translate(355,395)"></path>
<path d="M0 0 C8.25 0 16.5 0 25 0 C24.67 2.97 24.34 5.94 24 9 C23.9621896 10.79126766 23.95362935 12.5839335 24 14.375 C24.07650726 17.3874735 23.9704252 19.08872439 23 22 C15.74 22 8.48 22 1 22 C-0.125 15.25 -0.125 15.25 -0.09765625 11.9140625 C-0.09515869 11.27936035 -0.09266113 10.6446582 -0.09008789 9.99072266 C-0.08098389 9.21003418 -0.07187988 8.4293457 -0.0625 7.625 C-0.041875 5.10875 -0.02125 2.5925 0 0 Z " fill="#FF51C3" transform="translate(143,0)"></path>
<path d="M0 0 C12.87 0 25.74 0 39 0 C39 10.56 39 21.12 39 32 C34.38 32 29.76 32 25 32 C25 21.77 25 11.54 25 1 C16.75 1 8.5 1 0 1 C0 0.67 0 0.34 0 0 Z " fill="#BB92F1" transform="translate(143,264)"></path>
<path d="M0 0 C0.33 0 0.66 0 1 0 C1 10.23 1 20.46 1 31 C4.63 31 8.26 31 12 31 C12 34.96 12 38.92 12 43 C20.25 43 28.5 43 37 43 C37 39.04 37 35.08 37 31 C41.62 31 46.24 31 51 31 C51 20.77 51 10.54 51 0 C51.33 0 51.66 0 52 0 C52 14.52 52 29.04 52 44 C34.84 44 17.68 44 0 44 C0 29.48 0 14.96 0 0 Z " fill="#C959E7" transform="translate(131,84)"></path>
<path d="M0 0 C4.62 0 9.24 0 14 0 C14 10.23 14 20.46 14 31 C9.38 31 4.76 31 0 31 C0 20.77 0 10.54 0 0 Z " fill="#DCA3F5" transform="translate(168,174)"></path>
<path d="M0 0 C14.19 0 28.38 0 43 0 C43 10.89 43 21.78 43 33 C28.81 33 14.62 33 0 33 C0 22.11 0 11.22 0 0 Z M1 1 C1 11.23 1 21.46 1 32 C11.56 32 22.12 32 33 32 C33 21.77 33 11.54 33 1 C22.44 1 11.88 1 1 1 Z " fill="#8C79E9" transform="translate(0,395)"></path>
<path d="M0 0 C13.53 0 27.06 0 41 0 C41 10.89 41 21.78 41 33 C27.47 33 13.94 33 0 33 C0 22.11 0 11.22 0 0 Z M1 1 C1 11.23 1 21.46 1 32 C10.9 32 20.8 32 31 32 C31 21.77 31 11.54 31 1 C21.1 1 11.2 1 1 1 Z " fill="#A983E3" transform="translate(396,265)"></path>
<path d="M0 0 C14.19 0 28.38 0 43 0 C43 10.56 43 21.12 43 32 C28.81 32 14.62 32 0 32 C0 21.44 0 10.88 0 0 Z M1 1 C1 10.9 1 20.8 1 31 C11.56 31 22.12 31 33 31 C33 21.1 33 11.2 33 1 C22.44 1 11.88 1 1 1 Z " fill="#C193ED" transform="translate(268,219)"></path>
<path d="M0 0 C13.86 0 27.72 0 42 0 C42 10.56 42 21.12 42 32 C28.14 32 14.28 32 0 32 C0 21.44 0 10.88 0 0 Z M1 1 C1 10.9 1 20.8 1 31 C11.23 31 21.46 31 32 31 C32 21.1 32 11.2 32 1 C21.77 1 11.54 1 1 1 Z " fill="#CA9EF1" transform="translate(183,219)"></path>
<path d="M0 0 C5.23875 -0.020625 10.4775 -0.04125 15.875 -0.0625 C17.50679199 -0.071604 19.13858398 -0.08070801 20.81982422 -0.09008789 C22.1348291 -0.09258545 23.44983398 -0.09508301 24.8046875 -0.09765625 C25.46605713 -0.10277222 26.12742676 -0.10788818 26.80883789 -0.11315918 C32.32377992 -0.11415574 37.42938897 0.4429389 43 1 C43 11.23 43 21.46 43 32 C28.81 32 14.62 32 0 32 C0 21.44 0 10.88 0 0 Z M1 1 C1 10.9 1 20.8 1 31 C11.56 31 22.12 31 33 31 C33 21.1 33 11.2 33 1 C22.44 1 11.88 1 1 1 Z " fill="#CEA0F0" transform="translate(87,219)"></path>
<path d="M0 0 C5.094375 -0.020625 10.18875 -0.04125 15.4375 -0.0625 C17.02618896 -0.071604 18.61487793 -0.08070801 20.25170898 -0.09008789 C22.16705444 -0.09383423 22.16705444 -0.09383423 24.12109375 -0.09765625 C26.06133423 -0.10551147 26.06133423 -0.10551147 28.04077148 -0.11352539 C32.37465042 0.01074258 36.69085787 0.52120643 41 1 C41 11.23 41 21.46 41 32 C27.47 32 13.94 32 0 32 C0 21.44 0 10.88 0 0 Z M1 1 C1 10.9 1 20.8 1 31 C10.9 31 20.8 31 31 31 C31 21.1 31 11.2 31 1 C21.1 1 11.2 1 1 1 Z " fill="#BB9AF0" transform="translate(226,264)"></path>
<path d="M0 0 C13.53 0 27.06 0 41 0 C41 10.23 41 20.46 41 31 C27.47 31 13.94 31 0 31 C0 20.77 0 10.54 0 0 Z M1 1 C1 10.57 1 20.14 1 30 C10.9 30 20.8 30 31 30 C31 20.43 31 10.86 31 1 C21.1 1 11.2 1 1 1 Z " fill="#E1ADF1" transform="translate(312,84)"></path>
<path d="M0 0 C13.53 0 27.06 0 41 0 C41 10.23 41 20.46 41 31 C35.32164603 31.02290685 29.64345119 31.04283457 23.96508789 31.05493164 C22.03181415 31.05997256 20.09854424 31.06680519 18.1652832 31.07543945 C15.39273128 31.08751565 12.62022959 31.09323057 9.84765625 31.09765625 C8.54297142 31.10539818 8.54297142 31.10539818 7.21192932 31.11329651 C5.14094186 31.11349185 3.07005676 31.06208168 1 31 C0 30 0 30 -0.11352539 27.13256836 C-0.10828857 25.88096924 -0.10305176 24.62937012 -0.09765625 23.33984375 C-0.09515869 22.12417725 -0.09266113 20.90851074 -0.09008789 19.65600586 C-0.08098389 18.09889893 -0.07187988 16.54179199 -0.0625 14.9375 C-0.041875 10.008125 -0.02125 5.07875 0 0 Z M1 1 C1 10.57 1 20.14 1 30 C10.9 30 20.8 30 31 30 C31 20.43 31 10.86 31 1 C21.1 1 11.2 1 1 1 Z " fill="#E7B4F1" transform="translate(226,84)"></path>
<path d="M0 0 C14.19 0 28.38 0 43 0 C43 10.56 43 21.12 43 32 C39.7 32 36.4 32 33 32 C33 21.77 33 11.54 33 1 C22.44 1 11.88 1 1 1 C1 11.23 1 21.46 1 32 C0.67 32 0.34 32 0 32 C0 21.44 0 10.88 0 0 Z " fill="#B491E7" transform="translate(43,264)"></path>
<path d="M0 0 C0.33 0 0.66 0 1 0 C1 10.23 1 20.46 1 31 C11.56 31 22.12 31 33 31 C33 20.77 33 10.54 33 0 C36.3 0 39.6 0 43 0 C43 10.56 43 21.12 43 32 C28.81 32 14.62 32 0 32 C0 21.44 0 10.88 0 0 Z " fill="#E7A9F0" transform="translate(268,39)"></path>
<path d="M0 0 C13.53 0 27.06 0 41 0 C41 0.33 41 0.66 41 1 C27.8 1 14.6 1 1 1 C1 15.52 1 30.04 1 45 C14.2 45 27.4 45 41 45 C41 45.33 41 45.66 41 46 C27.47 46 13.94 46 0 46 C0 60.52 0 75.04 0 90 C-13.86 90 -27.72 90 -42 90 C-42 75.15 -42 60.3 -42 45 C-41.67 45 -41.34 45 -41 45 C-41 59.52 -41 74.04 -41 89 C-31.1 89 -21.2 89 -11 89 C-11 85.04 -11 81.08 -11 77 C-7.7 77 -4.4 77 -1 77 C-1.00523682 76.26628174 -1.01047363 75.53256348 -1.01586914 74.77661133 C-1.16643095 49.83862027 -0.62546493 24.92924516 0 0 Z " fill="#8D4DCD" transform="translate(396,174)"></path>
<path d="M0 0 C13.86 0 27.72 0 42 0 C42 10.23 42 20.46 42 31 C28.14 31 14.28 31 0 31 C0 30.67 0 30.34 0 30 C10.56 30 21.12 30 32 30 C32 20.43 32 10.86 32 1 C21.44 1 10.88 1 0 1 C0 0.67 0 0.34 0 0 Z " fill="#E9B5F2" transform="translate(44,84)"></path>
<path d="M0 0 C9.9 0 19.8 0 30 0 C30 3.96 30 7.92 30 12 C20.1 12 10.2 12 0 12 C0 8.04 0 4.08 0 0 Z " fill="#A45DF4" transform="translate(355,251)"></path>
<path d="M0 0 C13.86 0 27.72 0 42 0 C42 10.56 42 21.12 42 32 C38.7 32 35.4 32 32 32 C32 21.77 32 11.54 32 1 C21.44 1 10.88 1 0 1 C0 0.67 0 0.34 0 0 Z " fill="#D8A5EE" transform="translate(183,128)"></path>
<path d="M0 0 C3.63 0 7.26 0 11 0 C11 10.23 11 20.46 11 31 C7.37 31 3.74 31 0 31 C0 20.77 0 10.54 0 0 Z " fill="#C499F4" transform="translate(132,265)"></path>
<path d="M0 0 C3.63 0 7.26 0 11 0 C11 10.23 11 20.46 11 31 C7.37 31 3.74 31 0 31 C0 20.77 0 10.54 0 0 Z " fill="#E1A9F5" transform="translate(132,174)"></path>
<path d="M0 0 C0.33 0 0.66 0 1 0 C1 9.9 1 19.8 1 30 C11.23 30 21.46 30 32 30 C32 20.1 32 10.2 32 0 C34.97 0 37.94 0 41 0 C41 10.23 41 20.46 41 31 C27.47 31 13.94 31 0 31 C0 20.77 0 10.54 0 0 Z " fill="#E5B0F5" transform="translate(1,129)"></path>
<path d="M0 0 C3.96 0 7.92 0 12 0 C12 0.33 12 0.66 12 1 C8.37 1 4.74 1 1 1 C1 15.52 1 30.04 1 45 C12.88 45 24.76 45 37 45 C37 40.71 37 36.42 37 32 C41.62 32 46.24 32 51 32 C51 21.44 51 10.88 51 0 C51.33 0 51.66 0 52 0 C52 15.18 52 30.36 52 46 C34.84 46 17.68 46 0 46 C0 30.82 0 15.64 0 0 Z " fill="#7F46D9" transform="translate(131,264)"></path>
<path d="M0 0 C3.3 0 6.6 0 10 0 C10 10.56 10 21.12 10 32 C6.7 32 3.4 32 0 32 C0 21.44 0 10.88 0 0 Z " fill="#7B6DED" transform="translate(385,310)"></path>
<path d="M0 0 C3.3 0 6.6 0 10 0 C10 10.56 10 21.12 10 32 C6.7 32 3.4 32 0 32 C0 21.44 0 10.88 0 0 Z " fill="#8F78EF" transform="translate(301,310)"></path>
<path d="M0 0 C3.3 0 6.6 0 10 0 C10 10.56 10 21.12 10 32 C6.7 32 3.4 32 0 32 C0 21.44 0 10.88 0 0 Z " fill="#967DF2" transform="translate(215,310)"></path>
<path d="M0 0 C3.3 0 6.6 0 10 0 C10 10.56 10 21.12 10 32 C6.7 32 3.4 32 0 32 C0 21.44 0 10.88 0 0 Z " fill="#9E84F3" transform="translate(120,310)"></path>
<path d="M0 0 C3.3 0 6.6 0 10 0 C10 10.56 10 21.12 10 32 C6.7 32 3.4 32 0 32 C0 21.44 0 10.88 0 0 Z " fill="#957CEF" transform="translate(33,310)"></path>
<path d="M0 0 C3.63 0 7.26 0 11 0 C11 9.57 11 19.14 11 29 C7.37 29 3.74 29 0 29 C0 19.43 0 9.86 0 0 Z " fill="#F4BBF4" transform="translate(132,85)"></path>
<path d="M0 0 C11.88 0.33 23.76 0.66 36 1 C36 4.96 36 8.92 36 13 C27.75 13 19.5 13 11 13 C11 9.04 11 5.08 11 1 C7.37 1 3.74 1 0 1 C0 0.67 0 0.34 0 0 Z " fill="#E37BF6" transform="translate(132,114)"></path>
<path d="M0 0 C3.3 0 6.6 0 10 0 C10 10.23 10 20.46 10 31 C6.7 31 3.4 31 0 31 C0 20.77 0 10.54 0 0 Z " fill="#A781F3" transform="translate(343,265)"></path>
<path d="M0 0 C3.3 0 6.6 0 10 0 C10 10.23 10 20.46 10 31 C6.7 31 3.4 31 0 31 C0 20.77 0 10.54 0 0 Z " fill="#CF99F4" transform="translate(343,174)"></path>
<path d="M0 0 C3.3 0 6.6 0 10 0 C10 10.23 10 20.46 10 31 C6.7 31 3.4 31 0 31 C0 20.77 0 10.54 0 0 Z " fill="#D9A6F4" transform="translate(76,174)"></path>
<path d="M0 0 C3.3 0 6.6 0 10 0 C10 10.23 10 20.46 10 31 C6.7 31 3.4 31 0 31 C0 20.77 0 10.54 0 0 Z " fill="#CE98F3" transform="translate(385,129)"></path>
<path d="M0 0 C3.3 0 6.6 0 10 0 C10 10.23 10 20.46 10 31 C6.7 31 3.4 31 0 31 C0 20.77 0 10.54 0 0 Z " fill="#D9A1F4" transform="translate(301,129)"></path>
<path d="M0 0 C3.3 0 6.6 0 10 0 C10 10.23 10 20.46 10 31 C6.7 31 3.4 31 0 31 C0 20.77 0 10.54 0 0 Z " fill="#E2AAF5" transform="translate(120,129)"></path>
<path d="M0 0 C3.3 0 6.6 0 10 0 C10 10.23 10 20.46 10 31 C6.7 31 3.4 31 0 31 C0 20.77 0 10.54 0 0 Z " fill="#DE9EF2" transform="translate(385,39)"></path>
<path d="M0 0 C3.3 0 6.6 0 10 0 C10 10.23 10 20.46 10 31 C6.7 31 3.4 31 0 31 C0 20.77 0 10.54 0 0 Z " fill="#F1B5F5" transform="translate(215,39)"></path>
<path d="M0 0 C3.3 0 6.6 0 10 0 C10 10.23 10 20.46 10 31 C6.7 31 3.4 31 0 31 C0 20.77 0 10.54 0 0 Z " fill="#F5BBF5" transform="translate(120,39)"></path>
<path d="M0 0 C2.97 0 5.94 0 9 0 C9 10.23 9 20.46 9 31 C6.03 31 3.06 31 0 31 C0 20.77 0 10.54 0 0 Z " fill="#D892F3" transform="translate(428,175)"></path>
<path d="M0 0 C2.97 0 5.94 0 9 0 C9 10.23 9 20.46 9 31 C6.03 31 3.06 31 0 31 C0 20.77 0 10.54 0 0 Z " fill="#D6A0F7" transform="translate(258,174)"></path>
<path d="M0 0 C2.97 0 5.94 0 9 0 C9 10.23 9 20.46 9 31 C6.03 31 3.06 31 0 31 C0 20.77 0 10.54 0 0 Z " fill="#F4B3F5" transform="translate(33,39)"></path>
<path d="M0 0 C2.97 0 5.94 0 9 0 C9 9.9 9 19.8 9 30 C6.03 30 3.06 30 0 30 C0 20.1 0 10.2 0 0 Z " fill="#C898F4" transform="translate(33,220)"></path>
<path d="M0 0 C2.97 0 5.94 0 9 0 C9 9.9 9 19.8 9 30 C6.03 30 3.06 30 0 30 C0 20.1 0 10.2 0 0 Z " fill="#ECA2F1" transform="translate(428,85)"></path>
<path d="M0 0 C0.33 0 0.66 0 1 0 C1.02464849 5.39346988 1.04283531 10.78690725 1.05493164 16.18041992 C1.05997231 18.01668875 1.06680477 19.85295354 1.07543945 21.68920898 C1.08751672 24.32276401 1.09323081 26.95626616 1.09765625 29.58984375 C1.10281754 30.41588608 1.10797882 31.24192841 1.11329651 32.09300232 C1.11349205 34.06236368 1.06204152 36.03161614 1 38 C0 39 0 39 -3.96899414 39.11352539 C-5.74105607 39.1133662 -7.5131226 39.10766785 -9.28515625 39.09765625 C-10.21597519 39.0962413 -11.14679413 39.09482635 -12.1058197 39.09336853 C-15.09141191 39.08775172 -18.07693029 39.0751964 -21.0625 39.0625 C-23.08137913 39.05748716 -25.10025943 39.05292388 -27.11914062 39.04882812 C-32.07945572 39.03777683 -37.03971532 39.02050095 -42 39 C-42 38.67 -42 38.34 -42 38 C-41.16750732 37.9906543 -40.33501465 37.98130859 -39.47729492 37.97167969 C-36.38497711 37.92763634 -33.29365054 37.86601225 -30.2019043 37.79248047 C-28.20710869 37.75041351 -26.21191918 37.72862136 -24.21679688 37.70703125 C-22.96318359 37.67480469 -21.70957031 37.64257812 -20.41796875 37.609375 C-19.26063232 37.58842773 -18.1032959 37.56748047 -16.91088867 37.54589844 C-13.91438546 37.26838359 -13.91438546 37.26838359 -12.13085938 35.12304688 C-10.77743155 32.5821556 -10.50094706 30.61439524 -10.3125 27.75 C-10.209375 26.1825 -10.10625 24.615 -10 23 C-6.7 23 -3.4 23 0 23 C0 15.41 0 7.82 0 0 Z " fill="#EA03B8" transform="translate(86,0)"></path>
<path d="M0 0 C3.63 0 7.26 0 11 0 C11 14.85 11 29.7 11 45 C-3.52 45 -18.04 45 -33 45 C-33 40.71 -33 36.42 -33 32 C-32.67 32 -32.34 32 -32 32 C-32 35.96 -32 39.92 -32 44 C-21.44 44 -10.88 44 0 44 C0 40.04 0 36.08 0 32 C3.3 32 6.6 32 10 32 C10 21.77 10 11.54 10 1 C6.7 1 3.4 1 0 1 C0 0.67 0 0.34 0 0 Z " fill="#A151E5" transform="translate(120,219)"></path>
<path d="M0 0 C3.3 0 6.6 0 10 0 C10 7.59 10 15.18 10 23 C6.7 23 3.4 23 0 23 C0 15.41 0 7.82 0 0 Z " fill="#FE2FC0" transform="translate(76,0)"></path>
<path d="M0 0 C3.63 0 7.26 0 11 0 C11 15.18 11 30.36 11 46 C-2.86 46 -16.72 46 -31 46 C-31 45.67 -31 45.34 -31 45 C-20.77 45 -10.54 45 0 45 C0 40.71 0 36.42 0 32 C3.3 32 6.6 32 10 32 C10 21.77 10 11.54 10 1 C6.7 1 3.4 1 0 1 C0 0.67 0 0.34 0 0 Z " fill="#7541DC" transform="translate(343,264)"></path>
<path d="M0 0 C3.3 0 6.6 0 10 0 C10 14.85 10 29.7 10 45 C-3.86 45 -17.72 45 -32 45 C-32 40.71 -32 36.42 -32 32 C-31.67 32 -31.34 32 -31 32 C-31 35.96 -31 39.92 -31 44 C-20.77 44 -10.54 44 0 44 C0 39.71 0 35.42 0 31 C2.97 31 5.94 31 9 31 C9 21.1 9 11.2 9 1 C6.03 1 3.06 1 0 1 C0 0.67 0 0.34 0 0 Z " fill="#9E58E5" transform="translate(33,219)"></path>
<path d="M0 0 C3.3 0 6.6 0 10 0 C10 15.18 10 30.36 10 46 C-3.86 46 -17.72 46 -32 46 C-32 45.67 -32 45.34 -32 45 C-21.44 45 -10.88 45 0 45 C0 40.71 0 36.42 0 32 C2.97 32 5.94 32 9 32 C9 21.77 9 11.54 9 1 C6.03 1 3.06 1 0 1 C0 0.67 0 0.34 0 0 Z " fill="#7F45DF" transform="translate(258,264)"></path>
<path d="M0 0 C0.33 0 0.66 0 1 0 C1 14.85 1 29.7 1 45 C-13.19 45 -27.38 45 -42 45 C-42 44.67 -42 44.34 -42 44 C-31.44 44 -20.88 44 -10 44 C-10 40.04 -10 36.08 -10 32 C-6.7 32 -3.4 32 0 32 C0 21.44 0 10.88 0 0 Z " fill="#9447E1" transform="translate(225,219)"></path>
<path d="M0 0 C0.33 0 0.66 0 1 0 C1 14.19 1 28.38 1 43 C11.56 43 22.12 43 33 43 C33 39.04 33 35.08 33 31 C36.3 31 39.6 31 43 31 C43 35.29 43 39.58 43 44 C28.81 44 14.62 44 0 44 C0 29.48 0 14.96 0 0 Z " fill="#C566E5" transform="translate(43,84)"></path>
<path d="M0 0 C0.33 0 0.66 0 1 0 C1 14.85 1 29.7 1 45 C-12.86 45 -26.72 45 -41 45 C-41 44.67 -41 44.34 -41 44 C-30.44 44 -19.88 44 -9 44 C-9 39.71 -9 35.42 -9 31 C-6.03 31 -3.06 31 0 31 C0 20.77 0 10.54 0 0 Z " fill="#D365E7" transform="translate(42,39)"></path>
<path d="M0 0 C0.33 0 0.66 0 1 0 C1 4.29 1 8.58 1 13 C11.56 13 22.12 13 33 13 C33 8.71 33 4.42 33 0 C36.3 0 39.6 0 43 0 C43 4.62 43 9.24 43 14 C28.81 14 14.62 14 0 14 C0 9.38 0 4.76 0 0 Z " fill="#7D41E4" transform="translate(43,296)"></path>
<path d="M0 0 C4.62 0 9.24 0 14 0 C14 4.29 14 8.58 14 13 C9.38 13 4.76 13 0 13 C0 8.71 0 4.42 0 0 Z " fill="#B649EF" transform="translate(168,205)"></path>
<path d="M0 0 C3.63 0 7.26 0 11 0 C11 4.29 11 8.58 11 13 C-3.52 13 -18.04 13 -33 13 C-33 12.67 -33 12.34 -33 12 C-22.11 12 -11.22 12 0 12 C0 8.04 0 4.08 0 0 Z " fill="#D35FE8" transform="translate(120,71)"></path>
<path d="M0 0 C0.33 0 0.66 0 1 0 C1 3.96 1 7.92 1 12 C11.56 12 22.12 12 33 12 C33 8.04 33 4.08 33 0 C36.3 0 39.6 0 43 0 C43 4.29 43 8.58 43 13 C28.81 13 14.62 13 0 13 C0 8.71 0 4.42 0 0 Z " fill="#9545E6" transform="translate(268,251)"></path>
<path d="M0 0 C0.33 0 0.66 0 1 0 C1 3.96 1 7.92 1 12 C11.56 12 22.12 12 33 12 C33 8.04 33 4.08 33 0 C36.3 0 39.6 0 43 0 C43 4.29 43 8.58 43 13 C28.81 13 14.62 13 0 13 C0 8.71 0 4.42 0 0 Z " fill="#C755E5" transform="translate(268,71)"></path>
<path d="M0 0 C0.33 0 0.66 0 1 0 C1 14.52 1 29.04 1 44 C-2.63 44 -6.26 44 -10 44 C-10 39.71 -10 35.42 -10 31 C-6.7 31 -3.4 31 0 31 C0 20.77 0 10.54 0 0 Z " fill="#C459EA" transform="translate(267,84)"></path>
<path d="M0 0 C0.33 0 0.66 0 1 0 C1 14.52 1 29.04 1 44 C-2.63 44 -6.26 44 -10 44 C-10 39.71 -10 35.42 -10 31 C-6.7 31 -3.4 31 0 31 C0 20.77 0 10.54 0 0 Z " fill="#BC54E9" transform="translate(353,84)"></path>
<path d="M0 0 C13.86 0 27.72 0 42 0 C42 12.87 42 25.74 42 39 C41.67 39 41.34 39 41 39 C40.67 27.12 40.34 15.24 40 3 C39.34 2.67 38.68 2.34 38 2 C37.67 2.66 37.34 3.32 37 4 C37 3.34 37 2.68 37 2 C35.02 2.66 33.04 3.32 31 4 C31 3.34 31 2.68 31 2 C27.03047101 2.11798944 23.06119219 2.24221799 19.09204102 2.37231445 C17.74085853 2.41571223 16.38961947 2.4573837 15.03833008 2.49731445 C13.09963299 2.55489952 11.16113724 2.61914298 9.22265625 2.68359375 C8.05484619 2.72025146 6.88703613 2.75690918 5.68383789 2.79467773 C3.08220205 2.70076188 3.08220205 2.70076188 2 4 C1.84003834 6.59153107 1.74061303 9.1595202 1.68359375 11.75390625 C1.66281265 12.52935287 1.64203156 13.3047995 1.62062073 14.10374451 C1.55504198 16.58990308 1.49620201 19.07617045 1.4375 21.5625 C1.39432267 23.24415204 1.35070864 24.92579294 1.30664062 26.60742188 C1.19935221 30.73816871 1.09810868 34.86902536 1 39 C0.67 39 0.34 39 0 39 C0 26.13 0 13.26 0 0 Z " fill="#0086D7" transform="translate(226,356)"></path>
<path d="M0 0 C0.33 0 0.66 0 1 0 C1 15.18 1 30.36 1 46 C-2.63 46 -6.26 46 -10 46 C-10.09765625 37.50390625 -10.09765625 37.50390625 -10 35 C-9.505 34.505 -9.505 34.505 -9 34 C-6.36 34 -3.72 34 -1 34 C-0.67 22.78 -0.34 11.56 0 0 Z " fill="#6244DD" transform="translate(130,310)"></path>
<path d="M0 0 C3.96 0 7.92 0 12 0 C12 4.29 12 8.58 12 13 C8.04 13 4.08 13 0 13 C0 8.71 0 4.42 0 0 Z " fill="#BA49ED" transform="translate(132,205)"></path>
<path d="M0 0 C3.3 0 6.6 0 10 0 C10 3.96 10 7.92 10 12 C-3.86 12 -17.72 12 -32 12 C-32 11.67 -32 11.34 -32 11 C-21.44 11 -10.88 11 0 11 C0 7.37 0 3.74 0 0 Z " fill="#D058EA" transform="translate(215,72)"></path>
<path d="M0 0 C0.33 0 0.66 0 1 0 C2.05124601 9.74279789 2 19.11639397 2 29 C-11.86 29 -25.72 29 -40 29 C-40 28.67 -40 28.34 -40 28 C-27.79 28 -15.58 28 -3 28 C-3 24.37 -3 20.74 -3 17 C-2.90686042 14.31120728 -2.7860792 11.62307903 -2.625 8.9375 C-2.55539062 7.66777344 -2.48578125 6.39804688 -2.4140625 5.08984375 C-2 2 -2 2 0 0 Z " fill="#61007E" transform="translate(309,9)"></path>
<path d="M0 0 C2.97 0 5.94 0 9 0 C9 4.29 9 8.58 9 13 C-4.2 13 -17.4 13 -31 13 C-31 12.67 -31 12.34 -31 12 C-20.77 12 -10.54 12 0 12 C0 8.04 0 4.08 0 0 Z " fill="#7E3BE4" transform="translate(428,298)"></path>
<path d="M0 0 C3.63 0 7.26 0 11 0 C11 4.29 11 8.58 11 13 C7.37 13 3.74 13 0 13 C0 8.71 0 4.42 0 0 Z " fill="#8740EA" transform="translate(132,296)"></path>
<path d="M0 0 C3.3 0 6.6 0 10 0 C10 4.62 10 9.24 10 14 C6.7 14 3.4 14 0 14 C0 9.38 0 4.76 0 0 Z " fill="#5C41E3" transform="translate(33,342)"></path>
<path d="M0 0 C3.3 0 6.6 0 10 0 C10 4.62 10 9.24 10 14 C6.7 14 3.4 14 0 14 C0 9.38 0 4.76 0 0 Z " fill="#4736DE" transform="translate(385,342)"></path>
<path d="M0 0 C3.3 0 6.6 0 10 0 C10 4.62 10 9.24 10 14 C3.06640625 14.09765625 3.06640625 14.09765625 1 14 C0 13 0 13 -0.09765625 10.05859375 C-0.08605469 8.86363281 -0.07445312 7.66867187 -0.0625 6.4375 C-0.05347656 5.23996094 -0.04445312 4.04242188 -0.03515625 2.80859375 C-0.02355469 1.88175781 -0.01195312 0.95492188 0 0 Z " fill="#6040E5" transform="translate(215,342)"></path>
<path d="M0 0 C3.3 0 6.6 0 10 0 C10 4.29 10 8.58 10 13 C6.7 13 3.4 13 0 13 C0 8.71 0 4.42 0 0 Z " fill="#B54DF1" transform="translate(76,205)"></path>
<path d="M0 0 C3.3 0 6.6 0 10 0 C10 4.29 10 8.58 10 13 C6.7 13 3.4 13 0 13 C0 8.71 0 4.42 0 0 Z " fill="#C051F3" transform="translate(215,160)"></path>
<path d="M0 0 C3.3 0 6.6 0 10 0 C10 4.29 10 8.58 10 13 C6.7 13 3.4 13 0 13 C0 8.71 0 4.42 0 0 Z " fill="#C456F1" transform="translate(120,160)"></path>
<path d="M0 0 C3.3 0 6.6 0 10 0 C10 4.29 10 8.58 10 13 C6.7 13 3.4 13 0 13 C0 8.71 0 4.42 0 0 Z " fill="#AE40EF" transform="translate(385,160)"></path>
<path d="M0 0 C3.3 0 6.6 0 10 0 C10 4.29 10 8.58 10 13 C6.7 13 3.4 13 0 13 C0 8.71 0 4.42 0 0 Z " fill="#BA4DF0" transform="translate(301,160)"></path>
<path d="M0 0 C3.3 0 6.6 0 10 0 C10 4.29 10 8.58 10 13 C6.7 13 3.4 13 0 13 C0 8.71 0 4.42 0 0 Z " fill="#C141ED" transform="translate(385,70)"></path>
<path d="M0 0 C2.31 0 4.62 0 7 0 C7 4.29 7 8.58 7 13 C3.7 13 0.4 13 -3 13 C-3.31563182 7.73946963 -2.66590937 4.55426184 0 0 Z " fill="#583CDF" transform="translate(304,343)"></path>
<path d="M0 0 C13.86 0 27.72 0 42 0 C42 12.54 42 25.08 42 38 C41.67 38 41.34 38 41 38 C40.97494385 37.11739502 40.9498877 36.23479004 40.92407227 35.32543945 C40.8286647 32.03593385 40.72944807 28.74658818 40.62768555 25.45727539 C40.58450196 24.03642225 40.54281592 22.61552274 40.50268555 21.19458008 C40.44457905 19.1465053 40.38100362 17.09866035 40.31640625 15.05078125 C40.26141968 13.20480347 40.26141968 13.20480347 40.20532227 11.3215332 C39.97636424 7.61764031 39.6684987 4.33699739 38 1 C36.35 1.33 34.7 1.66 33 2 C32.67 4.97 32.34 7.94 32 11 C31.67 11 31.34 11 31 11 C31 7.7 31 4.4 31 1 C21.1 1 11.2 1 1 1 C1 6.28 1 11.56 1 17 C0.67 17 0.34 17 0 17 C0 11.39 0 5.78 0 0 Z " fill="#0093EA" transform="translate(312,357)"></path>
<path d="M0 0 C2.97 0 5.94 0 9 0 C9 4.29 9 8.58 9 13 C6.03 13 3.06 13 0 13 C0 8.71 0 4.42 0 0 Z " fill="#B438E9" transform="translate(428,206)"></path>
<path d="M0 0 C2.97 0 5.94 0 9 0 C9 4.29 9 8.58 9 13 C6.03 13 3.06 13 0 13 C0 8.71 0 4.42 0 0 Z " fill="#B246F0" transform="translate(258,205)"></path>
<path d="M0 0 C2.97 0 5.94 0 9 0 C9 4.29 9 8.58 9 13 C6.03 13 3.06 13 0 13 C0 8.71 0 4.42 0 0 Z " fill="#C254F2" transform="translate(33,160)"></path>
<path d="M0 0 C2.97 0 5.94 0 9 0 C9 4.29 9 8.58 9 13 C6.03 13 3.06 13 0 13 C0 8.71 0 4.42 0 0 Z " fill="#D347ED" transform="translate(428,115)"></path>
<path d="M0 0 C2.97 0 5.94 0 9 0 C9 3.96 9 7.92 9 12 C6.03 12 3.06 12 0 12 C0 8.04 0 4.08 0 0 Z " fill="#A63DEE" transform="translate(344,206)"></path>
<path d="M0 0 C16.83 0 33.66 0 51 0 C51 0.33 51 0.66 51 1 C49.68281982 1.02505615 48.36563965 1.0501123 47.00854492 1.07592773 C42.12758438 1.17000882 37.24676592 1.27022792 32.3659668 1.37231445 C30.2523938 1.41566064 28.13878586 1.45733594 26.02514648 1.49731445 C22.98931336 1.55502449 19.95365611 1.61871701 16.91796875 1.68359375 C15.97100632 1.70030624 15.02404388 1.71701874 14.04838562 1.73423767 C13.16769913 1.75418289 12.28701263 1.77412811 11.37963867 1.79467773 C10.60464523 1.81022202 9.82965179 1.8257663 9.03117371 1.84178162 C6.79667507 1.93355377 6.79667507 1.93355377 4 3 C3.34 2.67 2.68 2.34 2 2 C1.67 16.19 1.34 30.38 1 45 C0.67 45 0.34 45 0 45 C0 30.15 0 15.3 0 0 Z " fill="#900496" transform="translate(131,38)"></path>
<path d="M0 0 C14.19 0 28.38 0 43 0 C42.67 0.99 42.34 1.98 42 3 C22.2 2.505 22.2 2.505 2 2 C1.67 5.96 1.34 9.92 1 14 C0.67 14 0.34 14 0 14 C0 9.38 0 4.76 0 0 Z " fill="#7160E3" transform="translate(87,342)"></path>
<path d="M0 0 C13.86 0 27.72 0 42 0 C42 0.66 42 1.32 42 2 C28.47 2.33 14.94 2.66 1 3 C1 4.65 1 6.3 1 8 C1.66 8 2.32 8 3 8 C2.67 8.99 2.34 9.98 2 11 C1.34 11 0.68 11 0 11 C0 7.37 0 3.74 0 0 Z " fill="#E294E8" transform="translate(183,70)"></path>
<path d="M0 0 C13.53 0 27.06 0 41 0 C41 12.21 41 24.42 41 37 C40.67 37 40.34 37 40 37 C40 27.1 40 17.2 40 7 C39.34 7 38.68 7 38 7 C38 5.35 38 3.7 38 2 C36.02 2.66 34.04 3.32 32 4 C31.67 3.34 31.34 2.68 31 2 C20.77 1.67 10.54 1.34 0 1 C0 0.67 0 0.34 0 0 Z " fill="#0086DE" transform="translate(396,358)"></path>
<path d="M0 0 C13.86 0 27.72 0 42 0 C42 14.85 42 29.7 42 45 C41.67 45 41.34 45 41 45 C41 30.81 41 16.62 41 2 C40.34 2 39.68 2 39 2 C38.67 2.66 38.34 3.32 38 4 C38 3.34 38 2.68 38 2 C25.46 1.67 12.92 1.34 0 1 C0 0.67 0 0.34 0 0 Z " fill="#270C77" transform="translate(354,264)"></path>
<path d="M0 0 C0.33 0 0.66 0 1 0 C1 7.59 1 15.18 1 23 C11.56 23 22.12 23 33 23 C33 23.33 33 23.66 33 24 C32.05125 24.309375 31.1025 24.61875 30.125 24.9375 C27.13919592 25.87394742 27.13919592 25.87394742 25 27 C21.97013245 26.66334805 19.03200811 26.29183836 16.09375 25.4609375 C13.62583253 24.91762731 11.39884453 24.93972909 8.875 25 C4.22096317 25.11048159 4.22096317 25.11048159 2 24 C1.67 28.62 1.34 33.24 1 38 C0.67 38 0.34 38 0 38 C0 25.46 0 12.92 0 0 Z " fill="#EF27BB" transform="translate(43,0)"></path>
<path d="M0 0 C13.53 0 27.06 0 41 0 C41 0.33 41 0.66 41 1 C38.03 1 35.06 1 32 1 C32 4.96 32 8.92 32 13 C31.67 13 31.34 13 31 13 C31 9.37 31 5.74 31 2 C21.43 2 11.86 2 2 2 C1.67 5.63 1.34 9.26 1 13 C0.67 13 0.34 13 0 13 C0 8.71 0 4.42 0 0 Z " fill="#B669E8" transform="translate(312,205)"></path>
<path d="M0 0 C0.33 0 0.66 0 1 0 C1 6.6 1 13.2 1 20 C-1.64 20.99 -4.28 21.98 -7 23 C-7 22.34 -7 21.68 -7 21 C-7.66 21.33 -8.32 21.66 -9 22 C-11.79570785 22.03062591 -14.57694825 21.93285791 -17.37109375 21.83984375 C-20.23457357 21.7930483 -20.23457357 21.7930483 -23 24 C-23 22.35 -23 20.7 -23 19 C-15.96928537 17.72168825 -7.84867189 16.71710937 -1 19 C-1.01160156 18.04738281 -1.02320313 17.09476563 -1.03515625 16.11328125 C-1.04417969 14.85902344 -1.05320313 13.60476562 -1.0625 12.3125 C-1.07410156 11.07113281 -1.08570313 9.82976563 -1.09765625 8.55078125 C-1.01478673 5.53764546 -0.70839449 2.91724661 0 0 Z " fill="#FF3EC5" transform="translate(167,3)"></path>
<path d="M0 0 C13.86 0 27.72 0 42 0 C42 0.33 42 0.66 42 1 C29.13 1.33 16.26 1.66 3 2 C1.30973863 5.38052274 1.75555041 9.22260142 1.68359375 12.9453125 C1.66281265 13.8303244 1.64203156 14.7153363 1.62062073 15.62716675 C1.55513402 18.45969741 1.49624438 21.29232225 1.4375 24.125 C1.39431394 26.04297857 1.35069963 27.96094754 1.30664062 29.87890625 C1.19945353 34.58584051 1.0981836 39.29286967 1 44 C0.67 44 0.34 44 0 44 C0 29.48 0 14.96 0 0 Z " fill="#540580" transform="translate(268,84)"></path>
<path d="M0 0 C9.9 0 19.8 0 30 0 C30 10.56 30 21.12 30 32 C23.07 32 16.14 32 9 32 C9 31.67 9 31.34 9 31 C14.94 31 20.88 31 27 31 C28.07955212 27.76134365 28.20441741 25.20844162 28.31640625 21.80078125 C28.35451416 20.71192627 28.39262207 19.62307129 28.43188477 18.5012207 C28.49653931 16.42780396 28.49653931 16.42780396 28.5625 14.3125 C28.706875 9.919375 28.85125 5.52625 29 1 C19.43 1 9.86 1 0 1 C0 0.67 0 0.34 0 0 Z " fill="#BDBBF5" transform="translate(355,310)"></path>
<path d="M0 0 C14.19 0 28.38 0 43 0 C40.62216162 2.37783838 39.27926335 2.59009208 36 3 C35.34 2.67 34.68 2.34 34 2 C34 11.9 34 21.8 34 32 C33.67 32 33.34 32 33 32 C33 21.77 33 11.54 33 1 C22.11 1 11.22 1 0 1 C0 0.67 0 0.34 0 0 Z " fill="#A69DE5" transform="translate(268,395)"></path>
<path d="M0 0 C14.19 0 28.38 0 43 0 C43 0.33 43 0.66 43 1 C41.865625 1.12375 40.73125 1.2475 39.5625 1.375 C38.386875 1.58125 37.21125 1.7875 36 2 C34.60439955 4.79120091 34.78191712 7.20205692 34.68359375 10.3203125 C34.62075195 12.20556641 34.62075195 12.20556641 34.55664062 14.12890625 C34.51732422 15.44761719 34.47800781 16.76632812 34.4375 18.125 C34.39430488 19.46485751 34.35069027 20.80470156 34.30664062 22.14453125 C34.20029019 25.42957815 34.09826192 28.71470281 34 32 C33.67 32 33.34 32 33 32 C33 21.77 33 11.54 33 1 C22.11 1 11.22 1 0 1 C0 0.67 0 0.34 0 0 Z " fill="#A7A3E1" transform="translate(0,395)"></path>
<path d="M0 0 C10.56 0 21.12 0 32 0 C32 0.66 32 1.32 32 2 C27.73460768 3.64313057 24.52873128 4.19544139 19.98046875 3.828125 C18.3243457 3.69664062 18.3243457 3.69664062 16.63476562 3.5625 C15.49716797 3.459375 14.35957031 3.35625 13.1875 3.25 C12.03056641 3.16234375 10.87363281 3.0746875 9.68164062 2.984375 C3.34604755 2.44865838 3.34604755 2.44865838 1 2 C0.67 1.34 0.34 0.68 0 0 Z " fill="#6D65EA" transform="translate(1,342)"></path>
<path d="M0 0 C10.56 0 21.12 0 32 0 C32 0.66 32 1.32 32 2 C25.4 2 18.8 2 12 2 C12 2.66 12 3.32 12 4 C8.37 3.34 4.74 2.68 1 2 C1 3.98 1 5.96 1 8 C0.67 8 0.34 8 0 8 C0 5.36 0 2.72 0 0 Z " fill="#C575EA" transform="translate(44,205)"></path>
<path d="M0 0 C11.22 0 22.44 0 34 0 C34 0.33 34 0.66 34 1 C32.35 1 30.7 1 29 1 C29 1.66 29 2.32 29 3 C19.10355133 3.22867275 9.77092772 2.87387655 0 1 C0 0.67 0 0.34 0 0 Z " fill="#6A0084" transform="translate(233,39)"></path>
<path d="M0 0 C2.97 0 5.94 0 9 0 C8.03835937 0.89847656 7.07671875 1.79695313 6.0859375 2.72265625 C1.79599296 7.72759154 1.88904323 13.08160234 1.625 19.4375 C1.55667969 20.55060547 1.48835938 21.66371094 1.41796875 22.81054688 C1.25396962 25.53996096 1.11540688 28.26817242 1 31 C0.67 31 0.34 31 0 31 C0 20.77 0 10.54 0 0 Z " fill="#F5C3F1" transform="translate(33,39)"></path>
<path d="M0 0 C3.3 0 6.6 0 10 0 C10 0.66 10 1.32 10 2 C7.69 2 5.38 2 3 2 C3 5.96 3 9.92 3 14 C2.67 14 2.34 14 2 14 C1.67 19.94 1.34 25.88 1 32 C0.67 32 0.34 32 0 32 C0 21.44 0 10.88 0 0 Z " fill="#A690EF" transform="translate(215,310)"></path>
<path d="M0 0 C0.33 0 0.66 0 1 0 C1 3.3 1 6.6 1 10 C3.64 10 6.28 10 9 10 C9 11.98 9 13.96 9 16 C6.03 16 3.06 16 0 16 C0 10.72 0 5.44 0 0 Z " fill="#AE87EF" transform="translate(77,280)"></path>
<path d="M0 0 C9.9 0 19.8 0 30 0 C26.10103639 1.9494818 24.60746939 2.25560083 20.4296875 2.30859375 C18.83833984 2.34629883 18.83833984 2.34629883 17.21484375 2.38476562 C14.98052873 2.42004428 12.74614612 2.45126651 10.51171875 2.47851562 C9.45339844 2.50494141 8.39507812 2.53136719 7.3046875 2.55859375 C5.8503833 2.57877563 5.8503833 2.57877563 4.36669922 2.59936523 C3.58568848 2.73157471 2.80467773 2.86378418 2 3 C1.34 3.99 0.68 4.98 0 6 C0 4.02 0 2.04 0 0 Z " fill="#6663E4" transform="translate(355,342)"></path>
<path d="M0 0 C7.59 0 15.18 0 23 0 C23 7.875 23 7.875 22 12 C21.34 11.67 20.68 11.34 20 11 C20 9.68 20 8.36 20 7 C19.34 7 18.68 7 18 7 C18.33 5.02 18.66 3.04 19 1 C12.73 1 6.46 1 0 1 C0 0.67 0 0.34 0 0 Z " fill="#58007F" transform="translate(19,84)"></path>
<path d="M0 0 C0.99 0 1.98 0 3 0 C2 21.72340426 2 21.72340426 1 31 C0.67 31 0.34 31 0 31 C0 20.77 0 10.54 0 0 Z " fill="#B597EA" transform="translate(343,265)"></path>
<path d="M0 0 C1.32 0 2.64 0 4 0 C5.28317892 3.84953676 5.06643637 6.94738135 5 11 C4.34 11 3.68 11 3 11 C3 10.34 3 9.68 3 9 C2.01 9.33 1.02 9.66 0 10 C0 6.7 0 3.4 0 0 Z " fill="#A042F2" transform="translate(37,252)"></path>
<path d="M0 0 C0.99 0.33 1.98 0.66 3 1 C2.84660156 2.24652344 2.69320312 3.49304688 2.53515625 4.77734375 C1.91447586 10.36346727 1.66413379 15.94866968 1.4375 21.5625 C1.39431641 22.57119141 1.35113281 23.57988281 1.30664062 24.61914062 C1.20170382 27.07932575 1.09954299 29.53959175 1 32 C0.67 32 0.34 32 0 32 C0 21.44 0 10.88 0 0 Z " fill="#A995E7" transform="translate(33,310)"></path>
<path d="M0 0 C0.33 0 0.66 0 1 0 C1.33 4.29 1.66 8.58 2 13 C3.32 12.34 4.64 11.68 6 11 C5.67 12.32 5.34 13.64 5 15 C5.99 14.67 6.98 14.34 8 14 C8.33 14.66 8.66 15.32 9 16 C6.03 16 3.06 16 0 16 C0 10.72 0 5.44 0 0 Z " fill="#A782F1" transform="translate(258,280)"></path>
<path d="M0 0 C7.59 0 15.18 0 23 0 C19 2 19 2 16 3 C16 2.34 16 1.68 16 1 C15.01 1.495 15.01 1.495 14 2 C11.20429215 2.03062591 8.42305175 1.93285791 5.62890625 1.83984375 C2.76542643 1.7930483 2.76542643 1.7930483 0 4 C0 2.68 0 1.36 0 0 Z " fill="#FF26C0" transform="translate(144,23)"></path>
<path d="M0 0 C1.65 0 3.3 0 5 0 C4.2733313 0.79519043 4.2733313 0.79519043 3.53198242 1.60644531 C1.58008933 4.65606441 1.57329618 6.69224199 1.48828125 10.296875 C1.45283203 11.50214844 1.41738281 12.70742187 1.38085938 13.94921875 C1.35830078 15.20347656 1.33574219 16.45773438 1.3125 17.75 C1.27833984 19.01972656 1.24417969 20.28945312 1.20898438 21.59765625 C1.12650999 24.73168274 1.05735516 27.86542955 1 31 C0.67 31 0.34 31 0 31 C0 20.77 0 10.54 0 0 Z " fill="#D59EE7" transform="translate(428,175)"></path>
<path d="M0 0 C1.32 0.33 2.64 0.66 4 1 C3.34 1.66 2.68 2.32 2 3 C1.72138603 5.81711479 1.72138603 5.81711479 1.8046875 9.1015625 C1.81113281 10.31328125 1.81757813 11.525 1.82421875 12.7734375 C1.84097656 14.04445312 1.85773438 15.31546875 1.875 16.625 C1.88402344 17.90375 1.89304687 19.1825 1.90234375 20.5 C1.92597697 23.66685167 1.95892371 26.83333424 2 30 C1.34 30 0.68 30 0 30 C0 20.1 0 10.2 0 0 Z " fill="#B692E6" transform="translate(385,220)"></path>
<path d="M0 0 C2 3 2 3 2 5 C9.92 5 17.84 5 26 5 C26 5.33 26 5.66 26 6 C17.09 6 8.18 6 -1 6 C-1 1 -1 1 0 0 Z " fill="#410071" transform="translate(185,121)"></path>
<path d="M0 0 C1.32 0 2.64 0 4 0 C3.51781006 1.0667395 3.51781006 1.0667395 3.02587891 2.1550293 C1.96125404 5.10745043 1.69067367 7.3949021 1.5859375 10.51953125 C1.54726562 11.54111328 1.50859375 12.56269531 1.46875 13.61523438 C1.4378125 14.67033203 1.406875 15.72542969 1.375 16.8125 C1.33632812 17.88693359 1.29765625 18.96136719 1.2578125 20.06835938 C1.16381387 22.71207088 1.07815427 25.3557805 1 28 C0.67 28 0.34 28 0 28 C0 18.76 0 9.52 0 0 Z " fill="#8D008C" transform="translate(183,0)"></path>
<path d="M0 0 C1.32 0.33 2.64 0.66 4 1 C3.34 1.66 2.68 2.32 2 3 C1.62760773 5.81402683 1.62760773 5.81402683 1.5859375 9.1015625 C1.54726563 10.31328125 1.50859375 11.525 1.46875 12.7734375 C1.4378125 14.04445312 1.406875 15.31546875 1.375 16.625 C1.33632813 17.90375 1.29765625 19.1825 1.2578125 20.5 C1.16328951 23.66652017 1.07773643 26.8330304 1 30 C0.67 30 0.34 30 0 30 C0 20.1 0 10.2 0 0 Z " fill="#C49DE8" transform="translate(301,220)"></path>
<path d="M0 0 C10.23 0 20.46 0 31 0 C30.67 0.99 30.34 1.98 30 3 C29.34 2.67 28.68 2.34 28 2 C25.89625004 1.84558791 23.78804881 1.75007361 21.6796875 1.68359375 C20.42285156 1.64169922 19.16601562 1.59980469 17.87109375 1.55664062 C16.55238281 1.51732422 15.23367188 1.47800781 13.875 1.4375 C12.53514249 1.39430488 11.19529844 1.35069027 9.85546875 1.30664062 C6.57042185 1.20029019 3.28529719 1.09826192 0 1 C0 0.67 0 0.34 0 0 Z " fill="#E1D9FA" transform="translate(269,396)"></path>
<path d="M0 0 C2.31 0 4.62 0 7 0 C7 0.99 7 1.98 7 3 C5.35 3.33 3.7 3.66 2 4 C1.67 6.97 1.34 9.94 1 13 C0.67 13 0.34 13 0 13 C0 8.71 0 4.42 0 0 Z " fill="#FF18BF" transform="translate(257,0)"></path>
<path d="M0 0 C1.32 0.33 2.64 0.66 4 1 C3.67 2.98 3.34 4.96 3 7 C3.66 7.33 4.32 7.66 5 8 C3.35 8.33 1.7 8.66 0 9 C0 6.03 0 3.06 0 0 Z " fill="#FF1DBD" transform="translate(133,14)"></path>
<path d="M0 0 C3.3 0 6.6 0 10 0 C10 0.66 10 1.32 10 2 C7.69 2 5.38 2 3 2 C2.34 4.31 1.68 6.62 1 9 C0.67 9 0.34 9 0 9 C0 6.03 0 3.06 0 0 Z " fill="#B28CEF" transform="translate(120,396)"></path>
<path d="M0 0 C1.98 0 3.96 0 6 0 C6 4.95 6 9.9 6 15 C5.67 15 5.34 15 5 15 C4.67 10.71 4.34 6.42 4 2 C3.01 2.495 3.01 2.495 2 3 C1.34 2.67 0.68 2.34 0 2 C0 1.34 0 0.68 0 0 Z " fill="#C9A1EF" transform="translate(137,265)"></path>
<path d="M0 0 C3.3 0 6.6 0 10 0 C10 0.33 10 0.66 10 1 C8.865625 1.12375 7.73125 1.2475 6.5625 1.375 C4.7990625 1.684375 4.7990625 1.684375 3 2 C1.7018576 4.2236068 1.7018576 4.2236068 2 8 C1.34 8 0.68 8 0 8 C0 5.36 0 2.72 0 0 Z " fill="#AA93E3" transform="translate(33,395)"></path>
<path d="M0 0 C0.33 0 0.66 0 1 0 C1 3.3 1 6.6 1 10 C2.98 9.34 4.96 8.68 7 8 C7.33 8.99 7.66 9.98 8 11 C5.36 11 2.72 11 0 11 C0 7.37 0 3.74 0 0 Z " fill="#8B77ED" transform="translate(34,331)"></path>
<path d="M0 0 C3.96 0 7.92 0 12 0 C12 0.33 12 0.66 12 1 C8.17679443 2.42258812 5.08718695 3.24042276 1 3 C0.67 2.01 0.34 1.02 0 0 Z " fill="#710081" transform="translate(396,39)"></path>
<path d="M0 0 C2.64 0.33 5.28 0.66 8 1 C7.67 1.66 7.34 2.32 7 3 C5.35 3 3.7 3 2 3 C1.67 3.66 1.34 4.32 1 5 C0.67 3.35 0.34 1.7 0 0 Z " fill="#FF13BA" transform="translate(398,0)"></path>
<path d="M0 0 C3.3 0 6.6 0 10 0 C10 0.33 10 0.66 10 1 C7.69 1 5.38 1 3 1 C2.34 2.98 1.68 4.96 1 7 C0.67 7 0.34 7 0 7 C0 4.69 0 2.38 0 0 Z " fill="#6448E7" transform="translate(301,342)"></path>
<path d="M0 0 C0.33 0 0.66 0 1 0 C1 1.65 1 3.3 1 5 C-3.29 5 -7.58 5 -12 5 C-12 4.67 -12 4.34 -12 4 C-10.95199219 3.94392578 -10.95199219 3.94392578 -9.8828125 3.88671875 C-8.97273437 3.82097656 -8.06265625 3.75523438 -7.125 3.6875 C-6.22007812 3.62949219 -5.31515625 3.57148437 -4.3828125 3.51171875 C-1.63778399 3.2117961 -1.63778399 3.2117961 0 0 Z " fill="#F201C9" transform="translate(181,33)"></path>
<path d="M0 0 C0.99 0 1.98 0 3 0 C2.67 0.99 2.34 1.98 2 3 C1.77674186 5.05893621 1.59294241 7.12233653 1.4375 9.1875 C1.35371094 10.27417969 1.26992187 11.36085938 1.18359375 12.48046875 C1.12300781 13.31191406 1.06242187 14.14335937 1 15 C0.67 15 0.34 15 0 15 C0 10.05 0 5.1 0 0 Z " fill="#050E66" transform="translate(88,357)"></path>
<path d="M0 0 C3.63 0 7.26 0 11 0 C11 0.33 11 0.66 11 1 C10.06027344 1.19916016 10.06027344 1.19916016 9.1015625 1.40234375 C7.87566406 1.66724609 7.87566406 1.66724609 6.625 1.9375 C5.81289063 2.11152344 5.00078125 2.28554688 4.1640625 2.46484375 C1.970537 2.92330693 1.970537 2.92330693 0 4 C0 2.68 0 1.36 0 0 Z " fill="#120469" transform="translate(396,312)"></path>
<path d="M0 0 C1.98 0 3.96 0 6 0 C6 0.99 6 1.98 6 3 C4.02 3 2.04 3 0 3 C0 2.01 0 1.02 0 0 Z " fill="#53007A" transform="translate(44,80)"></path>
<path d="M0 0 C1.485 0.99 1.485 0.99 3 2 C2.34 2 1.68 2 1 2 C1 3.65 1 5.3 1 7 C1.66 7 2.32 7 3 7 C2.67 7.99 2.34 8.98 2 10 C1.34 10 0.68 10 0 10 C0 6.7 0 3.4 0 0 Z " fill="#E58BF0" transform="translate(183,71)"></path>
</svg>
