<?xml version="1.0" encoding="UTF-8"?>
<svg version="1.1" xmlns="http://www.w3.org/2000/svg" width="467" height="458">
<path d="M0 0 C154.11 0 308.22 0 467 0 C467 151.14 467 302.28 467 458 C312.89 458 158.78 458 0 458 C0 306.86 0 155.72 0 0 Z " fill="#5F2A8F" transform="translate(0,0)"></path>
<path d="M0 0 C14.85 0 29.7 0 45 0 C45 15.84 45 31.68 45 48 C30.48 48 15.96 48 1 48 C1 63.84 1 79.68 1 96 C15.85 96 30.7 96 46 96 C46 112.17 46 128.34 46 145 C61.09364568 144.96039251 61.09364568 144.96039251 76.18725586 144.90991211 C78.07145125 144.90699308 79.95564727 144.90444449 81.83984375 144.90234375 C82.82795044 144.89722778 83.81605713 144.89211182 84.83410645 144.88684082 C85.76791138 144.88671997 86.70171631 144.88659912 87.66381836 144.88647461 C88.47878281 144.884254 89.29374725 144.88203339 90.13340759 144.87974548 C92 145 92 145 93 146 C93.10069871 148.27294079 93.13082036 150.54904928 93.1328125 152.82421875 C93.13424759 153.87099541 93.13424759 153.87099541 93.13571167 154.93891907 C93.13639451 156.42778615 93.13453305 157.91665616 93.13037109 159.40551758 C93.12512816 161.63304817 93.13025712 163.86036726 93.13671875 166.08789062 C93.13605596 167.5416671 93.13477067 168.99544344 93.1328125 170.44921875 C93.13168457 171.75205811 93.13055664 173.05489746 93.12939453 174.3972168 C92.95482059 180.60710846 92.44261126 186.80344242 92 193 C76.82 193 61.64 193 46 193 C46 209.17 46 225.34 46 242 C31.15 242 16.3 242 1 242 C1 258.17 1 274.34 1 291 C15.85 291 30.7 291 46 291 C46 307.5 46 324 46 341 C61.18 341 76.36 341 92 341 C92 354.86 92 368.72 92 383 C77.15 383 62.3 383 47 383 C47 393.56 47 404.12 47 415 C-48.04 415 -143.08 415 -241 415 C-241 325.9 -241 236.8 -241 145 C-226.15 145 -211.3 145 -196 145 C-196 128.83 -196 112.66 -196 96 C-180.49 96 -164.98 96 -149 96 C-149 80.16 -149 64.32 -149 48 C-133.16 48 -117.32 48 -101 48 C-101 63.84 -101 79.68 -101 96 C-82.85 96 -64.7 96 -46 96 C-46 80.16 -46 64.32 -46 48 C-30.82 48 -15.64 48 0 48 C0 32.16 0 16.32 0 0 Z " fill="#642E95" transform="translate(241,43)"></path>
<path d="M0 0 C109.89 0 219.78 0 333 0 C333 13.86 333 27.72 333 42 C302.30827022 42.74179407 271.7000279 43.09808316 241 43 C241 58.84 241 74.68 241 91 C225.82 91 210.64 91 195 91 C195 106.84 195 122.68 195 139 C176.85 139 158.7 139 140 139 C140 123.16 140 107.32 140 91 C124.16 91 108.32 91 92 91 C92 106.84 92 122.68 92 139 C76.49 139 60.98 139 45 139 C45 155.17 45 171.34 45 188 C30.15 188 15.3 188 0 188 C0 125.96 0 63.92 0 0 Z " fill="#880390" transform="translate(0,0)"></path>
<path d="M0 0 C15.51 0 31.02 0 47 0 C47 16.17 47 32.34 47 49 C62.51 49 78.02 49 94 49 C94 65.5 94 82 94 99 C78.49 99 62.98 99 47 99 C47 112.86 47 126.72 47 141 C62.84 141 78.68 141 95 141 C95 127.14 95 113.28 95 99 C113.15 99 131.3 99 150 99 C150 112.86 150 126.72 150 141 C165.18 141 180.36 141 196 141 C196 151.56 196 162.12 196 173 C116.47 173 36.94 173 -45 173 C-45 132.08 -45 91.16 -45 49 C-30.15 49 -15.3 49 0 49 C0 32.83 0 16.66 0 0 Z " fill="#D5CFF8" transform="translate(45,285)"></path>
<path d="M0 0 C14.85 0 29.7 0 45 0 C45.33 13.86 45.66 27.72 46 42 C92.53 42.495 92.53 42.495 140 43 C140 58.84 140 74.68 140 91 C124.16 91 108.32 91 92 91 C92 106.84 92 122.68 92 139 C76.49 139 60.98 139 45 139 C45 155.17 45 171.34 45 188 C30.15 188 15.3 188 0 188 C0 125.96 0 63.92 0 0 Z " fill="#630183" transform="translate(0,0)"></path>
<path d="M0 0 C43.89 0 87.78 0 133 0 C133 30.03 133 60.06 133 91 C119.14 91 105.28 91 91 91 C91 75.16 91 59.32 91 43 C84.338125 43.020625 77.67625 43.04125 70.8125 43.0625 C47.19240643 43.09765278 23.61359236 42.60162019 0 42 C0 28.14 0 14.28 0 0 Z " fill="#5C017D" transform="translate(334,0)"></path>
<path d="M0 0 C15.51 0 31.02 0 47 0 C47 16.17 47 32.34 47 49 C62.51 49 78.02 49 94 49 C94 65.5 94 82 94 99 C78.49 99 62.98 99 47 99 C47 82.83 47 66.66 47 50 C31.49 50 15.98 50 0 50 C0 66.17 0 82.34 0 99 C-14.85 99 -29.7 99 -45 99 C-45 82.5 -45 66 -45 49 C-30.15 49 -15.3 49 0 49 C0 32.83 0 16.66 0 0 Z " fill="#6656EC" transform="translate(45,285)"></path>
<path d="M0 0 C14.52 0 29.04 0 44 0 C44 13.53 44 27.06 44 41 C58.19 41 72.38 41 87 41 C87 51.56 87 62.12 87 73 C43.11 73 -0.78 73 -46 73 C-46 62.77 -46 52.54 -46 42 C-30.82 42 -15.64 42 0 42 C0 28.14 0 14.28 0 0 Z " fill="#CACAF9" transform="translate(380,385)"></path>
<path d="M0 0 C18.15 0 36.3 0 55 0 C55 16.17 55 32.34 55 49 C36.85 49 18.7 49 0 49 C0 32.83 0 16.66 0 0 Z " fill="#0E0965" transform="translate(140,335)"></path>
<path d="M0 0 C18.15 0 36.3 0 55 0 C55 16.17 55 32.34 55 49 C36.85 49 18.7 49 0 49 C0 32.83 0 16.66 0 0 Z " fill="#B78EEE" transform="translate(140,285)"></path>
<path d="M0 0 C18.15 0 36.3 0 55 0 C55 15.84 55 31.68 55 48 C36.85 48 18.7 48 0 48 C0 32.16 0 16.32 0 0 Z " fill="#2B0068" transform="translate(140,237)"></path>
<path d="M0 0 C18.15 0 36.3 0 55 0 C55 15.84 55 31.68 55 48 C36.85 48 18.7 48 0 48 C0 32.16 0 16.32 0 0 Z " fill="#DCA2F6" transform="translate(140,188)"></path>
<path d="M0 0 C18.15 0 36.3 0 55 0 C55 15.84 55 31.68 55 48 C36.85 48 18.7 48 0 48 C0 32.16 0 16.32 0 0 Z " fill="#3F0072" transform="translate(140,139)"></path>
<path d="M0 0 C18.15 0 36.3 0 55 0 C55 15.84 55 31.68 55 48 C36.85 48 18.7 48 0 48 C0 32.16 0 16.32 0 0 Z " fill="#E7B0EF" transform="translate(140,91)"></path>
<path d="M0 0 C18.15 0 36.3 0 55 0 C55 15.84 55 31.68 55 48 C36.85 48 18.7 48 0 48 C0 32.16 0 16.32 0 0 Z " fill="#620083" transform="translate(140,43)"></path>
<path d="M0 0 C18.15 0 36.3 0 55 0 C55 13.86 55 27.72 55 42 C36.85 42 18.7 42 0 42 C0 28.14 0 14.28 0 0 Z " fill="#00B2FC" transform="translate(140,384)"></path>
<path d="M0 0 C18.15 0 36.3 0 55 0 C55 13.86 55 27.72 55 42 C36.85 42 18.7 42 0 42 C0 28.14 0 14.28 0 0 Z " fill="#FE0CC0" transform="translate(140,0)"></path>
<path d="M0 0 C15.84 0 31.68 0 48 0 C48 15.84 48 31.68 48 48 C32.16 48 16.32 48 0 48 C0 32.16 0 16.32 0 0 Z " fill="#35006C" transform="translate(92,188)"></path>
<path d="M0 0 C15.84 0 31.68 0 48 0 C48 15.84 48 31.68 48 48 C32.16 48 16.32 48 0 48 C0 32.16 0 16.32 0 0 Z " fill="#4E017B" transform="translate(92,91)"></path>
<path d="M0 0 C15.84 0 31.68 0 48 0 C48 15.84 48 31.68 48 48 C32.16 48 16.32 48 0 48 C0 32.16 0 16.32 0 0 Z " fill="#FDF6FC" transform="translate(92,43)"></path>
<path d="M0 0 C15.51 0 31.02 0 47 0 C47 16.17 47 32.34 47 49 C31.49 49 15.98 49 0 49 C0 32.83 0 16.66 0 0 Z " fill="#0E0964" transform="translate(45,335)"></path>
<path d="M0 0 C15.51 0 31.02 0 47 0 C47 16.17 47 32.34 47 49 C31.49 49 15.98 49 0 49 C0 32.83 0 16.66 0 0 Z " fill="#FEECFB" transform="translate(92,139)"></path>
<path d="M0 0 C15.51 0 31.02 0 47 0 C47 16.17 47 32.34 47 49 C31.49 49 15.98 49 0 49 C0 32.83 0 16.66 0 0 Z " fill="#3D0271" transform="translate(45,139)"></path>
<path d="M0 0 C15.51 0 31.02 0 47 0 C47 15.84 47 31.68 47 48 C31.49 48 15.98 48 0 48 C0 32.16 0 16.32 0 0 Z " fill="#200164" transform="translate(92,286)"></path>
<path d="M0 0 C15.51 0 31.02 0 47 0 C47 15.84 47 31.68 47 48 C31.49 48 15.98 48 0 48 C0 32.16 0 16.32 0 0 Z " fill="#F5E0FA" transform="translate(92,237)"></path>
<path d="M0 0 C15.51 0 31.02 0 47 0 C47 15.84 47 31.68 47 48 C31.49 48 15.98 48 0 48 C0 32.16 0 16.32 0 0 Z " fill="#2A0168" transform="translate(45,237)"></path>
<path d="M0 0 C15.51 0 31.02 0 47 0 C47 15.84 47 31.68 47 48 C31.49 48 15.98 48 0 48 C0 32.16 0 16.32 0 0 Z " fill="#FBE2F9" transform="translate(45,188)"></path>
<path d="M0 0 C15.51 0 31.02 0 47 0 C47 15.84 47 31.68 47 48 C31.49 48 15.98 48 0 48 C0 32.16 0 16.32 0 0 Z " fill="#FDF0FB" transform="translate(45,91)"></path>
<path d="M0 0 C15.18 0 30.36 0 46 0 C46 16.17 46 32.34 46 49 C30.82 49 15.64 49 0 49 C0 32.83 0 16.66 0 0 Z " fill="#D074F6" transform="translate(287,139)"></path>
<path d="M0 0 C11.3540625 -0.0309375 11.3540625 -0.0309375 22.9375 -0.0625 C25.32991943 -0.071604 27.72233887 -0.08070801 30.18725586 -0.09008789 C32.07145125 -0.09300692 33.95564727 -0.09555551 35.83984375 -0.09765625 C37.32200378 -0.1053302 37.32200378 -0.1053302 38.83410645 -0.11315918 C39.76791138 -0.11328003 40.70171631 -0.11340088 41.66381836 -0.11352539 C42.47878281 -0.115746 43.29374725 -0.11796661 44.13340759 -0.12025452 C46 0 46 0 47 1 C47.10069871 3.27294079 47.13082036 5.54904928 47.1328125 7.82421875 C47.13376923 8.52206985 47.13472595 9.21992096 47.13571167 9.93891907 C47.13639451 11.42778615 47.13453305 12.91665616 47.13037109 14.40551758 C47.12512816 16.63304817 47.13025712 18.86036726 47.13671875 21.08789062 C47.13605596 22.5416671 47.13477067 23.99544344 47.1328125 25.44921875 C47.13168457 26.75205811 47.13055664 28.05489746 47.12939453 29.3972168 C46.95482059 35.60710846 46.44261126 41.80344242 46 48 C30.82 48 15.64 48 0 48 C0 32.16 0 16.32 0 0 Z " fill="#300069" transform="translate(287,188)"></path>
<path d="M0 0 C15.18 0 30.36 0 46 0 C46 15.84 46 31.68 46 48 C30.82 48 15.64 48 0 48 C0 32.16 0 16.32 0 0 Z " fill="#1D0162" transform="translate(287,286)"></path>
<path d="M0 0 C15.18 0 30.36 0 46 0 C46 15.84 46 31.68 46 48 C30.82 48 15.64 48 0 48 C0 32.16 0 16.32 0 0 Z " fill="#F3DFFA" transform="translate(195,237)"></path>
<path d="M0 0 C15.18 0 30.36 0 46 0 C46 15.84 46 31.68 46 48 C30.82 48 15.64 48 0 48 C0 32.16 0 16.32 0 0 Z " fill="#FDF3FB" transform="translate(287,43)"></path>
<path d="M0 0 C15.18 0 30.36 0 46 0 C46 15.84 46 31.68 46 48 C30.82 48 15.64 48 0 48 C0 32.16 0 16.32 0 0 Z " fill="#FDF5FC" transform="translate(195,43)"></path>
<path d="M0 0 C14.85 0 29.7 0 45 0 C45 16.17 45 32.34 45 49 C30.15 49 15.3 49 0 49 C0 32.83 0 16.66 0 0 Z " fill="#090A61" transform="translate(334,335)"></path>
<path d="M0 0 C14.85 0 29.7 0 45 0 C45 16.17 45 32.34 45 49 C30.15 49 15.3 49 0 49 C0 32.83 0 16.66 0 0 Z " fill="#0D0963" transform="translate(242,335)"></path>
<path d="M0 0 C14.85 0 29.7 0 45 0 C45 16.17 45 32.34 45 49 C30.15 49 15.3 49 0 49 C0 32.83 0 16.66 0 0 Z " fill="#8E61EC" transform="translate(334,285)"></path>
<path d="M0 0 C14.85 0 29.7 0 45 0 C45 16.17 45 32.34 45 49 C30.15 49 15.3 49 0 49 C0 32.83 0 16.66 0 0 Z " fill="#1E0264" transform="translate(0,285)"></path>
<path d="M0 0 C14.85 0 29.7 0 45 0 C45 16.17 45 32.34 45 49 C30.15 49 15.3 49 0 49 C0 32.83 0 16.66 0 0 Z " fill="#FEEBFB" transform="translate(196,139)"></path>
<path d="M0 0 C14.85 0 29.7 0 45 0 C45 16.17 45 32.34 45 49 C30.15 49 15.3 49 0 49 C0 32.83 0 16.66 0 0 Z " fill="#FDEAFB" transform="translate(0,139)"></path>
<path d="M0 0 C15.18 0 30.36 0 46 0 C46 15.51 46 31.02 46 47 C30.82 47 15.64 47 0 47 C0 31.49 0 15.98 0 0 Z " fill="#440075" transform="translate(287,92)"></path>
<path d="M0 0 C14.85 0 29.7 0 45 0 C45 15.84 45 31.68 45 48 C30.15 48 15.3 48 0 48 C0 32.16 0 16.32 0 0 Z " fill="#1E0164" transform="translate(196,286)"></path>
<path d="M0 0 C14.85 0 29.7 0 45 0 C45 15.84 45 31.68 45 48 C30.15 48 15.3 48 0 48 C0 32.16 0 16.32 0 0 Z " fill="#260064" transform="translate(334,237)"></path>
<path d="M0 0 C14.85 0 29.7 0 45 0 C45 15.84 45 31.68 45 48 C30.15 48 15.3 48 0 48 C0 32.16 0 16.32 0 0 Z " fill="#F2DCFA" transform="translate(0,237)"></path>
<path d="M0 0 C14.85 0 29.7 0 45 0 C45 15.84 45 31.68 45 48 C30.15 48 15.3 48 0 48 C0 32.16 0 16.32 0 0 Z " fill="#F8E1FA" transform="translate(334,188)"></path>
<path d="M0 0 C14.85 0 29.7 0 45 0 C45 15.84 45 31.68 45 48 C30.15 48 15.3 48 0 48 C0 32.16 0 16.32 0 0 Z " fill="#FAE2FA" transform="translate(242,188)"></path>
<path d="M0 0 C14.85 0 29.7 0 45 0 C45 15.84 45 31.68 45 48 C30.15 48 15.3 48 0 48 C0 32.16 0 16.32 0 0 Z " fill="#34006B" transform="translate(196,188)"></path>
<path d="M0 0 C14.85 0 29.7 0 45 0 C45 15.84 45 31.68 45 48 C30.15 48 15.3 48 0 48 C0 32.16 0 16.32 0 0 Z " fill="#34006B" transform="translate(0,188)"></path>
<path d="M0 0 C14.85 0 29.7 0 45 0 C45 15.84 45 31.68 45 48 C30.15 48 15.3 48 0 48 C0 32.16 0 16.32 0 0 Z " fill="#CF74EC" transform="translate(334,91)"></path>
<path d="M0 0 C14.85 0 29.7 0 45 0 C45 15.84 45 31.68 45 48 C30.15 48 15.3 48 0 48 C0 32.16 0 16.32 0 0 Z " fill="#4D007A" transform="translate(0,91)"></path>
<path d="M0 0 C14.85 0 29.7 0 45 0 C45 15.84 45 31.68 45 48 C30.15 48 15.3 48 0 48 C0 32.16 0 16.32 0 0 Z " fill="#FDF3FC" transform="translate(0,43)"></path>
<path d="M0 0 C14.85 0 29.7 0 45 0 C45 15.84 45 31.68 45 48 C30.15 48 15.3 48 0 48 C0 32.16 0 16.32 0 0 Z " fill="#4F0079" transform="translate(334,43)"></path>
<path d="M0 0 C10.8590625 -0.0309375 10.8590625 -0.0309375 21.9375 -0.0625 C24.22550537 -0.071604 26.51351074 -0.08070801 28.87084961 -0.09008789 C30.67301372 -0.09300695 32.4751785 -0.09555553 34.27734375 -0.09765625 C35.22226685 -0.10277222 36.16718994 -0.10788818 37.14074707 -0.11315918 C38.48054626 -0.11334045 38.48054626 -0.11334045 39.84741211 -0.11352539 C40.62684677 -0.115746 41.40628143 -0.11796661 42.20933533 -0.12025452 C44 0 44 0 45 1 C45.09304018 2.47354348 45.11746265 3.95150591 45.11352539 5.42797852 C45.11344986 6.36887833 45.11337433 7.30977814 45.11329651 8.27919006 C45.10813522 9.30209641 45.10297394 10.32500275 45.09765625 11.37890625 C45.0962413 12.42070541 45.09482635 13.46250458 45.09336853 14.53587341 C45.0877508 17.87811094 45.0751953 21.22028257 45.0625 24.5625 C45.05748728 26.82226466 45.05292398 29.08203037 45.04882812 31.34179688 C45.03862456 36.89457734 45.01905264 42.44721452 45 48 C30.15 48 15.3 48 0 48 C0 32.16 0 16.32 0 0 Z " fill="#FDEFFA" transform="translate(242,91)"></path>
<path d="M0 0 C14.52 0 29.04 0 44 0 C44 16.17 44 32.34 44 49 C29.48 49 14.96 49 0 49 C0 32.83 0 16.66 0 0 Z " fill="#FBE4FA" transform="translate(380,139)"></path>
<path d="M0 0 C14.85 0 29.7 0 45 0 C45 15.51 45 31.02 45 47 C30.15 47 15.3 47 0 47 C0 31.49 0 15.98 0 0 Z " fill="#34006A" transform="translate(334,140)"></path>
<path d="M0 0 C14.85 0 29.7 0 45 0 C45 15.51 45 31.02 45 47 C30.15 47 15.3 47 0 47 C0 31.49 0 15.98 0 0 Z " fill="#4B0079" transform="translate(196,92)"></path>
<path d="M0 0 C14.52 0 29.04 0 44 0 C44 15.84 44 31.68 44 48 C29.48 48 14.96 48 0 48 C0 32.16 0 16.32 0 0 Z " fill="#160361" transform="translate(380,286)"></path>
<path d="M0 0 C14.52 0 29.04 0 44 0 C44 15.84 44 31.68 44 48 C29.48 48 14.96 48 0 48 C0 32.16 0 16.32 0 0 Z " fill="#A35DF4" transform="translate(380,237)"></path>
<path d="M0 0 C14.52 0 29.04 0 44 0 C44 15.84 44 31.68 44 48 C29.48 48 14.96 48 0 48 C0 32.16 0 16.32 0 0 Z " fill="#290066" transform="translate(242,237)"></path>
<path d="M0 0 C14.52 0 29.04 0 44 0 C44 15.84 44 31.68 44 48 C29.48 48 14.96 48 0 48 C0 32.16 0 16.32 0 0 Z " fill="#58007E" transform="translate(242,43)"></path>
<path d="M0 0 C14.52 0 29.04 0 44 0 C44 15.84 44 31.68 44 48 C29.48 48 14.96 48 0 48 C0 32.16 0 16.32 0 0 Z " fill="#FDEAFA" transform="translate(380,43)"></path>
<path d="M0 0 C14.52 0 29.04 0 44 0 C44 15.51 44 31.02 44 47 C29.15 47 14.3 47 -1 47 C-0.67 31.49 -0.34 15.98 0 0 Z " fill="#3A006E" transform="translate(380,92)"></path>
<path d="M0 0 C14.52 0 29.04 0 44 0 C44 15.51 44 31.02 44 47 C29.48 47 14.96 47 0 47 C0 31.49 0 15.98 0 0 Z " fill="#2A0067" transform="translate(380,189)"></path>
<path d="M0 0 C14.52 0 29.04 0 44 0 C44 15.51 44 31.02 44 47 C29.48 47 14.96 47 0 47 C0 31.49 0 15.98 0 0 Z " fill="#3A006E" transform="translate(242,140)"></path>
<path d="M0 0 C15.51 0 31.02 0 47 0 C47.020625 6.909375 47.04125 13.81875 47.0625 20.9375 C47.071604 23.12109131 47.08070801 25.30468262 47.09008789 27.55444336 C47.09300698 29.2745762 47.09555555 30.99470972 47.09765625 32.71484375 C47.10277222 33.61658325 47.10788818 34.51832275 47.11315918 35.4473877 C47.11346882 37.63191745 47.0624587 39.8163633 47 42 C45.44093218 43.55906782 43.93845719 43.12722371 41.77148438 43.12939453 C40.42503845 43.13412277 40.42503845 43.13412277 39.0513916 43.13894653 C37.58735901 43.13591019 37.58735901 43.13591019 36.09375 43.1328125 C34.6011969 43.13424759 34.6011969 43.13424759 33.07849121 43.13571167 C30.97013282 43.1363936 28.86177235 43.13453844 26.75341797 43.13037109 C23.51394973 43.12502303 20.27462015 43.13031567 17.03515625 43.13671875 C14.99218719 43.13605797 12.94921822 43.13477681 10.90625 43.1328125 C9.93022827 43.13483673 8.95420654 43.13686096 7.9486084 43.13894653 C7.05097778 43.13579437 6.15334717 43.13264221 5.22851562 43.12939453 C4.43433228 43.12859894 3.64014893 43.12780334 2.82189941 43.12698364 C1 43 1 43 0 42 C-0.08873532 38.89769856 -0.11525687 35.81712641 -0.09765625 32.71484375 C-0.09664917 31.8902063 -0.09564209 31.06556885 -0.09460449 30.21594238 C-0.08935592 27.12311419 -0.07539477 24.03030576 -0.0625 20.9375 C-0.041875 14.028125 -0.02125 7.11875 0 0 Z " fill="#FC13C0" transform="translate(45,0)"></path>
<path d="M0 0 C15.84 0 31.68 0 48 0 C48 13.86 48 27.72 48 42 C32.16 42 16.32 42 0 42 C0 28.14 0 14.28 0 0 Z " fill="#01135E" transform="translate(92,384)"></path>
<path d="M0 0 C13.86 0 27.72 0 42 0 C42 15.84 42 31.68 42 48 C28.14 48 14.28 48 0 48 C0 32.16 0 16.32 0 0 Z " fill="#060A60" transform="translate(425,337)"></path>
<path d="M0 0 C13.86 0 27.72 0 42 0 C42 15.84 42 31.68 42 48 C28.14 48 14.28 48 0 48 C0 32.16 0 16.32 0 0 Z " fill="#290063" transform="translate(425,238)"></path>
<path d="M0 0 C13.86 0 27.72 0 42 0 C42 15.84 42 31.68 42 48 C28.14 48 14.28 48 0 48 C0 32.16 0 16.32 0 0 Z " fill="#FDE0F9" transform="translate(425,189)"></path>
<path d="M0 0 C13.86 0 27.72 0 42 0 C42 15.84 42 31.68 42 48 C28.14 48 14.28 48 0 48 C0 32.16 0 16.32 0 0 Z " fill="#3A006A" transform="translate(425,140)"></path>
<path d="M0 0 C13.86 0 27.72 0 42 0 C42 15.84 42 31.68 42 48 C28.14 48 14.28 48 0 48 C0 32.16 0 16.32 0 0 Z " fill="#580078" transform="translate(425,43)"></path>
<path d="M0 0 C15.51 0 31.02 0 47 0 C47 13.86 47 27.72 47 42 C31.49 42 15.98 42 0 42 C0 28.14 0 14.28 0 0 Z " fill="#00B0F9" transform="translate(45,384)"></path>
<path d="M0 0 C13.86 0 27.72 0 42 0 C42 15.51 42 31.02 42 47 C28.14 47 14.28 47 0 47 C0 31.49 0 15.98 0 0 Z " fill="#FEECFA" transform="translate(425,92)"></path>
<path d="M0 0 C14.85 0 29.7 0 45 0 C45.33 14.19 45.66 28.38 46 43 C30.82 43 15.64 43 0 43 C0 28.81 0 14.62 0 0 Z " fill="#81018D" transform="translate(0,0)"></path>
<path d="M0 0 C15.18 0 30.36 0 46 0 C46 13.86 46 27.72 46 42 C30.82 42 15.64 42 0 42 C0 28.14 0 14.28 0 0 Z " fill="#00125B" transform="translate(287,384)"></path>
<path d="M0 0 C15.18 0 30.36 0 46 0 C46 13.86 46 27.72 46 42 C30.82 42 15.64 42 0 42 C0 28.14 0 14.28 0 0 Z " fill="#720088" transform="translate(287,0)"></path>
<path d="M0 0 C14.85 0 29.7 0 45 0 C45.33 13.86 45.66 27.72 46 42 C30.82 42 15.64 42 0 42 C0 28.14 0 14.28 0 0 Z " fill="#02ACF9" transform="translate(334,385)"></path>
<path d="M0 0 C14.85 0 29.7 0 45 0 C45 13.86 45 27.72 45 42 C30.15 42 15.3 42 0 42 C0 28.14 0 14.28 0 0 Z " fill="#01135D" transform="translate(0,384)"></path>
<path d="M0 0 C14.85 0 29.7 0 45 0 C45 13.86 45 27.72 45 42 C30.15 42 15.3 42 0 42 C0 28.14 0 14.28 0 0 Z " fill="#F800C2" transform="translate(334,0)"></path>
<path d="M0 0 C14.85 0 29.7 0 45 0 C45 13.86 45 27.72 45 42 C30.15 42 15.3 42 0 42 C0 28.14 0 14.28 0 0 Z " fill="#FA00C1" transform="translate(242,0)"></path>
<path d="M0 0 C14.85 0 29.7 0 45 0 C45 13.86 45 27.72 45 42 C30.15 42 15.3 42 0 42 C0 28.14 0 14.28 0 0 Z " fill="#7C008C" transform="translate(196,0)"></path>
<path d="M0 0 C14.19 0 28.38 0 43 0 C43 14.19 43 28.38 43 43 C28.81 43 14.62 43 0 43 C0 28.81 0 14.62 0 0 Z " fill="#FC00BA" transform="translate(424,0)"></path>
<path d="M0 0 C14.85 0 29.7 0 45 0 C45 13.53 45 27.06 45 41 C30.15 41 15.3 41 0 41 C0 27.47 0 13.94 0 0 Z " fill="#00115B" transform="translate(196,385)"></path>
<path d="M0 0 C14.52 0 29.04 0 44 0 C44 13.53 44 27.06 44 41 C29.48 41 14.96 41 0 41 C0 27.47 0 13.94 0 0 Z " fill="#00B1FC" transform="translate(242,385)"></path>
<path d="M0 0 C14.52 0 29.04 0 44 0 C44 13.53 44 27.06 44 41 C29.48 41 14.96 41 0 41 C0 27.47 0 13.94 0 0 Z " fill="#001159" transform="translate(380,385)"></path>
<path d="M0 0 C18.48 0 36.96 0 56 0 C56 10.23 56 20.46 56 31 C37.52 31 19.04 31 0 31 C0 20.77 0 10.54 0 0 Z " fill="#100764" transform="translate(139,427)"></path>
<path d="M0 0 C13.86 0 27.72 0 42 0 C42 12.87 42 25.74 42 39 C28.14 39 14.28 39 0 39 C0 26.13 0 13.26 0 0 Z " fill="#00B3FD" transform="translate(425,387)"></path>
<path d="M0 0 C5.40375 -0.020625 10.8075 -0.04125 16.375 -0.0625 C18.05899902 -0.071604 19.74299805 -0.08070801 21.47802734 -0.09008789 C22.84732993 -0.09301477 24.21663339 -0.09556149 25.5859375 -0.09765625 C26.26889893 -0.10277222 26.95186035 -0.10788818 27.65551758 -0.11315918 C33.22307239 -0.1141356 38.37905238 0.43790524 44 1 C44 12.22 44 23.44 44 35 C29.48 35 14.96 35 0 35 C0 23.45 0 11.9 0 0 Z " fill="#D6D1FA" transform="translate(0,334)"></path>
<path d="M0 0 C15.18 0 30.36 0 46 0 C46 10.56 46 21.12 46 32 C30.82 32 15.64 32 0 32 C0 21.44 0 10.88 0 0 Z " fill="#D2CDF7" transform="translate(288,426)"></path>
<path d="M0 0 C15.51 0 31.02 0 47 0 C47 10.23 47 20.46 47 31 C31.49 31 15.98 31 0 31 C0 20.77 0 10.54 0 0 Z " fill="#110762" transform="translate(45,427)"></path>
<path d="M0 0 C15.18 0 30.36 0 46 0 C46 10.23 46 20.46 46 31 C30.82 31 15.64 31 0 31 C0 20.77 0 10.54 0 0 Z " fill="#0A085F" transform="translate(334,427)"></path>
<path d="M0 0 C15.18 0 30.36 0 46 0 C46 10.23 46 20.46 46 31 C30.82 31 15.64 31 0 31 C0 20.77 0 10.54 0 0 Z " fill="#100762" transform="translate(241,427)"></path>
<path d="M0 0 C13.86 0 27.72 0 42 0 C42 9.57 42 19.14 42 29 C28.14 29 14.28 29 0 29 C0 19.43 0 9.86 0 0 Z " fill="#08085F" transform="translate(425,429)"></path>
<path d="M0 0 C11.55 0 23.1 0 35 0 C35 11.22 35 22.44 35 34 C23.45 34 11.9 34 0 34 C0 22.78 0 11.56 0 0 Z " fill="#D6D0FA" transform="translate(93,335)"></path>
<path d="M0 0 C11.22 0 22.44 0 34 0 C34 11.22 34 22.44 34 34 C22.78 34 11.56 34 0 34 C0 22.78 0 11.56 0 0 Z " fill="#D3CEFA" transform="translate(288,335)"></path>
<path d="M0 0 C11.22 0 22.44 0 34 0 C34 11.22 34 22.44 34 34 C22.78 34 11.56 34 0 34 C0 22.78 0 11.56 0 0 Z " fill="#D4D0FA" transform="translate(196,335)"></path>
<path d="M0 0 C11.22 0 22.44 0 34 0 C34 11.22 34 22.44 34 34 C22.78 34 11.56 34 0 34 C0 22.78 0 11.56 0 0 Z " fill="#E2D2F7" transform="translate(425,287)"></path>
<path d="M0 0 C10.89 0 21.78 0 33 0 C33 11.55 33 23.1 33 35 C22.11 35 11.22 35 0 35 C0 23.45 0 11.9 0 0 Z " fill="#C7C7F9" transform="translate(380,334)"></path>
<path d="M0 0 C11.55 0 23.1 0 35 0 C35 10.89 35 21.78 35 33 C23.45 33 11.9 33 0 33 C0 22.11 0 11.22 0 0 Z " fill="#E7D9F9" transform="translate(46,286)"></path>
<path d="M0 0 C15.51 0 31.02 0 47 0 C47 16.17 47 32.34 47 49 C31.49 49 15.98 49 0 49 C0 32.83 0 16.66 0 0 Z M1 1 C1 11.89 1 22.78 1 34 C12.55 34 24.1 34 36 34 C36 23.11 36 12.22 36 1 C24.45 1 12.9 1 1 1 Z " fill="#D679F6" transform="translate(92,139)"></path>
<path d="M0 0 C15.18 0 30.36 0 46 0 C46 16.5 46 33 46 50 C30.82 50 15.64 50 0 50 C0 33.5 0 17 0 0 Z M1 1 C1 12.22 1 23.44 1 35 C12.22 35 23.44 35 35 35 C35 23.78 35 12.56 35 1 C23.78 1 12.56 1 1 1 Z " fill="#5E52E8" transform="translate(287,334)"></path>
<path d="M0 0 C15.18 0 30.36 0 46 0 C46 16.5 46 33 46 50 C31.15 50 16.3 50 1 50 C-0.14948694 32.7576959 -0.14948694 32.7576959 -0.09765625 25.87890625 C-0.09664917 25.20597534 -0.09564209 24.53304443 -0.09460449 23.83972168 C-0.08951789 21.41396285 -0.07556206 18.988229 -0.0625 16.5625 C-0.041875 11.096875 -0.02125 5.63125 0 0 Z M1 1 C1 12.22 1 23.44 1 35 C12.22 35 23.44 35 35 35 C35 23.78 35 12.56 35 1 C23.78 1 12.56 1 1 1 Z " fill="#6456EA" transform="translate(195,334)"></path>
<path d="M0 0 C11.22 0 22.44 0 34 0 C34 10.89 34 21.78 34 33 C22.78 33 11.56 33 0 33 C0 22.11 0 11.22 0 0 Z " fill="#E6D7FA" transform="translate(242,286)"></path>
<path d="M0 0 C11.22 0 22.44 0 34 0 C34 10.89 34 21.78 34 33 C22.78 33 11.56 33 0 33 C0 22.11 0 11.22 0 0 Z " fill="#F1DDFA" transform="translate(288,237)"></path>
<path d="M0 0 C11.22 0 22.44 0 34 0 C34 10.89 34 21.78 34 33 C22.78 33 11.56 33 0 33 C0 22.11 0 11.22 0 0 Z " fill="#FEEAFB" transform="translate(288,140)"></path>
<path d="M0 0 C15.51 0 31.02 0 47 0 C47.020625 5.300625 47.04125 10.60125 47.0625 16.0625 C47.071604 17.700979 47.08070801 19.33945801 47.09008789 21.02758789 C47.09301913 22.38427652 47.09556479 23.74096606 47.09765625 25.09765625 C47.10277222 25.75503784 47.10788818 26.41241943 47.11315918 27.08972168 C47.11445164 34.45285192 46.49381519 41.59277218 46 49 C31.15 49 16.3 49 1 49 C-0.14948694 31.7576959 -0.14948694 31.7576959 -0.09765625 25.09765625 C-0.09664917 24.44438354 -0.09564209 23.79111084 -0.09460449 23.11804199 C-0.08952309 20.7661758 -0.07556768 18.41433537 -0.0625 16.0625 C-0.041875 10.761875 -0.02125 5.46125 0 0 Z M1 1 C1 11.89 1 22.78 1 34 C12.55 34 24.1 34 36 34 C36 23.11 36 12.22 36 1 C24.45 1 12.9 1 1 1 Z " fill="#9159F2" transform="translate(45,285)"></path>
<path d="M0 0 C0.33 0 0.66 0 1 0 C1 10.89 1 21.78 1 33 C12.55 33 24.1 33 36 33 C36 22.11 36 11.22 36 0 C39.63 0 43.26 0 47 0 C47 15.84 47 31.68 47 48 C31.49 48 15.98 48 0 48 C0 32.16 0 16.32 0 0 Z " fill="#B667F7" transform="translate(92,237)"></path>
<path d="M0 0 C10.89 0 21.78 0 33 0 C33 10.89 33 21.78 33 33 C22.11 33 11.22 33 0 33 C0 22.11 0 11.22 0 0 Z " fill="#E1D4F9" transform="translate(335,286)"></path>
<path d="M0 0 C11.22 0 22.44 0 34 0 C34 10.56 34 21.12 34 32 C22.78 32 11.56 32 0 32 C0 21.44 0 10.88 0 0 Z " fill="#D6D1F9" transform="translate(0,426)"></path>
<path d="M0 0 C0.33 0 0.66 0 1 0 C1 10.89 1 21.78 1 33 C12.22 33 23.44 33 35 33 C35 22.11 35 11.22 35 0 C38.63 0 42.26 0 46 0 C46 15.84 46 31.68 46 48 C30.82 48 15.64 48 0 48 C0 32.16 0 16.32 0 0 Z " fill="#AE62F6" transform="translate(287,237)"></path>
<path d="M0 0 C0.33 0 0.66 0 1 0 C1 10.89 1 21.78 1 33 C12.22 33 23.44 33 35 33 C35 22.11 35 11.22 35 0 C38.63 0 42.26 0 46 0 C46 15.84 46 31.68 46 48 C30.82 48 15.64 48 0 48 C0 32.16 0 16.32 0 0 Z " fill="#B264F7" transform="translate(195,237)"></path>
<path d="M0 0 C0.33 0 0.66 0 1 0 C1 10.89 1 21.78 1 33 C12.22 33 23.44 33 35 33 C35 22.11 35 11.22 35 0 C38.63 0 42.26 0 46 0 C46 15.84 46 31.68 46 48 C30.82 48 15.64 48 0 48 C0 32.16 0 16.32 0 0 Z " fill="#E781F5" transform="translate(287,43)"></path>
<path d="M0 0 C0.33 0 0.66 0 1 0 C1 10.89 1 21.78 1 33 C12.22 33 23.44 33 35 33 C35 22.11 35 11.22 35 0 C38.63 0 42.26 0 46 0 C46 15.84 46 31.68 46 48 C30.82 48 15.64 48 0 48 C0 32.16 0 16.32 0 0 Z " fill="#EE86F7" transform="translate(195,43)"></path>
<path d="M0 0 C14.85 0 29.7 0 45 0 C45 16.17 45 32.34 45 49 C30.15 49 15.3 49 0 49 C0 44.05 0 39.1 0 34 C11.22 34 22.44 34 34 34 C34 23.11 34 12.22 34 1 C22.78 1 11.56 1 0 1 C0 0.67 0 0.34 0 0 Z " fill="#8E57F1" transform="translate(242,285)"></path>
<path d="M0 0 C14.85 0 29.7 0 45 0 C45 16.17 45 32.34 45 49 C30.15 49 15.3 49 0 49 C0 44.05 0 39.1 0 34 C11.22 34 22.44 34 34 34 C34 23.11 34 12.22 34 1 C22.78 1 11.56 1 0 1 C0 0.67 0 0.34 0 0 Z " fill="#D475F6" transform="translate(196,139)"></path>
<path d="M0 0 C14.85 0 29.7 0 45 0 C45 16.17 45 32.34 45 49 C30.15 49 15.3 49 0 49 C0 44.05 0 39.1 0 34 C11.22 34 22.44 34 34 34 C34 23.11 34 12.22 34 1 C22.78 1 11.56 1 0 1 C0 0.67 0 0.34 0 0 Z " fill="#D475F6" transform="translate(0,139)"></path>
<path d="M0 0 C0.33 0 0.66 0 1 0 C1 10.89 1 21.78 1 33 C11.89 33 22.78 33 34 33 C34 22.11 34 11.22 34 0 C37.63 0 41.26 0 45 0 C45 15.84 45 31.68 45 48 C30.15 48 15.3 48 0 48 C0 32.16 0 16.32 0 0 Z " fill="#BE62F4" transform="translate(334,188)"></path>
<path d="M0 0 C6.24795675 -0.02527124 12.49590041 -0.04283344 18.74389648 -0.05493164 C20.87118014 -0.05997298 22.99846031 -0.06680591 25.12573242 -0.07543945 C28.17627826 -0.08751379 31.22677845 -0.09323014 34.27734375 -0.09765625 C35.71327126 -0.10539818 35.71327126 -0.10539818 37.1782074 -0.11329651 C38.49946373 -0.11340981 38.49946373 -0.11340981 39.84741211 -0.11352539 C40.62684677 -0.115746 41.40628143 -0.11796661 42.20933533 -0.12025452 C44 0 44 0 45 1 C45.09304018 2.47354348 45.11746265 3.95150591 45.11352539 5.42797852 C45.11344986 6.36887833 45.11337433 7.30977814 45.11329651 8.27919006 C45.10813522 9.30209641 45.10297394 10.32500275 45.09765625 11.37890625 C45.0962413 12.42070541 45.09482635 13.46250458 45.09336853 14.53587341 C45.0877508 17.87811094 45.0751953 21.22028257 45.0625 24.5625 C45.05748728 26.82226466 45.05292398 29.08203037 45.04882812 31.34179688 C45.03862456 36.89457734 45.01905264 42.44721452 45 48 C30.15 48 15.3 48 0 48 C0 43.05 0 38.1 0 33 C11.22 33 22.44 33 34 33 C34 22.44 34 11.88 34 1 C22.78 1 11.56 1 0 1 C0 0.67 0 0.34 0 0 Z " fill="#E080F5" transform="translate(242,91)"></path>
<path d="M0 0 C14.52 0 29.04 0 44 0 C44 16.17 44 32.34 44 49 C29.48 49 14.96 49 0 49 C0 44.05 0 39.1 0 34 C10.89 34 21.78 34 33 34 C33 23.11 33 12.22 33 1 C22.11 1 11.22 1 0 1 C0 0.67 0 0.34 0 0 Z " fill="#C86EF5" transform="translate(380,139)"></path>
<path d="M0 0 C10.56 0 21.12 0 32 0 C32 10.89 32 21.78 32 33 C21.44 33 10.88 33 0 33 C0 22.11 0 11.22 0 0 Z " fill="#ECDAFA" transform="translate(380,237)"></path>
<path d="M0 0 C3.63 0 7.26 0 11 0 C11 16.5 11 33 11 50 C-3.52 50 -18.04 50 -33 50 C-33 45.05 -33 40.1 -33 35 C-22.11 35 -11.22 35 0 35 C0 23.45 0 11.9 0 0 Z " fill="#4E4CE6" transform="translate(413,334)"></path>
<path d="M0 0 C3.63 0 7.26 0 11 0 C11 15.84 11 31.68 11 48 C-3.85 48 -18.7 48 -34 48 C-34 43.38 -34 38.76 -34 34 C-22.78 34 -11.56 34 0 34 C0 22.78 0 11.56 0 0 Z " fill="#B163F7" transform="translate(34,237)"></path>
<path d="M0 0 C3.63 0 7.26 0 11 0 C11 15.84 11 31.68 11 48 C-3.85 48 -18.7 48 -34 48 C-34 43.38 -34 38.76 -34 34 C-22.78 34 -11.56 34 0 34 C0 22.78 0 11.56 0 0 Z " fill="#C568F4" transform="translate(276,188)"></path>
<path d="M0 0 C10.89 0 21.78 0 33 0 C32.67 10.23 32.34 20.46 32 31 C21.44 31 10.88 31 0 31 C0 20.77 0 10.54 0 0 Z " fill="#FEEDFB" transform="translate(335,92)"></path>
<path d="M0 0 C3.63 0 7.26 0 11 0 C11 15.84 11 31.68 11 48 C-3.52 48 -18.04 48 -33 48 C-33 43.38 -33 38.76 -33 34 C-22.11 34 -11.22 34 0 34 C0 22.78 0 11.56 0 0 Z " fill="#DB73F4" transform="translate(413,43)"></path>
<path d="M0 0 C13.86 0 27.72 0 42 0 C42 15.51 42 31.02 42 47 C28.14 47 14.28 47 0 47 C0 31.49 0 15.98 0 0 Z M1 1 C1 11.23 1 21.46 1 32 C11.56 32 22.12 32 33 32 C33 21.77 33 11.54 33 1 C22.44 1 11.88 1 1 1 Z " fill="#EB73F1" transform="translate(425,92)"></path>
<path d="M0 0 C0.33 0 0.66 0 1 0 C1 10.89 1 21.78 1 33 C11.56 33 22.12 33 33 33 C33 22.11 33 11.22 33 0 C35.97 0 38.94 0 42 0 C42 15.84 42 31.68 42 48 C28.14 48 14.28 48 0 48 C0 32.16 0 16.32 0 0 Z " fill="#CC5BF2" transform="translate(425,189)"></path>
<path d="M0 0 C13.86 0 27.72 0 42 0 C42 0.33 42 0.66 42 1 C40.02 1.33 38.04 1.66 36 2 C35.96241577 2.98395752 35.96241577 2.98395752 35.92407227 3.98779297 C35.8082674 6.95040183 35.68547114 9.91268031 35.5625 12.875 C35.52318359 13.90753906 35.48386719 14.94007812 35.44335938 16.00390625 C35.38051758 17.48310547 35.38051758 17.48310547 35.31640625 18.9921875 C35.27974854 19.90339355 35.24309082 20.81459961 35.20532227 21.75341797 C35 24 35 24 34 26 C22.78 26 11.56 26 0 26 C0 17.42 0 8.84 0 0 Z " fill="#FE54C3" transform="translate(46,0)"></path>
<path d="M0 0 C2.64 0 5.28 0 8 0 C8 16.17 8 32.34 8 49 C-5.86 49 -19.72 49 -34 49 C-34 44.05 -34 39.1 -34 34 C-22.78 34 -11.56 34 0 34 C0 22.78 0 11.56 0 0 Z " fill="#8E52EE" transform="translate(459,287)"></path>
<path d="M0 0 C0.33 0 0.66 0 1 0 C1 15.84 1 31.68 1 48 C14.86 48 28.72 48 43 48 C43 48.33 43 48.66 43 49 C29.14 49 15.28 49 1 49 C1 65.17 1 81.34 1 98 C14.86 98 28.72 98 43 98 C43 98.33 43 98.66 43 99 C29.14 99 15.28 99 1 99 C1 114.84 1 130.68 1 147 C14.86 147 28.72 147 43 147 C43 147.66 43 148.32 43 149 C29.14 149 15.28 149 1 149 C1 161.87 1 174.74 1 188 C0.67 188 0.34 188 0 188 C0 174.47 0 160.94 0 147 C-14.52 147 -29.04 147 -44 147 C-44 160.53 -44 174.06 -44 188 C-44.33 188 -44.66 188 -45 188 C-45 174.47 -45 160.94 -45 147 C-59.85 147 -74.7 147 -90 147 C-90 160.53 -90 174.06 -90 188 C-90.33 188 -90.66 188 -91 188 C-91 141.8 -91 95.6 -91 48 C-106.18 48 -121.36 48 -137 48 C-137 47.67 -137 47.34 -137 47 C-121.49 47 -105.98 47 -90 47 C-90 63.17 -90 79.34 -90 96 C-75.15 96 -60.3 96 -45 96 C-45 79.83 -45 63.66 -45 47 C-30.15 47 -15.3 47 0 47 C0 31.49 0 15.98 0 0 Z M-44 48 C-44 80.34 -44 112.68 -44 146 C-29.48 146 -14.96 146 0 146 C0 113.66 0 81.32 0 48 C-14.52 48 -29.04 48 -44 48 Z M-90 97 C-90 113.17 -90 129.34 -90 146 C-75.15 146 -60.3 146 -45 146 C-45 129.83 -45 113.66 -45 97 C-59.85 97 -74.7 97 -90 97 Z " fill="#3A218A" transform="translate(424,238)"></path>
<path d="M0 0 C8.58 0 17.16 0 26 0 C26 10.89 26 21.78 26 33 C17.42 33 8.84 33 0 33 C0 22.11 0 11.22 0 0 Z " fill="#E8D9FA" transform="translate(153,286)"></path>
<path d="M0 0 C8.58 0 17.16 0 26 0 C26 10.89 26 21.78 26 33 C17.42 33 8.84 33 0 33 C0 22.11 0 11.22 0 0 Z " fill="#FBE3FB" transform="translate(153,188)"></path>
<path d="M0 0 C10.89 0 21.78 0 33 0 C33.061875 3.733125 33.12375 7.46625 33.1875 11.3125 C33.22846802 13.07267456 33.22846802 13.07267456 33.27026367 14.8684082 C33.27775635 15.79484131 33.28524902 16.72127441 33.29296875 17.67578125 C33.3086792 18.62364502 33.32438965 19.57150879 33.34057617 20.5480957 C33 23 33 23 31.91015625 24.81445312 C29.00145958 26.6197485 26.53900586 26.33593678 23.14453125 26.29296875 C22.48289474 26.28872391 21.82125824 26.28447906 21.13957214 26.28010559 C19.0301309 26.26333693 16.92165154 26.22569099 14.8125 26.1875 C13.38087319 26.17245068 11.94923138 26.1587627 10.51757812 26.14648438 C7.01105173 26.11599284 3.50660006 26.05727659 0 26 C0 17.42 0 8.84 0 0 Z " fill="#FF41C2" transform="translate(242,0)"></path>
<path d="M0 0 C8.58 0 17.16 0 26 0 C26 10.56 26 21.12 26 32 C17.42 32 8.84 32 0 32 C0 21.44 0 10.88 0 0 Z " fill="#FEF0FB" transform="translate(153,92)"></path>
<path d="M0 0 C15.51 0 31.02 0 47 0 C47 15.84 47 31.68 47 48 C31.49 48 15.98 48 0 48 C0 32.16 0 16.32 0 0 Z M1 1 C1 11.56 1 22.12 1 33 C15.85 33 30.7 33 46 33 C46 22.44 46 11.88 46 1 C31.15 1 16.3 1 1 1 Z " fill="#D47CE9" transform="translate(45,91)"></path>
<path d="M0 0 C0.33 0 0.66 0 1 0 C1 4.95 1 9.9 1 15 C15.85 15 30.7 15 46 15 C46 10.05 46 5.1 46 0 C46.33 0 46.66 0 47 0 C47 5.28 47 10.56 47 16 C31.49 16 15.98 16 0 16 C0 32.17 0 48.34 0 65 C-14.85 65 -29.7 65 -45 65 C-45 60.05 -45 55.1 -45 50 C-30.48 50 -15.96 50 -1 50 C-1 38.78 -1 27.56 -1 16 C-4.3 16 -7.6 16 -11 16 C-11 15.67 -11 15.34 -11 15 C-7.37 15 -3.74 15 0 15 C0 10.05 0 5.1 0 0 Z " fill="#5754EB" transform="translate(45,319)"></path>
<path d="M0 0 C0 4.95 0 9.9 0 15 C-18.15 15 -36.3 15 -55 15 C-55 10.38 -55 5.76 -55 1 C-47.32788303 0.85746746 -39.65576386 0.71505431 -31.98364258 0.57275391 C-29.37133727 0.52428451 -26.75903259 0.47578195 -24.14672852 0.42724609 C-20.40120602 0.35766103 -16.65568137 0.28819356 -12.91015625 0.21875 C-11.73413345 0.19687622 -10.55811066 0.17500244 -9.34645081 0.15246582 C-8.26540573 0.13244507 -7.18436066 0.11242432 -6.07055664 0.09179688 C-5.11347305 0.07403198 -4.15638947 0.05626709 -3.17030334 0.03796387 C-1 0 -1 0 0 0 Z " fill="#8F57F2" transform="translate(195,319)"></path>
<path d="M0 0 C18.15 0 36.3 0 55 0 C55 4.62 55 9.24 55 14 C36.85 14 18.7 14 0 14 C0 9.38 0 4.76 0 0 Z " fill="#B548EC" transform="translate(140,222)"></path>
<path d="M0 0 C10.56 0 21.12 0 32 0 C32 15 32 15 31 22 C27.62525855 24.24982763 26.30894267 24.28078603 22.34375 24.37890625 C20.68666016 24.43014648 20.68666016 24.43014648 18.99609375 24.48242188 C17.84238281 24.50884766 16.68867188 24.53527344 15.5 24.5625 C13.21864425 24.62240152 10.93738245 24.68603125 8.65625 24.75390625 C7.64369141 24.77783447 6.63113281 24.8017627 5.58789062 24.82641602 C2.88423624 24.89857233 2.88423624 24.89857233 0 26 C0 17.42 0 8.84 0 0 Z " fill="#FF24C0" transform="translate(334,0)"></path>
<path d="M0 0 C0.33 0 0.66 0 1 0 C1 11.22 1 22.44 1 34 C16.18 34 31.36 34 47 34 C47 22.78 47 11.56 47 0 C47.33 0 47.66 0 48 0 C48 15.84 48 31.68 48 48 C32.16 48 16.32 48 0 48 C0 32.16 0 16.32 0 0 Z " fill="#EE8BF6" transform="translate(92,43)"></path>
<path d="M0 0 C18.15 0 36.3 0 55 0 C55 13.86 55 27.72 55 42 C36.85 42 18.7 42 0 42 C0 28.14 0 14.28 0 0 Z M13 2 C13 14.54 13 27.08 13 40 C11.515 40.495 11.515 40.495 10 41 C24.52 41 39.04 41 54 41 C54.04125 35.493125 54.0825 29.98625 54.125 24.3125 C54.14320801 22.58298096 54.16141602 20.85346191 54.18017578 19.0715332 C54.18602097 17.68961904 54.19111647 16.30770141 54.1953125 14.92578125 C54.2106604 13.86296936 54.2106604 13.86296936 54.22631836 12.77868652 C54.22773594 8.73360709 53.79428189 5.64133677 52 2 C51.443125 2.185625 50.88625 2.37125 50.3125 2.5625 C48 3 48 3 45.4375 2.4375 C42.75194866 1.66489008 42.75194866 1.66489008 40 4 C39.67 3.34 39.34 2.68 39 2 C30.42 2 21.84 2 13 2 Z " fill="#00A5F8" transform="translate(140,384)"></path>
<path d="M0 0 C0.33 0 0.66 0 1 0 C1 11.22 1 22.44 1 34 C15.85 34 30.7 34 46 34 C46 22.78 46 11.56 46 0 C46.33 0 46.66 0 47 0 C47 15.84 47 31.68 47 48 C31.49 48 15.98 48 0 48 C0 32.16 0 16.32 0 0 Z " fill="#C769F5" transform="translate(45,188)"></path>
<path d="M0 0 C0.33 0 0.66 0 1 0 C1 4.62 1 9.24 1 14 C15.85 14 30.7 14 46 14 C46 30.17 46 46.34 46 63 C45.67 63 45.34 63 45 63 C45 47.16 45 31.32 45 15 C30.48 15 15.96 15 1 15 C1 47.01 1 79.02 1 112 C15.85 112 30.7 112 46 112 C46 112.33 46 112.66 46 113 C31.15 113 16.3 113 1 113 C1 129.17 1 145.34 1 162 C15.85 162 30.7 162 46 162 C46.64951419 186.68153907 47.17251089 211.31236426 47 236 C46.67 236 46.34 236 46 236 C46 225.77 46 215.54 46 205 C30.82 205 15.64 205 0 205 C0 191.14 0 177.28 0 163 C-14.85 163 -29.7 163 -45 163 C-45 176.53 -45 190.06 -45 204 C-45.33 204 -45.66 204 -46 204 C-46 185.19 -46 166.38 -46 147 C-45.67 147 -45.34 147 -45 147 C-45 151.95 -45 156.9 -45 162 C-30.15 162 -15.3 162 0 162 C0 129.66 0 97.32 0 64 C-14.85 64 -29.7 64 -45 64 C-45 79.84 -45 95.68 -45 112 C-45.33 112 -45.66 112 -46 112 C-46 95.83 -46 79.66 -46 63 C-30.82 63 -15.64 63 0 63 C0 42.21 0 21.42 0 0 Z M1 163 C1 176.53 1 190.06 1 204 C15.52 204 30.04 204 45 204 C45 190.47 45 176.94 45 163 C30.48 163 15.96 163 1 163 Z " fill="#373497" transform="translate(241,222)"></path>
<path d="M0 0 C0.33 0 0.66 0 1 0 C1 15.84 1 31.68 1 48 C-13.85 48 -28.7 48 -44 48 C-44 43.38 -44 38.76 -44 34 C-29.48 34 -14.96 34 0 34 C0 22.78 0 11.56 0 0 Z " fill="#EC85F4" transform="translate(44,43)"></path>
<path d="M0 0 C8.58 0 17.16 0 26 0 C25.87625 3.568125 25.7525 7.13625 25.625 10.8125 C25.59100098 11.93374268 25.55700195 13.05498535 25.52197266 14.21020508 C25.4863623 15.09603271 25.45075195 15.98186035 25.4140625 16.89453125 C25.3826416 17.80050049 25.3512207 18.70646973 25.31884766 19.63989258 C25 22 25 22 23 25 C20.75341797 25.34057617 20.75341797 25.34057617 17.9921875 25.29296875 C17.00605469 25.28330078 16.01992187 25.27363281 15.00390625 25.26367188 C13.97136719 25.23853516 12.93882812 25.21339844 11.875 25.1875 C10.31458984 25.16719727 10.31458984 25.16719727 8.72265625 25.14648438 C6.14792373 25.11105228 3.5742167 25.06165221 1 25 C0.82801552 22.89626131 0.66275195 20.79197308 0.5 18.6875 C0.4071875 17.51574219 0.314375 16.34398437 0.21875 15.13671875 C-0.04771584 10.09765943 0 5.04609977 0 0 Z " fill="#FF52C3" transform="translate(153,0)"></path>
<path d="M0 0 C0.33 0 0.66 0 1 0 C1 13.86 1 27.72 1 42 C15.85 42 30.7 42 46 42 C46 42.33 46 42.66 46 43 C31.15 43 16.3 43 1 43 C1 74.68 1 106.36 1 139 C16.18 139 31.36 139 47 139 C47 155.17 47 171.34 47 188 C23.735 188.495 23.735 188.495 0 189 C0 156.99 0 124.98 0 92 C-15.51 92 -31.02 92 -47 92 C-47 75.5 -47 59 -47 42 C-31.49 42 -15.98 42 0 42 C0 28.14 0 14.28 0 0 Z M-46 43 C-46 58.84 -46 74.68 -46 91 C-30.82 91 -15.64 91 0 91 C0 75.16 0 59.32 0 43 C-15.18 43 -30.36 43 -46 43 Z M1 140 C1 155.51 1 171.02 1 187 C15.85 187 30.7 187 46 187 C46 171.49 46 155.98 46 140 C31.15 140 16.3 140 1 140 Z " fill="#63268A" transform="translate(333,0)"></path>
<path d="M0 0 C4.29 0 8.58 0 13 0 C13 10.89 13 21.78 13 33 C21.58 33 30.16 33 39 33 C39 22.11 39 11.22 39 0 C39.33 0 39.66 0 40 0 C40 11.22 40 22.44 40 34 C26.8 34 13.6 34 0 34 C0 22.78 0 11.56 0 0 Z " fill="#DFA9F2" transform="translate(140,188)"></path>
<path d="M0 0 C15.51 0 31.02 0 47 0 C47.020625 5.589375 47.04125 11.17875 47.0625 16.9375 C47.071604 18.70343506 47.08070801 20.46937012 47.09008789 22.28881836 C47.09300714 23.68082605 47.09555567 25.07283459 47.09765625 26.46484375 C47.10277222 27.19384888 47.10788818 27.922854 47.11315918 28.6739502 C47.11347011 30.44970076 47.06228515 32.22534208 47 34 C45.44093218 35.55906782 43.93845719 35.12722371 41.77148438 35.12939453 C40.42503845 35.13412277 40.42503845 35.13412277 39.0513916 35.13894653 C37.58735901 35.13591019 37.58735901 35.13591019 36.09375 35.1328125 C34.6011969 35.13424759 34.6011969 35.13424759 33.07849121 35.13571167 C30.97013282 35.1363936 28.86177235 35.13453844 26.75341797 35.13037109 C23.51394973 35.12502303 20.27462015 35.13031567 17.03515625 35.13671875 C14.99218719 35.13605797 12.94921822 35.13477681 10.90625 35.1328125 C9.93022827 35.13483673 8.95420654 35.13686096 7.9486084 35.13894653 C7.05097778 35.13579437 6.15334717 35.13264221 5.22851562 35.12939453 C4.43433228 35.12859894 3.64014893 35.12780334 2.82189941 35.12698364 C1 35 1 35 0 34 C-0.08846834 31.47931819 -0.11534524 28.98545583 -0.09765625 26.46484375 C-0.09664917 25.79747192 -0.09564209 25.1301001 -0.09460449 24.44250488 C-0.08935808 21.9408192 -0.07539691 19.43915794 -0.0625 16.9375 C-0.041875 11.348125 -0.02125 5.75875 0 0 Z M1 1 C1 11.89 1 22.78 1 34 C12.55 34 24.1 34 36 34 C36 23.11 36 12.22 36 1 C24.45 1 12.9 1 1 1 Z " fill="#AF8BE4" transform="translate(45,285)"></path>
<path d="M0 0 C15.51 0 31.02 0 47 0 C47 11.55 47 23.1 47 35 C43.37 35 39.74 35 36 35 C36 23.78 36 12.56 36 1 C24.45 1 12.9 1 1 1 C1 12.22 1 23.44 1 35 C0.67 35 0.34 35 0 35 C0 23.45 0 11.9 0 0 Z " fill="#9D85EC" transform="translate(92,334)"></path>
<path d="M0 0 C15.18 0 30.36 0 46 0 C46 11.55 46 23.1 46 35 C42.37 35 38.74 35 35 35 C35 23.78 35 12.56 35 1 C23.78 1 12.56 1 1 1 C1 12.22 1 23.44 1 35 C0.67 35 0.34 35 0 35 C0 23.45 0 11.9 0 0 Z " fill="#9480EC" transform="translate(287,334)"></path>
<path d="M0 0 C15.18 0 30.36 0 46 0 C46 11.55 46 23.1 46 35 C42.37 35 38.74 35 35 35 C35 23.78 35 12.56 35 1 C23.78 1 12.56 1 1 1 C1 12.22 1 23.44 1 35 C0.67 35 0.34 35 0 35 C0 23.45 0 11.9 0 0 Z " fill="#9680E9" transform="translate(195,334)"></path>
<path d="M0 0 C0.33 0 0.66 0 1 0 C1 10.23 1 20.46 1 31 C11.56 31 22.12 31 33 31 C32.96040272 21.17196975 32.96040272 21.17196975 32.90991211 11.34399414 C32.90741455 10.12832764 32.90491699 8.91266113 32.90234375 7.66015625 C32.89710693 6.40855713 32.89187012 5.15695801 32.88647461 3.86743164 C33 1 33 1 34 0 C37.3 0 40.6 0 44 0 C44 10.56 44 21.12 44 32 C37.83270888 32.61672911 31.98543537 33.15146095 25.83984375 33.1328125 C24.76592125 33.13424759 24.76592125 33.13424759 23.67030334 33.13571167 C22.18067332 33.13638414 20.6910402 33.13459606 19.20141602 33.13037109 C16.91090501 33.1249369 14.62058374 33.13038398 12.33007812 33.13671875 C10.87499957 33.1360592 9.41992113 33.1347806 7.96484375 33.1328125 C6.6512085 33.13168457 5.33757324 33.13055664 3.98413086 33.12939453 C1 33 1 33 0 32 C-0.0883967 29.6243148 -0.11530305 27.27791326 -0.09765625 24.90234375 C-0.0962413 24.19348526 -0.09482635 23.48462677 -0.09336853 22.75428772 C-0.08775443 20.48198288 -0.07519963 18.20977525 -0.0625 15.9375 C-0.05748681 14.40039204 -0.05292359 12.86328255 -0.04882812 11.32617188 C-0.03778042 7.55074358 -0.02050641 3.77538829 0 0 Z " fill="#E4AFF3" transform="translate(334,92)"></path>
<path d="M0 0 C0.33 0 0.66 0 1 0 C1 10.89 1 21.78 1 33 C12.55 33 24.1 33 36 33 C36 22.11 36 11.22 36 0 C39.63 0 43.26 0 47 0 C47 11.22 47 22.44 47 34 C31.49 34 15.98 34 0 34 C0 22.78 0 11.56 0 0 Z " fill="#CA9AF0" transform="translate(92,237)"></path>
<path d="M0 0 C15.51 0 31.02 0 47 0 C47 11.22 47 22.44 47 34 C43.37 34 39.74 34 36 34 C36 23.11 36 12.22 36 1 C24.45 1 12.9 1 1 1 C1 11.89 1 22.78 1 34 C0.67 34 0.34 34 0 34 C0 22.78 0 11.56 0 0 Z " fill="#DBA7EF" transform="translate(92,139)"></path>
<path d="M0 0 C0.33 0 0.66 0 1 0 C1 10.89 1 21.78 1 33 C12.22 33 23.44 33 35 33 C35 22.11 35 11.22 35 0 C38.63 0 42.26 0 46 0 C46 11.22 46 22.44 46 34 C30.82 34 15.64 34 0 34 C0 22.78 0 11.56 0 0 Z " fill="#C395F1" transform="translate(287,237)"></path>
<path d="M0 0 C15.18 0 30.36 0 46 0 C46 11.22 46 22.44 46 34 C42.37 34 38.74 34 35 34 C35 23.11 35 12.22 35 1 C23.78 1 12.56 1 1 1 C1 11.89 1 22.78 1 34 C0.67 34 0.34 34 0 34 C0 22.78 0 11.56 0 0 Z " fill="#D6A3EE" transform="translate(287,139)"></path>
<path d="M0 0 C0.33 0 0.66 0 1 0 C1 10.89 1 21.78 1 33 C12.22 33 23.44 33 35 33 C35 22.11 35 11.22 35 0 C38.63 0 42.26 0 46 0 C46 11.22 46 22.44 46 34 C30.82 34 15.64 34 0 34 C0 22.78 0 11.56 0 0 Z " fill="#EBAFF3" transform="translate(287,43)"></path>
<path d="M0 0 C5.40375 -0.020625 10.8075 -0.04125 16.375 -0.0625 C18.05899902 -0.071604 19.74299805 -0.08070801 21.47802734 -0.09008789 C22.84732993 -0.09301477 24.21663339 -0.09556149 25.5859375 -0.09765625 C26.26889893 -0.10277222 26.95186035 -0.10788818 27.65551758 -0.11315918 C33.22307239 -0.1141356 38.37905238 0.43790524 44 1 C44 12.22 44 23.44 44 35 C29.48 35 14.96 35 0 35 C0 23.45 0 11.9 0 0 Z M1 1 C1 11.89 1 22.78 1 34 C11.89 34 22.78 34 34 34 C34 23.11 34 12.22 34 1 C23.11 1 12.22 1 1 1 Z " fill="#A08DF0" transform="translate(0,334)"></path>
<path d="M0 0 C0.33 0 0.66 0 1 0 C1 10.89 1 21.78 1 33 C11.89 33 22.78 33 34 33 C34 22.11 34 11.22 34 0 C37.63 0 41.26 0 45 0 C45 11.22 45 22.44 45 34 C30.15 34 15.3 34 0 34 C0 22.78 0 11.56 0 0 Z " fill="#CD99F0" transform="translate(334,188)"></path>
<path d="M0 0 C22.44 0 44.88 0 68 0 C68 10.56 68 21.12 68 32 C67.67 32 67.34 32 67 32 C67 21.77 67 11.54 67 1 C48.52 1 30.04 1 11 1 C11 11.23 11 21.46 11 32 C7.37 32 3.74 32 0 32 C0 21.44 0 10.88 0 0 Z " fill="#967EE4" transform="translate(128,426)"></path>
<path d="M0 0 C3.96 0 7.92 0 12 0 C12 11.22 12 22.44 12 34 C-2.52 34 -17.04 34 -32 34 C-32 33.67 -32 33.34 -32 33 C-21.44 33 -10.88 33 0 33 C0 22.11 0 11.22 0 0 Z " fill="#B98DF2" transform="translate(412,237)"></path>
<path d="M0 0 C4.29 0.33 8.58 0.66 13 1 C13 5.29 13 9.58 13 14 C21.58 14 30.16 14 39 14 C39 9.71 39 5.42 39 1 C46.92 0.505 46.92 0.505 55 0 C55 4.95 55 9.9 55 15 C36.85 15 18.7 15 0 15 C0 10.05 0 5.1 0 0 Z " fill="#C953E8" transform="translate(140,124)"></path>
<path d="M0 0 C17.49 0 34.98 0 53 0 C53 0.66 53 1.32 53 2 C39.14 2 25.28 2 11 2 C11 11.57 11 21.14 11 31 C7.37 31 3.74 31 0 31 C0 20.77 0 10.54 0 0 Z " fill="#735FE3" transform="translate(414,427)"></path>
<path d="M0 0 C14.52 0 29.04 0 44 0 C44 11.55 44 23.1 44 35 C29.48 35 14.96 35 0 35 C0 34.67 0 34.34 0 34 C11.22 34 22.44 34 34 34 C34 23.11 34 12.22 34 1 C22.78 1 11.56 1 0 1 C0 0.67 0 0.34 0 0 Z " fill="#B28BF3" transform="translate(242,285)"></path>
<path d="M0 0 C0.33 0 0.66 0 1 0 C1.95458649 8.35263176 2.11039334 16.59784035 2 25 C2.85609863 24.75552124 2.85609863 24.75552124 3.72949219 24.50610352 C6.01653267 23.99631481 7.98964456 23.88564032 10.328125 23.90234375 C11.52695313 23.90717773 11.52695313 23.90717773 12.75 23.91210938 C13.575 23.92048828 14.4 23.92886719 15.25 23.9375 C16.09046875 23.94201172 16.9309375 23.94652344 17.796875 23.95117188 C19.86461401 23.96292039 21.93231624 23.98085478 24 24 C25.60911771 20.78176458 25.34016955 17.23040821 25.5 13.6875 C25.56948495 12.17041185 25.6423193 10.65347284 25.71875 9.13671875 C25.74904297 8.46342529 25.77933594 7.79013184 25.81054688 7.09643555 C26.02641551 4.70769337 26.5296201 2.35189949 27 0 C31.95 0 36.9 0 42 0 C42 5.94 42 11.88 42 18 C35.57142857 19.07142857 35.57142857 19.07142857 32 18 C30.68 18 29.36 18 28 18 C28.04125 19.11375 28.0825 20.2275 28.125 21.375 C28 25 28 25 26 27 C23.66666667 27 21.33333333 27 19 27 C16.42173345 27.47921698 13.88131198 28.04592011 11.33203125 28.66015625 C9 29 9 29 6.88671875 28.43359375 C5.95279297 28.21896484 5.95279297 28.21896484 5 28 C4.01 28.66 3.02 29.32 2 30 C0.01625717 24.94752846 -0.44454885 20.35375988 -0.6875 15 C-0.73455078 14.21882812 -0.78160156 13.43765625 -0.83007812 12.6328125 C-1.05462511 8.25966786 -0.91966855 4.31483589 0 0 Z " fill="#FF24BE" transform="translate(152,0)"></path>
<path d="M0 0 C4.29 0 8.58 0 13 0 C13 10.56 13 21.12 13 32 C8.71 32 4.42 32 0 32 C0 21.44 0 10.88 0 0 Z " fill="#F2B7F3" transform="translate(140,92)"></path>
<path d="M0 0 C3.63 0 7.26 0 11 0 C11 11.22 11 22.44 11 34 C-4.18 34 -19.36 34 -35 34 C-35 33.67 -35 33.34 -35 33 C-23.45 33 -11.9 33 0 33 C0 22.11 0 11.22 0 0 Z " fill="#F4BBF5" transform="translate(128,43)"></path>
<path d="M0 0 C3.63 0 7.26 0 11 0 C11 11.22 11 22.44 11 34 C-3.85 34 -18.7 34 -34 34 C-34 33.67 -34 33.34 -34 33 C-22.78 33 -11.56 33 0 33 C0 22.11 0 11.22 0 0 Z " fill="#C797F5" transform="translate(230,237)"></path>
<path d="M0 0 C14.85 0 29.7 0 45 0 C45 11.22 45 22.44 45 34 C41.37 34 37.74 34 34 34 C34 23.11 34 12.22 34 1 C22.78 1 11.56 1 0 1 C0 0.67 0 0.34 0 0 Z " fill="#DCA8F1" transform="translate(196,139)"></path>
<path d="M0 0 C3.63 0 7.26 0 11 0 C11 11.22 11 22.44 11 34 C-3.85 34 -18.7 34 -34 34 C-34 33.67 -34 33.34 -34 33 C-22.78 33 -11.56 33 0 33 C0 22.11 0 11.22 0 0 Z " fill="#F1B6F5" transform="translate(230,43)"></path>
<path d="M0 0 C14.52 0 29.04 0 44 0 C44 11.22 44 22.44 44 34 C40.37 34 36.74 34 33 34 C33 23.11 33 12.22 33 1 C22.11 1 11.22 1 0 1 C0 0.67 0 0.34 0 0 Z " fill="#CB96F0" transform="translate(380,139)"></path>
<path d="M0 0 C0.33 0 0.66 0 1 0 C1 10.89 1 21.78 1 33 C11.89 33 22.78 33 34 33 C34 22.11 34 11.22 34 0 C37.3 0 40.6 0 44 0 C44 11.22 44 22.44 44 34 C29.48 34 14.96 34 0 34 C0 22.78 0 11.56 0 0 Z " fill="#F4BBF4" transform="translate(0,43)"></path>
<path d="M0 0 C19.14 0 38.28 0 58 0 C58 0.33 58 0.66 58 1 C42.49 1 26.98 1 11 1 C11 11.23 11 21.46 11 32 C7.37 32 3.74 32 0 32 C0 21.44 0 10.88 0 0 Z " fill="#927BE3" transform="translate(34,426)"></path>
<path d="M0 0 C3.96 0 7.92 0 12 0 C12 10.89 12 21.78 12 33 C8.04 33 4.08 33 0 33 C0 22.11 0 11.22 0 0 Z " fill="#C69CF3" transform="translate(141,286)"></path>
<path d="M0 0 C13.86 0 27.72 0 42 0 C42 10.89 42 21.78 42 33 C28.14 33 14.28 33 0 33 C0 22.11 0 11.22 0 0 Z M1 1 C1 11.23 1 21.46 1 32 C11.56 32 22.12 32 33 32 C33 21.77 33 11.54 33 1 C22.44 1 11.88 1 1 1 Z " fill="#EDB1F0" transform="translate(425,92)"></path>
<path d="M0 0 C17.49 0 34.98 0 53 0 C53 0.33 53 0.66 53 1 C48.05 1 43.1 1 38 1 C38 5.29 38 9.58 38 14 C29.42 14 20.84 14 12 14 C12 9.71 12 5.42 12 1 C8.04 1 4.08 1 0 1 C0 0.67 0 0.34 0 0 Z " fill="#E37EF5" transform="translate(141,124)"></path>
<path d="M0 0 C3.63 0 7.26 0 11 0 C11 11.55 11 23.1 11 35 C7.37 35 3.74 35 0 35 C0 23.45 0 11.9 0 0 Z " fill="#796CEE" transform="translate(413,334)"></path>
<path d="M0 0 C3.63 0 7.26 0 11 0 C11 11.22 11 22.44 11 34 C7.37 34 3.74 34 0 34 C0 22.78 0 11.56 0 0 Z " fill="#DE9CF3" transform="translate(413,43)"></path>
<path d="M0 0 C0.33 0 0.66 0 1 0 C1 10.89 1 21.78 1 33 C11.56 33 22.12 33 33 33 C33 22.11 33 11.22 33 0 C35.97 0 38.94 0 42 0 C42 11.22 42 22.44 42 34 C28.14 34 14.28 34 0 34 C0 22.78 0 11.56 0 0 Z " fill="#DC9FF0" transform="translate(425,189)"></path>
<path d="M0 0 C14.52 0 29.04 0 44 0 C44 10.89 44 21.78 44 33 C40.7 33 37.4 33 34 33 C34 22.44 34 11.88 34 1 C22.78 1 11.56 1 0 1 C0 0.67 0 0.34 0 0 Z " fill="#DFA9ED" transform="translate(242,91)"></path>
<path d="M0 0 C3.63 0 7.26 0 11 0 C11 10.23 11 20.46 11 31 C7.37 31 3.74 31 0 31 C0 20.77 0 10.54 0 0 Z " fill="#8E74EA" transform="translate(323,427)"></path>
<path d="M0 0 C3.3 0 6.6 0 10 0 C10 11.22 10 22.44 10 34 C6.7 34 3.4 34 0 34 C0 22.78 0 11.56 0 0 Z " fill="#D49EF6" transform="translate(276,188)"></path>
<path d="M0 0 C3.3 0 6.6 0 10 0 C10 11.22 10 22.44 10 34 C6.7 34 3.4 34 0 34 C0 22.78 0 11.56 0 0 Z " fill="#D8A4F5" transform="translate(81,188)"></path>
<path d="M0 0 C8.58 0 17.16 0 26 0 C26 4.29 26 8.58 26 13 C17.42 13 8.84 13 0 13 C0 8.71 0 4.42 0 0 Z " fill="#C668F5" transform="translate(153,222)"></path>
<path d="M0 0 C3.3 0 6.6 0 10 0 C10 10.89 10 21.78 10 33 C6.7 33 3.4 33 0 33 C0 22.11 0 11.22 0 0 Z " fill="#A781F1" transform="translate(368,286)"></path>
<path d="M0 0 C3.3 0 6.6 0 10 0 C10 10.89 10 21.78 10 33 C6.7 33 3.4 33 0 33 C0 22.11 0 11.22 0 0 Z " fill="#C999F4" transform="translate(34,237)"></path>
<path d="M0 0 C3.3 0 6.6 0 10 0 C10 10.89 10 21.78 10 33 C6.7 33 3.4 33 0 33 C0 22.11 0 11.22 0 0 Z " fill="#E2ABF5" transform="translate(34,140)"></path>
<path d="M0 0 C3.3 0 6.6 0 10 0 C10 10.56 10 21.12 10 32 C6.7 32 3.4 32 0 32 C0 21.44 0 10.88 0 0 Z " fill="#ECB3F5" transform="translate(81,92)"></path>
<path d="M0 0 C0.33 0 0.66 0 1 0 C1 15.84 1 31.68 1 48 C15.52 48 30.04 48 45 48 C45 32.16 45 16.32 45 0 C45.33 0 45.66 0 46 0 C46 15.84 46 31.68 46 48 C59.86 48 73.72 48 88 48 C88 48.33 88 48.66 88 49 C74.14 49 60.28 49 46 49 C46 64.51 46 80.02 46 96 C59.86 96 73.72 96 88 96 C88 96.33 88 96.66 88 97 C73.81 97 59.62 97 45 97 C45 81.16 45 65.32 45 49 C30.48 49 15.96 49 1 49 C1 64.18 1 79.36 1 95 C0.67 95 0.34 95 0 95 C0 63.65 0 32.3 0 0 Z " fill="#732A96" transform="translate(379,43)"></path>
<path d="M0 0 C0.33 0 0.66 0 1 0 C1 4.95 1 9.9 1 15 C2.1432373 14.99476318 3.28647461 14.98952637 4.46435547 14.98413086 C32.32699694 14.86831782 60.14906396 15.18613881 88 16 C88 16.66 88 17.32 88 18 C74.14 18 60.28 18 46 18 C46 30.87 46 43.74 46 57 C45.67 57 45.34 57 45 57 C45 43.47 45 29.94 45 16 C30.48 16 15.96 16 1 16 C1 29.53 1 43.06 1 57 C0.67 57 0.34 57 0 57 C0 43.47 0 29.94 0 16 C-14.85 16 -29.7 16 -45 16 C-45 29.53 -45 43.06 -45 57 C-45.33 57 -45.66 57 -46 57 C-46 43.14 -46 29.28 -46 15 C-30.82 15 -15.64 15 0 15 C0 10.05 0 5.1 0 0 Z " fill="#05489F" transform="translate(379,369)"></path>
<path d="M0 0 C3.3 0 6.6 0 10 0 C10 10.23 10 20.46 10 31 C6.7 31 3.4 31 0 31 C0 20.77 0 10.54 0 0 Z " fill="#9B7DF0" transform="translate(231,427)"></path>
<path d="M0 0 C0.33 0 0.66 0 1 0 C1 15.51 1 31.02 1 47 C12.55 47 24.1 47 36 47 C36 42.71 36 38.42 36 34 C39.63 34 43.26 34 47 34 C47 22.78 47 11.56 47 0 C47.33 0 47.66 0 48 0 C48 15.84 48 31.68 48 48 C32.16 48 16.32 48 0 48 C0 32.16 0 16.32 0 0 Z " fill="#CF69E3" transform="translate(92,43)"></path>
<path d="M0 0 C0.33 0 0.66 0 1 0 C1 4.95 1 9.9 1 15 C15.85 15 30.7 15 46 15 C46 10.05 46 5.1 46 0 C46.33 0 46.66 0 47 0 C47 5.28 47 10.56 47 16 C31.49 16 15.98 16 0 16 C0 32.17 0 48.34 0 65 C-3.63 65 -7.26 65 -11 65 C-11 60.05 -11 55.1 -11 50 C-7.7 50 -4.4 50 -1 50 C-1 38.78 -1 27.56 -1 16 C-4.3 16 -7.6 16 -11 16 C-11 15.67 -11 15.34 -11 15 C-7.37 15 -3.74 15 0 15 C0 10.05 0 5.1 0 0 Z " fill="#5C3FCF" transform="translate(45,319)"></path>
<path d="M0 0 C2.64 0 5.28 0 8 0 C8 11.22 8 22.44 8 34 C5.36 34 2.72 34 0 34 C0 22.78 0 11.56 0 0 Z " fill="#AF81EF" transform="translate(459,287)"></path>
<path d="M0 0 C0.33 0 0.66 0 1 0 C1 15.51 1 31.02 1 47 C12.55 47 24.1 47 36 47 C36 42.71 36 38.42 36 34 C39.3 34 42.6 34 46 34 C46 22.78 46 11.56 46 0 C46.33 0 46.66 0 47 0 C47 15.84 47 31.68 47 48 C31.49 48 15.98 48 0 48 C0 32.16 0 16.32 0 0 Z " fill="#A956DD" transform="translate(45,188)"></path>
<path d="M0 0 C0.33 0 0.66 0 1 0 C1.02464574 5.96313166 1.042834 11.92623395 1.05493164 17.8894043 C1.05997278 19.91968298 1.06680557 21.94995802 1.07543945 23.98022461 C1.08751467 26.89177347 1.09323034 29.8032745 1.09765625 32.71484375 C1.10281754 33.6283812 1.10797882 34.54191864 1.11329651 35.48313904 C1.11349168 37.65575427 1.06211805 39.82827296 1 42 C0 43 0 43 -1.82862854 43.12025452 C-2.62582809 43.11803391 -3.42302765 43.11581329 -4.24438477 43.11352539 C-5.14524307 43.11344986 -6.04610138 43.11337433 -6.97425842 43.11329651 C-7.95341721 43.10813522 -8.93257599 43.10297394 -9.94140625 43.09765625 C-10.93881332 43.0962413 -11.9362204 43.09482635 -12.96385193 43.09336853 C-16.16343124 43.08775114 -19.36294169 43.07519571 -22.5625 43.0625 C-24.72591045 43.05748724 -26.88932199 43.05292395 -29.05273438 43.04882812 C-34.36851325 43.03777607 -39.68425171 43.02102104 -45 43 C-45 42.67 -45 42.34 -45 42 C-44.1121582 41.99589111 -43.22431641 41.99178223 -42.30957031 41.98754883 C-39.00634799 41.96053347 -35.70497661 41.91141956 -32.40234375 41.84741211 C-30.97472533 41.82425541 -29.54693664 41.80984176 -28.11914062 41.80444336 C-26.06272587 41.79513508 -24.00897973 41.75411728 -21.953125 41.70703125 C-20.09929199 41.68346558 -20.09929199 41.68346558 -18.20800781 41.65942383 C-14.84707815 41.26479786 -14.84707815 41.26479786 -12.57714844 38.68237305 C-10.56622615 35.26224872 -10.78282022 32.90923607 -11 29 C-10.505 27.515 -10.505 27.515 -10 26 C-7.03 26 -4.06 26 -1 26 C-0.67 17.42 -0.34 8.84 0 0 Z " fill="#EE04BB" transform="translate(91,0)"></path>
<path d="M0 0 C14.85 0 29.7 0 45 0 C45 16.17 45 32.34 45 49 C30.15 49 15.3 49 0 49 C0 48.67 0 48.34 0 48 C11.22 48 22.44 48 34 48 C34 44.04 34 40.08 34 36 C37.3 36 40.6 36 44 36 C44 24.45 44 12.9 44 1 C29.48 1 14.96 1 0 1 C0 0.67 0 0.34 0 0 Z " fill="#B963E3" transform="translate(0,139)"></path>
<path d="M0 0 C3.63 0 7.26 0 11 0 C11 16.17 11 32.34 11 49 C-3.85 49 -18.7 49 -34 49 C-34 44.38 -34 39.76 -34 35 C-33.67 35 -33.34 35 -33 35 C-33 39.29 -33 43.58 -33 48 C-22.11 48 -11.22 48 0 48 C0 43.38 0 38.76 0 34 C3.3 34 6.6 34 10 34 C10 23.11 10 12.22 10 1 C6.7 1 3.4 1 0 1 C0 0.67 0 0.34 0 0 Z " fill="#7B46E2" transform="translate(368,285)"></path>
<path d="M0 0 C0 8.91 0 17.82 0 27 C-3.63 26.67 -7.26 26.34 -11 26 C-10.67 18.08 -10.34 10.16 -10 2 C-3 0 -3 0 0 0 Z " fill="#FE2FC1" transform="translate(91,0)"></path>
<path d="M0 0 C0.33 0 0.66 0 1 0 C1 15.51 1 31.02 1 47 C12.22 47 23.44 47 35 47 C35 42.71 35 38.42 35 34 C38.63 34 42.26 34 46 34 C46 38.62 46 43.24 46 48 C30.82 48 15.64 48 0 48 C0 32.16 0 16.32 0 0 Z " fill="#974CE0" transform="translate(195,237)"></path>
<path d="M0 0 C0.33 0 0.66 0 1 0 C1 15.51 1 31.02 1 47 C12.22 47 23.44 47 35 47 C35 42.71 35 38.42 35 34 C38.63 34 42.26 34 46 34 C46 38.62 46 43.24 46 48 C30.82 48 15.64 48 0 48 C0 32.16 0 16.32 0 0 Z " fill="#CF63E5" transform="translate(195,43)"></path>
<path d="M0 0 C0.33 0 0.66 0 1 0 C1 15.84 1 31.68 1 48 C-13.85 48 -28.7 48 -44 48 C-44 47.67 -44 47.34 -44 47 C-32.78 47 -21.56 47 -10 47 C-10 42.38 -10 37.76 -10 33 C-6.7 33 -3.4 33 0 33 C0 22.11 0 11.22 0 0 Z " fill="#9955E1" transform="translate(44,237)"></path>
<path d="M0 0 C0 4.95 0 9.9 0 15 C-5.28 15 -10.56 15 -16 15 C-16 10.38 -16 5.76 -16 1 C-13.52085964 0.83293398 -11.04168987 0.66632824 -8.5625 0.5 C-7.85544922 0.45230469 -7.14839844 0.40460938 -6.41992188 0.35546875 C-1.11328125 0 -1.11328125 0 0 0 Z " fill="#8340E9" transform="translate(195,319)"></path>
<path d="M0 0 C0.33 0 0.66 0 1 0 C1 15.84 1 31.68 1 48 C-13.85 48 -28.7 48 -44 48 C-44 47.67 -44 47.34 -44 47 C-32.78 47 -21.56 47 -10 47 C-10 42.71 -10 38.42 -10 34 C-6.7 34 -3.4 34 0 34 C0 22.78 0 11.56 0 0 Z " fill="#A74AE2" transform="translate(286,188)"></path>
<path d="M0 0 C0.33 0 0.66 0 1 0 C1 15.84 1 31.68 1 48 C-13.85 48 -28.7 48 -44 48 C-44 47.67 -44 47.34 -44 47 C-32.78 47 -21.56 47 -10 47 C-10 42.71 -10 38.42 -10 34 C-6.7 34 -3.4 34 0 34 C0 22.78 0 11.56 0 0 Z " fill="#D769EB" transform="translate(44,43)"></path>
<path d="M0 0 C0.33 0 0.66 0 1 0 C1 15.51 1 31.02 1 47 C-13.85 47 -28.7 47 -44 47 C-44 46.67 -44 46.34 -44 46 C-32.78 46 -21.56 46 -10 46 C-10 41.71 -10 37.42 -10 33 C-6.7 33 -3.4 33 0 33 C0 22.11 0 11.22 0 0 Z " fill="#BC54E3" transform="translate(286,92)"></path>
<path d="M0 0 C0.33 0 0.66 0 1 0 C1 4.62 1 9.24 1 14 C12.55 14 24.1 14 36 14 C36 9.38 36 4.76 36 0 C39.63 0 43.26 0 47 0 C47 4.95 47 9.9 47 15 C31.49 15 15.98 15 0 15 C0 10.05 0 5.1 0 0 Z " fill="#BB55E8" transform="translate(92,173)"></path>
<path d="M0 0 C0.33 0 0.66 0 1 0 C1 4.62 1 9.24 1 14 C12.22 14 23.44 14 35 14 C35 9.38 35 4.76 35 0 C38.63 0 42.26 0 46 0 C46 4.95 46 9.9 46 15 C30.82 15 15.64 15 0 15 C0 10.05 0 5.1 0 0 Z " fill="#B34FE8" transform="translate(287,173)"></path>
<path d="M0 0 C0.33 0 0.66 0 1 0 C1 4.29 1 8.58 1 13 C12.55 13 24.1 13 36 13 C36 8.71 36 4.42 36 0 C39.63 0 43.26 0 47 0 C47 4.62 47 9.24 47 14 C31.49 14 15.98 14 0 14 C0 9.38 0 4.76 0 0 Z " fill="#A14AE8" transform="translate(92,271)"></path>
<path d="M0 0 C0.33 0 0.66 0 1 0 C1 4.29 1 8.58 1 13 C12.22 13 23.44 13 35 13 C35 8.71 35 4.42 35 0 C38.63 0 42.26 0 46 0 C46 4.62 46 9.24 46 14 C30.82 14 15.64 14 0 14 C0 9.38 0 4.76 0 0 Z " fill="#9746E8" transform="translate(287,271)"></path>
<path d="M0 0 C0.33 0 0.66 0 1 0 C1 4.29 1 8.58 1 13 C12.22 13 23.44 13 35 13 C35 8.71 35 4.42 35 0 C38.63 0 42.26 0 46 0 C46 4.62 46 9.24 46 14 C30.82 14 15.64 14 0 14 C0 9.38 0 4.76 0 0 Z " fill="#D15DED" transform="translate(287,77)"></path>
<path d="M0 0 C0.33 0 0.66 0 1 0 C1 4.29 1 8.58 1 13 C11.89 13 22.78 13 34 13 C34 8.71 34 4.42 34 0 C37.63 0 41.26 0 45 0 C45 4.62 45 9.24 45 14 C30.15 14 15.3 14 0 14 C0 9.38 0 4.76 0 0 Z " fill="#A545E8" transform="translate(334,222)"></path>
<path d="M0 0 C2.83203125 0.03255208 5.6640625 0.06510417 8.49609375 0.09765625 C8.49609375 4.71765625 8.49609375 9.33765625 8.49609375 14.09765625 C-6.02390625 14.09765625 -20.54390625 14.09765625 -35.50390625 14.09765625 C-35.50390625 13.76765625 -35.50390625 13.43765625 -35.50390625 13.09765625 C-24.94390625 13.09765625 -14.38390625 13.09765625 -3.50390625 13.09765625 C-3.50390625 9.13765625 -3.50390625 5.17765625 -3.50390625 1.09765625 C-2.50390625 0.09765625 -2.50390625 0.09765625 0 0 Z " fill="#C146EC" transform="translate(415.50390625,76.90234375)"></path>
<path d="M0 0 C3.63 0 7.26 0 11 0 C11 4.95 11 9.9 11 15 C-3.52 15 -18.04 15 -33 15 C-33 14.67 -33 14.34 -33 14 C-22.11 14 -11.22 14 0 14 C0 9.38 0 4.76 0 0 Z " fill="#A842E8" transform="translate(413,173)"></path>
<path d="M0 0 C4.95 0 9.9 0 15 0 C15 4.29 15 8.58 15 13 C10.05 13 5.1 13 0 13 C0 8.71 0 4.42 0 0 Z " fill="#D257F3" transform="translate(179,125)"></path>
<path d="M0 0 C0.33 0 0.66 0 1 0 C1 16.17 1 32.34 1 49 C-2.96 49 -6.92 49 -11 49 C-10.67 44.38 -10.34 39.76 -10 35 C-6.7 35 -3.4 35 0 35 C0 23.45 0 11.9 0 0 Z " fill="#7C3EDE" transform="translate(286,285)"></path>
<path d="M0 0 C3.63 0 7.26 0 11 0 C11 4.62 11 9.24 11 14 C-3.52 14 -18.04 14 -33 14 C-33 13.67 -33 13.34 -33 13 C-22.11 13 -11.22 13 0 13 C0 8.71 0 4.42 0 0 Z " fill="#893DE7" transform="translate(413,271)"></path>
<path d="M0 0 C28.71 0 57.42 0 87 0 C87 0.33 87 0.66 87 1 C69.51 1 52.02 1 34 1 C34 11.23 34 21.46 34 32 C33.01 32 32.02 32 31 32 C31.33 21.77 31.66 11.54 32 1 C21.77 1 11.54 1 1 1 C1 11.23 1 21.46 1 32 C0.67 32 0.34 32 0 32 C0 21.44 0 10.88 0 0 Z " fill="#A5A5E9" transform="translate(380,426)"></path>
<path d="M0 0 C4.29 0 8.58 0 13 0 C13 4.62 13 9.24 13 14 C8.71 14 4.42 14 0 14 C0 9.38 0 4.76 0 0 Z " fill="#853FE8" transform="translate(140,320)"></path>
<path d="M0 0 C0.33 0 0.66 0 1 0 C1 13.86 1 27.72 1 42 C15.85 42 30.7 42 46 42 C46 42.33 46 42.66 46 43 C31.15 43 16.3 43 1 43 C1 58.84 1 74.68 1 91 C0.67 91 0.34 91 0 91 C0 75.16 0 59.32 0 43 C-15.18 43 -30.36 43 -46 43 C-46 42.67 -46 42.34 -46 42 C-30.82 42 -15.64 42 0 42 C0 28.14 0 14.28 0 0 Z " fill="#9923A1" transform="translate(333,0)"></path>
<path d="M0 0 C3.3 0 6.6 0 10 0 C10 4.62 10 9.24 10 14 C-4.85 14 -19.7 14 -35 14 C-35 13.67 -35 13.34 -35 13 C-23.45 13 -11.9 13 0 13 C0 8.71 0 4.42 0 0 Z " fill="#B74EEB" transform="translate(231,174)"></path>
<path d="M0 0 C2 2 2 2 2.22705078 4.88916016 C2.21657715 6.09362793 2.20610352 7.2980957 2.1953125 8.5390625 C2.19031738 9.71162598 2.18532227 10.88418945 2.18017578 12.09228516 C2.16196777 13.58808105 2.14375977 15.08387695 2.125 16.625 C2.08375 21.36875 2.0425 26.1125 2 31 C-12.85 31 -27.7 31 -43 31 C-43 30.67 -43 30.34 -43 30 C-29.8 30 -16.6 30 -3 30 C-3 25.05 -3 20.1 -3 15 C-2.35135135 2.35135135 -2.35135135 2.35135135 0 0 Z " fill="#61007D" transform="translate(331,11)"></path>
<path d="M0 0 C3.63 0 7.26 0 11 0 C11 4.95 11 9.9 11 15 C5.39 15 -0.22 15 -6 15 C-6 14.67 -6 14.34 -6 14 C-4.02 14 -2.04 14 0 14 C0 9.38 0 4.76 0 0 Z " fill="#6242E4" transform="translate(128,369)"></path>
<path d="M0 0 C0.33 0 0.66 0 1 0 C1.95458649 8.35263176 2.11039334 16.59784035 2 25 C2.85609863 24.75552124 2.85609863 24.75552124 3.72949219 24.50610352 C6.01653267 23.99631481 7.98964456 23.88564032 10.328125 23.90234375 C11.52695313 23.90717773 11.52695313 23.90717773 12.75 23.91210938 C13.575 23.92048828 14.4 23.92886719 15.25 23.9375 C16.09046875 23.94201172 16.9309375 23.94652344 17.796875 23.95117188 C19.86461401 23.96292039 21.93231624 23.98085478 24 24 C25.60911771 20.78176458 25.34016955 17.23040821 25.5 13.6875 C25.56948495 12.17041185 25.6423193 10.65347284 25.71875 9.13671875 C25.74904297 8.46342529 25.77933594 7.79013184 25.81054688 7.09643555 C26.02641551 4.70769337 26.5296201 2.35189949 27 0 C30.96 0 34.92 0 39 0 C39 0.33 39 0.66 39 1 C35.7 1.33 32.4 1.66 29 2 C28.94465088 2.72179443 28.88930176 3.44358887 28.83227539 4.18725586 C28.5803846 7.43772168 28.32153699 10.68759621 28.0625 13.9375 C27.97548828 15.07380859 27.88847656 16.21011719 27.79882812 17.38085938 C27.71181641 18.46044922 27.62480469 19.54003906 27.53515625 20.65234375 C27.456604 21.65257568 27.37805176 22.65280762 27.29711914 23.68334961 C27 26 27 26 26 27 C25.030625 26.979375 24.06125 26.95875 23.0625 26.9375 C18.98861001 26.85332872 15.27780749 27.70944166 11.33203125 28.66015625 C9 29 9 29 6.88671875 28.43359375 C5.95279297 28.21896484 5.95279297 28.21896484 5 28 C4.01 28.66 3.02 29.32 2 30 C0.01625717 24.94752846 -0.44454885 20.35375988 -0.6875 15 C-0.73455078 14.21882812 -0.78160156 13.43765625 -0.83007812 12.6328125 C-1.05462511 8.25966786 -0.91966855 4.31483589 0 0 Z " fill="#FF3AC1" transform="translate(152,0)"></path>
<path d="M0 0 C3.63 0 7.26 0 11 0 C11 4.95 11 9.9 11 15 C7.37 15 3.74 15 0 15 C0 10.05 0 5.1 0 0 Z " fill="#4536DE" transform="translate(413,369)"></path>
<path d="M0 0 C3.63 0 7.26 0 11 0 C11 4.95 11 9.9 11 15 C3.28515625 15.09765625 3.28515625 15.09765625 1 15 C0 14 0 14 -0.09765625 10.83984375 C-0.08025391 8.90818359 -0.08025391 8.90818359 -0.0625 6.9375 C-0.05347656 5.64714844 -0.04445312 4.35679687 -0.03515625 3.02734375 C-0.02355469 2.02832031 -0.01195312 1.02929688 0 0 Z " fill="#5F3FE5" transform="translate(230,369)"></path>
<path d="M0 0 C2.64 0 5.28 0 8 0 C8 4.95 8 9.9 8 15 C-5.86 15 -19.72 15 -34 15 C-34 14.67 -34 14.34 -34 14 C-22.78 14 -11.56 14 0 14 C0 9.38 0 4.76 0 0 Z " fill="#7C3AE0" transform="translate(459,321)"></path>
<path d="M0 0 C0.33 0 0.66 0 1 0 C1 4.62 1 9.24 1 14 C15.52 14 30.04 14 45 14 C45 14.33 45 14.66 45 15 C30.48 15 15.96 15 1 15 C1 30.84 1 46.68 1 63 C0.67 63 0.34 63 0 63 C0 47.16 0 31.32 0 15 C-15.18 15 -30.36 15 -46 15 C-46 14.67 -46 14.34 -46 14 C-30.82 14 -15.64 14 0 14 C0 9.38 0 4.76 0 0 Z " fill="#63329B" transform="translate(333,222)"></path>
<path d="M0 0 C3.3 0 6.6 0 10 0 C10 4.62 10 9.24 10 14 C6.37 14 2.74 14 -1 14 C-0.67 9.38 -0.34 4.76 0 0 Z " fill="#583CE0" transform="translate(323,370)"></path>
<path d="M0 0 C3.3 0 6.6 0 10 0 C8.68 0.99 7.36 1.98 6 3 C5.36029405 5.40238852 5.36029405 5.40238852 5.390625 8.10546875 C5.35839844 9.08837891 5.32617188 10.07128906 5.29296875 11.08398438 C5.27878906 12.10814453 5.26460937 13.13230469 5.25 14.1875 C5.22035156 15.22326172 5.19070312 16.25902344 5.16015625 17.32617188 C5.08942755 19.88419312 5.03674743 22.44130158 5 25 C4.34 25.33 3.68 25.66 3 26 C2.34 25.67 1.68 25.34 1 25 C1 27.64 1 30.28 1 33 C0.67 33 0.34 33 0 33 C0 22.11 0 11.22 0 0 Z " fill="#CC9EF2" transform="translate(230,237)"></path>
<path d="M0 0 C3.3 0 6.6 0 10 0 C10 4.62 10 9.24 10 14 C6.7 14 3.4 14 0 14 C0 9.38 0 4.76 0 0 Z " fill="#843FEF" transform="translate(81,320)"></path>
<path d="M0 0 C3.3 0 6.6 0 10 0 C10 4.29 10 8.58 10 13 C6.7 13 3.4 13 0 13 C0 8.71 0 4.42 0 0 Z " fill="#D05DF4" transform="translate(81,125)"></path>
<path d="M0 0 C2.97 0 5.94 0 9 0 C9 4.62 9 9.24 9 14 C6.03 14 3.06 14 0 14 C0 9.38 0 4.76 0 0 Z " fill="#D549ED" transform="translate(458,125)"></path>
<path d="M0 0 C3.3 0 6.6 0 10 0 C10 3.96 10 7.92 10 12 C6.7 12 3.4 12 0 12 C0 8.04 0 4.08 0 0 Z " fill="#C34DF2" transform="translate(368,126)"></path>
<path d="M0 0 C0.33 0 0.66 0 1 0 C1 12.21 1 24.42 1 37 C-13.85 37 -28.7 37 -44 37 C-44 36.67 -44 36.34 -44 36 C-30.47 36 -16.94 36 -3 36 C-3 33.03 -3 30.06 -3 27 C-2.505 26.505 -2.505 26.505 -2 26 C-1.7714679 24.0769127 -1.60481143 22.14639772 -1.46484375 20.21484375 C-1.37783203 19.04501953 -1.29082031 17.87519531 -1.20117188 16.66992188 C-1.11416016 15.43822266 -1.02714844 14.20652344 -0.9375 12.9375 C-0.84662109 11.70193359 -0.75574219 10.46636719 -0.66210938 9.19335938 C-0.43732402 6.12918006 -0.2168144 3.06475198 0 0 Z " fill="#69007E" transform="translate(240,5)"></path>
<path d="M0 0 C18.15 0 36.3 0 55 0 C55 0.33 55 0.66 55 1 C53.78006348 1.01981934 52.56012695 1.03963867 51.30322266 1.06005859 C46.73694718 1.1366646 42.17096774 1.22529314 37.60498047 1.31738281 C35.63629033 1.35544695 33.66753597 1.39033732 31.69873047 1.421875 C28.85360909 1.4680199 26.00892133 1.52592781 23.1640625 1.5859375 C22.29697662 1.59748871 21.42989075 1.60903992 20.53652954 1.62094116 C10.62448341 1.4700169 10.62448341 1.4700169 2 5 C1.83989519 7.73701178 1.74053172 10.4516759 1.68359375 13.19140625 C1.66281265 14.01124496 1.64203156 14.83108368 1.62062073 15.67576599 C1.55503506 18.30458901 1.49619874 20.93351504 1.4375 23.5625 C1.39432333 25.34050561 1.35070933 27.11850065 1.30664062 28.89648438 C1.19934457 33.26421634 1.09810296 37.63205227 1 42 C0.67 42 0.34 42 0 42 C0 28.14 0 14.28 0 0 Z " fill="#0073C8" transform="translate(140,384)"></path>
<path d="M0 0 C2.64 0 5.28 0 8 0 C8 4.62 8 9.24 8 14 C5.36 14 2.72 14 0 14 C0 9.38 0 4.76 0 0 Z " fill="#B537EA" transform="translate(459,223)"></path>
<path d="M0 0 C14.19 0 28.38 0 43 0 C38.4807022 3.38947335 35.93376296 3.41251617 30.5859375 3.328125 C29.36966171 3.32531525 29.36966171 3.32531525 28.1288147 3.32244873 C26.41916781 3.31573931 24.70953598 3.30184682 23 3.28125 C20.37745973 3.25002928 17.7555204 3.24027093 15.1328125 3.234375 C13.47134681 3.22520724 11.80988724 3.2148322 10.1484375 3.203125 C9.36197845 3.19887512 8.57551941 3.19462524 7.76522827 3.19024658 C2.23445296 3.11722648 2.23445296 3.11722648 0 2 C0 1.34 0 0.68 0 0 Z " fill="#6C0085" transform="translate(243,43)"></path>
<path d="M0 0 C6.6 0 13.2 0 20 0 C20 0.33 20 0.66 20 1 C27.26 1.66 34.52 2.32 42 3 C42 3.33 42 3.66 42 4 C28.14 4 14.28 4 0 4 C0 2.68 0 1.36 0 0 Z " fill="#4E0071" transform="translate(425,87)"></path>
<path d="M0 0 C13.86 0 27.72 0 42 0 C42 13.53 42 27.06 42 41 C41.67 41 41.34 41 41 41 C40.97494385 39.96069336 40.9498877 38.92138672 40.92407227 37.85058594 C40.82979074 33.98897297 40.72962092 30.12753117 40.62768555 26.26611328 C40.58441511 24.59590666 40.54273451 22.92565806 40.50268555 21.25537109 C40.44479149 18.85241045 40.3811526 16.44965959 40.31640625 14.046875 C40.29969376 13.30193787 40.28298126 12.55700073 40.26576233 11.78948975 C40.16938305 8.40490066 40.03929826 5.2399476 39 2 C38.443125 2.185625 37.88625 2.37125 37.3125 2.5625 C34.60179165 3.07533672 32.67616438 2.56340303 30 2 C27.66924071 2.95865509 27.66924071 2.95865509 26 6 C26 4.35 26 2.7 26 1 C17.42 1 8.84 1 0 1 C0 0.67 0 0.34 0 0 Z " fill="#0096EF" transform="translate(153,385)"></path>
<path d="M0 0 C2.64 0.66 5.28 1.32 8 2 C8.495 5.465 8.495 5.465 9 9 C-5.85 9 -20.7 9 -36 9 C-36 8.67 -36 8.34 -36 8 C-24.12 8 -12.24 8 0 8 C0 5.36 0 2.72 0 0 Z " fill="#B289F0" transform="translate(82,311)"></path>
<path d="M0 0 C4.95 0 9.9 0 15 0 C15 11.22 15 22.44 15 34 C10.05 34 5.1 34 0 34 C0 22.78 0 11.56 0 0 Z M3 1 C0.68347508 2.88228369 0.68347508 2.88228369 0.77294922 5.98095703 C0.78342285 7.22731934 0.79389648 8.47368164 0.8046875 9.7578125 C0.8075174 10.42086395 0.81034729 11.08391541 0.81326294 11.76705933 C0.82446565 13.88655583 0.84956949 16.00563104 0.875 18.125 C0.88502972 19.56119182 0.89415559 20.99739025 0.90234375 22.43359375 C0.92270461 25.95602238 0.9618506 29.47753917 1 33 C5.29 33 9.58 33 14 33 C14 22.44 14 11.88 14 1 C10.37 1 6.74 1 3 1 Z " fill="#CD93EA" transform="translate(180,188)"></path>
<path d="M0 0 C13.2 0 26.4 0 40 0 C40 0.33 40 0.66 40 1 C39.20416504 1.02505615 38.40833008 1.0501123 37.58837891 1.07592773 C33.93379832 1.19296986 30.27940825 1.31519962 26.625 1.4375 C25.37332031 1.47681641 24.12164062 1.51613281 22.83203125 1.55664062 C21.60097656 1.59853516 20.36992187 1.64042969 19.1015625 1.68359375 C17.42054443 1.73858032 17.42054443 1.73858032 15.70556641 1.79467773 C11.12643547 2.04840346 6.5633947 2.54366053 2 3 C1.67 13.56 1.34 24.12 1 35 C0.67 35 0.34 35 0 35 C0 23.45 0 11.9 0 0 Z " fill="#84008C" transform="translate(287,0)"></path>
<path d="M0 0 C2.64 0 5.28 0 8 0 C8 0.33 8 0.66 8 1 C6.02 1.33 4.04 1.66 2 2 C1.96241577 2.98395752 1.96241577 2.98395752 1.92407227 3.98779297 C1.8082674 6.95040183 1.68547114 9.91268031 1.5625 12.875 C1.52318359 13.90753906 1.48386719 14.94007812 1.44335938 16.00390625 C1.38051758 17.48310547 1.38051758 17.48310547 1.31640625 18.9921875 C1.27974854 19.90339355 1.24309082 20.81459961 1.20532227 21.75341797 C1 24 1 24 0 26 C-10.89 26 -21.78 26 -33 26 C-33 25.34 -33 24.68 -33 24 C-31.70582153 24.01571045 -31.70582153 24.01571045 -30.38549805 24.03173828 C-27.18189479 24.06583983 -23.9783841 24.09090857 -20.7746582 24.10986328 C-19.38855952 24.1199157 -18.00248201 24.1335597 -16.61645508 24.15087891 C-14.6233025 24.17515952 -12.62999467 24.18542031 -10.63671875 24.1953125 C-9.43748779 24.20578613 -8.23825684 24.21625977 -7.00268555 24.22705078 C-3.81837173 24.23308072 -3.81837173 24.23308072 -1 22 C-0.49156938 19.68246412 -0.49156938 19.68246412 -0.48828125 16.9921875 C-0.45283203 16.00605469 -0.41738281 15.01992187 -0.38085938 14.00390625 C-0.35830078 12.97136719 -0.33574219 11.93882813 -0.3125 10.875 C-0.27833984 9.83472656 -0.24417969 8.79445313 -0.20898438 7.72265625 C-0.12632942 5.14854493 -0.05723845 2.57478171 0 0 Z " fill="#FF41C3" transform="translate(80,0)"></path>
<path d="M0 0 C14.52 0 29.04 0 44 0 C44 0.66 44 1.32 44 2 C41.36 2 38.72 2 36 2 C36.309375 2.61875 36.61875 3.2375 36.9375 3.875 C37.625 5.25 38.3125 6.625 39 8 C38.34 8 37.68 8 37 8 C36.34 10.97 35.68 13.94 35 17 C34.67 17 34.34 17 34 17 C34 11.72 34 6.44 34 1 C22.78 1 11.56 1 0 1 C0 0.67 0 0.34 0 0 Z " fill="#B193E0" transform="translate(242,285)"></path>
<path d="M0 0 C3.3 0 6.6 0 10 0 C9 4 9 4 7 7 C6.360625 8.051875 5.72125 9.10375 5.0625 10.1875 C4.381875 11.115625 3.70125 12.04375 3 13 C2.01 13 1.02 13 0 13 C0 8.71 0 4.42 0 0 Z " fill="#A045F0" transform="translate(34,271)"></path>
<path d="M0 0 C11.22 0 22.44 0 34 0 C34 0.66 34 1.32 34 2 C29.22479306 4.54677703 24.27951886 4.42040613 19 4 C18.67 3.67 18.34 3.34 18 3 C16.66197814 2.77486899 15.31426977 2.60639193 13.96484375 2.46484375 C13.15595703 2.37783203 12.34707031 2.29082031 11.51367188 2.20117188 C10.66353516 2.11416016 9.81339844 2.02714844 8.9375 1.9375 C8.08349609 1.84662109 7.22949219 1.75574219 6.34960938 1.66210938 C4.23348465 1.43749278 2.11679106 1.21824773 0 1 C0 0.67 0 0.34 0 0 Z " fill="#6A60EA" transform="translate(0,369)"></path>
<path d="M0 0 C-1 1 -1 1 -4.87719727 1.11352539 C-6.60694167 1.11336621 -8.33669081 1.10766849 -10.06640625 1.09765625 C-10.97502914 1.0962413 -11.88365204 1.09482635 -12.81980896 1.09336853 C-15.73407221 1.08775193 -18.64825981 1.07519665 -21.5625 1.0625 C-23.53320202 1.05748714 -25.50390524 1.05292386 -27.47460938 1.04882812 C-32.31643559 1.03777711 -37.15820495 1.02050138 -42 1 C-42 0.34 -42 -0.32 -42 -1 C-36.34034606 -1.19207142 -30.68048989 -1.37082399 -25.02001953 -1.53710938 C-23.09347181 -1.59559792 -21.16703201 -1.65775936 -19.24072266 -1.72363281 C-16.47578581 -1.81755244 -13.71073297 -1.89836327 -10.9453125 -1.9765625 C-10.0806839 -2.00875885 -9.2160553 -2.0409552 -8.32522583 -2.0741272 C-2.22774341 -2.22774341 -2.22774341 -2.22774341 0 0 Z " fill="#40096B" transform="translate(238,138)"></path>
<path d="M0 0 C14.52 0 29.04 0 44 0 C44 0.66 44 1.32 44 2 C40.7 2 37.4 2 34 2 C34 5.96 34 9.92 34 14 C33.67 14 33.34 14 33 14 C33 10.7 33 7.4 33 4 C32.34 4 31.68 4 31 4 C31 3.34 31 2.68 31 2 C21.1 2 11.2 2 1 2 C1 5.96 1 9.92 1 14 C0.67 14 0.34 14 0 14 C0 9.38 0 4.76 0 0 Z " fill="#CE71ED" transform="translate(334,124)"></path>
<path d="M0 0 C2.64 0 5.28 0 8 0 C8.33 2.31 8.66 4.62 9 7 C8.01 7.495 8.01 7.495 7 8 C7 7.01 7 6.02 7 5 C4.24358584 5.49756092 4.24358584 5.49756092 2 7 C1.84379445 8.41327947 1.74943827 9.8335459 1.68359375 11.25390625 C1.64169922 12.10791016 1.59980469 12.96191406 1.55664062 13.84179688 C1.49766602 15.18854492 1.49766602 15.18854492 1.4375 16.5625 C1.39431641 17.46419922 1.35113281 18.36589844 1.30664062 19.29492188 C1.20021858 21.52978485 1.09820012 23.76476308 1 26 C-0.32 25.67 -1.64 25.34 -3 25 C-2.01 23.515 -2.01 23.515 -1 22 C-0.79494955 19.88962955 -0.79494955 19.88962955 -0.9375 17.5625 C-1.06825287 11.66118718 -0.56483416 5.87024073 0 0 Z " fill="#FF2AC2" transform="translate(275,0)"></path>
<path d="M0 0 C11.22 0 22.44 0 34 0 C33.67 0.66 33.34 1.32 33 2 C23.1 2.33 13.2 2.66 3 3 C2.34 4.98 1.68 6.96 1 9 C0.67 9 0.34 9 0 9 C0 6.03 0 3.06 0 0 Z " fill="#E593EB" transform="translate(196,77)"></path>
<path d="M0 0 C13.86 0 27.72 0 42 0 C42 0.33 42 0.66 42 1 C38.7 1 35.4 1 32 1 C31.67 1.66 31.34 2.32 31 3 C30.67 2.67 30.34 2.34 30 2 C28.33570949 1.90176063 26.66718069 1.87026369 25 1.875 C24.0925 1.87242188 23.185 1.86984375 22.25 1.8671875 C20.03033389 1.74826221 20.03033389 1.74826221 19 3 C16.30345146 3.07319621 13.63308542 3.09242537 10.9375 3.0625 C10.17888672 3.05798828 9.42027344 3.05347656 8.63867188 3.04882812 C6.75908129 3.0370068 4.87953101 3.01907078 3 3 C3 2.34 3 1.68 3 1 C2.01 0.67 1.02 0.34 0 0 Z " fill="#710081" transform="translate(425,43)"></path>
<path d="M0 0 C11.22 0 22.44 0 34 0 C34 0.33 34 0.66 34 1 C23.77 1.66 13.54 2.32 3 3 C2.34 6.3 1.68 9.6 1 13 C1.99 13.33 2.98 13.66 4 14 C2.68 14 1.36 14 0 14 C0 9.38 0 4.76 0 0 Z " fill="#C66AE9" transform="translate(425,223)"></path>
<path d="M0 0 C5.61 0 11.22 0 17 0 C17 0.33 17 0.66 17 1 C16.08476562 1.04898437 15.16953125 1.09796875 14.2265625 1.1484375 C13.03804688 1.22320312 11.84953125 1.29796875 10.625 1.375 C8.84996094 1.47941406 8.84996094 1.47941406 7.0390625 1.5859375 C3.89437681 1.70217346 3.89437681 1.70217346 2 4 C1.67043065 5.97760261 1.67043065 5.97760261 1.68115234 8.26611328 C1.66128265 9.14687531 1.64141296 10.02763733 1.62094116 10.93508911 C1.60938995 11.88721283 1.59783875 12.83933655 1.5859375 13.8203125 C1.56657135 14.79410858 1.5472052 15.76790466 1.5272522 16.77120972 C1.46735442 19.88905003 1.42103029 23.00692706 1.375 26.125 C1.33682961 28.23569341 1.29777844 30.34637108 1.2578125 32.45703125 C1.16164473 37.63788144 1.07662736 42.81882597 1 48 C0.67 48 0.34 48 0 48 C0 32.16 0 16.32 0 0 Z " fill="#27056D" transform="translate(287,286)"></path>
<path d="M0 0 C2.64 0 5.28 0 8 0 C7.01 0.33 6.02 0.66 5 1 C5.061875 1.886875 5.12375 2.77375 5.1875 3.6875 C5 7 5 7 3.53125 9.25 C1.60714719 12.70553158 1.49623656 15.38053769 1.3125 19.3125 C1.24675781 20.56675781 1.18101562 21.82101563 1.11328125 23.11328125 C1.07589844 24.06589844 1.03851563 25.01851562 1 26 C0.67 26 0.34 26 0 26 C0 17.42 0 8.84 0 0 Z " fill="#F933C1" transform="translate(140,0)"></path>
<path d="M0 0 C13.86 0 27.72 0 42 0 C42 0.33 42 0.66 42 1 C39.69 1.66 37.38 2.32 35 3 C34.67 7.29 34.34 11.58 34 16 C33.67 16 33.34 16 33 16 C33 11.05 33 6.1 33 1 C28.62074555 1.07392222 24.24356591 1.15666404 19.86523438 1.26245117 C18.37543428 1.29573463 16.88550705 1.32375597 15.39550781 1.34643555 C13.25530748 1.37992071 11.11627581 1.43222789 8.9765625 1.48828125 C7.68830566 1.51446533 6.40004883 1.54064941 5.07275391 1.56762695 C4.05874512 1.71031006 3.04473633 1.85299316 2 2 C1.01 3.485 1.01 3.485 0 5 C0 3.35 0 1.7 0 0 Z " fill="#00A1F2" transform="translate(425,387)"></path>
<path d="M0 0 C10.89 0 21.78 0 33 0 C33 0.33 33 0.66 33 1 C22.77 1.66 12.54 2.32 2 3 C1.67 6.96 1.34 10.92 1 15 C0.67 15 0.34 15 0 15 C0 10.05 0 5.1 0 0 Z " fill="#6260E3" transform="translate(380,369)"></path>
<path d="M0 0 C3.96 0 7.92 0 12 0 C12 10.23 12 20.46 12 31 C11.67 31 11.34 31 11 31 C11 21.1 11 11.2 11 1 C4.05012657 2.13712247 4.05012657 2.13712247 2.0625 6.125 C1.711875 7.07375 1.36125 8.0225 1 9 C0.67 9 0.34 9 0 9 C0 6.03 0 3.06 0 0 Z " fill="#F4C7F3" transform="translate(141,92)"></path>
<path d="M0 0 C0.33 0 0.66 0 1 0 C1 13.86 1 27.72 1 42 C-3.95 42 -8.9 42 -14 42 C-14 41.67 -14 41.34 -14 41 C-13.14535156 40.95101562 -12.29070312 40.90203125 -11.41015625 40.8515625 C-10.30542969 40.77679688 -9.20070312 40.70203125 -8.0625 40.625 C-6.40927734 40.52058594 -6.40927734 40.52058594 -4.72265625 40.4140625 C-3.82417969 40.27742188 -2.92570313 40.14078125 -2 40 C-0.36342246 36.72684491 -0.7569193 33.09377769 -0.68359375 29.4921875 C-0.66281265 28.65156769 -0.64203156 27.81094788 -0.62062073 26.94485474 C-0.55514561 24.25498765 -0.4962498 21.56502157 -0.4375 18.875 C-0.39431284 17.05337511 -0.35069848 15.23176029 -0.30664062 13.41015625 C-0.19946632 8.94020606 -0.09819315 4.47015614 0 0 Z " fill="#E90AC0" transform="translate(194,0)"></path>
<path d="M0 0 C7.26 0.33 14.52 0.66 22 1 C22 1.33 22 1.66 22 2 C15.4 2 8.8 2 2 2 C2.33 3.98 2.66 5.96 3 8 C2.5625 11.375 2.5625 11.375 2 14 C2.99 14.33 3.98 14.66 5 15 C3.35 15 1.7 15 0 15 C0 10.05 0 5.1 0 0 Z " fill="#5C51DB" transform="translate(92,369)"></path>
<path d="M0 0 C0.66 0.33 1.32 0.66 2 1 C2 2.98 2 4.96 2 7 C8.6 7 15.2 7 22 7 C22 7.33 22 7.66 22 8 C13.75 8 5.5 8 -3 8 C-2 3 -2 3 0 0 Z " fill="#00126F" transform="translate(143,376)"></path>
<path d="M0 0 C5.61 0 11.22 0 17 0 C16.01 1.485 16.01 1.485 15 3 C12.37302936 3.22137393 9.99106036 3.28162025 7.375 3.1875 C6.66859375 3.17396484 5.9621875 3.16042969 5.234375 3.14648438 C3.48925872 3.1111104 1.74453392 3.05730221 0 3 C0 2.01 0 1.02 0 0 Z " fill="#2A0060" transform="translate(1,233)"></path>
<path d="M0 0 C4.95 0 9.9 0 15 0 C14.34 1.65 13.68 3.3 13 5 C10.69 5 8.38 5 6 5 C6 3.68 6 2.36 6 1 C4.02 1.33 2.04 1.66 0 2 C0 1.34 0 0.68 0 0 Z " fill="#79008E" transform="translate(140,43)"></path>
<path d="M0 0 C0.33 0 0.66 0 1 0 C1 5.28 1 10.56 1 16 C-2.63 16 -6.26 16 -10 16 C-9.67 15.01 -9.34 14.02 -9 13 C-6.03 13 -3.06 13 0 13 C0 8.71 0 4.42 0 0 Z " fill="#BD93F0" transform="translate(151,303)"></path>
<path d="M0 0 C10.56 0 21.12 0 32 0 C32 0.33 32 0.66 32 1 C31.24380371 1.01981934 30.48760742 1.03963867 29.70849609 1.06005859 C26.26366282 1.15564572 22.81940799 1.26518891 19.375 1.375 C18.18519531 1.4059375 16.99539063 1.436875 15.76953125 1.46875 C14.03896484 1.52675781 14.03896484 1.52675781 12.2734375 1.5859375 C11.21560059 1.6173584 10.15776367 1.6487793 9.06787109 1.68115234 C5.80798001 2.01995688 3.06242545 2.85610583 0 4 C0 2.68 0 1.36 0 0 Z " fill="#ECE3FB" transform="translate(335,286)"></path>
<path d="M0 0 C6.6 0 13.2 0 20 0 C20 0.33 20 0.66 20 1 C13.07864683 2.94283598 7.11311348 3.72439115 0 2 C0 1.34 0 0.68 0 0 Z " fill="#FF25C0" transform="translate(60,26)"></path>
<path d="M0 0 C0.33 2.31 0.66 4.62 1 7 C0.01 7.495 0.01 7.495 -1 8 C-1 7.01 -1 6.02 -1 5 C-3.16874252 5.50603992 -4.99967627 5.99983813 -7 7 C-7 5.02 -7 3.04 -7 1 C-4.53721199 -0.231394 -2.7204945 -0.07159196 0 0 Z " fill="#FF12BE" transform="translate(283,0)"></path>
<path d="M0 0 C2.64 0 5.28 0 8 0 C8 7.26 8 14.52 8 22 C7.67 22 7.34 22 7 22 C6.93941406 20.98679687 6.87882812 19.97359375 6.81640625 18.9296875 C6.73193296 17.57811486 6.64728843 16.22655291 6.5625 14.875 C6.52318359 14.20984375 6.48386719 13.5446875 6.44335938 12.859375 C6.187848 8.84981183 5.73217587 4.95005804 5 1 C4.34 1 3.68 1 3 1 C2.67 1.66 2.34 2.32 2 3 C2 2.34 2 1.68 2 1 C1.34 0.67 0.68 0.34 0 0 Z " fill="#91008B" transform="translate(37,0)"></path>
<path d="M0 0 C0.33 0 0.66 0 1 0 C1 1.98 1 3.96 1 6 C-2.3 6 -5.6 6 -9 6 C-8.67 4.35 -8.34 2.7 -8 1 C-5.36 1.99 -2.72 2.98 0 4 C0 2.68 0 1.36 0 0 Z " fill="#A376F1" transform="translate(285,314)"></path>
<path d="M0 0 C3.3 0 6.6 0 10 0 C10 0.33 10 0.66 10 1 C7.69 1.66 5.38 2.32 3 3 C2.67 6.3 2.34 9.6 2 13 C1.67 13 1.34 13 1 13 C-0.10228696 8.59085217 -0.07654536 4.51617599 0 0 Z " fill="#B18DEE" transform="translate(368,286)"></path>
<path d="M0 0 C5.61 0 11.22 0 17 0 C13.5004809 2.33301273 11.15585315 2.63545148 7 3 C5.66666667 2.66666667 4.33333333 2.33333333 3 2 C2.01 2.66 1.02 3.32 0 4 C0 2.68 0 1.36 0 0 Z " fill="#FF27C0" transform="translate(154,26)"></path>
<path d="M0 0 C3.96 0 7.92 0 12 0 C12 0.33 12 0.66 12 1 C7.545 1.495 7.545 1.495 3 2 C3 3.32 3 4.64 3 6 C2.34 6 1.68 6 1 6 C1 8.31 1 10.62 1 13 C0.67 13 0.34 13 0 13 C0 8.71 0 4.42 0 0 Z " fill="#FF16BF" transform="translate(425,0)"></path>
<path d="M0 0 C0.33 0 0.66 0 1 0 C1 5.61 1 11.22 1 17 C2.32 17.33 3.64 17.66 5 18 C3.35 18.99 1.7 19.98 0 21 C0 14.07 0 7.14 0 0 Z " fill="#DAD0F1" transform="translate(242,298)"></path>
<path d="M0 0 C1.32 0 2.64 0 4 0 C4 1.32 4 2.64 4 4 C3.01 4 2.02 4 1 4 C1 5.32 1 6.64 1 8 C3.97 8 6.94 8 10 8 C10 8.33 10 8.66 10 9 C6.37 9 2.74 9 -1 9 C-0.67 6.03 -0.34 3.06 0 0 Z " fill="#BC86F0" transform="translate(231,262)"></path>
<path d="M0 0 C2.475 0.495 2.475 0.495 5 1 C3.81323934 5.10801767 3.10551666 6.89448334 0 10 C0 6.7 0 3.4 0 0 Z " fill="#D9AAF5" transform="translate(276,188)"></path>
<path d="M0 0 C3.63 0 7.26 0 11 0 C10.67 0.99 10.34 1.98 10 3 C8.906875 2.95875 7.81375 2.9175 6.6875 2.875 C2.91107771 2.67925334 2.91107771 2.67925334 0 5 C0 3.35 0 1.7 0 0 Z " fill="#AE94EA" transform="translate(128,426)"></path>
<path d="M0 0 C2.31 0 4.62 0 7 0 C6.01 1.485 6.01 1.485 5 3 C2.37302936 3.22137393 -0.00893964 3.28162025 -2.625 3.1875 C-3.33140625 3.17396484 -4.0378125 3.16042969 -4.765625 3.14648438 C-6.51074128 3.1111104 -8.25546608 3.05730221 -10 3 C-10 2.67 -10 2.34 -10 2 C-6.7 2 -3.4 2 0 2 C0 1.34 0 0.68 0 0 Z " fill="#290060" transform="translate(30,233)"></path>
<path d="M0 0 C1.32 0 2.64 0 4 0 C3.5359375 1.485 3.5359375 1.485 3.0625 3 C1.91566793 6.97731122 1.43287644 10.88767379 1 15 C0.67 15 0.34 15 0 15 C0 10.05 0 5.1 0 0 Z " fill="#8C0091" transform="translate(196,0)"></path>
<path d="M0 0 C1.65919896 0.36871088 3.3247643 0.71281674 5 1 C5 1.33 5 1.66 5 2 C0.71 2 -3.58 2 -8 2 C-8.33 1.01 -8.66 0.02 -9 -1 C-5.32208248 -2.36219168 -3.50647987 -1.53943019 0 0 Z " fill="#56007C" transform="translate(182,88)"></path>
<path d="M0 0 C3.63 0 7.26 0 11 0 C11 0.66 11 1.32 11 2 C9.72125 2.12375 8.4425 2.2475 7.125 2.375 C3.65209064 2.69042399 3.65209064 2.69042399 1 5 C0.67 3.35 0.34 1.7 0 0 Z " fill="#9275E2" transform="translate(322,334)"></path>
<path d="M0 0 C3.3 0 6.6 0 10 0 C10 0.33 10 0.66 10 1 C8.2984375 1.2165625 8.2984375 1.2165625 6.5625 1.4375 C3.19222799 1.61171478 3.19222799 1.61171478 2 3 C1.76712992 4.68183948 1.58735834 6.3712416 1.4375 8.0625 C1.35371094 8.98160156 1.26992187 9.90070313 1.18359375 10.84765625 C1.12300781 11.55792969 1.06242187 12.26820312 1 13 C0.67 13 0.34 13 0 13 C0 8.71 0 4.42 0 0 Z " fill="#F1C0F4" transform="translate(81,92)"></path>
<path d="M0 0 C3.96 0 7.92 0 12 0 C12 0.33 12 0.66 12 1 C11.30132812 1.13277344 10.60265625 1.26554687 9.8828125 1.40234375 C8.97273437 1.57894531 8.06265625 1.75554687 7.125 1.9375 C6.22007812 2.11152344 5.31515625 2.28554688 4.3828125 2.46484375 C2.00043683 2.89963701 2.00043683 2.89963701 0 4 C0 2.68 0 1.36 0 0 Z " fill="#008FEB" transform="translate(141,385)"></path>
<path d="M0 0 C2.63033454 2.63033454 2.77962372 4.32706204 3 8 C2.01 9.32 1.02 10.64 0 12 C0 8.04 0 4.08 0 0 Z " fill="#A17DE3" transform="translate(459,309)"></path>
<path d="M0 0 C2.31 0.33 4.62 0.66 7 1 C7 1.99 7 2.98 7 4 C4.36 3.67 1.72 3.34 -1 3 C-0.67 2.01 -0.34 1.02 0 0 Z " fill="#55007A" transform="translate(75,87)"></path>
<path d="M0 0 C0.33 0 0.66 0 1 0 C1 4.29 1 8.58 1 13 C-0.32 12.67 -1.64 12.34 -3 12 C-2.34 11.34 -1.68 10.68 -1 10 C-0.53837573 7.56747339 -0.53837573 7.56747339 -0.375 4.875 C-0.30023438 3.96492188 -0.22546875 3.05484375 -0.1484375 2.1171875 C-0.09945313 1.41851562 -0.05046875 0.71984375 0 0 Z " fill="#FF15C2" transform="translate(275,13)"></path>
</svg>
