<svg id="Layer_1" data-name="Layer 1" xmlns="http://www.w3.org/2000/svg" viewBox="0 0 201.02 181.44"><defs><style>.cls-1 {
  fill: #000039;
}

.cls-2 {
  fill: #fff;
}

.cls-3 {
  fill: none;
}

.cls-4 {
  fill: #d5d5d5;
}

.cls-5 {
  fill: #d12027;
}

.cls-6 {
  fill: #0d1036;
}
</style></defs><path class="cls-1" d="M168,178.54a30.75,30.75,0,0,1-24.76-12.23c6.4-1.49,12.63-3.06,16.19-6.71a23.21,23.21,0,0,0,4.21-7.09v0a20.67,20.67,0,0,1,3.49-6h0l0,0h0c1.63-1.65,3.86-2.52,6.16-3.42h0a21.84,21.84,0,0,0,6.43-3.39c3.62-3.08,6-8.78,8.24-14.73l.29.26q9.15,8.24,10.08,21.45a30.62,30.62,0,0,1-7.88,21.87q-8.23,9.13-21.45,10.08ZM34.12,176.1c-.36,0-.72,0-1.08,0Q19.83,175,11.72,165.71a30.67,30.67,0,0,1-7.6-22q1.07-12.51,9.41-20.44c2.23,6.13,4.53,12.07,8.2,15.26A21.66,21.66,0,0,0,28.12,142h0c2.28.93,4.49,1.83,6.1,3.5h0l0,0h0a20.41,20.41,0,0,1,3.43,6.09h0a23.35,23.35,0,0,0,4.11,7.15c3.49,3.67,9.63,5.32,15.94,6.88h0A30,30,0,0,1,55,168.47a30.48,30.48,0,0,1-20.89,7.63ZM108.74,74.77l.53-.24h0Zm.61-.28.06,0h0Zm.06,0Zm0,0Zm.19-.09.05,0h0Zm.06,0h0Zm0,0h0l.1,0Zm.11,0,.06,0h0Zm.15-.08Zm0,0Zm0,0h0Zm0,0Zm0,0Zm0,0Zm0,0Zm0,0Zm0,0Zm0,0Zm0,0h0Zm0,0h0l0,0h0Zm.07,0Zm-2.15,1,0,0,0,0,0,0,.07,0h0l.25-.12-.18.08,0,0h0l0,0h0l.13-.06-.13.06.6-.29.83-.39.08,0h0l.13,0,.11-.06,0,0h0l.15-.07h0l0,0h0l0,0h0l.12-.06-.12.06h0l-.09,0,.09,0h0Zm2.15-1Zm0,0Zm0,0Zm0,0Zm0,0Zm0,0,.06,0,.07,0Zm0,0,.17-.08-.11,0Zm0,0,0,0,.2-.1-.08,0Zm-1.34.63h0l1-.48,0,0,.25-.12h0l.34-.16-.21.1.07,0h0l0,0,0,0-.1,0-.16.07.2-.09-.2.09h0l-.22.11,0,0-.11.06-.21.09,0,0,0,0,0,0h0l0,0,.25-.11Zm1.41-.66.35-.17h0Zm.35-.17.1,0Zm.1,0,.09,0-.08,0Zm.12,0Zm0,0h0Zm0,0Zm0,0h0Zm0,0Zm0,0h0Zm0,0Zm0,0Zm0,0Zm0,0h0Zm0,0h0Zm-.84.4.16-.08h0l.05,0-.05,0h0l.39-.18h0l.28-.13-.46.22.41-.2-.65.31h0l-.16.08Zm.91-.43Zm0,0Zm0,0Zm0,0Zm0,0Zm0,0Zm0,0Zm0,0Zm0,0Zm0,0,0,0h0Zm0,0Zm0,0Zm0,0Zm0,0Zm0,0Zm0,0Zm0,0Zm0,0Zm0,0Zm-.33.15.13-.06h0l.07,0-.13,0,.13-.06-.13.06.14-.06h0l0,0h.09l-.22.1.06,0h0l0,0-.06,0Zm.37-.17Zm0,0Zm-.37.17.37-.17.07,0-.07,0-.35.16h0Zm.3-.14h0l0,0,3-1.44-3.05,1.45h0l0,0h0Zm2.86-1.36,1-.46Zm1.25-.59h0Zm0,0h0Zm0,0h0Zm-4.08,1.94.47-.22-.47.22,2.79-1.33,1-.47h0l.35-.17h0l-.34.16.23-.11-4,1.91,3-1.43Zm4.15-2,0,0,0,0Zm0,0h0l.06,0Zm0,0,.08,0-.07,0Zm0,0,.1,0h0Zm.15-.07h0Zm-.23.11,0,0h0l0,0,.14-.07,0,0,0,0h0l0,0h0l.06,0h0l-.06,0,.07,0h0l-.13.06-.09,0,0,0Zm.24-.11Zm.18-.09.32-.15Zm-.17.08.49-.23-.47.23ZM100.43,78,86.69,71.27h0Zm16.8-7.24Zm0,0Zm.07,0ZM99.77,65.17h0Zm1.29,0Zm.19,0h0ZM13.84,55a30.71,30.71,0,0,1,0-41.15Q22.07,4.73,35.29,3.79c.36,0,.72,0,1.07,0a30.46,30.46,0,0,1,20.79,7.89c.47.42.92.86,1.36,1.31h0c-6.25,1.46-12.31,3-15.8,6.62a23.21,23.21,0,0,0-4.22,7.1v0a20.36,20.36,0,0,1-3.49,6l0,0h0c-1.62,1.64-3.85,2.51-6.15,3.41h0a21.74,21.74,0,0,0-6.45,3.4c-3.77,3.2-6.16,9.23-8.5,15.42Zm174.92,1.16c-2.26-6.22-4.57-12.28-8.3-15.52a21.79,21.79,0,0,0-6.39-3.48h0c-2.29-.92-4.51-1.83-6.12-3.5h0l0,0h0a20.46,20.46,0,0,1-3.42-6.08v0h0a23.42,23.42,0,0,0-4.11-7.14c-3.45-3.62-9.48-5.28-15.72-6.82a28.61,28.61,0,0,1,2.09-2,30.52,30.52,0,0,1,20.89-7.62l1.08,0Q181.92,5.08,190,14.32a30.66,30.66,0,0,1,7.6,22q-1,12.09-8.86,19.91ZM168,181.88h1.33q14.56-1.05,23.7-11.19h0a33.9,33.9,0,0,0,8.74-24.17c0-.06,0-.11,0-.17q-1-14.57-11.18-23.7h0a33.7,33.7,0,0,0-23-8.75h-1.33a34.45,34.45,0,0,0-19.25,7l2.36,2.4a31.53,31.53,0,0,1,17.12-6.1h1.08A30.46,30.46,0,0,1,187,124h0c-6,1.69-11.81,3.52-15.2,7a24,24,0,0,0-4.13,6.77v0h0a33.37,33.37,0,0,1-2.14,4.09L137.26,113.1l-5.09-23.28-.54,2.31,3.06,18.34-3.06-18.34,5.91-25.4,28.7-28.51a32.23,32.23,0,0,1,2.06,4.07v0h0a23.91,23.91,0,0,0,4,6.81c3.5,3.73,9.66,5.65,16,7.49h0c-.35.34-.7.66-1.07,1a30.4,30.4,0,0,1-20.89,7.62l-1.07,0a31.32,31.32,0,0,1-17.46-6.65l-2.39,2.37A34.37,34.37,0,0,0,165,68.53h.16c.39,0,.78,0,1.17,0a33.71,33.71,0,0,0,23.11-8.45h0q10.26-9,11.49-23.56c0-.05,0-.1,0-.16a33.86,33.86,0,0,0-8.42-24.28h0Q183.53,1.85,169,.62h-.16l-1.17,0A33.69,33.69,0,0,0,144.54,9h0a33.78,33.78,0,0,0-5.77,6.56l-.12.19-2,3.47-.11.19a34,34,0,0,0-2.91,8.64,1.57,1.57,0,0,0,0,.23l-.52,4.13c0,.1,0,.2,0,.3a34.18,34.18,0,0,0,4.69,19.16h0l2.69-2a31.05,31.05,0,0,1-4-17l.52-4.14a30.57,30.57,0,0,1,2.63-7.79l2-3.47a30.4,30.4,0,0,1,2.5-3.22c2.08,6.27,4.27,12.29,7.87,15.45a20.33,20.33,0,0,0,6.78,3.48h0a30.76,30.76,0,0,1,3.91,1.63L128.15,61q-3.34,1-6.4,1.74h0a151.45,151.45,0,0,1-20.49,2.39h0l1.3,0h0l-1.31,0h0a151.91,151.91,0,0,1-20.46-2.66h0q-3.06-.81-6.41-1.84h0L40.3,34.05h0a29.16,29.16,0,0,1,3.94-1.58h0a20.26,20.26,0,0,0,6.83-3.4c3.65-3.12,5.92-9.12,8.09-15.37a31,31,0,0,1,3.1,4l2,3.49A30.3,30.3,0,0,1,66.77,29l.46,4.14A31,31,0,0,1,63.05,50h0L65.71,52h0a34.3,34.3,0,0,0,4.87-19c0-.1,0-.2,0-.3l-.47-4.14,0-.24a34.25,34.25,0,0,0-2.8-8.67l-.1-.19-2-3.49-.12-.19A33.81,33.81,0,0,0,59.39,9.2h0a33.75,33.75,0,0,0-23-8.75H35.05q-14.56,1-23.7,11.18h0A33.89,33.89,0,0,0,2.6,35.82a.86.86,0,0,1,0,.16q1,14.57,11.18,23.7h0a33.69,33.69,0,0,0,23,8.74c.39,0,.78,0,1.17,0h.16A34.5,34.5,0,0,0,57.83,61h0l-2.36-2.4A31.41,31.41,0,0,1,37.9,65.08H36.82A30.42,30.42,0,0,1,16,57.19c-.6-.54-1.18-1.1-1.73-1.67h0c6.34-1.77,12.54-3.61,16.1-7.3a23.91,23.91,0,0,0,4.13-6.78h0l0,0a32.41,32.41,0,0,1,2.11-4L64.94,66.22l5.59,25.5L70,89.42l-5.36,23L35.92,141h0a31.24,31.24,0,0,1-2-4.05v0a23.87,23.87,0,0,0-4-6.82c-3.44-3.66-9.46-5.58-15.67-7.4h0l.33-.29a30.5,30.5,0,0,1,20.89-7.62l1.07,0a31.38,31.38,0,0,1,17.24,6.48h0l2.4-2.37h0a34.51,34.51,0,0,0-19.35-7.44h-.16l-1.17,0a33.7,33.7,0,0,0-23.11,8.44h0Q2,128.91.79,143.46c0,.06,0,.11,0,.17A33.82,33.82,0,0,0,9.2,167.9h0q9,10.28,23.55,11.49h.17l1.16,0A33.73,33.73,0,0,0,57.2,171h0A33.84,33.84,0,0,0,63,164.42a1.22,1.22,0,0,0,.12-.19l2-3.46.11-.19a34.22,34.22,0,0,0,2.91-8.64,1.85,1.85,0,0,0,0-.23l.52-4.14c0-.1,0-.2,0-.3a34.22,34.22,0,0,0-4.86-19.44l-2.68,2h0a31.09,31.09,0,0,1,4.2,17.29l-.52,4.13a30.64,30.64,0,0,1-2.63,7.8l-2,3.46a30.38,30.38,0,0,1-2,2.64h0c-2.11-6.35-4.31-12.45-7.94-15.64a20.18,20.18,0,0,0-6.78-3.49h0a29.46,29.46,0,0,1-3.88-1.61h0l34.53-26.23h0c2.21-.65,4.31-1.22,6.33-1.72h0a151.45,151.45,0,0,1,20.49-2.39,151.51,151.51,0,0,1,20.46,2.66h0c2.08.54,4.26,1.17,6.54,1.87h0l34,26.57a29.42,29.42,0,0,1-4,1.61h0a20,20,0,0,0-6.82,3.39c-3.7,3.16-6,9.3-8.19,15.66-.29-.4-.57-.8-.84-1.21l-2-3.5a30.35,30.35,0,0,1-2.53-7.82l-.46-4.15a31,31,0,0,1,4.78-17.8l-2.65-2.06a34.13,34.13,0,0,0-5.48,19.93c0,.1,0,.2,0,.3l.47,4.15,0,.23a34.07,34.07,0,0,0,2.81,8.68l.09.19,2,3.49.12.19a34.1,34.1,0,0,0,5.68,6.64h0a33.74,33.74,0,0,0,23,8.74Zm0,0" transform="translate(-0.76 -0.44)"></path><path class="cls-2" d="M101.39,107.48h0A17.62,17.62,0,0,0,119.12,90v0a17.26,17.26,0,0,0-.6-4.68l0-.1-.67-2a1,1,0,0,0,0-.1,17.32,17.32,0,0,0-2.26-3.92h0A17.57,17.57,0,0,0,104,72.43H104a22.76,22.76,0,0,0-2.31-.15,17.18,17.18,0,0,0-10.82,3.58h0a17.52,17.52,0,0,0-6.76,11.47c0,.05,0,.1,0,.15l-.16,2.17v.15a17.64,17.64,0,0,0,17.46,17.69Zm0,0" transform="translate(-0.76 -0.44)"></path><path class="cls-3" d="M101.4,105.87a18.72,18.72,0,0,0,4.71-.69h0L93.74,93.55l-2.1,8.92h0a16.24,16.24,0,0,0,9.76,3.4Zm0,0" transform="translate(-0.76 -0.44)"></path><path class="cls-3" d="M107.85,104.56A15.94,15.94,0,0,0,117.17,93L100.82,98l7,6.61Zm0,0" transform="translate(-0.76 -0.44)"></path><path class="cls-3" d="M108.17,94l9.26-2.79c0-.41.07-.84.08-1.26a16.15,16.15,0,0,0-.54-4.26l-.68-2a15.77,15.77,0,0,0-2.05-3.57A16.54,16.54,0,0,0,112,77.77Zm0,0" transform="translate(-0.76 -0.44)"></path><path class="cls-3" d="M90.25,101.24l3.77-16,1.81-.55-1.65,7,5.26,5,6.92-2.08,1.65-7L94.94,75.25A16.11,16.11,0,0,0,86,85.91h0l15.36-4.62,1.38,1.3-17.1,5.15-.15,2a16,16,0,0,0,4.61,11.34l.14.14Zm0,0" transform="translate(-0.76 -0.44)"></path><path class="cls-3" d="M108.44,85.69l2.13-9A16.6,16.6,0,0,0,103.78,74a19.7,19.7,0,0,0-2.14-.14,16.32,16.32,0,0,0-5,.72Zm0,0" transform="translate(-0.76 -0.44)"></path><path d="M96.29,89.73l0-.67a4.94,4.94,0,0,1,8.74-2.58,5.15,5.15,0,0,1,.67,1.08l.22.6a5.13,5.13,0,0,1,.22,1.31,4.94,4.94,0,1,1-9.88.26" transform="translate(-0.76 -0.44)"></path><path class="cls-4" d="M102.52,90.92l.18-.17a2,2,0,0,1,1.18-.56,1.07,1.07,0,0,1,1,.38,1.29,1.29,0,0,1,.17,1.1,2.3,2.3,0,0,1-.14.42l-.11.21a2.25,2.25,0,0,1-.3.39,2.16,2.16,0,0,1-1.16.71,1.15,1.15,0,0,1-1-.22,1.17,1.17,0,0,1-.33-1,2.32,2.32,0,0,1,.58-1.23" transform="translate(-0.76 -0.44)"></path><polygon class="cls-1" points="127.17 118.19 101.28 156.93 73.36 117.77 77.45 108.93 123.75 111.31 127.17 118.19"></polygon><rect class="cls-5" x="96.84" y="18.36" width="8.67" height="24.84"></rect><polygon class="cls-6" points="114.42 41.24 87.92 41.24 70.92 59.24 70.92 67.7 70.92 76.99 70.92 133.45 87.92 148.45 114.42 148.45 131.42 133.45 131.42 76.99 131.42 67.7 131.42 59.24 114.42 41.24"></polygon></svg>